<svg xmlns="http://www.w3.org/2000/svg" xmlns:xlink="http://www.w3.org/1999/xlink" xml:space="preserve" width="383.336px" height="543.391px" x="0px" y="0px" viewBox="0 0 383.336 543.391"><defs><path id="a" d="M98.676 89.324c-19.793 3.571-39.231 8.211-58.113 15.254-2.86 1.07-17.442 6.551-17.961 8.223-6.848 22.176-14.645 45.226-17.293 68.398-2.504 21.895-5.629 43.399-5.282 65.52.864 55.148 15.192 110.011 44.161 157.172 14.339 23.343 31.093 44.879 50.175 64.565 21.875 22.57 46.629 42.84 72.973 59.961 4.008 2.605 18.613 12.103 24.211 14.941.414.211 1.477-.754 1.922-.961 7.211-4.445 14.387-8.75 21.598-13.199 14.492-9.726 28.379-20.058 41.902-31.078 63.16-51.465 111.242-124.522 122.887-206.055 6.422-44.945 3.766-90.398-6.387-134.632-3.102-11.528-6.203-23.051-9.301-34.575-1.141-3.593-2.281-7.187-3.422-10.777l-19.199-7.922c-14.637-5.597-29.801-9.441-45.133-12.644-28.742-6.004-58.508-8.536-87.828-8.993a1138.43 1138.43 0 0 0-17.836-.148c-30.797.001-61.75 1.481-92.074 6.95"/></defs><use xlink:href="#a" fill="#662C8A" overflow="visible"/><g fill="#784895"><path d="M167.547 105.586v399.992l24 14.262 24-15.688V105.586c-4.16-1.25-10.879-1.664-17.992-1.664-14.219 0-30.008 1.664-30.008 1.664M70.586 123.844v285.922c5.281 12.086 48.961 57.515 48.961 57.515v-352.32c-7.68.523-48.961 8.883-48.961 8.883M264.027 474.238s43.641-43.531 47.992-54.184c.484.598.969-98.551.969-98.551V113.918l-48.012-9.996-.949 370.316z"/></g><path fill="#FFF" d="m123.148 463.441 3.84 3.84 33.84-24.48zM256.828 467.281l3.84-3.84-37.684-20.64zM110.188 434.642l57.121 4.082 5.039-4.082zM101.066 428.16l70.321 3.598 5.281-3.598zM212.426 434.642l5.039 4.082 57.121-4.082zM208.105 428.16l5.282 3.598 70.32-3.598zM175.949 434.642h32.156v3.12h-32.156zM178.348 428.16h27.598v2.641h-27.598z"/><path fill="#A28F62" d="M194.211 365.402c2.156 0 3.34-.059 3.336-.078-.031-.16 25.742-2.383 37.199-5.324 5.117-1.522 10.234-3.047 15.355-4.565 15.199-5.056 20.945-7.224 25.289-9.575 3.848-2.754 17.207-8.539 37.355-28.82 14.98-15.082 27.688-33.547 35.281-53.519 2.078-5.84 3.918-10.719 5.762-18-.039-.18 5.609-21.977 5.758-24.957.227-4.579.855 10.105.961 13.437.309 9.777.77 19.48.188 29.273-1.648 27.625-6.332 54.332-15.113 80.383-18.285 54.257-56.082 102.663-101.203 139.741-18.469 15.172-37.727 27.504-53.07 36.204-.172-.028-13.648-8.379-17.282-10.817-18.168-12.195-36.304-25.039-52.07-40.32-49.859-48.323-83.078-100.098-95.336-169.184-2.531-14.285-3.797-28.968-4.027-43.441.168-10 .07-20.719.234-30.719.828 3.914 1.922 8.543 2.75 12.457 1.172 8.992 7.883 24.945 7.883 24.945s13.875 34.641 39.766 59.079c1.031.972 5.394 4.125 6.441 5.058 40.488 36.055 99.91 38.742 114.535 38.742h.008m-2.598-267.093c-3.379 0-6.761.035-10.145.101-7.192.149-59.75 3.629-64.559 5.512-.562-.246-21.769 3.348-21.851 3.582-19.704 4.199-58.145 17.637-58.313 18.008v.008s-.004-.004 0-.008c-.062-.141-1.199-2.617-4.558 9.371-2.231 7.996-4.465 16-6.7 23.996-6.604 26.422-10.561 53.828-11.51 81.121-3.161 90.781 34.898 170.035 100.05 229.199 13.215 12 24.219 21.996 40.078 33.36 11.11 7.961 22.805 15.019 36.243 22.319 0 0 1.558 1.645 2.16.267.23.069 28.938-17.681 34.313-21.454 23.176-16.262 42.813-33.781 64.566-56.57 9.723-10.183 18.59-22.34 26.641-33.844 46.535-66.473 62.031-150.379 44.563-234.23-3.535-16.977-8.422-35.293-13.586-50.895-.984-2.968-13.063-7.3-18.031-9.066-18.152-6.461-36.68-10.91-55.664-13.969-27.625-4.441-55.574-6.808-83.68-6.808h-.017"/><path fill="#662C8A" d="m191.789 246.48-3.601-6.242-3.84 6.723-3.602-5.52-3.359 7.2s-2.961-4.321-3.121-4.321c-.477.879-3.356 7.68-3.356 7.68l-1.922-3.121-2.64 9.121s-.403 6.078-.481 6c-7.039-.16-6 3.602-6 3.602h5.762c-.32.957-1.441 17.997-1.441 17.997l-3.602-5.278-4.797 9.118.238 1.921-1.679.484.238-1.922-4.32-6.961-3.84 9.117.242 1.684-1.68.477.239-1.918-3.598-6.242-3.363 9.121v1.442l-1.438.718.481-1.441-2.641-6.479-2.879 8.64-.242 2.16-1.199.723.48-1.922-2.16-5.762-2.641 9.121v2.161l-.961.722.481-2.402s-1.442-3.961-1.442-4.078c-1.796 4.078-2.636 13.199-2.636 13.199l-.961 7.199-2.403 19.442-1.917-3.36-3.122 10.797-.238 3.602-1.199.238.476-3.117-3.117-7.68-3.84 12-.242 2.641-1.199.719.481-3.359-2.161-6c-1.121 2-3.601 15.84-3.601 15.84s-.879 7.681-.957 7.681c-.563 1.358-2.403 14.64-2.403 14.64l-4.558-10.563-5.281 12.48-.243 2.399-2.156.241.481-1.918-4.082-10.082-4.801 12.72-.238 1.921-2.399.719.477-1.679-2.161-9.841-5.039 13.441 20.161 29.762 211.921.72c3.359-2.582 17.039-24.481 17.039-24.481l1.441-2.641 2.398-3.839-4.32-12.962-2.398 9.598.238 1.684-1.918-.723-.242-1.918-5.039-12.718-3.84 9.836.238 2.401-1.68-.48-.48-2.16-5.277-12.48s-4.5 10.38-4.563 10.32c-.117-2.578-3.301-21.479-3.359-21.601.719-2.817-3.121-15.36-3.121-15.36l-1.918 5.043.48 3.84-2.16-.961v-3.117l-3.84-11.523-2.16 7.68.48 3.359-1.922-.719-.238-2.879-3.602-11.762-1.68 2.883-2.641-19.441s-.719-6.66-.719-6.723c0-.539-1.438-7.68-1.438-7.68l-1.203-5.519.238 1.202-.957 3.359V306l-1.199-1.199v-2.159l-2.16-8.161h-.48l-1.441 4.32v2.398l-1.68-.719.238-1.68-3.121-8.879-1.918 5.758v2.16l-1.918-.957.238-1.684-3.121-8.64-3.598 5.761.238 2.16-1.918-.719.238-1.684-3.84-8.156-3.84 5.758v2.398l-1.918-.719v-1.68l-4.32-8.398-3.84 4.797-1.44-18.719s4.917.243 5.28 0c.72-4.199-5.762-3.359-5.762-3.359s-.359-6-.48-6.242c-.121-1.559-2.398-8.879-2.398-8.879l-1.922 3.363-3.359-7.922-3.121 4.321-3.359-7.2-3.598 5.52-3.602-6.723-4.075 6.244z"/><path fill="#FFF" d="M69.148 398.879c.602 1.56 13.438 19.922 13.438 19.922s4.199-24.961 3.84-25.198c-10.918 1.557-17.278 5.276-17.278 5.276"/><g fill="#FFF"><path d="M155.789 391.922c-3.723-.362-3.121 3.359-3.121 3.359-.477 4.371 1.684 4.153 2.664 3.93.254-.059.43-.117.457-.09 4.078.481 2.758-2.883 2.879-2.883.598-3.855-1.129-4.406-2.164-4.406-.414 0-.715.09-.715.09M110.43 396.48c-1.563 5.277.597 5.398.718 5.277 2.758.48 3.84-1.198 3.84-1.198l.239-4.321c.242-1.797-1.2-1.797-1.2-1.918a5.793 5.793 0 0 0-.828-.059c-2.769.001-2.769 2.219-2.769 2.219M201.148 386.883l.48 26.879-19.922-.241s.242-24.165.238-24.243c-33.84 9.286-39.359 34.082-39.359 34.082l155.043.243c.168.386 16.809-23.997 16.559-24.724-26.222-11.944-113.039-11.996-113.039-11.996zm2.161 32.398h-22.321v-2.883h22.321v2.883zm27.359-20.639c0 .038-.479.679-1.199.718.012.016-.305.02-.73.02-.852 0-2.152-.02-2.152-.02s-1.52-.039-1.68-1.199c-.039 0 0-4.801 0-4.801s.238-1.359 1.68-1.438h1.922s1.961.078 2.16 1.438c.038.081.558 3.282-.001 5.282zm42.238 3.116h-2.398s-2.238 0-2.16-2.879v-3.598s.48-1.121 1.68-.961h1.441s1.32.078 1.438 1.68c-.04 0 .64 4.68-.001 5.758z"/></g><g fill="#FFF"><path d="m139.273 353.738-2.539.504c-.308.063-.578.41-.601.781l-.215 3.082c-.027.415.215.723.539.684l2.711-.328c.359-.047.664-.44.672-.875l.039-3.262c.008-.347-.211-.594-.5-.594-.035 0-.07.004-.106.008M120.711 358.121l-2.465.603c-.32.073-.605.405-.633.745l-.226 2.802c-.032.378.226.608.574.515l2.652-.726c.332-.091.602-.457.606-.821l.039-2.672c.004-.273-.172-.461-.418-.461-.043-.001-.086.007-.129.015"/><path d="m159.148 369.603-2.164-4.325L149.547 378v1.918h-5.281l.242-1.918-6.242-12-6.719 12.961-.238 2.16-4.801.238v-1.918l-5.762-11.281-6.957 12.719-.242 1.922-2.399.238 3.36-28.078s-16.403 5.599-17.281 14.879c0-.078-2.161 13.199-2.161 13.199l-4.558-10.078s-4 8.32-5.281 12.478c-.079 0-.481 1.921-.481 1.921l-1.68.239.243-1.919-4.082-10.32-4.801 13.2-.238 1.679-2.161.723.239-1.922-2.161-9.121-4.558 13.203 1.922 3.117s13.437-5.039 20.398-5.52c0 0 4.563-1.68 9.121-1.918.481 0 37.438-5.52 50.641-4.801 0 0 17.519-1.922 24-.961.238 0 65.277-3.598 124.797 7.68 0 .242 13.922 2.563 19.203 5.52 0 .48 2.637-3.597 2.637-3.597l-4.559-12.962-2.641 9.598.48 1.684-2.16-.961-.238-2.401-4.801-12.239-4.32 10.563.48 1.677-1.922-.239-.238-2.398-5.281-12.48-4.559 10.559-1.68-12.479s-1.199-6.961-6.48-9.36c0-.129-6.074-4.793-18.953-8.582-.289-.086-.594-.113-.895-.172-12.461-2.425-28.277-6.605-51.672-6.605.031.035-.695-.043-2.008-.121a76.213 76.213 0 0 0-4.382-.125c-11.374-.005-34.738 2.565-43.289 24.004"/></g><g fill="#FFF"><path d="m170.668 300.961-.082 8.961 2.644-.473.317-8.488zM162.508 302.16l-.082 8.961 2.644-.473.317-8.726zM155.492 303.734l-.504 8.586 2.297-.605.504-8.594zM148.348 305.039c-.481 1.521-.719 9.121-.719 9.121l3.359-.961s.481-9.039.481-9.121c-.473-1.316-.934-1.781-1.356-1.781-1.008 0-1.765 2.687-1.765 2.742M141.867 307.199l-.719 8.879 2.157-.719.722-8.64zM136.348 309.359l-.719 8.879 1.918-.717.719-8.879z"/><path d="m282.266 345.359-2.16 5.523.484 3.598-1.441-.719-.238-3.363-3.844-11.277-3.121 7.68.48 3.117-1.199-.477-.238-3.121-3.602-11.281-1.68 2.883-2.398-18.961s-2.879-10.563-14.164-15.358c0 0-12.238-4.923-18.956-6 0-.122-13.442-3.243-23.278-3.603-.07 0-2.371-.156-4.844-.156-1.859 0-3.816.086-5 .395-.121-.117-11.438 2.563-14.636 6.48v8.16h-2.403v-6.237s-9.961 8.28-12 26.397c-.121.121.481-14.156.481-14.156s.121-1.922-.961-1.684c-.121 0-1.563-.719-1.442 2.641-.121 0-.957 18-.957 18l-.96 2.16-.243 2.879-2.64.242.242-3.121-5.281-9.84-5.758 11.039-.242 3.36-2.161.479.243-3.359-5.52-9.84-5.762 11.52v3.359l-2.398.723.238-3.602-4.078-8.879s-.121-9.301 2.16-8.401c.239 0 1.918-18.957 1.918-18.957s-2.097.644-4.82 2.694c-8.391 6.309-9.535 9.422-10.777 21.781l-.961 10.32-2.16-3.117s-3 10.559-3.122 11.52l-.238 2.641-1.199.238.476-3.12-3.117-7.438-3.84 11.762-.242 2.879-1.199.719.481-3.598-2.161-6.004s-3.839 14.402-3.359 16.56c0 0 12.84-20.278 91.199-20.161-.015.027.844.02 2.41.008 12.773-.086 72.73-.168 93.109 19.672-.078-.562-.719-5.516-.719-5.516l-2.402-10.083zm-92.399-14.879.238-6.48s.364-2.52 1.684-3.358c0-.121 1.559 1.558 1.918 2.64 0 .117.242 7.199.242 7.199h-4.082zm4.082-21.838h-4.32V300s2-4.723 4.32-.479v9.121zm9.84.479-2.402-.242-.238-8.398h2.641v8.64zm6.719.478-.242-8.399 2.641.242.242 8.398-2.641-.241zm5.519 18.961-.48-13.438v-1.441s1.918-1.801 2.16 1.68l.719 17.523-2.399-4.324zm2.641-18-.479-8.399 2.64.238.48 8.402-2.641-.241zm7.918 1.44-.48-8.641 1.922.48.48 8.398-1.922-.237zm5.762-7.922s.238-1.515 1.199-1.68c.082 0 1.68.883 1.68 2.883.078.078.719 8.641.719 8.641l-3.117-.723-.481-9.121zm5.281 29.762-.961 1.922-2.16-.48-.48-7.922s.539-1.5 1.438-1.675c.063-.063 1.441 1.257 1.684 2.394.276.081.655 5.851.479 5.761zm2.641-18.481-.723-8.641 2.398.723.48 8.398-2.155-.48zm5.996 1.918-.957-8.398 1.918.72.723 8.401-1.684-.723zm5.281 16.563-.961-9.121s-.719-4.918 1.922-.961c0 .125.719 6.966.719 6.966l-1.68 3.116z"/></g><g fill="#FFF"><path d="m185.066 256.078-.238 6h2.399l-.239-6.238zM179.547 257.039v6l1.922-.476.238-6.004z"/><path d="m259.68 298.691-1.203 4.355.238 2.181-.723-.489v-1.934l-2.895-9.191-1.926 5.321.242 1.937-1.207-.484v-1.938l-3.137-9.191-2.168 6.052v2.175l-1.445-.727v-1.691l-3.137-9.191-3.617 6.285v2.18l-1.445-.727v-1.691l-3.859-8.711-4.098 6.531.242 1.696-1.688-.243-.242-1.938-4.34-8.948-3.617 5.323-1.445-17.898s5.305-.164 5.305-.242c.48-4.031-5.789-3.629-5.789-3.629s-.238-2.82-.238-2.902c-3.859-10.16-21.219-10.402-21.219-10.402l-3.617 3.144.969 1.211v6.289h-3.617v-2.902c-2.977 4.109-4.824 19.835-4.824 19.835l-5.305 7.977-.238 1.696-1.93.241v-1.938l-4.582-7.734-1.93 2.898 1.688-27.089c-5.465 2.175-6.75 6.773-6.75 6.773l-.481 2.902c-6.39-.543-6.027 3.629-6.027 3.629l5.785.242-1.445 17.898-3.617-5.323-4.582 8.948v2.181l-1.688.241v-1.938l-4.098-6.769-3.859 8.948v1.934l-1.203.243v-1.696l-3.617-6.289-3.133 8.469-.242 2.176-1.207.484v-1.933l-2.41-5.806-2.895 8.707v2.176l-1.445.727.242-2.422-1.93-5.078-2.652 8.707v2.418l-.723.489v-2.664l-1.207-4.353-.238.238-2.414 12.094s-.242 1.938.242 1.453c4.582-9.918 19.77-14.269 19.77-14.269 27.726-10.161 56.898-7.985 56.898-7.985 59.313 3.145 64.375 22.738 64.375 22.738.242-4.673-2.652-13.787-2.652-13.787zm-60.93-36.851h-1.922v-5.762h1.922v5.762zm3.598.48-.242-5.761 1.684.242.477 6-1.919-.481zm4.8 1.442-.238-6.004 1.676.48.242 6-1.68-.476zm5.04 2.398-.481-6.961s.563-2.398 1.441.481c.078.082.48 7.199.48 7.199l-1.44-.719z"/></g><path fill="#FFF" d="m192.027 246.238-4.083-6.476-3.597 6.957-3.602-6-3.359 7.679-3.36-4.796-3.117 8.16s-1.805-3.481-1.922-3.364c-1.8 3.602-2.402 9.84-2.402 9.84 5.641-10.316 25.18-9.84 25.18-9.84 21.336.243 25.461 9.602 25.461 9.602 0-1.559-2.398-9.84-2.398-9.84l-1.922 3.602-3.359-8.16-2.879 4.796-3.602-7.438-3.598 5.519-3.602-6.96-3.839 6.719zM100.133 168.117a797.831 797.831 0 0 0 0 43.918h28.797c.394-2.613.394-6.746 0-9.359h-18.477v-34.559c-.973.004-2.328-.008-3.762-.015a615.127 615.127 0 0 0-3.742-.016c-1.164 0-2.172.008-2.816.031M188.898 168.105c-1.734.028-3.585.051-5.246.012-.402 14.082-.398 29.836 0 43.918h10.321a807.85 807.85 0 0 0 0-43.918 37.084 37.084 0 0 0-2.004-.043c-.922 0-1.969.016-3.071.031M206.996 167.934c-2.625 0-6.656.359-7.266.421a790.437 790.437 0 0 0 0 43.442c1.75.34 3.887.293 6.027.242 1.301-.027 2.602-.059 3.813-.004.559-8.238.082-17.519.243-26.156 6.831 8.523 13.034 17.68 19.917 26.156h9.359c.563-14.16.082-29.355.242-43.918-3.023-.051-7.012-.125-10.082 0-.16 8.559.32 17.762-.238 25.918-4.508-5.512-9.852-13.226-14.641-19.68-1.199-1.613-3.582-5.558-5.281-6.238-.332-.133-1.102-.183-2.07-.183h-.023M254.211 168.355c-.402 14.004-.397 29.68 0 43.68h10.32c.555-5.363.082-11.758.238-17.519h18.242c.375-2.52.41-6.606 0-9.118-2.762-.359-5.941-.3-9.117-.242-3.184.059-6.359.117-9.125-.242.148-2.488-.301-5.582.242-7.68 2.645-.011 5.887 0 9.16.012 4.289.016 8.625.031 11.719-.012v-9.117c-3.18-.097-7.324-.051-11.77-.008-6.426.067-13.484.129-19.191-.23-.281.113-.542.254-.718.476M171.41 170.996c-3.039-2.371-7.105-3.418-11.195-3.418h-.008c-5.848 0-11.742 2.137-14.715 5.578-6.804 7.871-3.613 23.75-4.32 38.641 1.894.344 4.183.293 6.469.242 1.394-.027 2.785-.059 4.089-.004.543-3.777.094-8.547.243-12.719 1.886.063 3.867.032 5.847-.003 3.223-.051 6.446-.102 9.274.242.144 4.097-.305 8.785.238 12.48h10.316c-.039-16.203 2.993-33.832-6.238-41.039zm-4.344 19.082s-6.718.11-11.199.11c-2.238 0-3.922-.028-3.922-.11-.476-1.68-.238-4.68-.238-5.039 1.359-8.062 7.199-7.992 8.586-7.922.203.008.309.02.293.004 8.519.602 6.48 12.957 6.48 12.957zM89.57 172.676c-2.812-3.016-7.683-5.36-13.652-5.36-.637 0-1.285.024-1.949.082-9.235.774-15.5 7.063-16.317 15.84-.832 8.903.414 18.809.239 28.797 1.273-.055 2.632-.023 3.992.004 2.242.051 4.48.102 6.328-.242.703-3.617-.227-8.867.48-12.481 1.856.063 3.809.032 5.758-.003 3.176-.051 6.348-.102 9.121.242.157 4.086-.312 8.793.243 12.48h10.32c-.27-15.113 2.867-31.394-4.563-39.359zm-6.023 17.402s-6.746.027-11.227.027c-2.238 0-3.91-.003-3.894-.027-1.258-7.558 1.922-10.019 1.922-10.078 4.078-5.402 9.84-1.68 9.84-1.68 4.257 1.981 3.359 11.758 3.359 11.758zM310.129 167.398c-11.98.879-20.957 8.801-21.836 20.399-1.242 16.359 9.637 26.16 26.16 24.961 4.504-.328 8.133-1.145 11.758-3.602-1.391-2.929-2.422-6.215-4.32-8.64-3.051 1.422-5.969 2.765-10.078 2.64-16.422-.488-15.527-25.211-.723-26.16 4.668-.301 6.805 1.238 10.801 2.399 1.289-3.028 2.832-5.805 4.078-8.879-3.852-1.856-8.035-3.211-13.383-3.211-.789 0-1.609.031-2.457.093M283.547 146.391c-2.516 1.144-.512 4.754 1.68 4.082 1.66-.508 1.539-4.34-.621-4.34-.313 0-.665.082-1.059.258"/><path fill="#FFF" d="M277.789 148.07c0 3.668 6.301 1.93 3.598-1.679-.496-.328-.988-.465-1.441-.465a2.165 2.165 0 0 0-2.157 2.144M220.934 140.266c-.066 1.39.898 2.781 3.336 1.804.586-.605.621-2.23.238-3.117-.668-.582-1.27-.816-1.777-.816-1.079 0-1.743 1.062-1.797 2.129M216.305 140.129c.102 1.129.973 2.262 2.203 2.184 2.203-.137 2.422-3.2.719-4.321a4.935 4.935 0 0 0-.688-.054c-1.715 0-2.336 1.093-2.234 2.191M59.629 143.992c2.148.903 3.691-.531 4.316-1.922-2.824-1.261-1.3-8.355 2.403-7.918 3.215.379 3.257 7.789.961 9.602-1.543 1.215-4.418.644-6.243 2.156-2.421 2.016-1.82 6.258-1.918 9.363 1.391.11 2.161-.402 3.36-.484.109-1.969-.246-4.402.238-5.996 1.109-1.227 2.625-.688 4.082-1.199 2.992-1.059 5.664-4.86 6-7.922.352-3.227-.883-7.238-4.32-7.918a6.427 6.427 0 0 0-1.274-.125c-5.382 0-10.218 6.562-7.605 12.363M296.988 131.992c2.82 3.34 6.992 5.328 8.641 9.84-3.879-.519-7.57-1.23-11.52-1.68v3.36c5.113.332 13.441 3.937 14.398-1.68.891-5.215-8.914-9.879-10.082-12.961-.265 1.254-1.234 1.805-1.437 3.121M324.984 127.063c-.344 0-.719.113-1.117.371-2.191 1.421.281 4.644 2.16 4.078 1.922-.578.981-4.449-1.043-4.449M311.387 124.793v.719c1.199 6.031-2.477 17.535 2.16 20.64 2.004 1.344 10.602 3.114 12.48.961 2.398-2.754-.305-9.664.719-14.16-1.246-.031-2.109-.449-3.359-.48-.305 3.855.621 8.937-.48 12-2.395.054-6.449-.254-7.918-1.918-.559-5.285-.086-11.602-.242-17.282-1.02-.195-1.945-.484-3.16-.484-.067 0-.134 0-.2.004M280.668 137.273c2.598.278 5.508.25 7.441 1.2-.805 1.972-2.172 3.472-4.082 3.84-7.074 1.351-9.266-6.454-8.398-13.918-.977-.309-2.117-.446-3.363-.485-1.285 10.078 3.379 18.082 12.242 17.281 5.051-.453 7.242-4.207 7.68-9.839-2.652-.465-5.629-.614-8.16-1.2.109-5.047 1.813-9.664 7.68-8.16-.109-1.094-.617-1.785-.961-2.64a14.275 14.275 0 0 0-1.73-.11c-7.458 0-8.158 6.762-8.349 14.031M138.996 122.48a9.11 9.11 0 0 0-1.609.153c-5.532.992-9.469 10.082-4.559 14.64 2.258 2.094 5.543 1.93 7.438 1.2 7.148-2.758 7.105-15.993-1.27-15.993zm2.789 8.172c-.183 2.953-1.574 5.903-3.859 5.903h-.059c-4.66-.11-4.789-11.051 0-11.762 2.93-.438 4.11 2.711 3.918 5.859zM95.281 121.668c-.043 0-.09.004-.133.004-3.089.176-2.527 4.387-.242 4.32 2.164-.062 2.922-4.324.375-4.324"/><path fill="#FFF" d="M97.785 125.031c2.512.856 3.488-.625 3.602-1.679.176-1.657-.547-2.286-1.446-2.286-1.671 0-3.949 2.176-2.156 3.965M201.926 119.594c-1.551 0-3.156 1.273-1.418 3.519.758.332 2.121.332 2.879 0 1.367-2.425-.02-3.519-1.457-3.519h-.004"/><path fill="#FFF" d="M117.227 118.793c-.934.262-2.235.164-3.118.48-.414 5.829.864 13.344-.722 18-3.305.11-8.082 2.176-10.078 0 1.453-5.015-.313-10.433-4.801-10.8-3.008-.246-6.656 1.781-6.481 5.281.203 4.074 4.969 3.937 7.442 6.238-2.02 2.219-6.696 1.785-10.321 2.399-.375-6.426-6.824-6.778-10.082-10.321-.101 1.5-1.066 2.133-1.199 3.602 2.727 2.551 7.145 3.414 8.641 7.199-3.914.649-7.918 1.203-11.762 1.922v3.359c6.356-1.246 15.934-2.285 23.039-3.359 1.25-.188 3.317-2.629 4.082-2.641.43-.007 1.621 1.309 2.399 1.442 2.562.426 6.91-.149 9.121-.723 6.847-1.773 3.363-12.894 3.84-22.078zm-21.84 12.48c-.106-1.535.777-2.277 1.679-2.402 2.715-.379 3.086 3.606 3.364 6-2.035-.867-4.887-1.394-5.043-3.598zM261.945 118.555c-.422 6.375-.363 15.515 0 21.117 1.102.101 2.035.363 3.363.238v-21.355c-.551-.133-1.82-.34-2.645-.34-.53 0-.878.09-.718.34M123.586 118.203c-.535.106-1.066.207-1.797.11v21.597c1.184-.172 2.594-.125 3.598-.476-.16-7.043.316-14.719-.239-21.364a6.07 6.07 0 0 0-.347-.011c-.457 0-.836.074-1.215.144M253.309 135.352c-4.793-.497-8.148-.082-12.242-.719-5.512-.856-4.922-10.703.242-10.563 1.387.039 2.426 1.942 3.117 1.442-.094-1.137.43-1.653.242-2.879-8.129-3.828-13.5 5.301-10.082 11.519-1.43-.339-3.109-.3-4.742-.261-3.105.074-6.039.148-6.777-2.379-.703-2.41.516-5.461 0-8.879h-3.359c-.152 3.367.309 7.347-.238 10.32-2.129.867-6.449.578-7.199-1.441.07-2.653-.109-5.711 0-7.68-.746-.383-2.855-.383-3.602 0 1.055 8.602-.707 18.211-8.641 15.602-4.906-1.618-4.727-8.664-4.559-15.84h-3.363c-1.167 10.793 1.805 20.125 11.762 18.719 4.063-.575 6.086-3.665 7.922-6.961 2.145 2.003 8.68 1.964 10.797 0 3.543 2.812 10.184 2.019 16.801 2.402 5.34.309 9.75 1.586 13.922 1.199 7.141-.664 2.938-13.859 4.078-21.121-.852-.43-2.508-.051-3.359-.48-.412 5.828.866 13.343-.72 18M136.285 117.133c-1.394 0-2.957 1.355-2.258 3.34 1.477 2.043 4.426.468 4.078-1.68-.183-1.164-.968-1.66-1.816-1.66h-.004M138.563 118.988c-.083 1.125.503 2.246 1.945 2.203 1.562-.043 2.406-1.836 1.68-3.839-.602-.403-1.145-.571-1.614-.571-1.203 0-1.929 1.106-2.011 2.207M181.547 114.953c-.156 5.844.316 12.317-.238 17.762-1.536.555-3.809.515-6.207.473-1.125-.016-2.278-.036-3.395.003-1.855-3.101-2.914-7.007-6.238-8.64 2.48-3.278 5.488-6.028 7.918-9.36h-4.078c-2.606 4.594-8.75 6.93-7.204 14.879.196-1.484 1.036-2.328 1.684-3.359 1.914 1.684 2.996 4.203 4.078 6.723-1.664-.207-3.554-.02-5.418.171-3.258.329-6.445.661-8.261-1.132v-9.36c-.418.039-.895.02-1.372-.004-.859-.035-1.722-.074-2.23.243v17.039c-1.176 2.113-3.539.32-4.797.242.981.937.926 2.91 2.156 3.601 4.739.098 6.438-2.843 6.243-7.679 3.222 1.261 6.82.445 11.519.238 2.207-.098 4.398-.063 6.508-.027 2.945.05 5.723.101 8.133-.211 8.031-1.047 3.691-13.145 4.8-21.602h-3.601z"/><path fill="#A28F62" d="M183.148 23.52h-25.441l20.402 15.359-7.441 22.801L191.066 48l20.161 14.641-7.68-23.762 20.641-15.117h-25.442L190.586 0z"/></svg>