<svg version="1.2" xmlns="http://www.w3.org/2000/svg" viewBox="35 0 150 249" width="150" height="249">
	<title>Al_Ahly_SC_logo_23</title>
	<defs>
		<linearGradient id="g1" x2="1" gradientUnits="userSpaceOnUse" gradientTransform="matrix(0,215.27,-167.175,0,110.064,-2.867)">
			<stop offset=".142" stop-color="#805500"/>
			<stop offset=".22" stop-color="#a87f28"/>
			<stop offset=".297" stop-color="#c9a149"/>
			<stop offset=".36" stop-color="#deb65d"/>
			<stop offset=".402" stop-color="#e5be64"/>
			<stop offset=".454" stop-color="#e4bb60"/>
			<stop offset=".682" stop-color="#dfb254"/>
			<stop offset=".743" stop-color="#a27820"/>
			<stop offset=".775" stop-color="#875e08"/>
			<stop offset=".793" stop-color="#8c630d"/>
			<stop offset=".816" stop-color="#9b721a"/>
			<stop offset=".842" stop-color="#b4892f"/>
			<stop offset=".868" stop-color="#d7ab4d"/>
			<stop offset=".874" stop-color="#dfb254"/>
			<stop offset="1" stop-color="#dfb254"/>
		</linearGradient>
		<linearGradient id="g2" x2="1" gradientUnits="userSpaceOnUse" gradientTransform="matrix(200.942,-2.85,2.487,175.343,33.613,127.158)">
			<stop offset=".142" stop-color="#805500"/>
			<stop offset=".22" stop-color="#a87f28"/>
			<stop offset=".297" stop-color="#c9a149"/>
			<stop offset=".36" stop-color="#deb65d"/>
			<stop offset=".402" stop-color="#e5be64"/>
			<stop offset=".482" stop-color="#f6d67a"/>
			<stop offset=".541" stop-color="#ffe286"/>
			<stop offset=".608" stop-color="#fee084"/>
			<stop offset=".636" stop-color="#f9d97d"/>
			<stop offset=".657" stop-color="#f1cd70"/>
			<stop offset=".674" stop-color="#e6bc5f"/>
			<stop offset=".682" stop-color="#dfb254"/>
			<stop offset=".743" stop-color="#a27820"/>
			<stop offset=".775" stop-color="#875e08"/>
			<stop offset=".793" stop-color="#8c630d"/>
			<stop offset=".816" stop-color="#9b721a"/>
			<stop offset=".842" stop-color="#b4892f"/>
			<stop offset=".868" stop-color="#d7ab4d"/>
			<stop offset=".874" stop-color="#dfb254"/>
			<stop offset="1" stop-color="#dfb254"/>
		</linearGradient>
		<linearGradient id="g3" x2="1" gradientUnits="userSpaceOnUse" gradientTransform="matrix(228.324,.458,-0.438,217.944,-1.396,12.017)">
			<stop offset=".142" stop-color="#805500"/>
			<stop offset=".22" stop-color="#a87f28"/>
			<stop offset=".297" stop-color="#c9a149"/>
			<stop offset=".36" stop-color="#deb65d"/>
			<stop offset=".402" stop-color="#e5be64"/>
			<stop offset=".454" stop-color="#e4bb60"/>
			<stop offset=".682" stop-color="#dfb254"/>
			<stop offset=".743" stop-color="#a27820"/>
			<stop offset=".775" stop-color="#875e08"/>
			<stop offset=".793" stop-color="#8c630d"/>
			<stop offset=".816" stop-color="#9b721a"/>
			<stop offset=".842" stop-color="#b4892f"/>
			<stop offset=".868" stop-color="#d7ab4d"/>
			<stop offset=".874" stop-color="#dfb254"/>
			<stop offset="1" stop-color="#dfb254"/>
		</linearGradient>
		<linearGradient id="g4" x2="1" gradientUnits="userSpaceOnUse" gradientTransform="matrix(228.324,.458,-0.438,217.944,-1.396,11.111)">
			<stop offset=".142" stop-color="#805500"/>
			<stop offset=".22" stop-color="#a87f28"/>
			<stop offset=".297" stop-color="#c9a149"/>
			<stop offset=".36" stop-color="#deb65d"/>
			<stop offset=".402" stop-color="#e5be64"/>
			<stop offset=".454" stop-color="#e4bb60"/>
			<stop offset=".682" stop-color="#dfb254"/>
			<stop offset=".743" stop-color="#a27820"/>
			<stop offset=".775" stop-color="#875e08"/>
			<stop offset=".793" stop-color="#8c630d"/>
			<stop offset=".816" stop-color="#9b721a"/>
			<stop offset=".842" stop-color="#b4892f"/>
			<stop offset=".868" stop-color="#d7ab4d"/>
			<stop offset=".874" stop-color="#dfb254"/>
			<stop offset="1" stop-color="#dfb254"/>
		</linearGradient>
		<linearGradient id="g5" x2="1" gradientUnits="userSpaceOnUse" gradientTransform="matrix(228.324,.458,-0.438,217.944,-1.396,11.054)">
			<stop offset=".142" stop-color="#805500"/>
			<stop offset=".22" stop-color="#a87f28"/>
			<stop offset=".297" stop-color="#c9a149"/>
			<stop offset=".36" stop-color="#deb65d"/>
			<stop offset=".402" stop-color="#e5be64"/>
			<stop offset=".454" stop-color="#e4bb60"/>
			<stop offset=".682" stop-color="#dfb254"/>
			<stop offset=".743" stop-color="#a27820"/>
			<stop offset=".775" stop-color="#875e08"/>
			<stop offset=".793" stop-color="#8c630d"/>
			<stop offset=".816" stop-color="#9b721a"/>
			<stop offset=".842" stop-color="#b4892f"/>
			<stop offset=".868" stop-color="#d7ab4d"/>
			<stop offset=".874" stop-color="#dfb254"/>
			<stop offset="1" stop-color="#dfb254"/>
		</linearGradient>
		<linearGradient id="g6" x2="1" gradientUnits="userSpaceOnUse" gradientTransform="matrix(228.324,.458,-0.438,217.944,-1.396,11.847)">
			<stop offset=".142" stop-color="#805500"/>
			<stop offset=".22" stop-color="#a87f28"/>
			<stop offset=".297" stop-color="#c9a149"/>
			<stop offset=".36" stop-color="#deb65d"/>
			<stop offset=".402" stop-color="#e5be64"/>
			<stop offset=".454" stop-color="#e4bb60"/>
			<stop offset=".682" stop-color="#dfb254"/>
			<stop offset=".743" stop-color="#a27820"/>
			<stop offset=".775" stop-color="#875e08"/>
			<stop offset=".793" stop-color="#8c630d"/>
			<stop offset=".816" stop-color="#9b721a"/>
			<stop offset=".842" stop-color="#b4892f"/>
			<stop offset=".868" stop-color="#d7ab4d"/>
			<stop offset=".874" stop-color="#dfb254"/>
			<stop offset="1" stop-color="#dfb254"/>
		</linearGradient>
		<linearGradient id="g7" x2="1" gradientUnits="userSpaceOnUse" gradientTransform="matrix(239.822,.482,-0.46,228.846,-51.446,236.48)">
			<stop offset=".142" stop-color="#805500"/>
			<stop offset=".22" stop-color="#a87f28"/>
			<stop offset=".297" stop-color="#c9a149"/>
			<stop offset=".36" stop-color="#deb65d"/>
			<stop offset=".402" stop-color="#e5be64"/>
			<stop offset=".454" stop-color="#e4bb60"/>
			<stop offset=".682" stop-color="#dfb254"/>
			<stop offset=".743" stop-color="#a27820"/>
			<stop offset=".775" stop-color="#875e08"/>
			<stop offset=".793" stop-color="#8c630d"/>
			<stop offset=".816" stop-color="#9b721a"/>
			<stop offset=".842" stop-color="#b4892f"/>
			<stop offset=".868" stop-color="#d7ab4d"/>
			<stop offset=".874" stop-color="#dfb254"/>
			<stop offset="1" stop-color="#dfb254"/>
		</linearGradient>
	</defs>
	<style>
		.s0 { fill: #272525 } 
		.s1 { fill: url(#g1) } 
		.s2 { fill: #d5001a } 
		.s3 { fill: none } 
		.s4 { fill: #ffffff } 
		.s5 { opacity: .63;fill: #b4221a } 
		.s6 { fill: url(#g2) } 
		.s7 { fill: url(#g3) } 
		.s8 { fill: url(#g4) } 
		.s9 { fill: url(#g5) } 
		.s10 { fill: url(#g6) } 
		.s11 { fill: url(#g7) } 
	</style>
	<g id="g152">
		<g id="g2">
			<g id="g1">
			</g>
		</g>
		<path id="path2" fill-rule="evenodd" class="s0" d="m35.8 118.3c0 48.6 12.9 80 74.2 103.9 61.3-23.8 74.2-55.3 74.2-103.9l0.6-31.6v-49.5c-49.4-10.2-100.2-10.2-149.6 0v49.5c0.1 0 0.4 14.2 0.6 31.6z"/>
		<path id="path16" fill-rule="evenodd" class="s1" d="m39.7 118.7c0 46 12.3 75.7 70.3 98.3 58-22.6 70.3-52.3 70.3-98.3l0.6-29.9v-46.9c-46.7-9.6-94.9-9.6-141.7 0v46.9z"/>
		<path id="path17" class="s2" d="m177.4 45.4c-44.4-9.2-90.3-9.2-134.7 0v44.7l0.4 28.6c0 43.9 11.7 72.4 66.9 93.9 55.2-21.6 66.9-50 66.9-93.9v-16.9c0.3-3.9 0.5-7.7 0.5-11.7z"/>
		<g id="g25">
			<path id="path18" class="s3" d="m161.6 42.5c-31.2 12.4-71.6 26-118.9 36.1v7c53.5-11.5 98.2-27.4 130.4-41.1-3.8-0.8-7.6-1.4-11.5-2z"/>
			<path id="path19" class="s3" d="m42.7 45.4v29.1c43.7-9.2 81.4-21.5 111.5-33.1-37-5-74.7-3.7-111.5 4z"/>
			<path id="path20" class="s3" d="m177.4 66.3c-31.9 14.1-78.1 31.3-134.4 43.7l0.2 8.7q0 5.6 0.2 10.8l134-40.8z"/>
			<path id="path21" class="s3" d="m176.9 129.2l-124.9 37.9c3.8 8 9.2 15.1 16.5 21.7l103.6-31.4c2.9-8.6 4.3-17.9 4.8-28.2z"/>
			<path id="path22" class="s4" d="m177.2 118.7c0 0 0.2-24.6 0.2-28.6v-1.4l-134 40.8c0.7 14.2 3.2 26.6 8.6 37.6l124.9-37.9c0.2-3.4 0.3-6.9 0.3-10.5z"/>
			<path id="path23" class="s5" d="m172.2 157.4l-103.6 31.4c9.9 8.9 23.3 16.7 41.4 23.8 37-14.4 54.6-32 62.2-55.2z"/>
			<path id="path24" class="s5" d="m177.4 45.4c-1.4-0.3-2.8-0.6-4.3-0.9-32.2 13.6-76.9 29.6-130.4 41.1v4.5l0.3 19.9c56.3-12.5 102.4-29.7 134.4-43.7v-20.9z"/>
			<path id="path25" class="s5" d="m154.2 41.4c-30.1 11.6-67.8 23.9-111.5 33.1v4.1c47.3-10.1 87.7-23.7 118.9-36.2-2.5-0.3-4.9-0.7-7.4-1z"/>
		</g>
		<g id="g36">
			<g id="g26">
				<path id="path26" class="s4" d="m137.2 53.6c-1-2.7-4-6.6-4.5-7.3-0.6-0.7-0.8 0-0.8 0.4 0 0.4 0 1.8 0.1 2.5 0 0.7 0.9 6.9 1 8.1 0.1 1.2 0.5 2.4 1.1 2.3 0.6 0 0-2.7-0.3-3.8-0.3-1-0.7-5-0.7-5 0 0 0.4 0.3 1 1.1 1.5 2 2.9 5.5 3.5 8.2 0.6 2.7-0.5 7.3-2.9 8.8-2.4 1.6-4.2-0.7-4.2-0.7 0-0.3 0.5-1 0.9-4.7 0.5-3.7-2.3-8-2.7-8.8-0.3-0.8-0.6-0.6-0.7-0.3 0 0.2-0.1 1-0.9 5.5-1.1 6.2 0.8 8.3 0.8 8.3-2.3 2.7-4.2 0.5-4.3 0.5 0 0 0.1-0.3 0.8-3.4 0.8-3.7-1-6.8-1.4-8.1-0.5-1.4-0.8-2.4-1.1-2.4-0.5 0-0.4 1.4-0.8 2.6-0.3 1.3-0.9 2.9-1.3 6-0.5 3 1.2 5.4 1.2 5.4-0.8 1.1-3.1 2.2-4.4 2.1-6.3-0.8-4.8-7.4-4.8-7.4 1.4-0.9 4-4.1 4-4.1 2.6-0.3 6.2-4.8 3.8-10.2-2.4-5.5-6.8-5.4-8-4.8-4.2 2-1.4 9-0.9 9.8 0.5 0.8 0.4-0.7 0.3-1.1-0.8-2.6-0.6-4.4-0.1-4.9 2.6-2.4 6.6 1 7 1.5 0.5 0.6 1.5 2 1.1 3.3-0.4 1.3-1.7 2.2-1.7 2.2 0-2.6-1.3-3.6-2.3-3.5-1.1 0.2-1.7 1.7-1.8 3.9 0 2.3 0.7 2.9 0.7 2.9-3.4 3.7-7.1 4.6-10.8 4-6.8-1.2-6.6-10.1-6.6-10.1-0.2-4.3-0.6-6.7-0.9-7.3-0.2-0.6-0.5-0.6-0.6-0.3-0.2 0.2-0.7 1.3-0.9 1.9-0.2 0.6-0.2 0.8-0.2 0.8 0.5 1.1 0.5 2.8 0.9 4.2 0.2 1.3-0.3 2.6-0.7 3.4-0.5 0.8-2.4 2.8-2.8 3.5-0.5 0.7-1 1.4-1.2 3.7-0.3 2.4 1.4 2.9 2.8 3.2 1.5 0.3 1.5 1 1.7 1.7 0.2 0.7-1.9 3.9-5.8 3.8-4.2-0.3-5.3-2.8-5.8-4.4-1.2-4.2 1-7.7 1.4-8.4 0.4-0.7 3.1-6.3 3.3-6.8 0.2-0.5 0.5-1.5 0.5-1.8 0-0.2 0.4-2.6 0.4-2.9 0-0.3-0.1-0.4-0.2-0.2-0.2 0.3-0.7 2.2-0.8 3.4-0.3 1.2-2.1 4.6-2.6 5.7-1.1 1.8-3.7 7.2-3.6 9.8 0.1 8.2 5.9 8.8 7.8 8.8 4.6-0.1 6.7-4.9 6.9-7.7 0.2-2.8-0.8-3.8-2.8-4.2-2.1-0.5-2-1.4-2-1.4 0.3-0.3 1.8-2.2 2-2.6 0.3-0.4 1.4-2.4 1.6-2.7 0.2-0.4 0.3-0.4 0.3-0.4 0.5 9.5 7.2 11 10.8 10.7 3-0.3 5.2-1.8 5.2-1.8-0.9 4.5 1.9 7.5 3.5 8.4 5.2 3 7.9-1.7 7.9-1.7 4.7 4.4 6.8-0.5 6.8-0.5 1.7 1.8 3.6 2.4 4.4 2.3 3.3-0.4 4.5-5.9 4.7-7.5 0.8-6-0.6-9.6-1.3-11.5zm-6.9 10c-0.2 1.8-1.2 3-1.2 3 0 0-0.2 0.1-1-2.1-0.8-2.2-0.1-4.3 0-5.7 0.1-1.1 0.4-0.5 0.8 0.4 0.3 0.7 0.8 1.6 0.9 1.9 0.4 0.7 0.7 0.8 0.5 2.5zm-8.1 3.7c-1.3-1.9-1.4-3.4-1.5-4.2-0.1-0.8 0.5-3 0.8-4 0.2-1 0.4-0.1 0.4-0.1 0 0 1.5 2.9 1.6 4 0.4 2.2-1.3 4.3-1.3 4.3zm-7.3-12.7c1.2-0.1 1.3 0.7 1.3 0.8-0.1 0.2-0.2 0.9-1.1 0.8-1.4-0.2-1.3-1.6-0.2-1.6zm11-6c-0.2-1-0.6-0.9-1.1-0.8-1.1 0.3-1.4 0-1.4-0.1 0.2-0.9 1.2-1.2 1.4-1.2 0.3 0.1 0.5-0.1 0.5-0.1 0 0 0.1 0.1 0.2-0.5 0.2-0.6-0.1-0.7-0.3-0.7-0.1 0-0.3 0-1.1 0.5-0.9 0.5-1.5 1.8-1.4 2.8 0.1 0.9 1.4 0.8 2.1 0.6 0.8-0.2 0.3 0.8 0 1-0.5 0.7-2.2 1.7-2.5 1.9-0.3 0.2-0.6 0.3-0.6 0.3 0.9-0.1 1.5-0.5 2.2-0.7 0.9-0.4 2.2-2 2-3z"/>
			</g>
			<g id="g35">
				<g id="g34">
					<path id="path27" class="s4" d="m91 78.6h1.5l1.2 6.3h-1.2l-0.3-1.4h-1l-0.2 1.4h-1.2zm1.1 4.2l-0.4-2.6-0.4 2.6z"/>
					<path id="path28" class="s4" d="m95 78.6h1.3v5.5h1.5v0.8h-2.8z"/>
					<path id="path29" class="s4" d="m102.7 78.6h1.4l1.2 6.3h-1.2l-0.2-1.4h-1l-0.3 1.4h-1.2zm1.1 4.2l-0.3-2.6-0.4 2.6z"/>
					<path id="path30" class="s4" d="m106.7 78.6h1.3v2.6h1.1v-2.6h1.2v6.3h-1.2v-2.8h-1.1v2.8h-1.3z"/>
					<path id="path31" class="s4" d="m112 78.6h1.3v5.5h1.5v0.8h-2.8z"/>
					<path id="path32" class="s4" d="m116.4 82.4l-1.2-3.8h1.2l0.7 2.2 0.6-2.2h1.2l-1.2 3.8v2.5h-1.2v-2.5z"/>
					<path id="path33" class="s4" d="m122.8 78.6h2.6v0.9h-1.4v1.7h1.2v0.9h-1.2v2.8h-1.2z"/>
					<path id="path34" class="s4" d="m127.1 84.5q-0.4-0.5-0.4-1.6v-2.2c0-0.7 0.1-1.2 0.4-1.6q0.4-0.5 1.4-0.5 1 0 1.4 0.4 0.4 0.5 0.4 1.4v0.5h-1.2v-0.6c0-0.2 0-0.3-0.1-0.4 0-0.1 0-0.3-0.1-0.3-0.1-0.1-0.2-0.1-0.4-0.1-0.2 0-0.4 0.1-0.5 0.2 0 0.2 0 0.4 0 0.7v2.8q0 0.5 0.1 0.7 0.1 0.2 0.4 0.2 0.3 0 0.4-0.2c0.1-0.2 0.1-0.4 0.1-0.7v-0.6h1.2v0.5q0 0.9-0.4 1.4-0.4 0.5-1.3 0.5c-0.6 0-1.1-0.2-1.4-0.5z"/>
				</g>
			</g>
		</g>
		<g id="g52">
			<g id="g51">
				<path id="path36" class="s4" d="m72.8 184.3c-0.2-0.3-0.3-0.8-0.3-1.4v-2.1c0-0.6 0.1-1.1 0.3-1.4 0.3-0.3 0.7-0.5 1.3-0.5q0.9 0 1.3 0.4 0.3 0.4 0.3 1.3v0.5h-1.1v-0.6q0-0.3-0.1-0.4 0-0.1-0.1-0.3c-0.1 0-0.2-0.1-0.3-0.1q-0.4 0.1-0.4 0.3c-0.1 0.1-0.1 0.3-0.1 0.6v2.6c0 0.3 0 0.4 0.1 0.6 0.1 0.1 0.2 0.2 0.4 0.2 0.2 0 0.3-0.1 0.4-0.2 0-0.2 0-0.3 0-0.6v-0.6h1.2v0.5c0 0.5-0.1 1-0.4 1.3q-0.3 0.5-1.2 0.4-0.8 0-1.3-0.5z"/>
				<path id="path37" class="s4" d="m77.1 179h1.2v4.9h1.3v0.8h-2.5z"/>
				<path id="path38" class="s4" d="m81.4 184.6c-0.2-0.1-0.4-0.4-0.5-0.6q-0.2-0.5-0.2-1.1v-3.9h1.2v4.1c0 0.3 0 0.5 0.1 0.6q0.1 0.3 0.4 0.3 0.3 0 0.4-0.3c0.1-0.1 0.1-0.3 0.1-0.6v-4.1h1.2v3.9q0 0.6-0.2 1.1c-0.1 0.2-0.3 0.5-0.5 0.6-0.2 0.2-0.6 0.2-1 0.2-0.4 0-0.7 0-1-0.2z"/>
				<path id="path39" class="s4" d="m85.5 179h1.5c0.6 0 1 0.1 1.3 0.3 0.3 0.2 0.4 0.6 0.4 1.2q0 0.5-0.2 0.8c-0.1 0.2-0.4 0.3-0.6 0.4q0.5 0 0.8 0.4 0.2 0.3 0.2 0.9c0 1.2-0.5 1.8-1.7 1.8h-1.7v-5.8zm1.5 2.3c0.2 0 0.4 0 0.6-0.2q0.1-0.2 0.1-0.6 0-0.4-0.2-0.5c-0.1-0.1-0.3-0.2-0.6-0.2h-0.3v1.5zm0.1 2.6c0.3 0 0.5-0.1 0.6-0.2q0.2-0.2 0.2-0.7c0-0.3-0.1-0.5-0.2-0.7-0.2-0.2-0.3-0.3-0.6-0.3h-0.3v1.9h0.3z"/>
				<path id="path40" class="s4" d="m93 184.3q-0.4-0.4-0.4-1.4v-2.1q0-1 0.4-1.5c0.3-0.3 0.7-0.4 1.4-0.4 0.6 0 1 0.1 1.2 0.4q0.5 0.5 0.5 1.5v2.1c0 0.6-0.2 1.1-0.5 1.4-0.2 0.4-0.6 0.5-1.2 0.5-0.7 0-1.1-0.1-1.4-0.5zm1.8-0.5q0-0.2 0.1-0.6v-2.7q-0.1-0.3-0.1-0.5c-0.1-0.2-0.2-0.2-0.4-0.2q-0.3 0-0.5 0.2c-0.1 0.1-0.1 0.3-0.1 0.5v2.7q0.1 0.4 0.1 0.6 0.1 0.2 0.5 0.2c0.1 0 0.3-0.1 0.4-0.2z"/>
				<path id="path41" class="s4" d="m97.5 179h2.4v0.8h-1.3v1.5h1.1v0.9h-1.1v2.6h-1.1z"/>
				<path id="path42" class="s4" d="m104.1 179.8h-0.8v-0.8h2.9v0.8h-0.9v5h-1.2z"/>
				<path id="path43" class="s4" d="m107.4 179h1.2v2.3h1v-2.3h1.2v5.8h-1.2v-2.6h-1v2.6h-1.2z"/>
				<path id="path44" class="s4" d="m112.3 179h2.5v0.8h-1.4v1.5h1.1v0.8h-1.1v1.8h1.4v0.8h-2.5z"/>
				<path id="path45" class="s4" d="m118.8 184.3c-0.3-0.3-0.4-0.8-0.4-1.4v-2.1c0-0.6 0.1-1.1 0.4-1.4 0.2-0.3 0.6-0.5 1.2-0.5q0.9 0 1.3 0.4 0.3 0.4 0.4 1.3v0.5h-1.2v-0.6q0-0.3 0-0.4 0-0.1-0.2-0.3c-0.1 0-0.2-0.1-0.3-0.1q-0.3 0.1-0.4 0.3c-0.1 0.1-0.1 0.3-0.1 0.6v2.6c0 0.3 0 0.4 0.1 0.6 0.1 0.1 0.2 0.2 0.4 0.2 0.2 0 0.3-0.1 0.4-0.2 0-0.2 0.1-0.3 0.1-0.6v-0.6h1.1v0.5c0 0.5-0.1 1-0.4 1.3q-0.3 0.5-1.2 0.4-0.8 0-1.2-0.5z"/>
				<path id="path46" class="s4" d="m123.1 179h2.5v0.8h-1.3v1.5h1v0.8h-1v1.8h1.4v0.8h-2.6z"/>
				<path id="path47" class="s4" d="m126.8 179h0.9l1.3 2.9v-2.9h0.9v5.8h-0.8l-1.2-3.3v3.3h-1.1z"/>
				<path id="path48" class="s4" d="m132 179.8h-0.9v-0.8h3v0.8h-0.9v5h-1.2z"/>
				<path id="path49" class="s4" d="m135.8 184.6c-0.2-0.1-0.4-0.4-0.5-0.6q-0.1-0.5-0.1-1.1v-3.9h1.1v4.1c0 0.3 0.1 0.5 0.1 0.6q0.1 0.3 0.4 0.3 0.4 0 0.4-0.3c0.1-0.1 0.1-0.3 0.1-0.6v-4.1h1.2v3.9q0 0.6-0.2 1.1c-0.1 0.2-0.2 0.5-0.5 0.6-0.2 0.2-0.6 0.2-1 0.2-0.4 0-0.8 0-1-0.2z"/>
				<path id="path50" class="s4" d="m139.9 179h1.6c0.6 0 1.1 0.1 1.4 0.3 0.3 0.2 0.4 0.6 0.4 1.2q0 0.5-0.1 0.9-0.1 0.4-0.5 0.5l0.7 2.8h-1.2l-0.6-2.6h-0.4v2.6h-1.2v-5.7zm1.6 2.4c0.3 0 0.5 0 0.6-0.1 0.1-0.2 0.2-0.4 0.2-0.7q0-0.4-0.2-0.6-0.1-0.2-0.5-0.2h-0.4v1.6z"/>
				<path id="path51" class="s4" d="m145.4 182.5l-1.1-3.5h1.1l0.6 2 0.6-2h1l-1.1 3.5v2.3h-1.1v-2.3z"/>
			</g>
		</g>
		<g id="g56">
			<g id="g55">
				<path id="path52" class="s4" d="m98.5 190.8c-0.1 0-0.2 0.1-0.4 0.1q-0.3 0.1-0.4 0.1c-0.4 0.2-0.6 0.2-0.7 0.3v-1.4c0.3-0.2 0.7-0.3 1-0.6 0.4-0.2 0.7-0.4 0.9-0.6h1.5v10.1h-1.9z"/>
				<path id="path53" class="s4" d="m104 198.4q-0.6-0.7-0.6-2v-0.1h1.8q0 0.7 0.1 1 0.1 0.2 0.6 0.2c0.2 0 0.4 0 0.4-0.2 0.1-0.1 0.2-0.3 0.3-0.6q0-0.4 0-1.2v-1q-0.1 0.3-0.5 0.4-0.3 0.1-0.8 0.1-1.1 0-1.6-0.8c-0.3-0.5-0.5-1.3-0.5-2.1 0-2.3 0.9-3.4 2.7-3.4 0.9 0 1.6 0.2 2 0.8 0.5 0.6 0.7 1.4 0.7 2.4v3.7c0 1.1-0.2 1.9-0.6 2.5-0.5 0.6-1.1 0.9-2.2 0.9-0.8 0-1.5-0.2-1.8-0.6zm2.7-5.3v-1.6c0-0.5-0.1-0.8-0.2-1.1-0.1-0.2-0.3-0.3-0.6-0.3-0.3 0-0.5 0.1-0.6 0.4q-0.1 0.4-0.1 1.3c0 0.4 0 0.8 0 1q0.1 0.3 0.2 0.5c0.1 0.2 0.3 0.3 0.5 0.3 0.3 0 0.6-0.2 0.8-0.5z"/>
				<path id="path54" class="s4" d="m111.8 198.3c-0.5-0.5-0.7-1.3-0.7-2.2v-4.5q0-1.3 0.7-2.1c0.4-0.5 1.1-0.8 2-0.8 0.9 0 1.6 0.3 2 0.8q0.7 0.8 0.7 2.1v4.5q0 1.3-0.7 2.2c-0.4 0.5-1.1 0.7-2 0.7q-1.3 0-2-0.7zm2.7-2.2v-4.5q0-0.5-0.1-0.9c-0.1-0.2-0.3-0.3-0.6-0.3-0.3 0-0.5 0.1-0.6 0.3q-0.1 0.4-0.1 0.9v4.5q-0.1 1.2 0.7 1.2 0.7 0 0.7-1.2z"/>
				<path id="path55" class="s4" d="m121.2 190.3h-2.7v-1.5h4.6v1.2l-2.1 8.9h-1.9z"/>
			</g>
		</g>
		<g id="g76">
			<path id="path75" class="s6" d="m110.9 174.8c-0.2 0-0.3 0-0.3 0-0.8-0.1-1.5-0.6-1.7-1.4-0.1-0.5 0-1 0.3-1.4-0.1 0-0.3 0-0.4 0-0.4 0-0.9 0.2-1.5 0.5-0.7 0.4-1.7 0.3-2.2-0.4-0.2-0.2-0.9-1.1-0.8-2.3 0-0.6 0.3-1.1 0.6-1.6-2.2-1.6-4-4.8-2.4-11.1-2.7 1.8-7.1 4.2-11.6 5.3-0.2 0-0.4 0-0.6 0-0.3 0-6.7-0.8-11.3-7.2-0.3-0.4-0.4-1-0.2-1.6q0.1-0.1 0.2-0.2c-0.7-0.1-1.3-0.5-1.6-1.2 0-0.1-1.1-3-0.6-6.5 0.2-0.8 0.8-1.4 1.6-1.5-0.4-0.5-0.6-1-0.8-1.3-0.7-2.3 0.9-4.3 1.1-4.6 0.3-0.3 0.6-0.5 1-0.6-3.9-1.7-7.3-3.7-8.8-5.8-0.4-0.6-0.5-1.3-0.2-1.9 0.1-0.1 0.1-0.2 0.2-0.3-3-1.1-5.8-3-7.4-6.4-0.3-0.7-0.2-1.4 0.2-1.9 0.2-0.2 0.4-0.4 0.6-0.5-2.2-1.7-4-4.1-4.6-7.4 0-0.4 0-0.7 0.1-1l-0.3-4.7c-0.8-1.9-1.2-3.9-1.1-6.1 0-0.5 0.2-1 0.6-1.3l-0.1-1.3 1.4-7.3q0.4-1.9 1.3-3.6c0.3-0.6 0.9-0.9 1.5-0.9 0.6-0.1 1.2 0.2 1.5 0.7 0 0.1 0.7 0.9 1.7 2.3-0.3-1.4-0.5-2.7-0.4-4.1 0.2-3.9 3.3-7.5 3.4-7.6 0.4-0.5 1-0.7 1.6-0.6 0.6 0.1 1.1 0.5 1.4 1 0 0.1 2.4 5.8 5.6 11.3-0.1-3.3 0.6-7 3.9-9.6 0.5-0.4 1.2-0.5 1.8-0.2 0.6 0.2 1 0.7 1.1 1.3 0 0.1 1.2 7.4 5.1 15.8 2.2 4.8 7.1 13.8 15.1 20.3 2.9 2.4 5.6 4 7.9 5.4h0.1c-0.7-3.2-1.4-9.1 0.9-13.8 0.3-0.5 0.9-0.9 1.5-1 0.5 0 0.9 0.2 1.3 0.5 0.2-2.9 1.1-6.8 3.7-10.5 0.4-0.6 1.2-0.9 2-0.7 0.2 0 0.4 0.2 0.6 0.3 0.8-3 2.5-6.1 6.1-8.3 0.6-0.4 1.4-0.4 1.9 0 0.4 0.3 0.6 0.7 0.7 1.1 1.7-2.9 4.4-5.7 8.6-6.9 0.7-0.3 1.4 0 1.9 0.5q0.4 0.5 0.4 1.1c2.8-2.7 6.1-4.5 10-5.4 0.7-0.1 1.5 0.2 1.9 0.9 0.4 0.6 0.3 1.4-0.2 2 0 0-0.1 0.1-0.2 0.4 3.5-2.8 7.4-4.7 11.8-4.7 0.8 0 1.6 0.1 2.4 0.2 0.7 0.1 1.2 0.6 1.4 1.3 0.2 0.6 0 1.4-0.5 1.8-0.1 0.1-3.5 3.1-7 6.5-0.8 0.9-1.6 1.7-2.4 2.6q0.7-0.1 1.3-0.1 2 0 3.8 0.6c0.6 0.3 1.1 0.9 1.2 1.5 0 0.7-0.3 1.4-0.9 1.7-0.1 0.1-9.8 5.7-18.9 16.3-1.8 2-4.2 5.9-6.6 9.8-2.8 4.5-4.8 7.7-6.4 9.6 4.5 0.5 7 1.4 8.2 2.8 0.4 0.1 0.8 0.3 1.3 0.7 0.9 0.7 1.5 1.8 1.4 2.9-0.1 1.4-1.1 2.7-2.8 3.8-0.5 0.3-1.2 0.3-1.7 0.1q-0.6-0.3-0.8-0.9c-1.7 0.8-6 2.7-10.1 5.5-3.4 2.3-7.8 6.1-11.4 10.3q0.2 0.3 0.2 0.7c0 0.3 0.1 1.4 0.7 1.6 2 0.9 5.7 2.6 4.5 5.5-0.7 1.7-2.2 2.3-3.4 2.3q-0.3 0-0.3 0c-0.7-0.1-1.2-0.5-1.4-1.1-0.1-0.1-0.1-0.2-0.1-0.3-0.3 0.4-0.7 0.7-1.2 0.9-0.1 0-0.4 0-0.9 0-1.4 0-2.4-0.6-3.1-1.6-0.3 0.8-0.5 1.5-0.6 2.2 1.6 1 4.2 2.8 4.1 5.3-0.3 2.1-2.1 3.5-4.9 3.5zm-29.3-36.4c2 2.1 7 3.8 8.8 4.3 0.6 0.2 1 0.6 1.2 1.2 2.4-0.3 5-0.8 7.3-1.7-1.6-0.1-3.4-0.2-5.3-0.6-3.8-0.6-8.2-1.7-12-3.2z"/>
			<path id="path76" class="s0" d="m142.4 101.1c2.7-9.9 10.4-19.1 10.4-19.1-14.8 3.4-16.6 20.3-16.6 20.3-0.8-6.5 4.4-16.5 4.4-16.5-10.8 3.3-10.4 18-10.4 18-2-7-0.5-12.4-0.5-12.4-7.5 4.6-5.5 14.7-5.5 14.7-2.3-2.2-2.5-6.5-2.5-6.5-4.6 6.3-3.3 13.5-3.3 13.5-1.7-0.7-3-2.8-3-2.8-3 6.1-0.3 14.9-0.3 14.9 6.9 5.1 3.5 9.7 3.5 9.7 1.6-7.8-5.4-8-14.9-15.6-7.1-5.8-12.3-13.8-15.6-21-4-8.7-5.3-16.2-5.3-16.2-6 4.8-1.8 14.7-1.8 14.7l-0.5 0.6c-5.2-6.2-10-17.7-10-17.7 0 0-2.8 3.2-2.9 6.6-0.5 8 9.4 16.5 9.4 16.5-0.1 0.3-0.2 1.3-0.2 1.3-5.3-3.7-13.7-15.1-13.7-15.1-6.2 11.5 13.1 21.2 13.1 21.2l0.1 1.2c-7.4-2.3-16.2-9.6-16.2-9.6-0.4 13 16.5 15.3 16.5 15.3l0.1 1.1c-5.8-0.7-15.3-5.1-15.3-5.1 1.8 10.2 16.5 10.2 16.5 10.2l0.1 0.8c-2.9 0.9-13.1-1.6-13.1-1.6 3.6 7.8 15.3 6.7 15.3 6.7l0.5 0.6c-2.2 1.2-8.5 0.9-8.5 0.9 2.8 3.8 12.7 7.8 21.6 9.2 6.4 1 11.5 0.6 11.5 0.6-7.8 7.3-26.8 5.4-26.8 5.4-0.4 3.1 0.5 5.7 0.5 5.7 3 0.2 10.8-0.8 10.8-0.8-1.7 0.9-9.3 3.4-9.3 3.4 4.2 5.8 10 6.4 10 6.4 6-1.4 12.1-5.5 13.2-6.6 1.2-1 1.9-0.4 1.9-0.4-4.7 11.5 0.6 13.3 1.3 13.7 0.8 0.5 1 1.2 1 1.2 0 0-0.4-0.2-1.4 0.6-1 0.8-0.1 1.9-0.1 1.9 2.7-1.7 4.4-0.3 4.8 0.5 0.5 0.8-0.5 1.5-0.5 1.5 0 0 3 0.2 3.1-1.8 0.1-2.3-4.2-4.1-4.2-4.1 0.5-8.6 11.7-18.8 17.9-23 5.1-3.5 10.5-5.7 11-6 1.5-0.8 1.8 1.1 1.8 1.1 2.7-1.6 2-3.1 1.2-3.8-0.7-0.5-1.4-0.5-1.4-0.5-0.3-1.3-3.1-2.1-7.2-2.6-4.1-0.5-10.7-1.9-10.7-1.9 2.1 0.5 8.2 0.1 8.2 0.1 2.8-1.2 10.1-15.6 14.3-20.5 9.5-10.9 19.4-16.6 19.4-16.6-6.2-2.2-12 3-12 3 0 0 4.4-4.8 8.7-9.1 3.6-3.5 7-6.6 7-6.6-14.2-2.3-25.4 20.4-25.4 20.4zm-49.8 19.2c-10.4 1.6-10.7-4.9-10.7-4.9 3.5 3.4 10.7 4.9 10.7 4.9zm-0.6-3.3c-13.1-2.2-10-8.4-10-8.4 2.7 5 10 8.4 10 8.4zm-0.1-3.9c-13.7-6.3-8.7-12.5-8.7-12.5 2.7 7.7 8.7 12.5 8.7 12.5zm23.8 50.5c0 0-1-2.4 1.6-1.6 2.7 0.7 1.7 2.1 1.7 2.1 0 0 1.3 0.1 1.9-1.2 0.5-1.3-1.8-2.3-3.6-3.2-1.8-0.7-1.8-3.2-1.8-3.2-1.3 0.7-0.9 3.8-0.9 3.8 0 0-1.3 1.1-1.2 1.7 0.3 2 2.3 1.6 2.3 1.6zm19-29.5c0.7 0.1 1.5 0.2 2.1 0.4 0.2 0 0.3 0.1 0.4 0.1 0.1 0.1 0.9 0.4 0.8 0.5 0 0.1-0.2 0.1-0.2 0-0.4-0.1-1.2 0.4-1.4 0.7h-0.1c0 0 0-0.1 0-0.1-0.3-0.6-0.9-1.2-1.5-1.4-0.1 0-0.1-0.1-0.1-0.1 0 0 0-0.1 0-0.1zm-8 4.7c-1 0.4-2.2 1.5-2.8 2.2-0.1 0.1-0.1 0.1-0.1 0-0.1 0-0.1 0-0.1 0 0.3-0.6 0.3-1.3-0.1-1.8-0.2-0.3-0.4-0.5-0.7-0.6 0 0 0-0.1 0-0.1 0-0.1 0-0.1 0.1-0.1 1 0.5 2.5 0.7 3.6 0.3 0 0 0.1 0 0.1 0 0.1 0 0.1 0.1 0 0.1zm-3.7-4.3c-0.1 0.1-0.2 0.1-0.3 0.2-0.1 0-0.1 0-0.1-0.1q0-0.1 0-0.1c0.1-0.1 0.2-0.1 0.3-0.2 0.8-0.7 0.4-1.8 0-2.6 0 0 0-0.1 0-0.1 0.1 0 0.1 0 0.1 0.1 0.7 0.9 2.1 1.5 3.2 1.5 0 0 0 0.1 0 0.1 0 0 0 0 0 0.1-1 0.2-2.3 0.5-3.2 1.1zm-0.3 0.6c0.8 0.7 2.1 1.2 3.3 0.9 0 0 0.1 0 0.1 0.1 0 0 0 0.1-0.1 0.1-0.7 0.2-2.3 0.9-2.8 1.4 0 0.1 0 0.1-0.1 0q0 0 0-0.1c0.5-0.8 0.2-1.7-0.5-2.3h-0.1q0-0.1 0-0.1 0-0.1 0.2 0zm-32.9 9.3c0 0-7-2-9.7-5 0 0-2.9 3.5 1.7 4.8 4.6 1.2 8 0.2 8 0.2z"/>
		</g>
		<g id="g135">
			<path id="path90" class="s7" d="m72.5 14.7c2.3-1.7 4.6-3.4 6.9-5.1 0 0 0.1 0 0.2-0.1q0 0 0 0c-0.1 0-0.2 0-0.2 0l-8.8 0.1-2.8-8.7-2.9 8.6h-8.8c-0.1 0-0.1 0-0.1-0.1q0 0 0 0.1 0 0 0.2 0.1c2.3 1.7 4.6 3.4 6.9 5.1 0.1 0 0.1 0.1 0.1 0.3q-1.2 3.8-2.5 7.7c-0.1 0.2-0.2 0.4-0.3 0.7 0.1-0.1 0.2-0.1 0.2-0.1q3.5-2.6 7.1-5.1c0-0.1 0.1-0.1 0.1-0.3q0-0.6 0-1.2 0 0.6 0 1.3c0 0.1 0 0.1 0.1 0.2q3.5 2.6 7.1 5.1c0 0.1 0.1 0.1 0.1 0.1 0-0.1 0-0.2-0.1-0.2-0.9-2.7-1.7-5.5-2.7-8.2 0-0.2 0-0.3 0.2-0.3z"/>
			<path id="path105" class="s8" d="m100.7 13.8c2.2-1.7 4.5-3.4 6.8-5 0.1-0.1 0.2-0.1 0.2-0.2q0 0 0 0c0 0-0.1 0-0.2 0l-8.7 0.1-2.8-8.7-2.9 8.6h-8.9c0 0 0 0 0-0.1q0 0 0 0.1 0 0.1 0.1 0.1c2.3 1.7 4.7 3.4 7 5.1 0.1 0.1 0.1 0.2 0.1 0.3q-1.3 3.9-2.6 7.7c-0.1 0.3-0.1 0.4-0.2 0.7 0.1 0 0.1-0.1 0.2-0.1q3.5-2.5 7-5.1c0.1-0.1 0.2-0.1 0.2-0.3q0-0.6 0-1.2 0 0.6 0 1.3c0 0.1 0 0.2 0.1 0.3q3.5 2.5 7 5.1c0.1 0 0.1 0 0.2 0.1-0.1-0.1-0.1-0.2-0.1-0.3-0.9-2.7-1.8-5.4-2.7-8.2 0-0.1 0-0.2 0.2-0.3z"/>
			<path id="path120" class="s9" d="m128.9 13.8c2.3-1.7 4.6-3.4 6.9-5 0-0.1 0.1-0.1 0.1-0.2q0 0 0 0c0 0-0.1 0-0.1 0l-8.8 0.1-2.8-8.7-2.9 8.6h-8.8c-0.1 0-0.1 0-0.1-0.1q0 0 0 0.1 0 0.1 0.2 0.1c2.3 1.7 4.6 3.4 6.9 5.1 0.1 0.1 0.1 0.2 0.1 0.3q-1.2 3.9-2.5 7.7c-0.1 0.3-0.2 0.4-0.3 0.7 0.1 0 0.2-0.1 0.2-0.1q3.5-2.5 7-5.1c0.1-0.1 0.2-0.1 0.2-0.3q0-0.6 0-1.2 0 0.6 0 1.3c0 0.1 0 0.2 0.1 0.3q3.5 2.5 7.1 5.1c0 0 0 0 0.1 0.1-0.1-0.1-0.1-0.2-0.1-0.3-0.9-2.7-1.7-5.4-2.7-8.2 0-0.1 0-0.2 0.2-0.3z"/>
			<path id="path135" class="s10" d="m157.1 14.7c2.3-1.7 4.6-3.4 6.9-5.1 0 0 0.1 0 0.2-0.1q0 0 0 0c-0.1 0-0.2 0-0.2 0l-8.8 0.1-2.8-8.7-2.9 8.6h-8.8c-0.1 0-0.1 0-0.1-0.1q0 0 0 0.1 0 0 0.2 0.1c2.3 1.7 4.6 3.4 6.9 5.1 0.2 0 0.2 0.1 0.1 0.3q-1.2 3.8-2.5 7.7c-0.1 0.2-0.2 0.4-0.3 0.7 0.1-0.1 0.2-0.1 0.2-0.1q3.5-2.6 7.1-5.1c0.1-0.1 0.1-0.1 0.1-0.3q0-0.6 0-1.2 0 0.6 0 1.3c0 0.1 0 0.1 0.1 0.2q3.6 2.6 7.1 5.1c0 0.1 0.1 0.1 0.1 0.1 0-0.1 0-0.2-0.1-0.2-0.9-2.7-1.7-5.5-2.6-8.2-0.1-0.2 0-0.3 0.1-0.3z"/>
		</g>
		<path id="path150" class="s11" d="m115 239.4c2.4-1.7 4.8-3.5 7.3-5.3q0.1-0.1 0.1-0.1 0 0 0-0.1c0 0-0.1 0.1-0.1 0.1h-9.3l-2.9-9.1-3.1 9.1-9.2-0.1c-0.1 0-0.1 0-0.1 0q0 0 0 0c0 0.1 0.1 0.1 0.1 0.2 2.5 1.7 4.9 3.5 7.4 5.3 0.1 0 0.1 0.1 0 0.3q-1.3 4.1-2.6 8.1c-0.1 0.2-0.1 0.5-0.2 0.7q0.1 0 0.2-0.1c2.4-1.8 4.9-3.6 7.3-5.4q0.2-0.1 0.2-0.2c0-0.5 0-0.9 0-1.4 0 0.5 0 0.9 0 1.4q0 0.2 0.1 0.2c2.5 1.8 4.9 3.6 7.4 5.4 0.1 0.1 0.1 0.1 0.1 0.1 0-0.1 0-0.2 0-0.2-1-2.9-1.9-5.7-2.8-8.6 0-0.1 0-0.2 0.1-0.3z"/>
		<g id="g151">
			<g id="g150">
			</g>
		</g>
	</g>
</svg>