<?xml version="1.0" encoding="UTF-8" standalone="no"?>
<!-- Generator: Adobe Illustrator 27.2.0, SVG Export Plug-In . SVG Version: 6.00 Build 0)  -->

<svg
   version="1.1"
   id="Layer_1"
   x="0px"
   y="0px"
   viewBox="0 0 463.5238 600"
   xml:space="preserve"
   sodipodi:docname="Al Hilal-01.svg"
   width="463.5238"
   height="600"
   inkscape:version="1.3.2 (091e20e, 2023-11-25, custom)"
   xmlns:inkscape="http://www.inkscape.org/namespaces/inkscape"
   xmlns:sodipodi="http://sodipodi.sourceforge.net/DTD/sodipodi-0.dtd"
   xmlns="http://www.w3.org/2000/svg"
   xmlns:svg="http://www.w3.org/2000/svg"><defs
   id="defs11">
	
	
	
	
</defs><sodipodi:namedview
   id="namedview11"
   pagecolor="#ffffff"
   bordercolor="#999999"
   borderopacity="1"
   inkscape:showpageshadow="2"
   inkscape:pageopacity="0"
   inkscape:pagecheckerboard="0"
   inkscape:deskcolor="#d1d1d1"
   inkscape:zoom="0.674"
   inkscape:cx="178.04154"
   inkscape:cy="347.18101"
   inkscape:window-width="1500"
   inkscape:window-height="912"
   inkscape:window-x="-8"
   inkscape:window-y="-8"
   inkscape:window-maximized="1"
   inkscape:current-layer="Layer_1" />
<style
   type="text/css"
   id="style1">
	.st0{fill:#0101F9;}
</style>
<g
   id="g11"
   transform="translate(-322.19999,-152.6)"><path
     class="st0"
     d="m 600.23605,453.44727 c -27.7645,-14.99023 -60.35194,-21.63807 -92.67868,-19.94352 -23.59331,1.3035 -47.05627,7.03889 -68.17293,17.59722 -8.60309,3.91049 -16.81512,8.60309 -24.50576,13.81708 V 167.72057 c -6.64784,1.43385 -13.29568,3.12839 -19.94351,4.69259 -24.89681,6.38714 -49.14187,14.20813 -72.73518,23.33261 v 202.43319 c 0,49.92397 9.51554,97.76233 26.72171,141.55985 15.90267,40.27808 38.32283,77.16707 65.95698,109.62416 0,0 0.13035,0.13035 0.13035,0.13035 l 2.3463,-1.69455 c -5.08364,-37.80143 4.69259,-77.68846 29.06799,-108.19031 15.77233,-20.72561 37.14969,-36.49793 61.13405,-46.79556 v 193.30871 42.23332 0.5214 c 3.12839,1.8249 6.38714,3.51944 9.64588,5.21399 10.94938,6.25679 22.28981,12.12253 33.89094,17.33652 0.91245,0.39105 1.8249,0.7821 2.73735,1.17315 0.91244,-0.39105 1.82489,-0.7821 2.73734,-1.17315 1.0428,-0.39105 1.95525,-0.91245 2.99805,-1.43385 13.94742,-6.38714 27.5038,-13.68672 40.53877,-21.63806 V 687.1644 481.34212 c 14.46883,2.08559 28.5466,5.99609 42.49403,10.94938 l 1.5642,-2.21595 C 632.3021,474.82463 617.18152,462.7021 600.23605,453.44727"
     id="path1"
     style="fill:#0028f0;fill-opacity:1;stroke-width:1.3035" /><path
     class="st0"
     d="m 712.85825,172.54351 c -6.64783,-1.69455 -13.29567,-3.25874 -19.94351,-4.69259 v 144.2972 C 663.58604,300.54699 631.52,295.72404 600.23605,297.80964 V 154.29454 C 584.98513,153.25175 569.47351,152.6 553.96189,152.6 c -15.64198,0 -31.02325,0.5214 -46.27417,1.69454 v 172.71345 c -18.77037,11.73148 -35.19444,27.11275 -48.09907,45.75277 l 1.69455,2.47664 c 15.12057,-7.03888 30.63219,-12.25287 46.40452,-15.64197 31.15359,-6.77819 62.95894,-6.64784 92.67868,0.5214 35.45514,8.60309 68.04258,27.2431 92.67869,56.18075 v 216.25027 12.38323 l 2.73734,1.43385 C 751.83284,579.23479 785.72378,492.8129 785.72378,398.57001 V 382.01559 195.87612 c -23.72366,-9.12448 -47.96872,-16.94547 -72.86553,-23.33261"
     id="path2"
     style="fill:#0028f0;fill-opacity:1;stroke-width:1.3035" /></g>
</svg>
