<svg width="550" height="705" viewBox="0 0 550 705" fill="none" xmlns="http://www.w3.org/2000/svg">
<g clip-path="url(#clip0_2_2)">
<path d="M549.01 7.62939e-06H0.0100098L0.179993 450.31C0.156227 464.651 3.4301 478.806 9.7486 491.681C16.0671 504.555 25.261 515.805 36.62 524.56L37.43 525.2L274.74 705L511.97 524.93C523.501 516.147 532.855 504.826 539.308 491.846C545.761 478.867 549.139 464.575 549.18 450.08L549.01 7.62939e-06Z" fill="white"/>
<path d="M411.43 139.49L350.35 202.04V628.52L411.43 582.16V139.49Z" fill="#E8151E"/>
<path d="M472.62 535.68L502.01 513.38C521.23 498.8 533.68 477.17 533.67 453.1L533.51 14.43L472.62 76.78V535.68Z" fill="#E8151E"/>
<path d="M167.77 604.89V389.02L106.69 451.57V558.61L167.77 604.89Z" fill="#E8151E"/>
<path d="M289.79 674.49V264.06L228.71 326.62V651.06L274.72 685.93L289.79 674.49Z" fill="#E8151E"/>
<path d="M549.01 7.62939e-06H0.0100098L0.179993 450.31C0.162805 464.416 3.33647 478.343 9.46338 491.049C15.5903 503.755 24.5117 514.91 35.56 523.68C35.91 523.96 36.25 524.25 36.61 524.52L37.42 525.16L274.73 704.96L511.97 524.93C523.501 516.147 532.855 504.826 539.308 491.846C545.761 478.867 549.139 464.575 549.18 450.08L549.01 7.62939e-06ZM355.54 79.54L79.73 362.1L79.62 79.68L355.54 79.54ZM502.01 511.8L274.72 684.31L48.21 512.68L532.53 16.68L532.69 450.07C532.657 462.024 529.873 473.81 524.553 484.515C519.232 495.22 511.519 504.556 502.01 511.8Z" fill="#282A6F"/>
<path d="M33.63 32.8L39.82 13.75L46.02 32.8L66.05 32.79L49.85 44.57L56.05 63.63L39.83 51.86L23.63 63.64L29.81 44.58L13.6 32.81L33.63 32.8Z" fill="white"/>
<path d="M233.19 32.73L239.37 13.67L245.57 32.72H265.61L249.4 44.5L255.6 63.55L239.39 51.78L223.19 63.56L229.37 44.51L213.16 32.74L233.19 32.73Z" fill="white"/>
<path d="M33.78 434.77L39.97 415.71L46.17 434.76H66.2L50 446.54L56.2 465.59L39.98 453.82L23.78 465.6L29.96 446.55L13.75 434.78L33.78 434.77Z" fill="white"/>
<path d="M33.71 234.34L39.89 215.28L46.09 234.33L66.13 234.32L49.92 246.11L56.12 265.16L39.91 253.39L23.7 265.17L29.89 246.11L13.68 234.34H33.71Z" fill="white"/>
<path d="M173.38 306.85L179.57 287.79L185.77 306.84H205.8L189.6 318.62L195.8 337.67L179.58 325.9L163.38 337.68L169.56 318.63L153.35 306.86L173.38 306.85Z" fill="white"/>
<path d="M307.6 172.44L313.78 153.39L319.98 172.44L340.01 172.43L323.81 184.21L330.01 203.27L313.8 191.5L297.59 203.28L303.77 184.22L287.56 172.45L307.6 172.44Z" fill="white"/>
<path d="M432.74 32.65L438.93 13.6L445.13 32.65L465.16 32.64L448.96 44.42L455.16 63.48L438.94 51.71L422.74 63.49L428.92 44.43L412.71 32.66L432.74 32.65Z" fill="white"/>
<path d="M189.25 220.57C189.052 219.157 188.672 217.776 188.12 216.46C183.87 206.71 179.34 208.55 176.65 195.25C176.206 192.775 175.622 190.328 174.9 187.92C174.41 186.52 173.45 183.69 173.69 181.44C174.18 176.75 175.69 171.44 176.38 166.68C176.38 166.62 176.38 166.57 176.38 166.51C177.143 166.311 177.836 165.907 178.385 165.341C178.933 164.775 179.316 164.069 179.49 163.3C179.69 161.8 179.28 161.22 175.74 160.3L175.62 160.16C173.51 156.32 170.03 154.99 166.13 154.23C164.821 154.029 163.485 154.09 162.2 154.41C161.047 154.56 159.876 154.347 158.85 153.8C156.85 152.69 152.52 148.42 151.27 150.31C150.479 151.535 149.995 152.933 149.86 154.385C149.724 155.836 149.94 157.3 150.49 158.65C152.49 163.39 155.64 164.65 152.32 170.19C150.32 173.5 146.32 178.41 145.38 182.77C142.677 181.043 140.348 178.792 138.53 176.15C137.86 174.408 136.925 172.779 135.76 171.32V185.53C137.53 187.8 139.57 190.33 141.42 192.53C139.61 191.34 137.53 189.89 135.76 188.65V200.21C137.18 201.21 139.29 202.45 140.76 203.21C142.107 204.008 143.539 204.652 145.03 205.13C145.69 213.206 149.207 220.783 154.95 226.5C154.01 230.31 153.08 234.95 153.62 237.01C155.45 243.96 161.62 249.45 162.16 253.55C162.41 255.38 160.4 256.26 158.91 257.47L158.24 257.91L180.24 258.34L180.57 257.9C180.915 257.267 180.998 256.523 180.8 255.83C179.06 244.92 178.89 243.34 184.92 236.77C186.817 234.616 188.15 232.026 188.8 229.23C189.175 229.218 189.545 229.129 189.885 228.97C190.225 228.811 190.529 228.584 190.779 228.303C191.029 228.022 191.219 227.694 191.338 227.338C191.456 226.981 191.501 226.604 191.47 226.23C191.095 224.22 190.342 222.299 189.25 220.57ZM171.77 253.47C171.52 254.86 170.71 255.6 169.6 256.76C170.043 254.654 170.022 252.477 169.54 250.38C169.17 248.61 167.8 243.86 167.91 242.88C168.05 241.68 172.1 251.6 171.77 253.47Z" fill="black"/>
<path d="M143.21 257.16C142.272 257.168 141.342 256.99 140.474 256.636C139.605 256.282 138.816 255.759 138.151 255.098C137.486 254.436 136.958 253.65 136.6 252.783C136.241 251.917 136.057 250.988 136.06 250.05V158.15C136.058 156.762 136.38 155.392 137 154.15L138.32 152.15C132.999 152.691 127.636 152.671 122.32 152.09L123.51 154.09C124.159 155.353 124.501 156.75 124.51 158.17V250.01C124.514 250.945 124.333 251.872 123.977 252.737C123.621 253.602 123.098 254.388 122.437 255.05C121.776 255.712 120.991 256.236 120.126 256.593C119.262 256.95 118.335 257.133 117.4 257.13L97.5 257.92C97.2083 257.92 96.9285 258.036 96.7222 258.242C96.5159 258.448 96.4 258.728 96.4 259.02C96.4 259.312 96.5159 259.592 96.7222 259.798C96.9285 260.004 97.2083 260.12 97.5 260.12L179.42 259.9L181.42 257.9L143.21 257.16Z" fill="#7E4F3A"/>
<path d="M130.39 152.84C154.1 152.84 173.32 138.222 173.32 120.19C173.32 102.158 154.1 87.54 130.39 87.54C106.68 87.54 87.46 102.158 87.46 120.19C87.46 138.222 106.68 152.84 130.39 152.84Z" fill="#006A3F"/>
<path d="M117.3 132.1C116.92 131.949 116.514 131.876 116.105 131.885C115.696 131.894 115.293 131.984 114.92 132.15C114.154 132.496 113.553 133.128 113.247 133.911C112.94 134.694 112.952 135.566 113.28 136.34C113.445 136.716 113.683 137.055 113.98 137.338C114.277 137.621 114.627 137.843 115.01 137.99C115.371 138.125 115.754 138.193 116.14 138.19C116.606 138.191 117.066 138.092 117.49 137.9C118.056 137.644 118.533 137.226 118.861 136.698C119.19 136.17 119.354 135.557 119.334 134.936C119.313 134.316 119.109 133.715 118.747 133.21C118.385 132.705 117.882 132.319 117.3 132.1Z" fill="#E8151E"/>
<path d="M135.49 128.78C135.888 128.933 136.313 129.003 136.739 128.988C137.165 128.972 137.584 128.871 137.97 128.69C138.356 128.526 138.705 128.287 138.997 127.986C139.288 127.686 139.517 127.33 139.67 126.94C139.823 126.549 139.896 126.133 139.886 125.714C139.876 125.295 139.782 124.882 139.61 124.5C139.442 124.127 139.202 123.791 138.903 123.511C138.604 123.231 138.253 123.013 137.87 122.87C137.07 122.567 136.182 122.592 135.4 122.94C134.628 123.28 134.023 123.911 133.715 124.697C133.408 125.482 133.424 126.357 133.76 127.13C133.924 127.506 134.161 127.846 134.458 128.13C134.755 128.413 135.106 128.634 135.49 128.78Z" fill="#E8151E"/>
<path d="M156.07 119.61C156.468 119.763 156.893 119.833 157.319 119.818C157.745 119.802 158.164 119.701 158.55 119.52C159.308 119.177 159.899 118.548 160.194 117.77C160.488 116.992 160.461 116.129 160.12 115.37C159.761 114.585 159.107 113.974 158.3 113.67C157.928 113.512 157.529 113.43 157.125 113.43C156.721 113.43 156.322 113.512 155.95 113.67C155.181 114.031 154.582 114.678 154.282 115.474C153.981 116.269 154.002 117.15 154.34 117.93C154.503 118.311 154.739 118.655 155.036 118.944C155.333 119.232 155.685 119.459 156.07 119.61Z" fill="#E8151E"/>
<path d="M104.44 119.26C104.06 119.109 103.654 119.036 103.245 119.045C102.836 119.054 102.433 119.144 102.06 119.31C101.294 119.656 100.693 120.288 100.387 121.071C100.08 121.854 100.092 122.726 100.42 123.5C100.585 123.876 100.823 124.215 101.12 124.498C101.417 124.781 101.767 125.003 102.15 125.15C102.512 125.282 102.895 125.349 103.28 125.35C103.746 125.351 104.206 125.252 104.63 125.06C105.196 124.804 105.673 124.386 106.002 123.858C106.33 123.33 106.494 122.717 106.474 122.097C106.453 121.476 106.249 120.875 105.887 120.37C105.525 119.865 105.022 119.479 104.44 119.26Z" fill="#E8151E"/>
<path d="M126.76 111.68C126.593 111.306 126.354 110.969 126.055 110.689C125.756 110.409 125.404 110.192 125.02 110.05C124.22 109.747 123.332 109.772 122.55 110.12C121.778 110.46 121.173 111.091 120.865 111.877C120.558 112.662 120.574 113.537 120.91 114.31C121.075 114.686 121.313 115.025 121.61 115.308C121.907 115.591 122.257 115.813 122.64 115.96C123.038 116.113 123.463 116.183 123.889 116.168C124.315 116.152 124.734 116.051 125.12 115.87C125.506 115.706 125.855 115.467 126.147 115.166C126.438 114.866 126.667 114.51 126.82 114.12C126.973 113.729 127.046 113.313 127.036 112.894C127.026 112.475 126.932 112.062 126.76 111.68Z" fill="#E8151E"/>
<path d="M148.35 141.62C148.707 141.759 149.087 141.83 149.47 141.83C149.936 141.83 150.397 141.727 150.82 141.53C151.206 141.366 151.555 141.127 151.846 140.826C152.138 140.526 152.367 140.17 152.52 139.78C152.673 139.389 152.746 138.973 152.736 138.554C152.726 138.135 152.632 137.722 152.46 137.34C152.293 136.967 152.053 136.632 151.754 136.353C151.455 136.075 151.104 135.86 150.72 135.72C150.132 135.493 149.489 135.444 148.873 135.58C148.258 135.716 147.695 136.03 147.257 136.483C146.818 136.937 146.523 137.509 146.408 138.129C146.293 138.749 146.363 139.39 146.61 139.97C146.774 140.348 147.013 140.688 147.312 140.972C147.611 141.255 147.964 141.476 148.35 141.62Z" fill="#E8151E"/>
</g>
<defs>
<clipPath id="clip0_2_2">
<rect width="549.18" height="705" fill="white"/>
</clipPath>
</defs>
</svg>
