<svg xmlns="http://www.w3.org/2000/svg" width="525.96161" height="782.23743" x="0px" y="0px" viewBox="0 0 525.96161 782.23743"><defs><clipPath id="b"><path d="M372.19 267.05c-.6-2.53-1.41-5.7-2.27-9.01-6.46-24.89-3.33-12.85-4.66-26.54-18.9.71-38.44 2.67-56.71 5.33-20.48 2.98-37.67 6.55-49.06 9.18v228.03c14.41-1.89 35.48-4.74 49.06-7.16l9.78-1.82c1.34-.35 2-.58 2.28-.68 4.29-2.91 11.13-6.86 16.79-8.76 2.41-.81 4.4-1.19 6.24-1.19 2.27 0 3.96.58 5.07 1.06.29-.2.67-.49 1.16-.89.25-.2.87-.72 1.04-.86 1.57-1.35 3.32-2.62 5.23-3.81 3.42-2.13 7.36-4 11.79-5.58.7-.27 1.46-.42 2.24-.48l.95-.7 1.13-57.87.74-37.77s.73-74.01-.8-80.46z" class="st0" style="fill:none"/></clipPath><clipPath id="c"><path d="M540.52 246.01c-11.4-2.63-28.58-6.2-49.06-9.18-17.11-2.49-36.5-4.56-56.71-5.33 0 0 .62 5.41-.95 11.99-.95 3.99-2.39 9.44-3.72 14.55-.86 3.31-1.67 6.48-2.27 9.01-1.52 6.44-.79 80.46-.79 80.46l.82 37.77 1.41 64.64.04 1.81 2.86-1.81c1.75-.96 3.98-1.81 6.84-1.81 2.88 0 5.41.74 7.71 1.81 2.55 1.19 4.82 2.78 6.94 4.28 2.54 1.8 4.95 3.51 7.72 4.53 1.85.68 2.56.79 7.52 1.42 2.82.36 6.69.85 12.47 1.71 3.34.49 4.66.5 7.85.51.68 0 1.43 0 2.26.01 2.68.03 6.29.1 11.86.38 14.1.71 25.53 2.21 33.99 4.47 1.06.28 2.14.57 3.21.86V246Z" class="st0" style="fill:none"/></clipPath><clipPath id="d"><path d="M372.19 267.05c-.6-2.53-1.41-5.7-2.27-9.01-6.46-24.89-3.33-12.85-4.66-26.54-18.9.71-38.44 2.67-56.71 5.33-20.48 2.98-37.67 6.55-49.06 9.18v228.03c14.41-1.89 35.48-4.74 49.06-7.16l9.78-1.82c1.34-.35 2-.58 2.28-.68 4.29-2.91 11.13-6.86 16.79-8.76 2.41-.81 4.4-1.19 6.24-1.19 2.27 0 3.96.58 5.07 1.06.29-.2.67-.49 1.16-.89.25-.2.87-.72 1.04-.86 1.57-1.35 3.32-2.62 5.23-3.81 3.42-2.13 7.36-4 11.79-5.58.7-.27 1.46-.42 2.24-.48l.95-.7 1.13-57.87.74-37.77s.73-74.01-.8-80.46z" class="st0" style="fill:none"/></clipPath><clipPath id="e"><path d="M540.52 246.01c-11.4-2.63-28.58-6.2-49.06-9.18-17.11-2.49-36.5-4.56-56.71-5.33 0 0 .62 5.41-.95 11.99-.95 3.99-2.39 9.44-3.72 14.55-.86 3.31-1.67 6.48-2.27 9.01-1.52 6.44-.79 80.46-.79 80.46l.82 37.77 1.41 64.64.04 1.81 2.86-1.81c1.75-.96 3.98-1.81 6.84-1.81 2.88 0 5.41.74 7.71 1.81 2.55 1.19 4.82 2.78 6.94 4.28 2.54 1.8 4.95 3.51 7.72 4.53 1.85.68 2.56.79 7.52 1.42 2.82.36 6.69.85 12.47 1.71 3.34.49 4.66.5 7.85.51.68 0 1.43 0 2.26.01 2.68.03 6.29.1 11.86.38 14.1.71 25.53 2.21 33.99 4.47 1.06.28 2.14.57 3.21.86V246Z" class="st0" style="fill:none"/></clipPath><linearGradient id="a" x1="187.89999" x2="612.09998" y1="421.23999" y2="421.23999" gradientTransform="translate(6.675 9.887)" gradientUnits="userSpaceOnUse"><stop offset="0" stop-color="#cfd1d2"/><stop offset=".34" stop-color="#58595b"/><stop offset=".38" stop-color="#68696b"/><stop offset=".49" stop-color="#858789"/><stop offset=".59" stop-color="#9c9ea0"/><stop offset=".71" stop-color="#adafb1"/><stop offset=".84" stop-color="#b6b8ba"/><stop offset="1" stop-color="#babcbe"/></linearGradient></defs><path fill="none" d="M-7.459-11.049h547.805v842.324H-7.459z" style="fill:#060722;fill-opacity:0"/><path d="M635.33 154.77c0-5.58-3.34-10.53-8.5-12.63-63.07-25.62-133.33-39.14-203.01-41.79-2.74-2.3-6.01-3.94-8.92-5.09-.23-6.94-.77-27.31-1.94-34.3-1.05-6.21-6.39-10.81-12.68-10.95h-.29c-6.44 0-11.89 4.68-12.96 11.12-1.1 6.66-1.72 27.15-1.92 33.94-2.94 1.18-6.24 2.86-8.95 5.16-68.92 2.26-139.8 15.27-203.12 41.87a13.595 13.595 0 0 0-8.35 12.57v378c0 46.77 42.98 92.49 78.35 123.04 38.99 33.69 91.03 65.97 146.52 90.91l3.4 1.53c.86.31 3.24 1.85 7.06 1.85 1.96 0 3.85-.41 5.64-1.21.25-.11 5.13-2.31 4.82-2.17C465.97 721.68 518 689.4 557 655.71c35.37-30.55 78.35-76.27 78.35-123.04v-377.9z" class="st8" style="fill:#fff" transform="matrix(1.1175 0 0 1.1175 -184.04 -55.886)"/><path d="M623.46 150.41c-32.36-13.15-67.58-23.5-105.88-30.68-31.81-5.96-64.57-9.51-97.67-10.59-3.47-5-13.79-7.26-13.79-7.26s-.11-22.08-.96-31.23c-.28-2.74-.55-5.47-1.01-8.21a4.2 4.2 0 0 0-4.08-3.51c-2.12-.05-3.9 1.57-4.25 3.66-.8 4.84-1.31 11.45-1.57 16.27-.3 5.32-.36 22.75-.36 22.75s-10.75 2.55-13.77 7.43c-34.29.93-68.02 4.51-100.51 10.7-35.59 6.78-70.26 16.78-103.13 30.59a4.72 4.72 0 0 0-2.89 4.35v378c0 43.58 42.23 87.76 75.26 116.29 38.36 33.14 89.62 64.93 144.34 89.52.23.1 5.14 2.31 4.82 2.17 1.26.57 2.7.57 3.96 0 .25-.11 5.13-2.31 4.82-2.17 54.72-24.59 105.98-56.38 144.34-89.52 32.96-28.47 75.26-72.68 75.26-116.29V154.77a4.71 4.71 0 0 0-2.94-4.37zm-93.82 363.55-25.85 12.33a44.5 44.5 0 0 1-19.14 4.33h-52.97c-.7-22.27-1.49-47.09-2.21-69.76 4.52-1.34 6.15-4.35 9.44-4.4 7.59-.08 12.72 10.2 26.01 11.59.12.01 11.03 1.45 15.2 2.07 7.21 1.07 7.15.2 22.77.99 9.94.5 22.64 1.63 32.25 4.2 3.79 1.01 7.66 2.05 11.62 3.09 5.42.96 12.32 3.02 16.2 4.24 1.67.53 2.39 2.5 1.43 3.98-4.36 6.71-14.13 14.84-14.13 14.84-6.3 4.81-13.05 8.95-20.63 12.48zm37.65 25.06h.36c-2.46 7.97-7.29 15.82-14.77 24.14-10.54 11.73-26.17 24.09-50.66 40.08-20.25 13.22-38.87 20.8-51.08 20.8-6.8 0-9.57-2.26-11.23-4.22-2.58-3.06-5.75-9.68-6.17-23.87-.23-7.65-.92-29.78-1.78-56.93zm-254.66-8.4c-7.02 0-13.93-1.71-20.15-4.97-7.51-3.95-22.54-11.84-30.06-15.79h.01c-3.53-2-6.89-4.16-10.12-6.48-.45-.33-6.13-5.39-7.18-6.54-2.57-2.48-5.39-5.36-7.67-8.12-1.25-1.5-.33-3.79 1.6-4.03 3.01-.37 7.13-.81 10.66-.96 15.89-2.07 57.57-7.39 70.64-10.76 1.18-.3 3.53-.94 4.52-1.63 4.1-2.82 10.38-6.4 15.11-7.98 4.28-1.43 4.99-.52 6.65.15.89.37 1.54.47 2.11.48 2.22.05 4.51-1.64 6.25-3.04.32-.26 1.18-.98 1.2-.99 4.09-3.53 9.48-6.16 14.64-7.98-.8 25.46-1.69 53.73-2.48 78.65h-55.73zm55.46 8.4c-.85 26.88-1.55 48.7-1.82 56.87-.48 14.34-3.67 21.04-6.26 24.13-1.64 1.96-4.38 4.2-11.05 4.2-12.09 0-30.75-7.65-51.17-20.98-24.49-15.99-40.11-28.35-50.66-40.08-7.48-8.32-12.3-16.17-14.77-24.14H368.1Zm250.01-6.35c0 40.57-41.57 83.39-72.38 110.01-64.26 55.51-143.46 88.56-145.72 89.76l-3.4-1.53c-54.01-24.27-104.55-55.6-142.32-88.23-30.83-26.63-72.38-69.45-72.38-110.01V394.36c0-1.25.72-2.43 1.88-2.87 1.65-.64 3.41.26 3.93 1.85l12.32 38.08c6.71 23.54 15.4 40.93 24.14 53.7 10.74 15.7 21.57 24.44 28.95 29.06 0 0 8.61 5.39 23.37 12.23.73.34 1.28 1.01 1.36 1.81a2.25 2.25 0 0 1-2.23 2.5H222.3c1.33 14.68 8.76 26.98 18.65 37.99 13.9 15.46 34.79 30.06 52.29 41.48 19.7 12.86 57.92 33.3 73.12 15.16 6.2-7.4 7.87-19.49 8.2-29.18.98-29.07 6.72-317.17 6.91-323.82.08-2.92-2.42-12.22-4.08-18.37-2.38-8.85-3.84-14.46-3.84-18.19 0-44.97.08-33.01.04-35.31-4.53-1.58-9.3-5.1-10.46-10.79-1.51-7.47 2.39-13.63 6.55-15.43.93-.4 8.89-2.36 13.99-4.63v-11.58c-1.78-2.38-3.29-2.49-2.43-8.19 1.07-7.27 3.95-27.22 4.33-28.74 3.63-14.56 26.62-13.74 29.09 1.12.3 1.77 3.83 25.83 4.09 27.62.87 5.69-.65 5.81-2.43 8.19v11.58c5.1 2.27 13.06 4.22 13.99 4.63 4.16 1.8 8.06 7.97 6.55 15.43-1.15 5.69-5.92 9.21-10.46 10.79-.09 5.02.04-15.38.04 35.31 0 3.73-1.46 9.34-3.84 18.19-1.66 6.15-4.16 15.45-4.08 18.37 0 .25 6.94 325.8 7.19 328.91.66 8.12 2.57 17.66 7.85 23.91 4.07 4.82 9.82 7.17 17.57 7.17 13.98 0 33.73-7.87 55.62-22.15 17.49-11.41 38.39-26.02 52.29-41.48 9.85-10.95 17.33-23.27 18.65-37.99h-53.24c-2.52 0-3.16-3.28-1.01-4.27 16.09-7.46 24.67-13.04 23.44-12.27 7.74-4.85 19.26-14.21 30.49-31.35 8.22-12.54 16.28-29.25 22.6-51.41l12.32-38.07c.48-1.47 2-2.34 3.53-1.98 1.27.3 2.15 1.45 2.27 2.75 0 22.65.01 113.44.01 138.56z" class="st11" style="fill:#011e41" transform="matrix(1.1175 0 0 1.1175 -184.04 -55.886)"/><path d="M232.36 539.02c2.46 7.97 7.29 15.82 14.77 24.14 10.54 11.73 26.17 24.09 50.66 40.08 20.43 13.33 39.08 20.98 51.17 20.98 6.67 0 9.41-2.25 11.05-4.2 2.59-3.09 5.78-9.78 6.26-24.13.28-8.17.97-29.99 1.82-56.87zM433.73 595.96c.42 14.19 3.59 20.81 6.17 23.87 1.66 1.96 4.43 4.22 11.23 4.22 12.21 0 30.83-7.58 51.08-20.8 24.49-15.99 40.11-28.35 50.66-40.08 7.48-8.32 12.3-16.17 14.77-24.14H431.95c.86 27.15 1.55 49.28 1.78 56.93" class="st2" style="fill:#0068af" transform="matrix(1.1175 0 0 1.1175 -184.04 -55.886)"/><path d="M562.97 482.64c-3.88-1.23-10.78-3.28-16.2-4.24-3.96-1.05-7.83-2.08-11.62-3.09-9.61-2.57-22.31-3.7-32.25-4.2-15.62-.78-15.56.08-22.77-.99-15.97-2.37-17.29-1.95-21.66-3.56-8.5-3.14-13.31-10.11-19.48-10.1-3.37 0-4.86 3.02-9.51 4.4.72 22.67 1.51 47.49 2.21 69.76h52.97c6.62 0 13.16-1.48 19.14-4.33l25.85-12.33c7.58-3.54 14.34-7.68 20.63-12.49 0 0 9.77-8.14 14.13-14.84.96-1.48.24-3.46-1.43-3.98z" class="st9" style="fill:#47853d" transform="matrix(1.1175 0 0 1.1175 -184.04 -55.886)"/><path d="M425.16 122.21c.18 1.21.41 2.74.67 4.53 30.71 1.29 61.17 4.74 90.56 10.25 32.13 6.02 62.92 14.5 91.55 25.2v-4.24c-28.82-10.87-59.85-19.45-92.25-25.53-29.39-5.51-59.84-8.94-90.54-10.21zM436.64 214.72v4.51c27.52 1.59 54.86 4.91 81.29 9.87 31.48 5.9 61.75 14.15 90.02 24.51v-4.29c-28.4-10.5-58.91-18.85-90.72-24.81-26.21-4.91-53.31-8.21-80.6-9.8zM192.02 161.94c27.55-10.59 57.41-18.98 88.79-24.95 30.14-5.74 61.55-9.24 93.38-10.4.27-1.81.49-3.33.67-4.52-31.84 1.14-63.23 4.62-93.34 10.35-31.66 6.03-61.77 14.54-89.5 25.3v4.23zM294.76 221.89c-4.97.82-9.9 1.69-14.8 2.62-31.05 5.91-60.64 14.17-87.95 24.54v4.28c27.2-10.24 56.53-18.39 87.24-24.23 27.16-5.17 55.45-8.56 84.11-10.07v-4.51c-23.25 1.23-46.26 3.7-68.6 7.37M252.56 162.01c-.12-.1-.27-.14-.45-.14-.08 0-.16.01-.23.03-8.78 2.12-27.66 7.29-44.06 12.29-.29.09-.57.3-.78.58-3.32 4.42-4.93 6.58-8.23 11.03-.21.28-.33.61-.33.91v39.55c0 .41.24.67.6.67.28-.03.59-.15 1.52-.44 1.19-.38 3.26-1.05 7.01-2.21.61-.19 1.12-.87 1.12-1.48v-11.9c0-1.14.87-2.3 1.98-2.63 13.66-4.07 27.45-7.9 37.85-10.51.74-.19 1.25.05 1.54.28.24.19.64.62.64 1.4v11.9c0 .26.09.47.26.61.18.14.42.18.69.11 3.35-.81 4.99-1.19 8.36-1.96.59-.13 1.12-.78 1.12-1.37v-39.55c0-.26-.09-.48-.27-.62-3.36-2.65-5-3.93-8.36-6.54zm-1.81 23.55c0 1.13-.9 2.27-2.02 2.54-12.14 3.05-23.44 6.31-34.36 9.46l-5.62 1.62-.02-11.14c0-.54.2-1.12.57-1.61l1.6-2.12c.37-.49.87-.85 1.4-1.01 12.89-3.8 25.51-7.31 34.65-9.64l.51-.06c.37 0 .72.11 1.01.31l2.23 1.7.06.96v8.98zM509.87 154.74c-.21-.25-.49-.41-.79-.46-13.94-2.32-29.99-4.57-44.05-6.16h-.11c-.23 0-.45.08-.62.23-3.4 3.02-5.07 4.5-8.49 7.56-.19.17-.3-.39-.3-.12v40.77c0 .59.49 1.13 1.09 1.18 4.17.4 6.37.64 7.54.76.65.07.95.11 1.09.11.51 0 .89-.38.89-.9v-13.13c0-.57.22-1.08.63-1.45s.97-.53 1.54-.47c18.33 2.17 30.89 4.21 36.93 5.19 2.14.35 3.83.62 4.16.64.45 0 .79-.35.79-.83v-7.54c0-.6-.51-1.19-1.11-1.3a910 910 0 0 0-40.85-5.8c-1.18-.14-2.1-1.16-2.1-2.32v-8.16c0-.57.24-1.1.65-1.46l1.63-1.43c.42-.37.97-.52 1.53-.46 10.99 1.33 23.54 3.08 34.45 4.81.56.09 1.08.39 1.46.85l2.56 2.98c.21.25.49.41.78.46 4.35.75 6.43 1.13 7.51 1.34.79.15.9.19 1.11.19.48 0 .79-.32.79-.81v-3.48c0-.29-.12-.59-.33-.84-3.39-4.02-5.04-5.97-8.43-9.93zM585.96 183.14c.54.17 1.04.53 1.41 1.01l2.5 3.32c.21.28.5.49.79.59 3.31 1.02 4.93 1.53 8.23 2.6.25.08.49.07.66-.06.16-.11.25-.31.25-.56v-3.48c0-.29-.12-.62-.33-.91-3.29-4.44-4.91-6.61-8.22-11.03-.21-.28-.5-.49-.79-.59a818 818 0 0 0-41.55-11.41c-.06-.01-.14-.03-.24-.03-.14 0-.3.03-.44.14-3.37 2.6-5.01 3.87-8.36 6.48-.17.13-.27.35-.27.62v31.13c0 .3.12.6.33.86 3.38 4.17 5.02 6.2 8.36 10.37.21.26.5.45.79.52 13.87 3.42 27.86 7.26 41.59 11.42.13.04.43.11.66-.06 3.31-2.35 4.92-3.49 8.23-5.81.22-.15.25-.43.25-.57h.05c-.06-.74-.06-1.84-.06-3.48 0-.62-.51-1.31-1.12-1.51-3.29-1.06-4.91-1.57-8.22-2.59-.16-.04-.44-.1-.66.06l-3.14 2.07h-.3c-.32 0-.38 0-3.13-.82-4.33-1.27-14.45-4.24-29.58-8.08-.53-.13-1.05-.47-1.43-.95l-1.61-2.02c-.38-.47-.59-1.03-.59-1.58v-22.34l.69-.66 1.57-1.2c.56-.43 1.21-.36 1.54-.27 10.72 2.72 21.53 5.69 32.14 8.82M335.97 147.3a.9.9 0 0 0-.6-.22c-14.2 1.68-28.46 3.76-42.49 6.18-.29.05-.57.22-.78.47-3.39 4-5.05 5.96-8.42 9.98-.21.25-.33.55-.33.84v31.13c0 .26.1.49.28.64 3.38 2.73 5.04 4.08 8.42 6.86.13.11.32.17.52.17a828 828 0 0 1 42.59-6.19c.3-.03.57-.18.78-.41 3.42-3.77 5.09-5.6 8.49-9.32.21-.23.32-.51.32-.79h.05c-.06-.74-.06-1.84-.06-3.48 0-.52-.39-.91-.91-.91-1.09.08-3.98.39-8.6.92-.29.03-.56.18-.77.41l-2.57 2.86c-.39.44-.92.71-1.48.78-17.14 2.17-25.56 3.6-29.6 4.29-3.53.6-3.99.67-4.68.1l-1.63-1.34c-.41-.34-.65-.86-.65-1.43V167.3c0-.55.22-1.12.6-1.57l1.63-1.91c.38-.45.9-.76 1.46-.85 12.46-2.05 31.77-4.79 33.03-4.79.47 0 .92.16 1.27.46l2.58 2.26c.19.16.45.25.73.21 3.41-.39 5.08-.57 8.49-.91.6-.06 1.1-.59 1.1-1.19v-3.48c0-.27-.11-.52-.3-.69-3.42-3.05-5.09-4.52-8.49-7.52z" class="st8" style="fill:#fff" transform="matrix(1.1175 0 0 1.1175 -184.04 -55.886)"/><path d="M406.58 706.01h-.02z" class="st10" style="fill:#e80789" transform="matrix(1.1175 0 0 1.1175 -184.04 -55.886)"/><path d="M611.45 415.38c.11-.36.64-.27.64.1v117.19c0 20.4-12.2 55.26-70.3 105.46-63.27 54.66-140.59 87.08-141.79 87.72-2.32-1.23-79.15-33.6-141.79-87.72-58.11-50.2-70.3-85.06-70.3-105.46V415.48c0-.37.53-.46.64-.1l5.7 17.68c6.66 23.34 22.75 65.58 55.68 86.21 3.01 1.9 5.47 3.13 8.82 4.77.33.16.22.67-.16.67-.11 0-33.63-.02-41.67 0-.58 0-.84.69-.84 1.15 0 16.25 6.68 31.58 20.41 46.86 11.41 12.7 27.9 25.8 53.48 42.5 23.36 15.25 43.76 23.31 58.99 23.31 20.04 0 30.67-14.18 31.61-42.16.79-23.39 6.62-313.56 6.91-323.85.2-7.23-7.92-30.14-7.92-36.73.01-27.01.03-33.49.04-34.8v-.33a5.46 5.46 0 0 1-2.6-4.64v-.73c-.22-.08-.45-.17-.68-.26-.62-.24-4.92-2.37-5.67-4.73-.03-.09-2.7-8.75 1.42-10.54 1.17-.51 5.75-1.27 9.97-2.88.6-2.35 2.74-4.1 5.27-4.1h2.37c0-12.93 0-15.64-.01-15.9-3.28-.94-2.75-4.42-2.48-6.15.34-2.14 3.61-24.69 4.07-27.5.66-3.96 4.16-6.62 8.71-6.62 4.51 0 8.12 2.72 8.77 6.61.46 2.73 3.74 25.41 4.07 27.53.26 1.71.79 5.19-2.49 6.13-.02.26 0 2.94-.01 15.9h2.19c2.51 0 4.62 1.7 5.25 4.01 2.63 1.01 5.76 1.79 7.75 2.28 1.41.35 2 .5 2.42.68 3.67 1.59 1.85 8.99 1.44 10.45-.15.53-.59 2.16-5.45 4.7-.37.19-.69.36-1.09.53v.57c0 1.85-.94 3.53-2.42 4.52-.03 1.62.04 3.99.04 6.29v28.96c0 6.7-8.13 29.39-7.92 36.73.15 5.22 6.44 308.19 6.91 323.86.83 27.85 11.5 41.97 31.71 41.97 15.35 0 35.72-8 58.9-23.13 25.57-16.69 42.07-29.8 53.48-42.5 13.73-15.28 20.41-30.61 20.41-46.86 0-.46-.27-1.15-.84-1.15h-41.67c-.36.02-.5-.49-.16-.66 3.35-1.65 5.8-2.87 8.82-4.77 32.93-20.62 49.02-62.87 55.68-86.21-.04.16 3.33-10.34 5.7-17.68zM396.8 286.6a3.205 3.205 0 0 0 6.41 0v-4.99c0-1.77-1.43-3.2-3.2-3.2s-3.21 1.44-3.21 3.2zm0 20.15a3.205 3.205 0 0 0 6.41 0v-4.99c0-1.77-1.43-3.2-3.2-3.2s-3.21 1.44-3.21 3.2zm0 20.15a3.205 3.205 0 0 0 6.41 0v-4.99c0-1.77-1.43-3.2-3.2-3.2s-3.21 1.44-3.21 3.2zm0 20.16a3.205 3.205 0 0 0 6.41 0v-4.99c0-1.77-1.43-3.2-3.2-3.2s-3.21 1.44-3.21 3.2zm0 20.14a3.205 3.205 0 0 0 6.41 0v-4.99c0-1.77-1.43-3.2-3.2-3.2s-3.21 1.44-3.21 3.2zm0 20.16c0 1.76 1.44 3.2 3.21 3.2s3.2-1.44 3.2-3.2v-4.99c0-1.77-1.43-3.2-3.2-3.2s-3.21 1.44-3.21 3.2zm3.2 23.34c1.76 0 3.2-1.44 3.2-3.2v-4.99c0-1.77-1.43-3.2-3.2-3.2s-3.21 1.44-3.21 3.2v4.99c0 1.77 1.44 3.2 3.21 3.2" class="st12" style="fill:url(#a)" transform="matrix(1.1175 0 0 1.1175 -184.04 -55.886)"/><path d="M356.2 459.96s-.88.73-1.2.99c-1.74 1.4-4.04 3.1-6.25 3.04-.57-.01-1.22-.12-2.11-.48-1.65-.68-2.37-1.59-6.65-.15-4.73 1.59-11 5.17-15.11 7.98-.99.68-3.34 1.32-4.52 1.63-13.07 3.38-54.75 8.7-70.64 10.76-3.53.15-7.66.59-10.66.96-1.93.24-2.85 2.53-1.6 4.03 2.28 2.75 5.1 5.64 7.67 8.12 1.05 1.15 6.73 6.22 7.18 6.54 3.23 2.33 6.59 4.48 10.12 6.48h-.01c59.98 31.51-1.47-.77 30.06 15.79a43.4 43.4 0 0 0 20.15 4.97h55.73c.79-24.92 1.68-53.19 2.48-78.65-5.16 1.82-10.55 4.45-14.64 7.98z" class="st9" style="fill:#47853d" transform="matrix(1.1175 0 0 1.1175 -184.04 -55.886)"/><path d="M195.98 362.17c-1.38 0-2.21-.78-2.21-2.21v-5.63c0-4.71 2.4-7.15 7.34-8.54l4.11-1.15c2.63-.74 3.87-1.57 3.87-4.52v-1.2c0-2.95-1.48-4.43-4.98-4.43s-4.98 1.71-4.98 4.29v1.25c0 .74-.42 1.2-1.15 1.2h-3.04c-.74 0-1.15-.46-1.15-1.25v-1.38c0-4.94 3.18-8.3 10.34-8.3s10.43 3.32 10.43 8.72v1.43c0 4.89-2.03 7.24-7.38 8.72l-4.11 1.15c-2.91.83-3.78 1.61-3.78 4.11v2.81h12.83c1.43 0 2.4.92 2.4 2.26v.37c0 1.38-.97 2.31-2.4 2.31h-16.1zM221.58 351.75v-10.52c0-7.06 4.38-10.93 11.77-10.93s11.76 3.88 11.76 10.93v10.52c0 7.06-4.38 10.93-11.76 10.93s-11.77-3.88-11.77-10.93m17.77.37v-11.26c0-4.2-1.89-6.37-6-6.37s-6 2.17-6 6.37v11.26c0 4.2 1.89 6.37 6 6.37s6-2.17 6-6.37M553.3 351.75v-10.52c0-7.06 4.38-10.93 11.77-10.93s11.76 3.88 11.76 10.93v10.52c0 7.06-4.38 10.93-11.76 10.93s-11.77-3.88-11.77-10.93m17.76.37v-11.26c0-4.2-1.89-6.37-6-6.37s-6 2.17-6 6.37v11.26c0 4.2 1.89 6.37 6 6.37s6-2.17 6-6.37M601.64 362.17h-2.63c-.87 0-1.48-.51-1.48-1.34v-6h-12.18c-1.61 0-2.54-.74-2.54-2.4v-1.38c0-.88.19-1.52.74-2.35l10.57-16.15c.88-1.29 1.66-1.98 2.86-1.98h4.01c1.34 0 2.12.78 2.12 2.12v17.53h2.72c1.38 0 2.26.88 2.26 2.17v.37c0 1.2-.88 2.08-2.26 2.08h-2.72v6c0 .83-.6 1.34-1.48 1.34zm-13.98-11.81h9.87v-15.5z" class="st8" style="fill:#fff" transform="matrix(1.1175 0 0 1.1175 -184.04 -55.886)"/><g class="st13" clip-path="url(#b)" transform="matrix(1.1175 0 0 1.1175 -184.04 -55.886)"><path d="M259.48 217.89h56.84v56.84h-56.84zM259.48 331.56h56.84v56.84h-56.84zM259.48 445.24h56.84v56.84h-56.84z" class="st1" style="fill:#fdd300"/><path d="M316.32 274.73h56.84v56.84h-56.84zM316.32 388.4h56.84v56.84h-56.84z" class="st1" style="fill:#fdd300"/><path d="M259.48 274.73h56.84v56.84h-56.84zM259.48 388.4h56.84v56.84h-56.84zM316.32 217.89h56.84v56.84h-56.84z" class="st8" style="fill:#fff"/><path d="M316.32 331.56h56.84v56.84h-56.84zM316.32 445.24h56.84v56.84h-56.84z" class="st8" style="fill:#fff"/></g><g class="st5" clip-path="url(#c)" transform="matrix(1.1175 0 0 1.1175 -184.04 -55.886)"><path d="M483.68 217.89h56.84v56.84h-56.84z" class="st1" style="fill:#fdd300" transform="rotate(180 512.1 246.31)"/><path d="M483.68 331.56h56.84v56.84h-56.84z" class="st1" style="fill:#fdd300" transform="rotate(180 512.1 359.985)"/><path d="M483.68 445.24h56.84v56.84h-56.84z" class="st1" style="fill:#fdd300" transform="rotate(180 512.1 473.66)"/><path d="M426.84 274.73h56.84v56.84h-56.84z" class="st1" style="fill:#fdd300" transform="rotate(180 455.265 303.145)"/><path d="M426.84 388.4h56.84v56.84h-56.84z" class="st1" style="fill:#fdd300" transform="rotate(180 455.265 416.82)"/><path d="M483.68 274.73h56.84v56.84h-56.84z" class="st8" style="fill:#fff" transform="rotate(180 512.1 303.145)"/><path d="M483.68 388.4h56.84v56.84h-56.84z" class="st8" style="fill:#fff" transform="rotate(180 512.1 416.82)"/><path d="M426.84 217.89h56.84v56.84h-56.84z" class="st8" style="fill:#fff" transform="rotate(180 455.265 246.31)"/><path d="M426.84 331.56h56.84v56.84h-56.84z" class="st8" style="fill:#fff" transform="rotate(180 455.265 359.985)"/><path d="M426.84 445.24h56.84v56.84h-56.84z" class="st8" style="fill:#fff" transform="rotate(180 455.265 473.66)"/></g><g class="st7" clip-path="url(#d)" transform="matrix(1.1175 0 0 1.1175 -184.04 -55.886)"><path d="M316.32 274.73v1.64l55.19 55.19h1.65v-1.64l-55.2-55.19zM324.21 274.73l48.95 48.95v-3.29l-45.67-45.66zM333.74 274.73l39.42 39.41v-3.29l-36.13-36.12zM343.27 274.73l29.89 29.88v-3.29l-26.6-26.59zM352.81 274.73l20.35 20.35v-3.29l-17.07-17.06zM316.32 314.5l17.06 17.06h3.29l-20.35-20.34zM316.32 304.97l26.59 26.59h3.29l-29.88-29.88zM316.32 295.44l36.13 36.12h3.28l-39.41-39.41zM316.32 285.9l45.66 45.66h3.29l-48.95-48.94zM373.16 282.26l-7.53-7.53h-3.29l10.82 10.81zM316.32 324.04l7.53 7.52h3.28l-10.81-10.81zM259.48 217.89v1.64l55.19 55.2h1.65v-1.65l-55.2-55.19ZM267.37 217.89l48.95 48.95v-3.29l-45.66-45.66ZM276.9 217.89l39.42 39.41v-3.28l-36.13-36.13ZM286.44 217.89l29.88 29.88v-3.29l-26.6-26.59ZM295.97 217.89l20.35 20.35v-3.29l-17.06-17.06zM259.48 257.67l17.06 17.06h3.29l-20.35-20.35ZM259.48 248.13l26.59 26.6h3.29l-29.88-29.89ZM259.48 238.6l36.13 36.13h3.29l-39.42-39.42ZM259.48 229.07l45.66 45.66h3.29l-48.95-48.95ZM316.32 225.42l-7.53-7.53h-3.29l10.82 10.82zM259.48 267.2l7.53 7.53h3.29l-10.82-10.82ZM316.32 388.4v1.65l55.19 55.19h1.65v-1.64l-55.2-55.2zM324.21 388.4l48.95 48.95v-3.29l-45.67-45.66zM333.74 388.4l39.42 39.42v-3.29l-36.13-36.13zM343.27 388.4l29.89 29.88V415l-26.6-26.6zM352.81 388.4l20.35 20.35v-3.29l-17.07-17.06zM316.32 428.18l17.06 17.06h3.29l-20.35-20.35zM316.32 418.64l26.59 26.6h3.29l-29.88-29.88zM316.32 409.11l36.13 36.13h3.28l-39.41-39.42zM316.32 399.58l45.66 45.66h3.29l-48.95-48.95zM373.16 395.93l-7.53-7.53h-3.29l10.82 10.82ZM316.32 437.71l7.53 7.53h3.28l-10.81-10.82zM259.48 331.56v1.65l55.19 55.19h1.65v-1.64l-55.2-55.2ZM267.37 331.56l48.95 48.95v-3.28l-45.66-45.67ZM276.9 331.56l39.42 39.42v-3.29l-36.13-36.13ZM286.44 331.56l29.88 29.89v-3.29l-26.6-26.6ZM295.97 331.56l20.35 20.35v-3.28l-17.06-17.07zM259.48 371.34l17.06 17.06h3.29l-20.35-20.35zM259.48 361.81l26.59 26.59h3.29l-29.88-29.88zM259.48 352.27l36.13 36.13h3.29l-39.42-39.41zM259.48 342.74l45.66 45.66h3.29l-48.95-48.95zM316.32 339.09l-7.53-7.53h-3.29l10.82 10.82zM259.48 380.87l7.53 7.53h3.29l-10.82-10.81ZM259.48 445.24v1.64l55.19 55.2h1.65v-1.65l-55.2-55.19zM267.37 445.24l48.95 48.95v-3.29l-45.66-45.66zM276.9 445.24l39.42 39.42v-3.29l-36.13-36.13ZM286.44 445.24l29.88 29.88v-3.29l-26.6-26.59zM295.97 445.24l20.35 20.35v-3.29l-17.06-17.06zM259.48 485.02l17.06 17.06h3.29l-20.35-20.35zM259.48 475.48l26.59 26.6h3.29l-29.88-29.88zM259.48 465.95l36.13 36.13h3.29l-39.42-39.42ZM259.48 456.42l45.66 45.66h3.29l-48.95-48.95ZM316.32 452.77l-7.53-7.53h-3.29l10.82 10.82ZM259.48 494.55l7.53 7.53h3.29l-10.82-10.82z" class="st4" style="fill:#8c9091"/></g><g class="st6" clip-path="url(#e)" transform="matrix(1.1175 0 0 1.1175 -184.04 -55.886)"><path d="M426.84 274.73v1.64l55.2 55.19h1.64v-1.64l-55.19-55.19zM434.73 274.73l48.95 48.95v-3.29l-45.66-45.66zM444.27 274.73l39.41 39.41v-3.29l-36.13-36.12zM453.8 274.73l29.88 29.88v-3.29l-26.59-26.59zM463.33 274.73l20.35 20.35v-3.29l-17.06-17.06zM426.84 314.5l17.07 17.06h3.28l-20.35-20.34zM426.84 304.97l26.6 26.59h3.29l-29.89-29.88ZM426.84 295.44l36.13 36.12h3.29l-39.42-39.41ZM426.84 285.9l45.67 45.66h3.28l-48.95-48.94ZM483.68 282.26l-7.53-7.53h-3.28l10.81 10.81zM426.84 324.04l7.53 7.52h3.29l-10.82-10.81zM483.76 217.89v1.64l55.2 55.2h1.64v-1.65l-55.19-55.19ZM491.65 217.89l48.95 48.95v-3.29l-45.66-45.66ZM501.19 217.89l39.41 39.41v-3.28l-36.13-36.13ZM510.72 217.89l29.88 29.88v-3.29l-26.59-26.59zM520.25 217.89l20.35 20.35v-3.29l-17.06-17.06zM483.76 257.67l17.07 17.06h3.28l-20.35-20.35ZM483.76 248.13l26.6 26.6h3.29l-29.89-29.89ZM483.76 238.6l36.13 36.13h3.29l-39.42-39.42ZM483.76 229.07l45.66 45.66h3.29l-48.95-48.95ZM540.6 225.42l-7.53-7.53h-3.28l10.81 10.82zM483.76 267.2l7.53 7.53h3.29l-10.82-10.82ZM426.84 388.4v1.65l55.2 55.19h1.64v-1.64l-55.19-55.2zM434.73 388.4l48.95 48.95v-3.29l-45.66-45.66zM444.27 388.4l39.41 39.42v-3.29l-36.13-36.13zM453.8 388.4l29.88 29.88V415l-26.59-26.6ZM463.33 388.4l20.35 20.35v-3.29l-17.06-17.06zM426.84 428.18l17.07 17.06h3.28l-20.35-20.35zM426.84 418.64l26.6 26.6h3.29l-29.89-29.88zM426.84 409.11l36.13 36.13h3.29l-39.42-39.42ZM426.84 399.58l45.67 45.66h3.28l-48.95-48.95ZM483.68 395.93l-7.53-7.53h-3.28l10.81 10.82ZM426.84 437.71l7.53 7.53h3.29l-10.82-10.82zM483.76 331.56v1.65l55.2 55.19h1.64v-1.64l-55.19-55.2ZM491.65 331.56l48.95 48.95v-3.28l-45.66-45.67ZM501.19 331.56l39.41 39.42v-3.29l-36.13-36.13ZM510.72 331.56l29.88 29.89v-3.29l-26.59-26.6zM520.25 331.56l20.35 20.35v-3.28l-17.06-17.07zM483.76 371.34l17.07 17.06h3.28l-20.35-20.35zM483.76 361.81l26.6 26.59h3.29l-29.89-29.88zM483.76 352.27l36.13 36.13h3.29l-39.42-39.41zM483.76 342.74l45.66 45.66h3.29l-48.95-48.95zM540.6 339.09l-7.53-7.53h-3.28l10.81 10.82zM483.76 380.87l7.53 7.53h3.29l-10.82-10.81ZM483.76 445.24v1.64l55.2 55.2h1.64v-1.65l-55.19-55.19zM491.65 445.24l48.95 48.95v-3.29l-45.66-45.66zM501.19 445.24l39.41 39.42v-3.29l-36.13-36.13ZM510.72 445.24l29.88 29.88v-3.29l-26.59-26.59zM520.25 445.24l20.35 20.35v-3.29l-17.06-17.06zM483.76 485.02l17.07 17.06h3.28l-20.35-20.35zM483.76 475.48l26.6 26.6h3.29l-29.89-29.88zM483.76 465.95l36.13 36.13h3.29l-39.42-39.42ZM483.76 456.42l45.66 45.66h3.29l-48.95-48.95ZM540.6 452.77l-7.53-7.53h-3.28l10.81 10.82zM483.76 494.55l7.53 7.53h3.29l-10.82-10.82z" class="st4" style="fill:#8c9091"/></g></svg>