<?xml version="1.0" encoding="utf-8"?>
<!-- Generator: Adobe Illustrator 13.0.2, SVG Export Plug-In . SVG Version: 6.00 Build 14948)  -->
<!DOCTYPE svg PUBLIC "-//W3C//DTD SVG 1.0//EN" "http://www.w3.org/TR/2001/REC-SVG-20010904/DTD/svg10.dtd">
<svg version="1.0" id="Ebene_1" xmlns="http://www.w3.org/2000/svg" xmlns:xlink="http://www.w3.org/1999/xlink" x="0px" y="0px"
	 width="453.308px" height="527.241px" viewBox="0 0 453.308 527.241" enable-background="new 0 0 453.308 527.241"
	 xml:space="preserve">
<path fill-rule="evenodd" clip-rule="evenodd" fill="#FDCE00" d="M226.553,527.241C71.193,429.788-10.361,279.729,1.056,88.078
	L121.96,0c29.36,27.524,66.262,40.98,104.593,41.184C264.883,40.98,301.786,27.524,331.144,0l121.107,88.078
	C463.671,279.729,382.118,429.788,226.553,527.241L226.553,527.241z"/>
<path fill-rule="evenodd" clip-rule="evenodd" fill="#172983" d="M226.553,62.796c-36.292,0-72.379-12.642-105.612-36.292
	L21.445,99.088c-9.583,151.893,54.64,307.661,205.107,403.075C377.222,406.749,441.447,250.98,431.864,99.088l-99.495-72.583
	C299.134,49.951,263.046,62.593,226.553,62.796L226.553,62.796z"/>
<polygon fill-rule="evenodd" clip-rule="evenodd" fill="#FDCE00" points="289.961,301.339 294.854,316.222 310.349,316.222 
	297.708,325.397 302.6,340.081 289.961,331.104 277.525,340.081 282.212,325.397 269.369,316.022 285.271,316.022 289.961,301.339 
	321.766,336.612 326.457,351.495 342.154,351.495 329.31,360.671 334.408,375.349 321.561,366.378 309.125,375.349 314.017,360.876 
	301.173,351.495 316.874,351.495 321.766,336.612 289.961,301.339 "/>
<polygon fill-rule="evenodd" clip-rule="evenodd" fill="#FDCE00" points="353.571,301.339 358.261,316.222 373.961,316.222 
	361.115,325.397 366.01,340.081 353.369,331.104 340.932,340.081 345.62,325.397 332.981,316.222 348.678,316.022 353.571,301.339 
	"/>
<polygon fill-rule="evenodd" clip-rule="evenodd" fill="#FDCE00" points="226.144,443.446 231.038,458.329 246.532,458.329 
	233.893,467.505 238.786,482.188 226.144,473.218 213.708,482.188 218.396,467.505 205.553,458.13 221.455,458.13 226.144,443.446 
	"/>
<polygon fill-rule="evenodd" clip-rule="evenodd" fill="#FDCE00" points="194.543,407.769 199.437,422.651 214.932,422.651 
	202.291,431.827 207.183,446.71 194.543,437.739 182.106,446.71 186.795,432.032 173.95,422.651 189.854,422.651 194.543,407.769 
	"/>
<polygon fill-rule="evenodd" clip-rule="evenodd" fill="#FDCE00" points="258.154,407.769 262.844,422.651 278.544,422.651 
	265.903,431.827 270.795,446.505 257.952,437.534 245.515,446.505 250.408,431.827 237.561,422.651 253.466,422.651 
	258.154,407.769 "/>
<polygon fill-rule="evenodd" clip-rule="evenodd" fill="#FDCE00" points="163.146,372.29 167.834,387.173 183.533,387.173 
	170.688,396.349 175.581,411.032 162.94,402.062 150.504,411.032 155.193,396.349 142.553,386.974 158.251,386.974 163.146,372.29 
	"/>
<polygon fill-rule="evenodd" clip-rule="evenodd" fill="#FDCE00" points="226.553,372.29 231.447,386.974 246.942,386.974 
	234.3,396.349 239.193,411.032 226.553,402.062 213.913,411.032 218.805,396.349 205.961,386.974 221.862,386.974 226.553,372.29 
	"/>
<polygon fill-rule="evenodd" clip-rule="evenodd" fill="#FDCE00" points="289.961,372.29 294.854,386.974 310.349,386.974 
	297.708,396.349 302.6,411.032 289.961,402.062 277.525,411.032 282.212,396.349 269.369,386.974 285.271,386.974 289.961,372.29 
	"/>
<polygon fill-rule="evenodd" clip-rule="evenodd" fill="#FDCE00" points="131.543,336.817 136.232,351.495 151.931,351.495 
	139.087,360.671 143.979,375.554 131.339,366.583 118.901,375.554 123.592,360.876 110.95,351.495 126.649,351.495 131.543,336.817 
	"/>
<polygon fill-rule="evenodd" clip-rule="evenodd" fill="#FDCE00" points="194.95,336.612 199.844,351.495 215.339,351.495 
	202.698,360.671 207.592,375.349 194.95,366.378 182.31,375.349 187.203,360.876 174.359,351.495 190.261,351.495 194.95,336.612 
	"/>
<polygon fill-rule="evenodd" clip-rule="evenodd" fill="#FDCE00" points="258.359,336.612 263.251,351.495 278.747,351.495 
	266.105,360.671 271,375.349 258.359,366.378 245.922,375.349 250.61,360.876 237.766,351.495 253.668,351.495 258.359,336.612 "/>
<polygon fill-rule="evenodd" clip-rule="evenodd" fill="#FDCE00" points="99.94,301.339 104.631,316.222 120.328,316.222 
	107.484,325.397 112.582,340.081 99.737,331.104 87.3,340.081 91.989,325.397 79.348,316.022 95.048,316.022 99.94,301.339 "/>
<polygon fill-rule="evenodd" clip-rule="evenodd" fill="#FDCE00" points="163.348,301.339 168.038,316.222 183.737,316.222 
	170.892,325.397 175.989,340.081 163.146,331.104 150.708,340.081 155.602,325.397 142.756,316.022 158.455,316.022 
	163.348,301.339 "/>
<polygon fill-rule="evenodd" clip-rule="evenodd" fill="#FDCE00" points="226.756,301.339 231.447,316.222 247.144,316.222 
	234.505,325.397 239.398,340.081 226.553,331.104 214.116,340.081 219.009,325.397 206.164,316.222 222.067,316.022 
	226.756,301.339 "/>
<path fill-rule="evenodd" clip-rule="evenodd" fill="#FDCE00" d="M163.146,70.135l4.689,14.884h15.699l-12.642,9.174l4.894,14.681
	l-12.64-8.971l-12.642,8.971l4.893-14.681l-12.844-9.174l15.902-0.204L163.146,70.135L163.146,70.135z M99.737,70.135l4.689,14.884
	h15.699l-12.844,9.174l5.096,14.681l-12.844-8.971l-12.437,8.971l4.893-14.681l-12.845-9.378h15.699L99.737,70.135L99.737,70.135z
	 M69.154,108.875l4.894,14.679h15.495l-12.642,9.379l4.894,14.679l-12.642-8.971l-12.437,8.971l4.689-14.679l-12.844-9.379h15.902
	L69.154,108.875L69.154,108.875z M132.766,108.875l4.689,14.679h15.699l-12.64,9.174l4.893,14.884l-12.844-8.971l-12.438,8.971
	l4.894-14.679l-12.845-9.379h15.902L132.766,108.875L132.766,108.875z M196.173,108.875l4.894,14.679h15.495l-12.642,9.174
	l4.894,14.884l-12.642-8.971l-12.64,8.971l4.893-14.679l-12.845-9.379h15.904L196.173,108.875L196.173,108.875z M196.377,150.059
	l4.69,14.679h15.495l-12.642,9.176l4.894,14.883l-12.642-8.971l-12.437,8.971l4.689-14.679l-12.64-9.379h15.699L196.377,150.059
	L196.377,150.059z M132.766,150.059l4.893,14.679h15.495l-12.64,9.176l4.893,14.883l-12.64-8.971l-12.438,8.971l4.69-14.679
	l-12.845-9.379h15.902L132.766,150.059L132.766,150.059z M69.357,150.059l4.69,14.884h15.699l-12.845,9.174l4.894,14.679
	l-12.642-8.971l-12.437,8.971l4.689-14.679l-12.64-9.379h15.699L69.357,150.059L69.357,150.059z M226.553,70.135l4.894,14.884
	h15.495L234.3,94.194l4.893,14.681l-12.64-8.971l-12.437,8.971l4.689-14.681l-12.844-9.174l15.901-0.204L226.553,70.135
	L226.553,70.135z M259.786,108.875l4.69,14.679h15.495l-12.642,9.174l4.893,14.884l-12.639-8.971l-12.439,8.971l4.69-14.679
	l-12.642-9.379h15.7L259.786,108.875L259.786,108.875z M259.786,150.059l4.69,14.679h15.697l-12.844,9.176l5.098,14.883
	l-12.844-8.971l-12.439,8.971l4.896-14.679l-12.847-9.379h15.7L259.786,150.059L259.786,150.059z M289.961,70.135l4.893,14.884
	h15.495l-12.642,9.174l4.893,14.681l-12.639-8.971l-12.642,8.971l4.893-14.681l-12.844-9.174l15.902-0.204L289.961,70.135
	L289.961,70.135z M322.991,108.875l4.893,14.679h15.495l-12.642,9.174l4.893,14.884l-12.639-8.971l-12.437,8.971l4.688-14.679
	l-12.844-9.379H318.3L322.991,108.875L322.991,108.875z M323.193,150.059l4.69,14.679h15.7l-12.847,9.176l4.893,14.883
	l-12.639-8.971l-12.437,8.971l4.688-14.679l-12.642-9.379h15.7L323.193,150.059L323.193,150.059z M353.571,70.135l4.69,14.884h15.7
	l-12.847,9.174l4.896,14.681l-12.642-8.971l-12.437,8.971l4.688-14.681l-12.639-9.174l15.697-0.204L353.571,70.135L353.571,70.135z
	 M386.6,108.875l4.69,14.679h15.7l-12.847,9.174l4.896,14.884l-12.642-8.971l-12.437,8.971l4.688-14.679l-12.639-9.379h15.697
	L386.6,108.875v41.184l4.69,14.679h15.7l-12.847,9.176l5.098,14.883l-12.844-8.971l-12.437,8.971l4.893-14.679l-12.844-9.379h15.697
	l4.893-14.679V108.875L386.6,108.875z"/>
<polygon fill-rule="evenodd" clip-rule="evenodd" fill="#FDCE00" points="133.581,232.02 103.203,232.02 103.203,218.563 
	86.688,218.563 86.688,268.31 103.203,268.31 103.203,255.059 133.581,255.059 133.581,274.427 116.864,291.149 73.028,291.149 
	56.514,274.427 56.514,212.446 73.028,195.728 116.864,195.728 133.581,212.446 133.581,232.02 "/>
<polygon fill-rule="evenodd" clip-rule="evenodd" fill="#FDCE00" points="200.864,264.233 202.698,268.31 198.009,268.31 
	198.009,291.149 235.932,291.149 235.932,268.31 231.854,268.31 209.629,218.563 214.727,218.563 214.727,195.728 159.882,195.728 
	159.882,218.563 164.776,218.563 142.553,268.31 138.475,268.31 138.475,291.149 176.6,291.149 176.6,268.31 171.911,268.31 
	173.543,264.233 200.864,264.233 "/>
<polygon fill-rule="evenodd" clip-rule="evenodd" fill="#FDCE00" points="397.203,195.728 397.203,218.563 392.515,218.563 
	392.515,277.081 380.076,291.149 341.544,291.149 326.251,277.081 326.251,252.205 353.369,252.205 353.571,268.31 364.583,268.31 
	364.583,218.563 359.688,218.563 359.688,195.728 397.203,195.728 "/>
<polygon fill-rule="evenodd" clip-rule="evenodd" fill="#FDCE00" points="242.251,195.728 302.805,195.728 319.32,212.243 
	319.32,235.894 312.795,240.787 319.32,245.476 319.32,274.222 302.805,291.149 242.251,291.149 242.251,268.31 250,268.31 
	250.203,218.563 242.251,218.563 242.251,195.728 "/>
<polygon fill-rule="evenodd" clip-rule="evenodd" fill="#232D74" points="289.144,231.816 277.115,231.816 277.115,218.563 
	289.144,218.563 289.144,231.816 289.144,231.816 "/>
<polygon fill-rule="evenodd" clip-rule="evenodd" fill="#232D74" points="289.144,255.059 289.144,268.31 277.115,268.31 
	277.115,255.059 289.144,255.059 "/>
<polygon fill-rule="evenodd" clip-rule="evenodd" fill="#232D74" points="181.291,245.884 187.203,234.669 193.115,246.088 
	181.291,245.884 "/>
</svg>
