<?xml version="1.0" encoding="utf-8"?>
<!-- Generator: Adobe Illustrator 26.3.1, SVG Export Plug-In . SVG Version: 6.00 Build 0)  -->
<svg version="1.1" id="Layer_1" xmlns="http://www.w3.org/2000/svg" xmlns:xlink="http://www.w3.org/1999/xlink" x="0px" y="0px"
	 viewBox="0 0 198.42 198.43" style="enable-background:new 0 0 198.42 198.43;" xml:space="preserve">
<style type="text/css">
	.Arched_x0020_Green{fill:url(#SVGID_1_);stroke:#FFFFFF;stroke-width:0.25;stroke-miterlimit:1;}
	.st0{fill:#FFD900;}
	.st1{fill-rule:evenodd;clip-rule:evenodd;}
	.st2{fill-rule:evenodd;clip-rule:evenodd;fill:#FFD900;}
</style>
<linearGradient id="SVGID_1_" gradientUnits="userSpaceOnUse" x1="-168.2451" y1="552.377" x2="-167.538" y2="551.6699">
	<stop  offset="0" style="stop-color:#339A2A"/>
	<stop  offset="0.9831" style="stop-color:#121E0D"/>
</linearGradient>
<g>
	<g>
		<path class="st0" d="M0,99.21C0,44.42,44.42,0,99.21,0c54.79,0,99.21,44.42,99.21,99.21c0,54.79-44.42,99.22-99.21,99.22
			C44.42,198.43,0,154.01,0,99.21z"/>
		<path d="M4.77,99.21c0-52.16,42.28-94.44,94.44-94.44c52.16,0,94.44,42.28,94.44,94.44c0,52.16-42.28,94.45-94.44,94.45
			C47.05,193.66,4.77,151.37,4.77,99.21z"/>
		<path class="st0" d="M10.01,99.21c0-49.26,39.94-89.2,89.2-89.2c49.26,0,89.2,39.94,89.2,89.2c0,49.27-39.94,89.21-89.2,89.21
			C49.95,188.42,10.01,148.48,10.01,99.21z"/>
		<path class="st1" d="M113.8,175.22c-6.59,0-11.38-4.99-11.38-10.68c0-0.83-0.06-1.2-0.02-1.8h6.21c1.8,0,1.51,2.44,1.51,2.44
			c0,1.88,2.03,2.73,3.56,2.77c1.86,0.05,3.38-1.66,3.38-3.54l-0.03-3.64c-1.19,0.65-3.55,0.63-3.55,0.63
			c-5.63-0.15-11.13-5.01-11.13-11.02v-2.68c0-6.01,5.12-10.73,11.13-10.73h0.25c6.01,0,10.67,4.86,10.67,10.87v16.41
			C124.41,170.44,120.03,175.16,113.8,175.22z"/>
		<path class="st2" d="M113.56,144.74h0.11c1.88,0,3.4,1.52,3.4,3.4v2.15c0,1.88-1.52,3.4-3.4,3.4h-0.11c-1.88,0-3.4-1.52-3.4-3.4
			v-2.15C110.16,146.26,111.68,144.74,113.56,144.74z"/>
		<path class="st1" d="M45.75,122.42v-17.4h10.14c8.39,0,11.39,15.24,0.48,17.4H45.75z M45.75,91.77V75.16h11.46
			c7.43,0,8.96,14.32,0.45,16.61H45.75z M32.08,61.38v74.06l23.33,0.02c18.82,0,28.38-22.84,15.29-36.92c0,0-0.04-0.04-0.04-0.11
			c0-0.07,0.09-0.14,0.09-0.14c10.88-12.29,6.32-33.87-13.91-36.92H32.08z"/>
		<path class="st1" d="M142.13,122.42v-17.4h10.07c8.39,0,11.39,15.24,0.48,17.4H142.13z M142.13,91.77V75.16h11.39
			c7.43,0,8.96,14.32,0.45,16.61H142.13z M128.39,61.38v74.06l23.33,0.02c18.82,0,28.38-22.84,15.29-36.92c0,0-0.04-0.04-0.04-0.11
			c0-0.07,0.09-0.14,0.09-0.14c10.88-12.29,6.32-33.87-13.91-36.92H128.39z"/>
		<path class="st1" d="M84.59,137.03h0.25c6.01,0,10.87,4.87,10.87,10.88v16.42c0,6.01-4.87,10.88-10.87,10.88h-0.25
			c-6.01,0-10.88-4.87-10.88-10.88v-16.42C73.72,141.9,78.59,137.03,84.59,137.03z"/>
		<path class="st2" d="M84.66,144.83h0.11c1.88,0,3.4,1.52,3.4,3.4v16.3c0,1.88-1.52,3.4-3.4,3.4h-0.11c-1.88,0-3.4-1.52-3.4-3.4
			v-16.3C81.26,146.35,82.79,144.83,84.66,144.83z"/>
		<polygon class="st1" points="69.64,24.39 93.91,99.47 104.41,99.47 128.39,24.39 113.7,24.39 99.14,74.5 84.67,24.39 		"/>
	</g>
</g>
</svg>
