<?xml version="1.0" encoding="UTF-8" standalone="no"?>
<!DOCTYPE svg PUBLIC "-//W3C//DTD SVG 1.0//EN" "http://www.w3.org/TR/2001/REC-SVG-20010904/DTD/svg10.dtd">
<!-- Created with Inkscape (http://www.inkscape.org/) -->
<svg
   xmlns:svg="http://www.w3.org/2000/svg"
   xmlns="http://www.w3.org/2000/svg"
   version="1.0"
   width="800"
   height="800"
   id="svg2">
  <defs
     id="defs4" />
  <g
     id="layer1">
    <path
       d="M 772.754,18.391392 C 794.77322,285.88293 816.43631,553.15421 572.3073,656.05406 C 496.13949,680.5703 433.49087,719.10245 400.58673,788.2278 C 367.68262,722.46564 308.36338,683.9335 232.19557,659.41725 C -11.933452,556.51741 9.729646,289.24612 31.748869,21.754584 C 149.09279,26.02041 276.02315,-21.936697 347.57564,76.067347 C 381.1867,47.216855 414.79777,38.831825 448.40884,73.213576 C 531.61605,-28.36752 654.06212,37.591931 772.754,18.391392 z"
       id="path2396"
       style="fill:#d62118;fill-opacity:1;fill-rule:evenodd;stroke:#000000;stroke-width:9.41695881;stroke-linecap:butt;stroke-linejoin:miter;stroke-miterlimit:4;stroke-dasharray:none;stroke-opacity:1" />
    <path
       d="M 35.355414,46.608124 L 36.930928,27.464105 C 185.78972,10.790136 311.95575,7.888055 346.62439,76.542979 C 380.70049,54.907742 414.45761,40.608956 446.0307,76.542979 C 525.41721,-20.5318 660.04972,33.947097 767.61456,24.78869 L 769.39845,46.593414 C 659.465,185.65266 538.73362,304.17882 411.30984,182.13247 L 385.15028,182.13247 C 292.05924,288.47144 145.84377,200.28656 35.355414,46.608124 z"
       id="path3188"
       style="fill:#ffffff;fill-rule:evenodd;stroke:#ffffff;stroke-width:1.88339186px;stroke-linecap:butt;stroke-linejoin:miter;stroke-opacity:1" />
    <path
       d="M 450.78696,122.67894 C 450.78696,149.9838 428.6265,172.14428 401.32161,172.14428 C 395.03152,172.14428 389.0144,170.96825 383.47832,168.82423 C 364.98274,161.66122 351.85629,143.6937 351.85629,122.67894 C 351.85629,115.9052 353.22011,109.44805 355.68795,103.56729 C 363.16794,85.742843 380.7905,73.213602 401.32161,73.213602 C 428.6265,73.213602 450.78696,95.37408 450.78696,122.67894 z"
       id="path3173"
       style="fill:#d62118;fill-opacity:1;stroke:none;stroke-width:5;stroke-miterlimit:4" />
    <path
       d="M 313.65236,355.862 A 17.425131,17.425131 0 1 1 278.8021,355.862 A 17.425131,17.425131 0 1 1 313.65236,355.862 z"
       transform="matrix(2.1208909,0,0,2.1208909,-226.94407,-632.06563)"
       id="path3171"
       style="fill:#ffffff;fill-opacity:1;stroke:none;stroke-width:5;stroke-miterlimit:4;stroke-dasharray:none" />
    <path
       d="M 190.49191,93.05441 L 329.05574,93.05441 L 329.05574,686.32282 C 280.65784,665.7133 232.72064,644.44561 190.49191,615.02299 L 190.49191,93.05441 z"
       id="rect3181"
       style="fill:#ffffff;fill-opacity:1;stroke:none;stroke-width:5;stroke-miterlimit:4;stroke-opacity:1" />
    <path
       d="M 385.67989,165.70449 C 336.35303,223.6771 294.61871,221.99421 254.05636,211.10274 C 267.79156,205.60951 280.81424,200.1163 289.53813,194.62307 C 255.99678,197.13914 224.94792,195.73849 200.24518,184.3653 C 211.36675,181.04236 222.03053,176.91832 228.15973,164.85874 C 201.06585,164.44583 174.03995,164.41801 143.23894,142.99793 C 160.30219,140.52771 176.07247,135.8886 185.61031,130.91927 C 152.63678,125.12326 118.73647,116.18986 95.817829,91.540974 L 138.02598,92.21363 C 85.000266,71.526075 80.534518,59.509941 59.999747,44.624347 C 156.61854,46.757138 245.87483,4.189168 358.84395,105.59181 C 357.61922,151.15718 371.42224,154.45922 385.67989,165.70449 z"
       id="path3176"
       style="fill:#d62118;fill-opacity:1;fill-rule:evenodd;stroke:#d62118;stroke-width:1.88339186px;stroke-linecap:butt;stroke-linejoin:miter;stroke-opacity:1" />
    <path
       d="M 609.54659,93.05441 L 470.98276,93.05441 L 470.98276,686.32282 C 519.38065,665.7133 567.31785,644.44561 609.54659,615.02299 L 609.54659,93.05441 z"
       id="path3184"
       style="fill:#ffffff;fill-opacity:1;stroke:none;stroke-width:5;stroke-miterlimit:4;stroke-opacity:1" />
    <path
       d="M 417.79342,165.70449 C 467.12028,223.6771 508.8546,221.99421 549.41695,211.10274 C 535.68175,205.60951 522.65907,200.1163 513.93519,194.62307 C 547.47653,197.13914 578.52539,195.73849 603.22813,184.3653 C 592.10657,181.04236 581.44278,176.91832 575.31359,164.85874 C 602.40746,164.44583 629.43336,164.41801 660.23437,142.99793 C 643.17112,140.52771 627.40084,135.8886 617.86301,130.91927 C 650.83653,125.12326 684.73684,116.18986 707.65548,91.540974 L 665.44733,92.21363 C 718.47304,71.526075 722.93879,59.509941 743.47356,44.624347 C 646.85477,46.757138 557.59848,4.189168 444.62936,105.59181 C 445.85409,151.15718 432.05107,154.45922 417.79342,165.70449 z"
       id="path3179"
       style="fill:#d62118;fill-opacity:1;fill-rule:evenodd;stroke:#d62118;stroke-width:1.88339186px;stroke-linecap:butt;stroke-linejoin:miter;stroke-opacity:1" />
  </g>
</svg>
