<?xml version="1.0" encoding="utf-8"?>
<!-- Generator: Adobe Illustrator 16.0.2, SVG Export Plug-In . SVG Version: 6.00 Build 0)  -->
<!DOCTYPE svg PUBLIC "-//W3C//DTD SVG 1.1//EN" "http://www.w3.org/Graphics/SVG/1.1/DTD/svg11.dtd">
<svg version="1.1" id="Ebene_1" xmlns="http://www.w3.org/2000/svg" xmlns:xlink="http://www.w3.org/1999/xlink" x="0px" y="0px"
	 width="289.622px" height="344.596px" viewBox="0 35.619 289.622 344.596" enable-background="new 0 35.619 289.622 344.596"
	 xml:space="preserve">
<g id="Layer_1">
	<g>
		<path fill="#003366" d="M144.813,40.892c0,0,30.887,3.104,71.921,16.587c37.313,12.276,72.89,31.734,72.89,31.734v5.58
			c0,132.95-27.924,214.665-144.811,285.422c0,0-18.699-11.318-36.042-24.595C19.03,286.891,0,209.368,0,94.793v-5.58
			c0,0,35.575-19.458,72.891-31.734C113.919,43.995,144.813,40.892,144.813,40.892z"/>
		<path fill="#FFFFFF" d="M73.871,60.464c40.653-13.367,70.941-16.425,70.941-16.425s30.286,3.058,70.938,16.425
			c37.039,12.179,70.737,30.608,70.737,30.608v3.721c0,114.102-18.905,190.452-107.547,258.331
			c-17.198,13.168-34.129,23.424-34.129,23.424s-16.935-10.256-34.133-23.424C22.038,285.246,3.141,208.895,3.141,94.793v-3.721
			C3.141,91.073,36.836,72.643,73.871,60.464z"/>
		<polygon fill="#003366" points="185.639,242.917 195.469,210.403 207.187,243.297 260.479,228.552 224.952,124.611 
			166.648,124.611 144.813,163.542 122.973,124.611 64.665,124.611 29.137,228.552 82.431,243.297 94.147,210.403 103.972,242.917 
					"/>
		<path fill="#003366" d="M230.618,117.179l0.006-44.772c28.414,10.816,49.588,22.388,49.588,22.388
			c0,58.193-5.426,97.567-14.01,126.907L230.618,117.179z M180.213,117.179l-17.336,0.01l-18.064,32.643l-18.068-32.643
			l-18.063-0.01v-60.09c22.026-5.301,36.132-6.732,36.132-6.732s13.792,1.396,35.399,6.55V117.179L180.213,117.179z
			 M230.624,292.099V244.54l30.84-8.431C252.855,259.506,242.034,276.067,230.624,292.099z M180.213,250.266v93.921
			c-19.193,15.209-35.4,25.026-35.4,25.026s-16.624-10.071-36.132-25.616v-93.331H180.213L180.213,250.266z M58.261,244.458v46.604
			c-11.088-15.644-21.59-31.917-29.996-54.654L58.261,244.458z M58.261,72.689v44.49L23.116,220.465
			C14.695,191.336,9.414,152.224,9.414,94.793C9.414,94.793,30.219,83.424,58.261,72.689z"/>
	</g>
</g>
</svg>
