<?xml version="1.0" encoding="utf-8"?>
<!-- Generator: Adobe Illustrator 13.0.0, SVG Export Plug-In . SVG Version: 6.00 Build 14948)  -->
<!DOCTYPE svg PUBLIC "-//W3C//DTD SVG 1.0//EN" "http://www.w3.org/TR/2001/REC-SVG-20010904/DTD/svg10.dtd">
<svg version="1.0" id="Ebene_1" xmlns="http://www.w3.org/2000/svg" xmlns:xlink="http://www.w3.org/1999/xlink" x="0px" y="0px"
	 width="233.761px" height="396.2px" viewBox="0 0 233.761 396.2" enable-background="new 0 0 233.761 396.2" xml:space="preserve">
<path fill="#152A70" d="M233.117,110.085l-0.04-27.646h-4.234c-55.365,0-63.876,0-109.714-31.201l-2.249-1.529l-2.249,1.529
	C68.794,82.439,60.284,82.439,4.918,82.439H0.684l-0.04,27.646c-0.406,91.438-0.828,185.997,114.454,242.059l1.783,0.868
	l1.783-0.868C233.945,296.083,233.524,201.523,233.117,110.085z"/>
<path fill="#FFFFFF" d="M211.312,241.528c-15.295,45.231-45.354,77.679-94.431,102.009c-49.078-24.33-79.136-56.778-94.432-102.009
	C10.368,205.792,9.078,165.756,9.078,126.237c0-5.389,0.022-10.762,0.048-16.116c0,0,0.017-13.496,0.028-19.203
	c51.658-0.021,63.102-0.833,107.727-30.964c44.625,30.131,56.068,30.944,107.727,30.964c0.011,5.707,0.028,19.203,0.028,19.203
	c0.026,5.354,0.048,10.727,0.048,16.116C224.684,165.756,223.394,205.792,211.312,241.528z"/>
<path fill="#152A70" d="M116.881,69.21C75.524,97.393,66.532,97.197,17.268,97.197l0.066,44.019h99.547h99.547l0.065-44.019
	C167.229,97.197,158.237,97.393,116.881,69.21z"/>
<path fill="#152A70" d="M116.881,159.679H17.286c1.826,80.693,20.38,135.633,99.595,174.013
	c79.215-38.38,97.769-93.32,99.595-174.013H116.881z"/>
<path fill="#FFFFFF" d="M116.881,331.744c-77.441-37.521-95.579-91.23-97.364-170.117h97.364h97.364
	C212.46,240.514,194.321,294.223,116.881,331.744z"/>
<g>
	<path fill="#FFFFFF" d="M166.739,108.563c1.032-1.997,2.384-2.834,4.188-2.447c0.771,0.127,1.48,0.451,2.123,1.095
		c0.581,0.579,1.159,1.352,1.549,2.317c0.257,0.515,0.449,1.418,0.706,2.576l6.956-1.222c-0.837-3.865-2.126-6.894-3.93-9.082
		c-1.801-2.254-4.25-3.799-7.468-4.57c-4.059-0.969-7.217,0-9.47,3.023c-2.317,3.157-3.541,8.179-3.671,14.942
		c-0.063,5.151,0.58,9.339,1.87,12.687c1.224,3.284,2.705,5.604,4.442,6.889c1.737,1.227,3.996,1.87,6.765,1.87
		c2.252,0,4.12-0.515,5.6-1.416c1.483-0.968,2.708-2.319,3.674-4.124c0.966-1.801,1.738-4.055,2.188-6.698l-6.827-3.54
		c-0.321,2.318-0.967,4.058-1.672,5.281c-0.774,1.16-1.935,1.739-3.417,1.675c-1.545-0.131-2.704-0.967-3.541-2.643
		c-0.902-1.672-1.287-4.699-1.223-9.012C165.643,112.62,166.031,110.108,166.739,108.563z"/>
	<path fill="#FFFFFF" d="M201.966,103.283l-8.569-0.52l-9.913,33.236h7.985l1.224-5.538l4.506,0.063l4.446,0.128l1.222,5.41h8.181
		L201.966,103.283z M197.199,123.376l-2.765-0.13l2.765-10.817l0.261-0.97l2.513,12.046L197.199,123.376z"/>
	<path fill="#FFFFFF" d="M44.312,112.492c0-1.995-0.196-3.45-0.711-4.802c-0.322-0.967-0.773-1.74-1.354-2.384
		c-1.415-1.61-3.478-2.188-6.376-1.997l-2.124,0.066L22.8,103.67v32.392h7.858v-12.107l3.027-0.13h1.29
		c3.089-0.125,5.471-1.156,7.017-3.155c0.645-0.902,1.16-1.868,1.546-3.023C44.054,116.165,44.312,114.423,44.312,112.492z
		 M35.744,116.033c-0.45,0.582-1.158,0.903-2.059,1.094c-0.387,0.065-0.709,0.065-1.094,0.129l-1.933,0.065v-7.278l2.254-0.128
		c0.257,0,0.516-0.065,0.773,0c1.029,0,1.804,0.322,2.19,0.902c0.579,0.641,0.771,1.546,0.771,2.574
		C36.646,114.423,36.389,115.326,35.744,116.033z"/>
	<path fill="#FFFFFF" d="M52.424,100.772l-8.886,32.523l-0.71,2.704h0.71h7.277l1.224-5.796l4.444-0.194l4.444-0.129l1.224,6.054
		h8.241l-9.152-35.978L52.424,100.772z M56.483,122.282l-2.77,0.192l2.77-13.009l2.831,12.555L56.483,122.282z"/>
	<path fill="#FFFFFF" d="M87.395,124.277c-0.708,1.481-1.867,2.319-3.413,2.383c-1.546,0.129-2.704-0.643-3.541-2.32
		c-0.901-1.609-1.289-4.702-1.222-9.272c0-3.736,0.383-6.504,1.092-8.372c0.967-2.576,2.318-4.123,4.121-4.573
		c0.774-0.191,1.481-0.064,2.126,0.323c0.645,0.388,1.159,1.093,1.61,1.995c0.257,0.58,0.451,1.548,0.707,2.833l6.955-4.248
		c-0.836-4.638-2.188-7.922-3.991-9.726c-1.803-1.738-4.317-2.061-7.536-1.031c-4.057,1.288-7.213,4.059-9.531,8.181
		c-2.191,4.055-3.414,9.272-3.414,15.776c-0.064,4.831,0.581,8.825,1.868,11.853c1.221,3.156,2.769,5.344,4.508,6.632
		c1.738,1.223,3.992,1.932,6.761,1.932c2.254,0,4.124-0.581,5.541-1.737c1.48-1.226,2.705-2.964,3.668-5.346
		c1.033-2.383,1.804-5.344,2.256-8.952l-6.892-2.898C88.747,120.541,88.169,122.731,87.395,124.277z"/>
	<polygon fill="#FFFFFF" points="116.247,103.219 107.746,103.734 107.875,86.539 100.018,88.278 99.761,135.803 107.554,135.741 
		107.618,115.839 116.119,115.518 116.057,135.741 123.911,135.741 124.298,86.345 116.376,85.701 	"/>
	<path fill="#FFFFFF" d="M145.613,118.61c0,2.446-0.384,4.379-1.157,5.604c-0.775,1.35-1.804,1.93-3.156,1.866
		c-1.417-0.128-2.448-0.904-3.22-2.381c-0.709-1.417-1.159-3.48-1.096-5.991l0.387-28.336l-7.856-1.998l-0.323,28.851
		c-0.064,2.385,0.194,5.154,0.708,8.244c0.258,1.932,0.775,3.801,1.612,5.604c0.771,1.801,1.738,3.153,2.702,4.122
		c0.968,1.031,2.193,1.608,3.671,1.932c1.419,0.321,2.77,0.515,3.996,0.515c2.123,0,3.993-0.515,5.474-1.483
		c1.092-0.641,2.124-1.863,3.154-3.539c0.967-1.678,1.738-3.542,2.19-5.799c0.451-2.188,0.709-4.507,0.709-7.02l0.386-25.18
		l-7.792-1.933L145.613,118.61z"/>
</g>
<path fill="#152A70" d="M153.369,285.194l-2.051-1.299l-1.229-16.701l-0.997-1.622l-1.089-25.664l-10.424-5.1l1.228-0.479
	c0,0,7.044,3.763,9.298,4.514c0.956-1.505,1.23-2.732,2.461-3.487c0.546-1.026-1.505-3.757-1.505-3.757l-3.759-9.025l-1.857,0.375
	l-1.356-11.383v-1.779c3.213-15.244,3.762-8.271-0.75-21.669l-12.786-3.008v-5.061l0.753-0.477c0.271,0.274,2.735,2.257,2.735,2.737
	l-0.483,0.272c0,1.025,1.987,1.982,2.532,2.733h1.711c0.75-0.751,1.505-1.501,1.778-1.708c0.75,0.751,0.75,0.477,0.75,0.957
	c0.275,0-1.024,1.503-0.75,1.503l1.778-0.204c0.478-0.548,1.982-2.256,0.478-3.553c-0.478-1.983-2.256-2.737-2.529-4.242
	l-1.982-1.775v-4.99l-0.478-0.479v-1.027l-2.258-1.982c-1.03,0,0,0-2.256,0.751c0,0.276,0,0.276,0,0.276
	c-0.273,0-0.755,0.204-0.755,0c0-0.276-0.271-0.55,0-1.299c-0.271-0.751-1.775-1.983-2.253-2.462l-1.301,0.956
	c-0.205-0.477-0.751-0.956-0.957-0.477l-1.024,1.232c-0.752,0-0.752-2.26-0.752-2.737c0-0.273-0.48-0.273-0.48-0.273v1.299
	l-1.299,2.462h-0.203c-2.257-1.983-2.734-3.214-5.538-3.011l-1.708,1.504l-0.479-0.477c-0.751,1.983-2.461,1.983-1.504,3.486
	c0,0.751,0,1.502-0.479,2.049c-0.753,0.208-0.479,0-1.024-0.547c-0.208,0.547-0.479,0.755-1.234,1.302
	c0-0.274-0.271-0.546-0.478-0.546l-1.503,0.75c0,0,0,0-0.271,0c-0.753,0.548-1.234,0.754-1.777,1.232l-0.206,2.256
	c-1.3,0-0.753,0-0.753,0.273c0,0.751-1.026,0.273-1.026,0.273s-0.271-1.025-0.751-0.273c0,0.751,0,1.778,0.751,1.778
	c1.503,0.75,2.256,1.231,2.528,1.982c0,0.477-0.271,2.257-0.271,3.486l-2.256,1.505c0,0.547-0.479,0.547-0.479,0.547
	c0,0.479,0.958,1.231,0.958,1.231c0,0.477,0,0.477-0.479,0.751c-0.479,0-0.751-0.274-1.026-0.274c-0.203,0-0.75,0.274-0.75,0.752
	c0,0.754,0,1.985,0,3.486c0-1.501-0.205,1.712-0.684,1.712l-1.777,1.024l0.479,3.486l0.547,0.751
	c0.751,0.476,0.203,2.255,0.203,2.255l-2.561,26.371l-2.429,0.155c0,0,0,0-0.479,0c0.479,0.754,0.479,1.778,0.479,2.256
	c-0.273,0-0.751,0-0.751,0.271l-0.753,0.48c0,0.55,0,0.55-0.479,0.55l-0.545,2.183l-1.505,1.029v2.253l3.319,2.681l-0.79,13.867
	l-0.479,0.478l-0.545,11.758l-1.505,1.5l-0.206,3.762v0.271l-0.545,7.731l-0.479,5.056l-1.777,1.707v5.539l38.779,2.296
	l26.293-2.583L153.369,285.194z M149.405,272.408l-0.207,0.818l-9.911-1.024l0.137,3.01h-2.054l0.548-3.966L149.405,272.408z
	 M147.423,267.488l-14.494-0.958l0.545-2.667l3.763,0.481l3.213,0.75l0.203,1.166l7.453,0.205L147.423,267.488z M143.458,255.387
	l1.638,2.668l1.573,0.546l0.137,3.279l-2.188-0.204l-1.98-0.271L143.458,255.387z M144.139,263.111l-6.699-0.273l-5.882-0.409
	l1.644-2.394l3.282,1.844l3.898-0.066L144.139,263.111z M131.157,257.027l-0.012-16.073l2.34-5.326l0.802,2.369l0.018,20.122
	L131.157,257.027z M139.2,260.771l-4.19-0.142v-4.56l4.19,0.742V260.771z M137.986,239.8l1.233,2.735l-0.02,12.715l-4.19-0.768
	v-13.692l1.542-0.581L137.986,239.8z M137.306,215.531c0.337,0.411,0.818,0.752,1.161,1.025l-1.845,1.571l-0.96-1.438
	L137.306,215.531z M139.835,225.236l-4.241,0.068l-3.28-0.068l4.033-2.458C136.688,223.118,139.425,224.895,139.835,225.236z
	 M132.108,208.081l0.343-8.003l1.571,0.824l0.136,7.589l0.07,7.313c-0.617,0.546-1.436,0.684-2.258,0.274
	C131.904,212.726,132.177,212.726,132.108,208.081z M131.426,221.272c0.34,0.344,0.751,0.685,1.162,1.028l-1.917,1.501l-0.887-1.367
	L131.426,221.272z M128.963,226.193l14.082-0.339c0.346,0.409-1.094,1.436-0.681,1.777l-15.383,1.161L128.963,226.193z
	 M98.2,236.245l-2.394-1.092l21.535-2.804l0.684-0.065l-0.137,0.818L117,233.85L98.2,236.245z M98.677,237.612l-1.571,0.342
	c0,0-0.684,0.546-0.956,1.095c-0.139,0-0.977-0.478-0.908-0.818c0.067-0.069,1.723-1.56,1.723-1.56L98.677,237.612z
	 M104.147,226.811l2.643-1.946l3.679,0.863l-3.588,3.545L104.147,226.811z M114.061,254.292l0.34-13.74l2.052-1.573l0.82-1.641
	l1.639,0.616l-0.008,15.503L114.061,254.292z M118.904,254.831v5.099l-5.529,0.382l0.343-4.513L118.904,254.831z M114.607,237.135
	c0.138-0.208,1.436-2.735,1.846-2.601l0.41,0.752l-1.437,2.395L114.607,237.135z M113.17,257.71l-0.067,1.987l-1.574-0.618
	l-1.641,1.982l-6.7-0.067v-2.939L113.17,257.71z M102.506,240.276l-0.07,5.472l-1.228,0.41l0.204-5.402h0.275l0.544-0.82
	L102.506,240.276z M101.07,249.506l0.82-1.842l0.409,0.818l-0.134,12.923l-1.848,0.821l0.412-12.58L101.07,249.506z M102.78,262.363
	l8.409-0.893l7.793-0.685l-1.505,1.297l-6.15,0.618l-12.171,1.093L102.78,262.363z M120.008,261.197l3.213,0.273l6.563,0.409
	l-2.46,1.095l-4.308,0.344l-5.128-0.687L120.008,261.197z M119.667,195.668l2.048,0.861v14.855
	c-0.547,0.617-1.161,0.738-2.048,0.327C119.667,211.618,119.667,195.668,119.667,195.668z M119.683,212.57l2.033,0.63l0.001,10.33
	l-2.049,1.22L119.683,212.57z M123.701,224.077c0.34,0.34,3.351,1.846,3.756,2.186l-3.894,2.119l-2.735-2.389L123.701,224.077z
	 M121.717,260.515l-2.045-0.581l-0.004-22.117l1.161,0.408l0.888-1.639V260.515z M122.934,260.629l0.012-21.31l3.216-0.819
	l2.237-6.562l1.59,2.59l0.007,26.178L122.934,260.629z M124.313,182.853l3.421-1.642l-0.012,3.94l-3.817,1.188L124.313,182.853z
	 M102.847,187.569c0.207,0.476,0.276,0.412,0.891,0.137l0.816,0.339l2.6-2.251l0.547,0.34l2.255-1.711
	c0.274-0.271-1.504-2.115-1.639-2.253l0.956-0.617l1.367,1.027l0.958,0.685l2.391-1.712c-0.133-0.409-2.117-1.844-2.527-2.323
	c0.616-0.823,1.094-0.823,1.708-1.434v0.066l1.505,1.846l-0.068,0.82l2.188,2.119l1.367-0.067l0.34,0.411
	c-0.203,1.092,2.804,0.955,3.9,0.544c0.478,0,0.956,0,1.299,0.137c-0.277,3.218-4.582,1.779-4.582,4.652
	c-0.617,0.065-2.872-1.576-2.393-2.6l0.889-1.094c0-0.207-3.28-2.12-2.87-1.846c-2.735-0.614-6.497,4.582-8.685,6.563l0.549,0.548
	c0,0-0.615,0.751-0.686,0.82l-3.691,0.208c0,0-0.204-2.805-0.204-2.941C102.166,187.706,102.436,187.501,102.847,187.569z
	 M113.375,189.827l-0.957-0.481l0.957-1.365l1.026-0.068C114.197,188.389,113.582,189.346,113.375,189.827z M113.718,192.356
	c-0.136,0.411-0.821,1.504-1.024,1.982l-1.026-0.478l1.026-1.438L113.718,192.356z M114.54,189.827l0.136-0.41l0.617-0.414h0.067
	c0.206,0,0.343,0.07,0.479,0.208l-0.413,0.476c-0.067,0-0.134,0-0.203,0.07c-0.068,0.07-0.139,0.203-0.139,0.274
	c-0.409,0.207-0.478,0.479-0.75,0.819c-0.208-0.065-0.273-0.271-0.345-0.476C113.989,190.098,114.334,190.031,114.54,189.827z
	 M111.254,191.193l-0.68,0.82l-1.096-1.368l0.274-1.091C110.095,189.894,110.914,190.85,111.254,191.193z M104.555,193.655
	c0.344,0.34,0.617,4.034,0.958,4.375l-2.869,0.206l-0.753-2.599L104.555,193.655z M101.246,199.95l4.474,1.84l-1.435,19.071
	l-5.196,1.917L101.246,199.95z M99.037,223.865l5.876-2.386l1.338-19.549c0,0,0.56-0.48,0.358-0.958
	c0.957-1.164,1.709-2.051,2.801-3.079c-0.684-0.543-1.571-1.161-2.322-1.502c0.271-0.688-0.207-2.735,0.682-2.941l4.582,4.1
	c0.545-0.067,0.136-0.751,0.067-0.888l-2.666-1.982l0.275-0.136c0.408,0.07,0.984,0.608,1.876,0.906
	c1.394,0.462,3.306-0.438,3.8-0.958c0.146-0.174,4.062-3.801,4.372-4.049c1.434,0.615,0.547,1.643,1.368,2.256
	c0.958-0.41,1.162-0.684,1.914-1.093c2.188,0.342,2.188,0.819,4.031-0.205l0.755,0.341c0,0.411,0.203,29.946,0.203,29.946
	l-1.162,0.682c-0.205,0.412-0.684,0.752-1.23,0.821c-0.273,0-0.409-0.275-0.546-0.204c-0.275-0.071-0.275,0.204-0.478,0.338
	l-1.961-1.063v-27.629l-1.593-1.659l-2.532,1.436l-0.273,7.794c-0.821-0.342-1.163-1.166-1.71-1.778
	c-0.685-0.615,0.138-1.71-0.41-2.324l-0.956-0.891c0.272-0.75,0.886-0.888,1.163-1.639c0.477-0.136,0.75-0.891,0.203-1.026
	c-0.548,0.136-0.82,0.89-1.298,1.23c-0.272,0.477-0.549,0.685-0.82,1.025l0.34,1.165l0.889,0.682l-0.135,1.162l-1.163,0.34
	l-0.274-0.41l-2.116,1.777c-0.068-0.065-0.958-0.75-1.096-0.684c-0.274,0.343-2.736,2.393-3.214,3.418
	c0,0.207,0.273,0.207,0.411,0.41c0.409,0,2.12-1.843,2.326-2.253l0.616,0.547c-1.37,1.434-2.328,3.139-3.694,4.578l-0.412,7.587
	l-0.204,3.079c0.204,0.134,0.549,0.273,0.821,0.203c0.41-1.093,0.274-2.528,0.342-3.827c0.272-2.052,0.479-4.242,0.479-6.292
	l3.143-3.758l0.276,0.41c0,0.139-1.232,2.598-1.366,2.666v7.931l-0.071,2.87l0.136,0.478c0.551,0,2.19,0,2.874,0.482l-0.275,1.366
	c-0.068,0.134-0.136,0.205-0.205,0.408h-3.213c-0.069,0.07-0.069,0.138-0.069,0.208c0,0.208,0.207,0.409,0.479,0.547
	c0.345-0.272,0.888-0.272,1.232,0l0.547-0.204l0.821,0.272l-0.07,0.478l-0.627,1.663c0,0-3.844-1.11-4.635-1.374
	c-0.789-0.261-1.141-0.256-1.653,0.118c-0.466,0.357-7.002,5.212-7.41,5.559L99.037,223.865z M117.207,222.708l-0.344-0.342
	l-1.229-0.547l0.271-0.478c0-0.138-0.136-0.208-0.271-0.274l-0.479,0.137c-0.07,0.068-0.07,0.275-0.07,0.412
	c-0.069-0.137-0.069-0.274-0.271-0.344c0.067,0,0.271-0.068,0.271-0.271c0.07-0.14-0.069-0.274-0.204-0.411
	c-0.067,0-0.136,0-0.205,0l-0.136-1.093c0.136-0.136,0.476,0,0.615-0.207c0.137,0.07,0.137,0.138,0.271,0.207
	c0.343-0.207,1.652-0.983,1.652-0.983l-0.009-12.621l-1.71-2.052l-0.274-0.819l2.257,0.886l-3.079-2.05
	c-0.406,0.137-1.296,1.229-1.16,1.164l-0.752-0.273l1.776-2.054l3.08,1.506l0.682,0.821c0.068,0,0.137,0.136,0.206,0.272
	l0.409,6.492l-0.067,13.264L117.207,222.708z M118.436,224.005l-0.136,1.78l-5.743-1.571l1.778-2.395
	C114.675,222.229,118.025,223.736,118.436,224.005z M112.967,212.522v4.512c0,0-1.026,0.614-1.233,0.547l-0.479-9.091
	C112.01,210.061,112.285,210.882,112.967,212.522z M92.184,233.922l14.626-10.804l14.156,4.106l-2.12,0.132l-12.169-3.009
	l-14.562,10.737L92.184,233.922z M92.319,235.833l2.528-0.511l1.512,0.975l-1.647,1.45L92.319,235.833z M95.328,240.689l1.232-0.206
	l2.594-2.415l1.232,1.188l-0.479,15.516l-5.494,0.921L95.328,240.689z M94.215,256.986l5.644-0.897l-0.499,5.178l-5.396,0.302
	L94.215,256.986z M93.816,264.906l0.146-2.067l5.058-0.475l-1.095,2.322l-0.887,1.432l-4.514-0.066L93.816,264.906z M97.995,284.99
	c0,0.342,0.067,0.133,0.067,0.615l-4.239,0.136l-4.168-0.409l-0.137-0.618L97.995,284.99z M88.909,289.384v-1.444l9.7,0.444
	l-0.014,1.468L88.909,289.384z M99.088,283.827l-6.564-1.571l6.564,0.271C99.088,282.938,99.088,283.28,99.088,283.827z
	 M98.884,280.339l-7.251,0.068l1.029-4.443l0.545-4.921l5.54,0.203l0.682,4.784L98.884,280.339z M101.001,271.109l0.069-2.462
	l2.118,0.55l7.043-0.411l0.545,1.161l-1.298,0.821L101.001,271.109z M117.957,276.169l-0.615,4.304l-7.794,0.345l0.41-5.947
	l1.776-3.693l6.36,0.546L117.957,276.169z M121.7,289.706l-2.058,0.27l0.039-20.614l2.019,0.497V289.706z M129.373,290.115h-6.084
	c-0.273-0.206,0.343-0.206,0.89-0.273h0.617h5.603C130.196,289.91,129.988,290.048,129.373,290.115z M122.746,280.545l0.818-5.673
	l1.914-0.549l-0.546-4.237l5.195,1.093l0.272,4.787l0.343,4.92L122.746,280.545z M112.487,266.258l-14.082,0.341l5.467-2.394
	l9.435-0.412l17.844,0.412l0.547,2.324L112.487,266.258z M135.117,276.374l-0.343,4.512l-2.732,0.138l0.615-3.691l0.545-2.46
	l0.547-3.487l1.575,0.065L135.117,276.374z M139.697,284.1c-0.069,0.208-0.272,0.208-0.34,0.414l-0.89,0.339
	c-0.068,0-0.206,0-0.273,0c-0.139,0-0.207-0.069-0.274-0.207l-0.89-0.612l-0.342-0.412c0.067,0,0.139,0,0.206-0.066
	c0.136,0.066,0.273,0.066,0.344,0l0.406,0.066c0.07-0.137,0.343,0,0.55,0c0.068-0.137,0.273,0,0.477,0c0.137-0.137,0.341,0,0.55,0
	c0-0.066,0.068-0.066,0.206-0.066l0.272,0.272C139.697,283.827,139.697,284.033,139.697,284.1z M152.003,289.297l-11.218,0.95
	l-0.404-2.66l3.897-0.139l4.649,0.274l3.281,0.069L152.003,289.297z"/>
<g>
	<path fill="#152A70" d="M42.278,193.652l-0.104-2.415c1.244-0.977,2.136-2.036,2.685-3.176c0.546-1.142,0.788-2.431,0.724-3.872
		c-0.098-2.277-1.024-4.181-2.777-5.713c-1.753-1.529-3.817-2.244-6.196-2.139c-2.396,0.104-4.4,0.999-6.014,2.685
		c-1.612,1.688-2.368,3.66-2.271,5.92c0.063,1.412,0.409,2.667,1.046,3.76c0.634,1.096,1.562,2.042,2.78,2.835l0.104,2.37
		c-1.809-0.873-3.213-2.067-4.217-3.585c-1.003-1.521-1.547-3.288-1.636-5.308c-0.128-2.916,0.793-5.406,2.76-7.479
		c1.967-2.073,4.464-3.174,7.492-3.304c1.425-0.063,2.786,0.146,4.086,0.632c1.299,0.485,2.485,1.224,3.554,2.212
		c1.02,0.936,1.804,1.991,2.348,3.167c0.546,1.173,0.85,2.461,0.91,3.857c0.088,2.02-0.326,3.858-1.24,5.514
		C45.399,191.265,44.054,192.613,42.278,193.652z"/>
	<path fill="#152A70" d="M48.072,197.336l0.243,2.001l-18.259,2.231l0.869,7.109l-1.955,0.238l-1.113-9.109L48.072,197.336z"/>
	<path fill="#152A70" d="M49.714,210.126l0.417,1.972l-11.994,2.529c-1.29,0.272-2.208,0.526-2.765,0.761
		c-0.555,0.238-1.016,0.53-1.383,0.872c-0.559,0.548-0.949,1.177-1.161,1.887c-0.214,0.71-0.237,1.451-0.072,2.229
		c0.164,0.786,0.491,1.466,0.979,2.035c0.488,0.569,1.092,0.986,1.814,1.244c0.485,0.173,1.027,0.252,1.625,0.241
		c0.597-0.011,1.539-0.152,2.828-0.422l11.994-2.529l0.405,1.925l-12.678,2.674c-2.583,0.547-4.619,0.439-6.105-0.318
		c-1.487-0.763-2.451-2.192-2.895-4.292c-0.47-2.229-0.195-4.001,0.823-5.319c1.021-1.318,2.849-2.256,5.49-2.811L49.714,210.126z"
		/>
	<path fill="#152A70" d="M45.019,235.441c0.509,1.534,0.586,2.781,0.229,3.753c-0.356,0.969-1.145,1.656-2.37,2.066
		c-1.232,0.41-2.27,0.342-3.115-0.209c-0.842-0.549-1.523-1.597-2.041-3.146l-0.898-2.695l7.302-2.434L45.019,235.441z
		 M53.125,231.883c0.479,1.433,0.57,2.599,0.275,3.492c-0.295,0.896-0.976,1.521-2.042,1.875c-1.194,0.398-2.173,0.312-2.937-0.258
		c-0.764-0.57-1.455-1.79-2.079-3.659l-0.39-1.168l6.54-2.181L53.125,231.883z M34.389,233.993l1.433,4.295
		c0.74,2.216,1.797,3.721,3.17,4.514c1.375,0.792,3.033,0.864,4.976,0.215c1.088-0.36,1.943-0.938,2.565-1.736
		c0.625-0.792,0.935-1.694,0.934-2.702c0.599,0.5,1.266,0.807,2.003,0.926c0.74,0.115,1.521,0.038,2.346-0.235
		c1.603-0.537,2.697-1.481,3.289-2.837c0.589-1.361,0.584-2.942-0.019-4.747l-1.378-4.136L34.389,233.993z"/>
	<path fill="#152A70" d="M63.413,255.515c1.234,2.125,1.576,4.168,1.022,6.134c-0.554,1.962-1.91,3.57-4.071,4.828
		c-2.196,1.277-4.296,1.702-6.3,1.28c-2.005-0.422-3.583-1.625-4.735-3.604l-2.364-4.073l14.277-8.3L63.413,255.515z
		 M44.311,259.347l2.667,4.584c0.922,1.592,1.741,2.732,2.455,3.435c0.711,0.696,1.562,1.259,2.545,1.691
		c1.518,0.66,3.073,0.93,4.668,0.809c1.594-0.124,3.166-0.634,4.714-1.535c2.589-1.505,4.222-3.542,4.906-6.111
		c0.685-2.572,0.26-5.176-1.267-7.806l-3.082-5.3L44.311,259.347z"/>
	<path fill="#152A70" d="M72.265,265.906l6.619,8.27l-1.503,1.203l-5.358-6.697l-5.663,4.528l5.342,6.676l-1.502,1.203l-5.342-6.676
		L59.126,279l5.341,6.674l-1.502,1.203l-6.6-8.247L72.265,265.906z"/>
</g>
<g>
	<path fill="#152A70" d="M186.948,183.913l0.059-2.011l18.388,0.537l0.209-7.157l1.97,0.059l-0.27,9.172L186.948,183.913z"/>
	<path fill="#152A70" d="M190.366,194.409c1.849-1.446,3.918-2.039,6.219-1.779c2.454,0.274,4.435,1.301,5.94,3.074
		c1.502,1.774,2.125,3.812,1.867,6.109c-0.262,2.337-1.313,4.22-3.146,5.646c-1.836,1.426-3.953,2.004-6.354,1.734
		c-2.373-0.265-4.31-1.291-5.813-3.084c-1.5-1.785-2.124-3.814-1.87-6.085C187.468,197.724,188.519,195.853,190.366,194.409z
		 M185.604,203.767c0.36,1.256,0.969,2.422,1.823,3.494c0.901,1.152,1.96,2.069,3.168,2.75c1.207,0.679,2.52,1.098,3.937,1.258
		c3.011,0.337,5.648-0.364,7.914-2.11c2.266-1.745,3.559-4.071,3.887-6.985c0.17-1.521,0.043-2.96-0.383-4.324
		c-0.431-1.365-1.152-2.625-2.167-3.779c-0.881-1.001-1.897-1.791-3.046-2.37c-1.149-0.582-2.445-0.951-3.879-1.114
		c-1.446-0.162-2.83-0.05-4.155,0.336c-1.324,0.387-2.532,1.029-3.629,1.93c-1.094,0.892-1.957,1.913-2.589,3.068
		c-0.63,1.156-1.025,2.443-1.185,3.86C185.14,201.183,185.243,202.511,185.604,203.767z"/>
	<path fill="#152A70" d="M192.444,223.805c0.37-1.568,0.961-2.673,1.774-3.311s1.846-0.809,3.103-0.511
		c1.263,0.295,2.11,0.899,2.542,1.813c0.43,0.908,0.453,2.16,0.081,3.747l-0.649,2.769l-7.494-1.766L192.444,223.805z
		 M183.675,222.58c0.348-1.472,0.88-2.513,1.603-3.118c0.718-0.606,1.628-0.781,2.723-0.523c1.223,0.288,2.011,0.876,2.36,1.763
		c0.349,0.887,0.299,2.288-0.151,4.205l-0.28,1.197l-6.711-1.578L183.675,222.58z M200.727,230.624l1.036-4.407
		c0.535-2.271,0.428-4.108-0.324-5.506c-0.752-1.395-2.126-2.328-4.122-2.798c-1.115-0.261-2.144-0.22-3.094,0.132
		c-0.946,0.346-1.684,0.953-2.212,1.81c-0.249-0.74-0.655-1.354-1.221-1.843c-0.567-0.487-1.271-0.832-2.117-1.029
		c-1.645-0.39-3.078-0.159-4.292,0.687c-1.217,0.846-2.041,2.194-2.478,4.048l-0.997,4.243L200.727,230.624z"/>
	<path fill="#152A70" d="M176.29,239.916l3.372-9.678l1.903,0.665l-1.354,3.887l17.327,6.044l-0.663,1.9l-17.328-6.042l-1.355,3.888
		L176.29,239.916z"/>
	<path fill="#152A70" d="M168.813,255.761l0.899-1.801l10.965,5.481c1.178,0.588,2.057,0.961,2.639,1.121
		c0.58,0.165,1.121,0.221,1.625,0.18c0.781-0.081,1.476-0.333,2.083-0.755c0.606-0.421,1.084-0.987,1.443-1.699
		c0.358-0.718,0.526-1.454,0.497-2.204c-0.026-0.75-0.242-1.45-0.645-2.102c-0.272-0.439-0.644-0.837-1.122-1.203
		c-0.475-0.363-1.3-0.838-2.477-1.427l-10.965-5.479l0.881-1.763l11.59,5.796c2.363,1.179,3.89,2.53,4.58,4.049
		c0.692,1.519,0.558,3.24-0.402,5.161c-1.019,2.039-2.338,3.257-3.956,3.654c-1.616,0.396-3.632-0.008-6.045-1.216L168.813,255.761z
		"/>
	<path fill="#152A70" d="M160.288,268.534l5.743-8.274l1.656,1.15l-4.62,6.655l5.843,4.058l4.62-6.655l1.655,1.149l-4.619,6.656
		l7.575,5.259l-1.125,1.617L160.288,268.534z"/>
</g>
<g>
	<polygon fill="#152A70" points="116.88,0 121.754,12.808 136.21,13.163 124.693,21.389 128.867,34.373 116.88,26.674 
		104.953,34.373 109.064,21.389 97.55,13.163 112.064,12.808 	"/>
</g>
<polygon fill="#152A70" points="165.656,15.939 170.53,28.748 184.985,29.103 173.468,37.328 177.642,50.312 165.656,42.614 
	153.727,50.312 157.839,37.328 146.326,29.103 160.839,28.748 "/>
<g>
	<polygon fill="#152A70" points="214.431,31.877 219.305,44.686 233.761,45.041 222.243,53.267 226.417,66.25 214.431,58.553 
		202.503,66.25 206.616,53.267 195.101,45.041 209.614,44.686 	"/>
</g>
<g>
	<polygon fill="#152A70" points="19.331,31.877 24.205,44.686 38.66,45.041 27.143,53.267 31.318,66.25 19.331,58.553 7.403,66.25 
		11.514,53.267 0,45.041 14.513,44.686 	"/>
</g>
<g>
	<polygon fill="#152A70" points="68.105,15.939 72.98,28.748 87.436,29.103 75.918,37.329 80.093,50.312 68.105,42.615 
		56.178,50.312 60.289,37.329 48.775,29.103 63.29,28.748 	"/>
</g>
<rect x="17.269" y="145.173" fill="#0D6929" width="72.039" height="10.84"/>
<rect x="144.454" y="145.173" fill="#D7001F" width="72.041" height="10.84"/>
<polygon fill="#AB8315" points="174.741,330.268 179.615,343.074 194.071,343.431 182.554,351.656 186.728,364.639 174.741,356.942 
	162.813,364.639 166.926,351.656 155.411,343.431 169.924,343.074 "/>
<polygon fill="#AB8315" points="116.88,361.827 121.755,374.635 136.21,374.989 124.693,383.215 128.867,396.2 116.88,388.503 
	104.953,396.2 109.064,383.215 97.551,374.989 112.064,374.635 "/>
<polygon fill="#AB8315" points="59.019,330.268 63.894,343.074 78.349,343.431 66.832,351.656 71.007,364.639 59.019,356.942 
	47.092,364.639 51.204,351.656 39.689,343.431 54.203,343.074 "/>
</svg>
