<svg version="1.2" xmlns="http://www.w3.org/2000/svg" viewBox="0 0 210 210" width="210" height="210">
	<title>latest-svg</title>
	<style>
		.s0 { fill: #dba111 } 
		.s1 { fill: #001489 } 
		.s2 { fill: #ffffff } 
		.s3 { fill: #d1d3d4 } 
		.s4 { fill: #ff0000 } 
		.s5 { fill: #6a7ab5 } 
		.s6 { fill: none } 
	</style>
	<path id="path3381" class="s0" d="m209.5 104.7c0 57.9-46.9 104.8-104.8 104.8-57.8 0-104.7-46.9-104.7-104.8 0-57.8 46.9-104.7 104.7-104.7 57.9 0 104.8 46.9 104.8 104.7z"/>
	<path id="path3383" class="s1" d="m206 104.7c0 56-45.3 101.3-101.3 101.3-55.9 0-101.2-45.3-101.2-101.3 0-55.9 45.3-101.2 101.2-101.2 56 0 101.3 45.3 101.3 101.2z"/>
	<path id="path3385" class="s0" d="m176.9 104.7c0 39.9-32.3 72.2-72.2 72.2-39.8 0-72.1-32.3-72.1-72.2 0-39.8 32.3-72.1 72.1-72.1 39.9 0 72.2 32.3 72.2 72.1z"/>
	<path id="path3387" class="s2" d="m174.7 104.7c0 38.7-31.3 70-70 70-38.6 0-69.9-31.3-69.9-70 0-38.6 31.3-69.9 69.9-69.9 38.7 0 70 31.3 70 69.9z"/>
	<path id="path3389" class="s0" d="m44.8 165.1c0.8 0.7 2.7 2.6 2.7 2.6l1.8-2-5.5-5.2-0.7 0.8-7.3 7.6 2.8 2.7c0 0 2.4-2.5 3.2-3.4 0.7 0.7 2.4 2.3 2.4 2.3l1.9-1.9c0 0-1.7-1.6-2.5-2.3 0.5-0.5 0.7-0.7 1.2-1.2z"/>
	<path id="path3391" fill-rule="evenodd" class="s0" d="m58 174.8c0 1.3-0.4 2.6-1.2 3.7-1 1.4-2.4 2.3-4 2.6-1.5 0.2-3-0.1-4.2-1-1.3-0.9-2.1-2.2-2.3-3.7-0.3-1.5 0.1-3.2 1.1-4.6 1-1.4 2.4-2.3 4-2.6 1.5-0.2 3 0.1 4.2 1 1.2 0.9 2.1 2.2 2.3 3.7q0.1 0.4 0.1 0.9zm-4.4 1.4c0.6-0.8 1.8-2.9 0.5-3.8-1.3-0.9-2.7 0.7-3.5 1.7-0.7 1-1.8 2.9-0.5 3.8 1.3 1 2.9-0.9 3.5-1.7z"/>
	<path id="path3393" fill-rule="evenodd" class="s0" d="m68.9 184.8c-0.8 1.5-2.1 2.6-3.6 3.1-1.4 0.5-2.9 0.4-4.3-0.3-1.4-0.7-2.4-1.8-2.8-3.3-0.5-1.5-0.4-3.2 0.4-4.7 1.6-3.1 4.9-4.3 7.9-2.8 2.9 1.4 4 4.9 2.4 8zm-3.5-1.8c0.6-1.2 0.8-2.4 0.6-3.1q-0.2-0.5-0.7-0.8c-1.4-0.7-2.6 1.1-3.2 2.3-0.3 0.6-0.7 1.6-0.7 2.4 0 0.6 0.2 1.1 0.8 1.4q0.5 0.3 1 0.1c0.7-0.2 1.5-1.1 2.2-2.3z"/>
	<path id="path3395" class="s0" d="m72.5 181l-0.5 1.6c0 0 1.4 0.4 1.8 0.6-0.5 1.5-3 8.4-3 8.4l3.6 1.3c0 0 2.5-6.9 3-8.5 0.4 0.2 1.8 0.7 1.8 0.7l0.9-2.5-7.2-2.6z"/>
	<path id="path3397" fill-rule="evenodd" class="s0" d="m90.6 187.8q0 0.4-0.1 0.7c-0.1 0.8-0.5 1.4-1.1 1.9q0.6 0.8 0.6 1.8 0 0.4 0 0.8c-0.3 1-0.8 1.8-1.5 2.3-0.6 0.4-1.7 0.8-3.3 0.4l-4.9-1 2.1-10.4 0.3-1 4.8 1.1c2.3 0.4 3.1 2.1 3.1 3.4zm-4.4 4.1c0-0.3-0.1-0.8-0.7-0.9 0 0-0.3-0.1-0.5-0.1-0.2 0.7-0.3 1.2-0.4 2 0.2 0 0.4 0.1 0.4 0.1q0.6 0.1 0.9-0.1c0.1-0.1 0.2-0.4 0.3-0.6q0-0.1 0-0.4zm-0.7-3.6c0.2 0 0.3 0.1 0.3 0.1 0.8 0.1 0.9-0.3 1-0.6q0-0.2 0-0.3 0-0.2-0.1-0.3c-0.1-0.2-0.4-0.4-0.8-0.5-0.2 0.7-0.2 1-0.4 1.6z"/>
	<path id="path3399" class="s0" d="m96.5 186l-5.3 10.9 3.1 0.2c0 0 0.8-1.7 1.1-2.4q1 0.1 1.9 0.2c0.3 0.7 0.9 2.5 0.9 2.5l4 0.3-4.5-13.9z"/>
	<path id="path3401" class="s0" d="m108.5 194.7c-0.1-1.6-0.4-8.8-0.4-8.8l-3.8 0.2 0.5 11.6 7.7-0.4-0.2-2.7c0 0-2.7 0.1-3.8 0.1z"/>
	<path id="path3403" class="s0" d="m119 193.6c-0.2-1.6-1.4-8.7-1.4-8.7l-1 0.2-2.8 0.4 1.8 11.5 7.6-1.2-0.4-2.8c0 0-2.7 0.4-3.8 0.6z"/>
	<path id="path3405" class="s0" d="m141 185.9c-0.1 1-0.7 1.8-1.6 2.2q-0.7 0.3-1.4 0c-0.8-0.3-1.5-1.1-1.9-2.2-0.5-1.2-0.6-2.2-0.3-2.9q0.4-0.8 1.4-1.2c0.7-0.3 1.3 0 2.3 0.5l0.8 0.5 1.4-2.2-0.8-0.6c-1.5-1-3.5-1.2-5.1-0.5-1.5 0.6-2.7 1.7-3.4 3.2-0.6 1.5-0.6 3.2 0.1 4.8 1.2 3 4.6 4.5 7.6 3.3 2.2-0.8 3.4-2.5 3.6-4.8l0.1-1-2.8-0.2c0 0 0 1.1 0 1.1z"/>
	<path id="path3407" class="s0" d="m149.9 182.7c-0.8-1.4-4.3-7.7-4.3-7.7l-0.9 0.5-2.5 1.4 5.7 10.1 6.7-3.7-1.3-2.5c0 0-2.4 1.4-3.4 1.9z"/>
	<path id="path3409" class="s0" d="m157.3 167.1l-0.8 0.6-1.4 1.1 4.7 6.4c0.2 0.2 0.2 0.4 0.2 0.6-0.1 0.3-0.4 0.6-0.7 0.9-0.2 0.1-0.5 0.2-0.8 0.2q-0.4-0.1-0.6-0.4l-4.7-6.4-3.1 2.3 4.6 6.3q1.1 1.4 2.6 1.6c1.1 0.2 2.4-0.2 3.5-1.1 2.5-1.7 2.4-4.1 1.4-5.5z"/>
	<path id="path3411" fill-rule="evenodd" class="s0" d="m172.5 167.3c0 0.7-0.3 1.8-1.4 2.9l-3.7 3.5-8.1-8.3 3.6-3.5c2-1.9 4.2-1.1 5.1-0.1 0.6 0.5 0.9 1.2 0.9 1.9 1 0 1.8 0.3 2.5 1.1 0.7 0.7 1.1 1.6 1.1 2.5zm-8.6-2.7c0.5 0.5 0.7 0.7 1.2 1.2 0.1-0.1 0.1-0.2 0.1-0.2 0.3-0.2 0.4-0.5 0.4-0.6 0-0.2-0.1-0.4-0.3-0.5-0.2-0.3-0.6-0.6-1.4 0.1zm3 3.1c0.5 0.5 0.9 0.9 1.4 1.5 0.2-0.2 0.3-0.3 0.3-0.3 0.3-0.3 0.5-0.6 0.5-0.8q0 0 0 0c0-0.2-0.2-0.5-0.4-0.6-0.2-0.2-0.8-0.8-1.4-0.1 0 0-0.2 0.1-0.4 0.3z"/>
	<path id="path3413" class="s2" d="m44.8 164c0.3 0.3 2.6 2.6 2.6 2.6l0.8-0.8-4.3-4.2-0.2 0.2-6.8 7.1 1.7 1.6c0 0 2.9-3 3.2-3.4 0.3 0.3 2.4 2.4 2.4 2.4l0.8-0.8c0 0-2.1-2.1-2.4-2.4 0.2-0.3 1.9-2 2.2-2.3z"/>
	<path id="path3415" fill-rule="evenodd" class="s2" d="m57.2 174q0 0.4 0 0.8c0 1.1-0.3 2.3-1 3.3-0.9 1.2-2.2 2-3.5 2.2-1.3 0.2-2.6-0.1-3.7-0.8-1.1-0.8-1.8-1.9-2-3.2-0.2-1.4 0.1-2.8 1-4.1 0.9-1.2 2.1-2 3.5-2.2 1.3-0.3 2.6 0.1 3.7 0.8 1 0.8 1.8 1.9 2 3.2zm-2.7-2.3c-1.9-1.3-3.8 0.9-4.5 2-0.7 1-2.2 3.5-0.3 4.8 1.8 1.4 3.7-0.8 4.5-1.9 0.7-1 2.2-3.5 0.3-4.9z"/>
	<path id="path3417" fill-rule="evenodd" class="s2" d="m68.2 184.4c-0.7 1.4-1.8 2.4-3.1 2.8-1.2 0.4-2.6 0.3-3.8-0.3-1.1-0.6-2-1.6-2.4-2.8-0.4-1.3-0.3-2.8 0.4-4.2 1.3-2.7 4.3-3.7 6.8-2.5 2.6 1.3 3.5 4.3 2.1 7zm-4.7 1.7c1.2-0.4 2.1-1.9 2.5-2.8 0.5-0.8 1.1-2.4 0.7-3.6q-0.3-0.8-1.1-1.2c-2-1.1-3.6 1.4-4.1 2.5-0.6 1.1-1.7 3.9 0.4 4.9q0.8 0.4 1.6 0.2z"/>
	<path id="path3419" class="s2" d="m73.3 181.3l-0.3 0.8c0 0 1.4 0.5 1.8 0.6-0.2 0.5-3 8.5-3 8.5l2.2 0.7c0 0 2.8-8 2.9-8.4 0.4 0.1 1.8 0.6 1.8 0.6l0.4-1.1-5.8-2c0 0 0 0.3 0 0.3z"/>
	<path id="path3421" fill-rule="evenodd" class="s2" d="m89.8 187.8q0 0.3 0 0.6c-0.2 0.9-0.8 1.5-1.7 1.8 0.8 0.5 1.2 1.2 1.2 2.1q0 0.2-0.1 0.6c-0.2 0.7-0.6 1.4-1.2 1.7q-1 0.7-2.6 0.4l-4.2-0.9 2-9.6v-0.3l4.2 0.9c1.9 0.4 2.4 1.8 2.4 2.7zm-4.5-2c-0.1 0.4-0.6 2.7-0.7 3.1 0.4 0.1 1 0.2 1 0.2 0.6 0.1 1.6 0.1 1.9-1.1q0.1-0.3 0.1-0.5 0-0.4-0.2-0.8-0.4-0.5-1.5-0.7c0 0-0.4-0.1-0.6-0.2zm-0.9 4.2c-0.1 0.4-0.7 3.1-0.7 3.5 0.4 0.1 1.1 0.2 1.1 0.2q1 0.2 1.5-0.1 0.5-0.3 0.6-1.2c0 0 0.1-0.2 0.1-0.4 0-0.6-0.2-1.5-1.4-1.8 0 0-0.9-0.1-1.2-0.2z"/>
	<path id="path3423" fill-rule="evenodd" class="s2" d="m97.5 185.8l3.6 11.1-2.4-0.2c0 0-0.7-2.3-0.8-2.6-0.3 0-2.6-0.2-2.9-0.2-0.2 0.3-1.2 2.4-1.2 2.4l-1.4-0.1 4.8-9.8zm-2 7c0.5 0 1.6 0.1 2 0.2-0.1-0.5-0.6-2-0.8-2.7-0.3 0.7-1 2.1-1.2 2.5z"/>
	<path id="path3425" class="s2" d="m107.8 195.5c0-0.5-0.4-8.8-0.4-8.8h-0.2l-2.1 0.1 0.4 10.1 6.2-0.3-0.1-1.3c0 0.1-3.4 0.2-3.8 0.2z"/>
	<path id="path3427" class="s2" d="m118.4 194.5c-0.1-0.5-1.4-8.7-1.4-8.7h-0.2l-2.1 0.3 1.6 10 6.1-1-0.2-1.2c0 0-3.4 0.5-3.8 0.6z"/>
	<path id="path3429" class="s2" d="m141.7 185.9c0 1.3-0.8 2.4-2 2.9q-1 0.4-2 0c-1-0.4-1.8-1.3-2.3-2.6-0.6-1.4-0.6-2.6-0.3-3.6q0.5-1 1.8-1.5c1.1-0.5 2.1 0.1 3 0.6l0.2 0.1 0.6-1-0.2-0.1c-1.4-0.9-3-1.1-4.4-0.5-1.4 0.5-2.4 1.5-3 2.8-0.5 1.3-0.5 2.8 0.1 4.2 1 2.7 4 4 6.7 2.9q2.8-1.1 3-4.1l0.1-0.3-1.3-0.1c0 0 0 0.3 0 0.3z"/>
	<path id="path3431" class="s2" d="m149.6 183.8c-0.2-0.5-4.3-7.8-4.3-7.8l-0.2 0.2-1.8 1 4.9 8.8 5.4-3-0.6-1.1c0 0-3 1.6-3.4 1.9z"/>
	<path id="path3433" class="s2" d="m157.2 168.2l-0.2 0.1-0.9 0.6 4.3 5.8q0.4 0.6 0.3 1.2c-0.1 0.7-0.7 1.2-1 1.4-0.3 0.2-0.8 0.4-1.3 0.3q-0.7-0.1-1.1-0.7l-4.2-5.7-1.9 1.4 4.2 5.6q0.8 1.2 2 1.4c1.2 0.2 2.4-0.5 3-1 2-1.4 2-3.3 1.2-4.5z"/>
	<path id="path3435" fill-rule="evenodd" class="s2" d="m171.7 167.3q0 1.2-1.2 2.3l-3.1 3.1-7-7.3 3.1-2.9c1.7-1.7 3.4-0.9 4-0.2 0.5 0.5 0.7 1.1 0.7 1.7q0 0.3-0.1 0.7c1-0.4 2-0.2 2.8 0.6 0.6 0.6 0.8 1.2 0.8 2zm-5.8-3.3q-1.1-1.2-2.6 0.1c0 0-0.3 0.3-0.4 0.5 0.2 0.3 1.9 2 2.1 2.3 0.3-0.3 0.8-0.7 0.8-0.7 0.2-0.3 0.6-0.7 0.6-1.2 0-0.3-0.2-0.7-0.5-1zm3.3 5.4q0.6-0.7 0.7-1.3 0 0 0 0 0-0.6-0.6-1.2c-0.1 0-1.3-1.3-2.6-0.1 0 0-0.6 0.6-0.9 0.9 0.3 0.3 2.2 2.2 2.5 2.5 0.2-0.2 0.9-0.8 0.9-0.8z"/>
	<path id="path3437" class="s0" d="m58.2 35.7l-4.2 1.2 0.5 1.5c0.5 1.8 0 3.8-1.4 5q-1.2 1.1-2.8 1c-1.5-0.1-3.2-1.1-4.6-2.7-1.6-1.9-2.4-3.6-2.3-5.2 0-1.1 0.6-2 1.6-2.9 1.1-1 2.6-1 4.5-0.6l1.5 0.3 0.9-4.1-1.4-0.3c-3.2-0.8-6.4 0-8.8 2-4.5 4-4.9 10.5-0.8 15.2 3.7 4.3 10.3 4.8 14.6 1.1 3.1-2.7 4.2-6.2 3.1-10z"/>
	<path id="path3439" class="s0" d="m69.7 14.5l-4.3 2c0 0 2.4 5.2 3.2 6.9-1.2 0.6-2.4 1.2-3.6 1.7-0.9-1.7-3.3-6.8-3.3-6.8l-5.7 2.7 8.7 18.3 5.7-2.6c0 0-2.7-5.7-3.6-7.6 1.3-0.5 2.5-1.1 3.7-1.7 0.9 1.8 3.6 7.5 3.6 7.5l5.6-2.7-8.6-18.3z"/>
	<path id="path3441" class="s0" d="m89 25.9q-0.4-2.1-0.9-4.1c1.8-0.4 6.5-1.3 6.5-1.3l-0.8-4.1c0 0-4.7 0.9-6.5 1.3-0.2-1.3-0.4-2.3-0.7-3.6 1.8-0.3 6.8-1.3 6.8-1.3l-0.8-4.1-1.5 0.3-11.5 2.3 4 19.9 13.1-2.6-0.8-4.1c0 0-5.1 1-6.9 1.4z"/>
	<path id="path3443" class="s0" d="m107.6 8.2l-6.3-0.1-0.1 1.5-0.4 18.8 13.3 0.3 0.1-4.4c0 0-5.1-0.1-7-0.2 0.1-2.5 0.4-15.9 0.4-15.9z"/>
	<path id="path3445" class="s0" d="m128 18.5c-1.6-1.2-2.1-1.7-1.9-2.4 0-0.3 0.4-1.4 1.6-1.1 0.7 0.2 1.4 0.5 1.7 2.1l0.3 1.6 4.2-1.4-0.2-1.3c-0.6-2.6-2.7-4.7-5.5-5.4-1.9-0.5-3.9-0.2-5.5 0.7-1.5 0.9-2.5 2.3-2.9 4-1.1 4.1 1.7 6.1 3.6 7.5 1.9 1.3 2.4 1.9 2.1 3q-0.1 0.5-0.6 0.8c-0.4 0.3-0.9 0.3-1.3 0.2-1-0.2-1.4-0.7-1.8-2l-0.5-1.5-4.2 1.7 0.4 1.3c0.8 2.6 2.6 4.2 5.7 5 3.4 0.8 7.6-0.8 8.6-4.9 1.1-4.3-1.8-6.5-3.8-7.9z"/>
	<path id="path3447" class="s0" d="m143 29.3c1.6 0.8 5.9 3 5.9 3l1.9-3.8c0 0-4.3-2.1-5.9-2.9 0.6-1.2 1.1-2.1 1.7-3.3 1.6 0.9 6.2 3.2 6.2 3.2l1.9-3.7-11.9-6-0.7 1.3-8.5 16.8 12 6.1 1.9-3.8c0 0-4.7-2.3-6.4-3.1q1-1.9 1.9-3.8z"/>
	<path id="path3449" class="s0" d="m166.6 31.2l-18.9 9.8 3.6 3.2c0 0 3.1-1.7 4.2-2.3 0.9 0.7 2.1 1.8 3 2.6-0.4 1.2-1.6 4.6-1.6 4.6l5 4.3 8.1-23.9z"/>
	<path id="path3451" class="s2" d="m57.5 37l-2.2 0.6 0.1 0.5c0.7 2.2 0.1 4.6-1.7 6.1q-1.5 1.3-3.4 1.2c-1.9-0.1-3.8-1.2-5.4-3-1.8-2.1-2.7-4.1-2.5-5.9q0.1-2.1 1.9-3.7c1.6-1.4 3.7-1.1 5.4-0.8l0.5 0.1 0.5-2.1-0.5-0.1c-2.8-0.7-5.7 0-7.8 1.8-4.1 3.6-4.5 9.5-0.8 13.7 3.4 3.9 9.4 4.4 13.2 1 2.8-2.5 3.8-5.5 2.8-8.9 0 0-0.1-0.5-0.1-0.5z"/>
	<path id="path3453" class="s2" d="m70.1 15.4l-3.4 1.6c0 0 2.9 6.1 3.3 6.9-0.8 0.3-4.8 2.3-5.5 2.6-0.4-0.8-3.3-6.9-3.3-6.9l-3.8 1.8 7.8 16.6 3.8-1.8c0 0-3.1-6.7-3.5-7.6 0.7-0.3 4.8-2.2 5.5-2.5 0.4 0.8 3.5 7.5 3.5 7.5l3.9-1.8-7.8-16.6z"/>
	<path id="path3455" class="s2" d="m88.2 27.1c-0.2-0.8-1.1-5.3-1.2-6.1 0.8-0.2 6.4-1.3 6.4-1.3l-0.4-2.1c0 0-5.6 1.1-6.5 1.3-0.1-0.8-0.9-4.8-1.1-5.6 0.9-0.1 6.8-1.3 6.8-1.3l-0.4-2.1-11 2.2 3.6 17.9 11.1-2.2-0.4-2.1c0 0-6.1 1.2-6.9 1.4z"/>
	<path id="path3457" class="s2" d="m106.5 9.2l-4.2-0.1v0.5l-0.4 17.8 11.2 0.2v-2.3c0 0-6-0.2-6.9-0.2 0-0.9 0.3-15.9 0.3-15.9z"/>
	<path id="path3459" class="s2" d="m127.9 14c1.4 0.3 2.2 1.2 2.5 2.8l0.1 0.6 2.2-0.7v-0.5c-0.5-2.2-2.4-4-4.7-4.6-1.7-0.5-3.4-0.2-4.8 0.6-1.2 0.7-2.1 1.9-2.4 3.3-0.9 3.5 1.4 5.1 3.2 6.4 1.8 1.4 3 2.3 2.5 4.1-0.2 0.8-0.7 1.3-1.1 1.5-0.6 0.4-1.4 0.5-2 0.3-1.4-0.3-2.1-1-2.6-2.7l-0.2-0.5-2.3 1 0.2 0.4c0.6 2.2 2.3 3.6 4.9 4.3 3 0.7 6.6-0.6 7.5-4.1 0.9-3.7-1.5-5.5-3.5-6.9-1.7-1.3-2.7-2.1-2.3-3.4 0.3-1.2 1.3-2.3 2.8-1.9z"/>
	<path id="path3461" class="s2" d="m146.1 21c0.8 0.4 6.2 3.1 6.2 3.1l1-1.9-10-5-0.3 0.4-8 15.9 10.1 5.1 1-1.9c0 0-5.5-2.8-6.3-3.2 0.3-0.7 2.4-4.8 2.8-5.6 0.8 0.4 5.9 3 5.9 3l0.9-1.9c0 0-5.1-2.6-5.8-3 0.3-0.7 2.2-4.3 2.5-5z"/>
	<path id="path3463" fill-rule="evenodd" class="s2" d="m168.2 31.6l-6.8 20.1-3.3-3c0 0 1.4-4 1.6-4.6-0.5-0.3-3.6-3-4-3.4-0.5 0.3-4.3 2.2-4.3 2.2l-2-1.7 17.7-9.1zm-7.9 10.4c0.4-0.9 1.1-3.2 1.6-4.5-1.3 0.6-3.4 1.7-4.2 2.2 0.6 0.6 2 1.7 2.6 2.3z"/>
	<path id="path3465" fill-rule="evenodd" class="s3" d="m148.9 112.1c3.3-4.5-2.5-8.9-5.4-6.7-5 3.7 5.7 7.4 5.7 17.1 0 10.3-16.6 9.1-21.7 3.1 0 2.2 5.3 13.7 15.2 9.1-11.3 12.3-2.9 24.8-8.7 24.8-3 0-2.8 2.9-2.8 2.9 0 0-2.3-0.7-2.2-3-1.7 0-4.1 0.5-4.2 3.8 0 0-2-0.5-1.9-3.8-3.2-0.1-5.7 0.6-5.7 3.3 0 0-2-1.5-1.8-3.9-1.2-1.4-1.6-7.7 8.9-7.2 2.9 0.2 3.6-7.3 1.6-9.5-1.3-0.1-6.2-0.2-10.7-8.8-2.2 0-8.5 2.4-8.5 5.9 0 3.9 7 4.9 7 4.9-14.1 2.7-5.4 12.2-14.7 13.8-3.7 0.7-2.8 3.9-2.8 3.9 0 0-3.3-1.1-3.3-3.9-2.1 0-4.4 1.3-4.4 4.7 0 0-2.6-0.8-2.6-4.7-3.9 0-5 1.8-4.5 3.9 0 0-2.9-1.3-2.1-5-1.8-4.5 0.6-8.4 10.2-7.3 6.6 0.9 6.8-9.5 6.8-10.9-11.1-4.8 4.9-18.7 12.2-21.1l-3.5-5.9c0 0-6 7.1-13 8.9-1.1-2.2-4.8-2.5-7.5-1.2-0.9 0.5-1.7 1.1-2.3 2 0 0-1 1.1-0.7 2.9q-0.1 0-0.2 0-0.2 0-0.3 0-0.5-0.1-0.9-0.3v13.6h1.3v4.3h-2.2c1.2 0.5 2 1.5 2.1 2.7 0.2 1.9-1.3 3.4-3.2 3.6-1.9 0.1-3.6-1.2-3.7-3-0.1-1.5 0.7-2.8 2.1-3.3h-2.4v-4.3h1.3v-15.4c0 0-1.1-1.1-1.1-3.9 0 0 0.3-2.3-1.3-0.7 0 0-2.3 0.1-0.5-2.2 0 0 0.6-2.3-0.8-1.2-0.1-5.3 1.1-2.6 1.1-2.6 0.4-0.9 1.2-1.9 2.6-2.7v-20.2c-0.4-0.1-0.8-0.2-1.3-0.4-1.5-0.4-1.7-2.1-1.5-3.1-2.3-2.7-0.6-3.1 0.1-4.4-0.8-1-1.3-1.6-0.8-3.1 0.5-1.6 1.6-2.1 3.4-2.4q0 0 0.1 0v-1.2q0 0 0 0-0.2 0-0.5 0 0-0.1-0.1-0.1-0.2 0-0.4-0.1 0 0-0.1 0-0.4-0.1-0.7-0.3-0.1 0-0.1 0-0.2 0-0.3-0.1 0 0-0.1 0-0.1-0.1-0.2-0.2 0 0-0.1 0-0.1 0-0.1-0.1-0.1 0-0.1 0-0.1-0.1-0.2-0.1c0.3 0 1.4-0.4 2.7-1.2-3.7-1-6.6-4.1-7-8.1-0.4-5 3.5-9.4 8.8-9.9 2.2-0.1 4.3 0.4 6.1 1.5q0 0 0 0 0.3 0.2 0.5 0.3 0.1 0.1 0.1 0.1 0.3 0.2 0.5 0.4 0 0 0.1 0.1 0.4 0.3 0.8 0.7 0.1 0.1 0.2 0.2 0.1 0.2 0.2 0.4 0.1 0.1 0.3 0.3 0.1 0.1 0.2 0.3 0.1 0.2 0.2 0.4 0.1 0.1 0.2 0.3 0.2 0.3 0.3 0.7 0.1 0.1 0.1 0.2 0.2 0.3 0.2 0.6 0.1 0.1 0.1 0.2 0.1 0.3 0.2 0.6 0 0.1 0 0.3 0.1 0.4 0.1 0.8c0.3 2.4-0.5 4.7-2 6.4-1.8 2.4-3.6 3.8-5.2 4.6v2c1.1 0.4 2.4 1.3 4 2.8 3.8 3.6 10.4 4.3 14.5 4.5 2.8-2.8 3.9-7.3 3.9-7.3-2.9-1-4-5.1-2.1-7 0 2.8 8.1 2.9 8.1-3.2 0-0.9 1.5-4.2-1.4-3.7 2.3-4.7 3.5-3 5-3.2-2-2.7 1.3-3.4 2.6-3.4-0.4 6.7 16.4 4.8 17.4 5.1 1.3 3.3 3.1 2 4.4 4.7l-1.2 2-1.3-0.5 0.1 1.6c-1.1 1-1.7 1.8-2.1 2.5-0.5 0.7-0.3-0.2-0.8 0.5 0.1-0.8-0.3 0.1-0.8-0.3-0.3-0.2-0.9-0.3-1.8-0.3-1.6 0-2.5 1.3-3.1 2.4-0.5 0.9-0.1 3.4 4.2 2-0.6 1.8-0.4 3.8 0 6.8-0.4-1.8-8.3-6.3-8.3 2.2 0 6.3 6.9 6.5 6.9 3.2 5.3 6.7-2.8 11.1-5.9 9.3l-0.3 3.8c5.3 5.7-0.1 24.5 15.2 24.5 2.4 0 4.1-2 4.3-3.6 1-9.1-9-10-9-20 0-9 12.5-12.6 12.5-17.9 0-5.4-7.1-4.5-7.1 0-2.9-10 16.7-13.8 16.7 0 0 8.2-12.6 10.1-15.7 19 1.1-1.5 2.7-2.7 4.6-3.4 4.7-1.8 9.7-0.1 11.2 3.7 1.4 3.8-1.2 8.4-5.9 10.1zm-50-14.2c-0.6-1.3-1.4-2.8-2.2-2.7-1.6 3.4-9.1 5.4-11.3 1.3 3.4-0.7 3.4-3.8 0.7-5.3-2.7-1.1-5.1-1.5-6-1.6v19.1c0.4 0.1 0.8 0 1.3-0.2 3.4-1.2 5.9-4 9.7-6.2 4.6-2.7 6.8-3.8 7.8-4.4zm38.1-26.1c2.1-0.2 3.8-1.4 4.1-2.8q0 0.1 0 0.3c0.3 2.7-1.7 5.1-4.4 5.3-2 0.2-3.8-0.8-4.7-2.3 0.3-0.5 0.7-1.1 1.1-1.6 0.9 0.8 2.3 1.2 3.9 1.1z"/>
	<path id="path3467" fill-rule="evenodd" class="s1" d="m71.1 136.5c1 0 3.5-0.6 3.5-1.1v-18.2c-1.2 0-2.2 1.9-2.2 1.9 0-1.7 0.7-3.1 1.1-3.5-0.6-0.6-2.3-0.4-2.3-0.4 0 0-0.6 0-2.2 1.6 0-1.7 1.9-3.8 2.3-4.2 0 0-0.7-0.4-1.8-0.4 0 0-1.1 0-2.5 1.1 0-1.4 2.1-3.8 3.5-3.8 0-1.8 5.2-1.8 7.5-1.8 5.5 0 24.5-12.1 24.5-12.1-4.7 0-6.6-0.7-6.6-0.7-0.7-1.4-1.4-2.8-2.2-2.7-1.6 3.4-9.2 5.4-11.3 1.2 1.8 0.6 3.6-0.1 4-1.5 0.5-1.4-0.7-3-2.5-3.5q-0.4-0.2-0.8-0.2 0 0 0 0 0 0 0-0.1c-2.8-1.1-5.1-1.4-6-1.5v19.1c-0.8-0.1-1.7-0.2-2.5-0.2v-17.4c0-1.8-1.3-2.6-2.2-2.6-0.4 0-0.8-0.1-1.3-0.3-1.5-0.5-1.7-2.1-1.5-3.1-2.4-2.7-0.6-3.2 0.1-4.4-0.8-1.1-1.3-1.6-0.8-3.2 0.5-1.5 1.6-2 3.3-2.3q0.1 0 0.2-0.1c0.4 0.5 2 1 2.2 1v-2.3c0 0-1.2 0.3-2.2 0.2q0 0 0 0-0.3 0-0.5-0.1-0.1 0-0.1 0-0.2-0.1-0.4-0.1-0.1 0-0.1 0-0.4-0.1-0.8-0.3 0 0-0.1 0-0.1-0.1-0.2-0.1-0.1-0.1-0.1-0.1-0.1 0-0.3-0.1 0 0 0 0-0.1-0.1-0.2-0.1 0 0 0 0-0.1-0.1-0.2-0.1c0.3 0 1.4-0.5 2.7-1.2q-0.1 0-0.1 0c-2.8-1.4-4.8-4.8-4.8-8.8 0-4.2 2.2-7.8 5.3-9q0.7-0.1 1.4-0.2c2.2-0.2 4.3 0.4 6 1.4q0 0 0 0.1 0.3 0.1 0.6 0.3 0 0.1 0.1 0.1 0.2 0.2 0.5 0.4 0 0 0 0 0.5 0.4 0.8 0.8 0.1 0.1 0.2 0.2 0.2 0.2 0.3 0.3 0.1 0.2 0.2 0.3 0.1 0.2 0.3 0.4 0.1 0.2 0.2 0.4 0.1 0.1 0.2 0.2 0.2 0.4 0.3 0.7 0.1 0.2 0.1 0.3 0.1 0.2 0.2 0.5 0.1 0.2 0.1 0.3 0.1 0.3 0.1 0.6 0.1 0.1 0.1 0.2 0.1 0.5 0.1 0.9c0.2 2.4-0.6 4.6-2 6.4-1.8 2.3-3.6 3.7-5.2 4.5v3.9c0 0 2.6 0.9 5.8 2.3q1.3 0.8 2.7 1.4 0 0 0 0c5.2 2.7 10.6 6.9 8.8 11.9 5.1 0 4.7-6.6 3.6-7.7 1.7-1.7 5-9.2 5-10.6 0 0-6.7-1.4-5.6-6.1 0.1 1.1 1.4 1.8 3 1.8 10.7 0 6.9-13.8 1.1-8 2.4-4.8 6-3.7 7.6-3.9 1.1 0 2.9 0 2.9 0-2.3-2.3 1.1-6.6 2.4-6.6-0.5 6.7 13.6 8 14.7 8.3 1.3 3.3 3.1 2 4.3 4.7l-1.2 1.9-1.2-0.4v1.5c-2.1 2.1-2.4 3.2-3.3 4.5 0.1-1.2 0.3-2.1-2.1-2.1-1.7 0-2.5 1.3-3.1 2.4-0.6 1-0.2 3.4 4.1 2.1-0.5 1.7-0.3 3.7 0 6.8-0.4-1.9-8.3-6.3-8.3 2.2 0 6.3 6.9 6.4 6.9 3.1 5.4 6.8-2.8 11.2-5.9 9.3l-0.2 3.9c3.5 3.7 2.3 13.1 5.4 19.1 1.7 4.5 4.6 7.9 10.7 7.9 6.4 0 6.9-4.7 6.9-5.8 0-9.1-9.5-11.3-9.5-19.9 0-8.5 12.9-12 12.9-18.2 0-7.4-10.1-6.2-10.6-0.6q0 0.2 0 0.5c-2.8-10 16.8-13.9 16.8-0.1 0 8.3-12.7 10.2-15.8 19.1 1.1-1.5 2.7-2.7 4.7-3.5 4.7-1.7 9.7-0.1 11.1 3.7 1.5 3.9-1.2 8.4-5.9 10.2q0 0 0 0 0 0 0 0c1.8-0.7 3.1-2.5 3.1-4.6 0-2.7-2.2-4.8-4.9-4.8-2.5 0-4.6 1.9-4.9 4.4-0.6 3.3 7.1 7.2 7.1 15.4 0 10.2-16.6 9-21.8 3.1 0 2.2 5.3 13.7 15.3 9.1-11.3 12.3-2.9 24.8-8.7 24.8-3.1 0-2.8 2.9-2.8 2.9-0.8-0.8-1.3-2.5-0.8-3h-1.4c-1.7-0.1-4.1 0.5-4.2 3.7-0.9-0.8-1-2.9-0.2-3.7h-1.7c-3.2-0.2-5.8 0.6-5.8 3.2-0.6-0.6-1.1-3-0.2-3.9h-1.6c0-4.8 3.3-5.9 11.6-5.9 0 0 6.8-8.7 1.4-14.1-1.4 0-7.8 0.3-8.4-5.3-1.4-0.3-3-0.3-4.7-0.1-2.2 0-8.6 2.4-8.6 5.9 0 3.8 7 4.9 7 4.9-14.1 2.6-5.3 12.2-14.6 13.8-3.7 0.6-2.9 3.8-2.9 3.8-1.1-1.1-1.9-3.3-1.4-3.8 0 0-1 0-1.8 0-2.1 0-4.4 1.2-4.5 4.6-0.7-0.7-1.6-3.1 0-4.7h-2.5c-4 0-5 1.8-4.6 4 0 0-1.9-3 0.2-5.1h-2.2c0-6.7 4.8-5.5 10.9-5.5 3.9 0 9.6-4.9 9.6-13.1 0 0-3.8-1.5-3.8-5.3 0-9 21.7-10.1 21.7-17.5 0-3.1-2.6-4.4-4.5-4.4 0.5 0.5 3.4 6.6-4.7 6.6l-3.5-5.9c0 0-6 7-13 8.9-1.1-2.2-4.8-2.6-7.6-1.2-0.9 0.4-1.7 1.1-2.2 1.9 0 0-1.1 1.2-0.7 3 0 0-1.9-1.7-1.1-3.4-0.5-0.3-1.3-0.5-2.1-0.5-0.2 1.4 0.5 2.9 1.7 3.5v13.7h1.3l0.1 4.2-2.2 0.1c1.1 0.4 1.9 1.4 2.1 2.7 0.1 1.8-1.3 3.4-3.2 3.6-1.9 0.1-3.6-1.2-3.8-3.1v-0.1c0.3 0.8 1.1 1.4 2.1 1.4 1.1 0 2.1-0.9 2.1-2.1 0-1.2-1-2.1-2.1-2.1q-0.4 0-0.8 0.1 0.4-0.3 0.8-0.4h-2.3m74.7-29.7q0 0 0 0 0 0 0 0zm-62.7-20.9q0.1 0 0.1 0 0 0-0.1 0zm0 0q0 0 0 0 0 0 0 0zm-3.7-28.1c0-1.9-1.6-3.5-3.6-3.5-1.6 0-2.9 1.1-3.4 2.5q0 0.1 0 0.1-0.1 0.4-0.1 0.9c0 2 1.6 3.6 3.5 3.6q0.1 0 0.1 0c0.2 0.8 0.3 1.8 0 2.4 1.9-1.6 3.5-3.7 3.5-6zm-7-0.9q0 0 0 0 0 0 0 0 0 0 0 0 0 0 0 0zm0 0q0 0 0 0 0 0 0 0zm0 0q0 0 0 0 0 0 0 0zm2.7 23.6c0-0.2-2.2-0.7-3.3-0.7-0.5 0-0.7 0.7-0.7 0.9 0 0.2 0.3 0.8 0.7 0.8 1.1 0 3.3-0.7 3.3-1zm0.7-2.8c0-0.3-3-1.4-4.5-1.5-0.7-0.1-1 0.8-1 1.1 0 0.3 0.2 1.1 0.8 1.2 1.5 0.1 4.7-0.5 4.7-0.8zm0.2-3c0.1-0.3-2.9-2.1-4.5-2.5-0.7-0.2-1.2 0.7-1.3 1-0.1 0.3 0 1.3 0.7 1.4 1.6 0.5 5 0.4 5.1 0.1zm-3.5-17.9q0 0 0 0-0.1 0.1-0.1 0.1 0.1-0.1 0.1-0.1zm0.1-0.2q0 0 0 0 0 0 0 0zm-0.1 0.2q0-0.1 0.1-0.2-0.1 0.1-0.1 0.2zm-0.1 0.1q0 0 0 0 0 0 0 0zm0.2 80q0 0 0 0 0 0 0 0zm-0.1-88.2z"/>
	<path id="path3469" class="s4" d="m128.9 69.2c1 1.6 2.8 2.6 4.7 2.4 2.7-0.3 4.7-2.7 4.5-5.4q0-0.1-0.1-0.3c-0.2 1.4-1.9 2.6-4 2.8-1.6 0.2-3.1-0.3-3.9-1.1-0.4 0.6-0.8 1.1-1.2 1.6z"/>
	<path id="path3471" class="s2" d="m122.3 60l1.7 0.1-0.8 1.2c0 0-1.2 0.4-0.9-1.3zm-4.1 0h2.5c0 0-0.1 2 1.7 2.2l-0.4 0.6c0 0-4.8-1.2-3.8-2.8z"/>
	<path id="path3473" fill-rule="evenodd" class="s5" d="m70.9 76.9c-0.7-0.1-0.8-1.1-0.7-1.4 0.1-0.3 0.6-1.2 1.3-1 1.6 0.4 4.6 2.2 4.5 2.5-0.1 0.3-3.5 0.4-5.1-0.1zm0.2 3.9c-0.6-0.1-0.8-0.9-0.8-1.2 0-0.3 0.3-1.2 1-1.1 1.5 0.1 4.5 1.2 4.5 1.5-0.1 0.3-3.2 0.9-4.7 0.8zm3.5-10v2.3c-0.2 0-1.8-0.5-2.2-1v-1.1c1 0.1 2.2-0.2 2.2-0.2zm0.5 12c0 0.3-2.2 1-3.3 1-0.4 0-0.7-0.6-0.7-0.8 0-0.2 0.2-0.9 0.7-0.9 1.1 0 3.3 0.5 3.3 0.7zm-3.8 29.8c-0.4 0.4-2.3 2.5-2.3 4.2 0 0-1.3-2.2 0.5-4.6 1.1 0 1.8 0.4 1.8 0.4zm25.5 22.5c0 8.2-5.7 13.1-9.6 13.1-6.1 0-10.9-1.2-10.9 5.5-1.8-4.4 0.6-8.4 10.1-7.2 6.7 0.8 6.9-9.5 6.9-10.9-11.1-4.8 4.8-18.7 12.2-21.1 8.1 0 5.2-6.1 4.7-6.6 1.9 0 4.5 1.3 4.5 4.4 0 7.4-21.7 8.5-21.7 17.5 0 3.8 3.8 5.3 3.8 5.3zm-31.7-74.4c-0.4-4.6 2.8-8.7 7.4-9.7-3.1 1.2-5.3 4.8-5.3 9 0 4 2 7.4 4.8 8.8-3.7-1.1-6.6-4.2-6.9-8.1zm35.3 6.3c2.3 0 5.1-1.4 5.1-5 0-0.9-1-3.6-4-3 5.8-5.8 9.6 8-1.1 8zm-14.8 10.7c3.4 1.3 7.2 1.6 10 1.7 2.8-2.8 3.9-7.2 3.9-7.2-2.9-1-4-5.1-2.2-7h0.1q0 0 0 0c-1.1 4.7 5.6 6.1 5.6 6.1 0 1.4-3.3 8.9-5 10.6 1.1 1.1 1.5 7.7-3.6 7.7 1.8-5-3.6-9.2-8.8-11.9zm-13.2-18.5c0.5-1.5 1.8-2.6 3.4-2.6 2 0 3.6 1.6 3.6 3.5 0 2.3-1.6 4.4-3.5 6 0.3-0.6 0.2-1.6 0-2.4q0 0-0.1 0c-1.9 0-3.5-1.6-3.5-3.6 0.1 1.3 1.3 2.2 2.6 2.1 1.3-0.1 2.3-1.2 2.2-2.4-0.1-1.3-1.3-2.2-2.6-2.1-1 0-1.8 0.7-2.1 1.5zm36.7-4.1c-2-2.7 3.9-6.6 5.3-6.6-1.3 0-4.7 4.3-2.4 6.6 0 0-1.8 0-2.9 0zm-38.6 54.4c-1.4 0-3.5 2.4-3.5 3.8 0-5.2 2.8-4.9 2.8-4.9 0.4-0.9 1.1-1.9 2.6-2.6v-20.3c0.9 0 2.2 0.8 2.2 2.6v17.4c0.8 0 1.7 0.1 2.5 0.2 0.3 0 0.7 0 1.2-0.2 3.5-1.2 6-4 9.7-6.2 4.7-2.8 6.8-3.9 7.9-4.4 0 0 1.9 0.7 6.6 0.7 0 0-19 12.1-24.5 12.1-2.3 0-7.5 0-7.5 1.8zm6.6-37.4c1.1 0.5 2.4 1.3 4 2.9q0.8 0.7 1.8 1.3c-3.2-1.4-5.8-2.3-5.8-2.3zm6 16.1q0.4 0 0.8 0.1c1.8 0.6 3 2.2 2.5 3.6-0.4 1.4-2.2 2.1-4 1.5 3.4-0.7 3.4-3.7 0.7-5.2zm40.8 61.5c-8.3 0-11.6 1.2-11.6 6-1.2-1.3-1.5-7.7 9-7.1 2.9 0.1 3.5-7.4 1.5-9.6-1.2-0.1-6.1-0.1-10.6-8.7 1.7-0.3 3.3-0.2 4.7 0.1 0.6 5.5 7 5.3 8.4 5.3 5.4 5.4-1.4 14-1.4 14zm4.3 9.7c0 0-2.3-0.7-2.2-3h1.4c-0.5 0.5 0 2.2 0.8 3zm-15.9-3.7h1.6c-0.9 0.9-0.4 3.3 0.2 3.9 0 0-1.9-1.4-1.8-3.9zm20.3-57.8c0 8.7 9.5 10.9 9.5 20 0 1.1-0.5 5.8-6.9 5.8-6.1 0-9-3.5-10.7-7.9 1.7 3.1 4.5 5.4 9.7 5.4 2.5 0 4.1-2.1 4.3-3.7 1-9.1-8.9-10-8.9-20 0-9 12.5-12.5 12.5-17.9 0-5.1-6.7-4.5-7.2-0.4 0.5-5.6 10.6-6.8 10.6 0.6 0 6.2-12.9 9.7-12.9 18.1zm-59.1 17.7c-0.4 0.4-1.1 1.8-1.1 3.5 0 0-1.2-1.1-1.2-3.9 0 0 1.7-0.2 2.3 0.4zm75.4-11.1c0 2.1-1.3 3.8-3.1 4.6 3.3-4.6-2.4-8.9-5.4-6.8-0.7 0.6-1.1 1.2-1.3 1.8 0.3-2.5 2.4-4.5 4.9-4.5 2.7 0 4.9 2.2 4.9 4.9zm-27.1 55.6c0 0-2.1-0.5-1.9-3.7h1.7c-0.8 0.8-0.7 2.8 0.2 3.7zm-46.3-18.9c0 1.2-0.9 2.1-2.1 2.1-1 0-1.8-0.6-2.1-1.5 0-1 0.5-2 1.3-2.6q0.4-0.1 0.8-0.1c1.2 0 2.1 0.9 2.1 2.1zm9.9 18.3c0 0-2.5-0.7-2.5-4.7h2.5c-1.6 1.6-0.7 4 0 4.7zm-8-41.7c-0.8 1.6 1.1 3.4 1.1 3.4q-0.1 0-0.2 0-0.2 0-0.4-0.1-0.4-0.1-0.9-0.3c-1.2-0.6-1.9-2.1-1.7-3.5 0.8 0 1.6 0.2 2.1 0.5zm-6.3 18.6l-0.1-1.9h1.4v-15.4c0 0 1-1.9 2.2-1.9v18.2c0 0.5-2.5 1-3.5 1zm5.2 17.3h2.2c-2.1 2.1-0.2 5.1-0.2 5.1 0 0-2.9-1.3-2-5.1zm16.8 5c0 0-3.2-1-3.2-3.8 0.8 0 1.8 0 1.8 0-0.5 0.5 0.3 2.7 1.4 3.8z"/>
	<path id="line3475" class="s6" d="m179.8 84"/>
	<path id="path3477" class="s2" d="m31.4 124.7l-0.1-0.3v-0.4c-0.2-1.3-0.5-3.8-2.4-4.2q-0.8-0.2-1.6 0.2 0.2-0.9 0-1.6c-0.7-1.8-3.2-1.8-4.5-1.8h-0.4-0.4c-1.3-0.3-3.7-0.7-4.7 0.9q-0.4 0.7-0.3 1.6-0.7-0.5-1.5-0.5c-1.9 0.1-2.7 2.5-3.1 3.7l-0.1 0.4-0.2 0.3c-0.6 1.2-1.8 3.3-0.5 4.8q0.5 0.6 1.4 0.8-0.7 0.6-0.9 1.3c-0.5 1.9 1.5 3.3 2.5 4l0.4 0.3 0.2 0.3c0.9 0.9 2.6 2.7 4.4 1.9q0.7-0.3 1.2-1 0.3 0.8 0.9 1.2c1.7 1.1 3.6-0.4 4.7-1.2l0.3-0.2 0.4-0.2c1.1-0.5 3.4-1.6 3.2-3.5q-0.1-0.8-0.7-1.4 0.9-0.1 1.5-0.6c1.5-1.2 0.8-3.5 0.3-4.8z"/>
	<path id="path3479" class="s4" d="m23 126.3c10.8 6.4 7.4-0.7 7.2-1.7-0.2-1-0.3-8.8-7.2 1.7z"/>
	<path id="path3481" class="s4" d="m22.3 127.9c-2.7 12.2 2.9 6.9 3.8 6.3 0.9-0.5 8.3-3-3.8-6.3z"/>
	<path id="path3483" class="s4" d="m20.6 127.7c-12.5 1.2-5.7 4.9-4.9 5.6 0.8 0.7 5.4 6.9 4.9-5.6z"/>
	<path id="path3485" class="s4" d="m20.2 126c-5-11.5-6.4-3.8-6.8-2.9-0.5 1-5 7.3 6.8 2.9z"/>
	<path id="path3487" class="s2" d="m198.4 123l-0.2-0.3-0.1-0.4c-0.4-1.2-1.1-3.6-3.1-3.7q-0.7 0-1.5 0.5 0.1-0.9-0.3-1.6c-1-1.6-3.4-1.2-4.7-0.9h-0.4-0.4c-1.3 0-3.8 0-4.4 1.8q-0.3 0.7-0.1 1.6-0.8-0.4-1.6-0.2c-1.8 0.4-2.2 2.9-2.3 4.2l-0.1 0.4-0.1 0.3c-0.4 1.3-1.2 3.6 0.3 4.8q0.6 0.5 1.5 0.6-0.6 0.6-0.7 1.4c-0.1 1.9 2.1 3 3.3 3.5l0.3 0.2 0.3 0.2c1.1 0.8 3.1 2.3 4.7 1.2q0.6-0.4 0.9-1.2 0.5 0.7 1.2 1c1.8 0.8 3.5-1 4.4-1.9l0.3-0.3 0.3-0.3c1-0.7 3-2.1 2.5-4q-0.2-0.7-0.8-1.3 0.8-0.2 1.3-0.8c1.3-1.5 0.1-3.6-0.5-4.8z"/>
	<path id="path3489" class="s4" d="m188.8 125.1c-9.3-8.2-1.7-7.3-0.6-7.4 1.1 0 8.5-2.4 0.6 7.4z"/>
	<path id="path3491" class="s4" d="m187.5 126.3c-10.7 6.4-7.4-0.7-7.2-1.7 0.2-1 0.3-8.8 7.2 1.7z"/>
	<path id="path3493" class="s4" d="m188.2 127.9c2.7 12.2-2.9 6.9-3.8 6.3-0.9-0.5-8.3-3 3.8-6.3z"/>
	<path id="path3495" class="s4" d="m189.9 127.7c12.5 1.2 5.7 4.9 4.9 5.6-0.8 0.7-5.4 6.9-4.9-5.6z"/>
	<path id="path3497" class="s4" d="m190.3 126c5-11.5 6.5-3.8 6.9-2.9 0.4 1 4.9 7.3-6.9 2.9z"/>
	<path id="path3499" class="s2" d="m192.8 126.4q-0.1-0.2-0.1-0.3c1-0.7 2.1-1.5 2.1-1.5l-0.1-0.3c0 0-1.3 0.3-2.5 0.5-0.6-1-1.6-1.7-2.8-1.8-0.4-1.1-0.8-2.3-0.8-2.3h-0.2c0 0-0.2 1.2-0.4 2.4-0.7 0.2-1.4 0.6-1.9 1.2q-0.3 0.5-0.6 1.1c-1.2 0-2.5 0-2.5 0v0.2c0 0 1.2 0.6 2.3 1.1q0 0.2 0 0.3c0.1 1 0.5 1.9 1.3 2.5-0.4 1.3-0.9 2.6-0.9 2.6l0.3 0.2c0 0 1-1.1 1.9-2q0.7 0.2 1.4 0.2 0.8-0.1 1.5-0.5c1 0.8 2.2 1.6 2.2 1.6l0.2-0.1c0 0-0.7-1.3-1.3-2.4 0.7-0.8 0.9-1.7 0.9-2.7z"/>
	<path id="path3501" class="s4" d="m188.8 124.5c-0.6 0.1-1.1 0.3-1.5 0.8-0.4 0.4-0.5 1-0.5 1.6 0.1 1.2 1.2 2.1 2.4 2 0.6 0 1.1-0.3 1.5-0.8 0.4-0.4 0.6-1 0.5-1.6-0.1-1.2-1.2-2.1-2.4-2z"/>
	<path id="path3503" class="s4" d="m21.7 125.1c9.4-8.2 1.7-7.3 0.6-7.4-1 0-8.4-2.4-0.6 7.4z"/>
	<path id="path3505" class="s2" d="m25.2 126.7c1.1-0.5 2.3-1.1 2.3-1.1v-0.2c0 0-1.3 0-2.5 0q-0.2-0.6-0.6-1.1c-0.5-0.6-1.2-1-1.9-1.2-0.2-1.2-0.3-2.4-0.3-2.4h-0.3c0 0-0.4 1.2-0.8 2.3-1.1 0.1-2.2 0.8-2.8 1.8-1.2-0.2-2.5-0.5-2.5-0.5l-0.1 0.3c0 0 1.1 0.8 2.1 1.5q0 0.1 0 0.3c-0.1 1 0.2 1.9 0.8 2.7-0.6 1.1-1.3 2.4-1.3 2.4l0.2 0.1c0 0 1.2-0.8 2.2-1.6q0.7 0.4 1.5 0.5 0.7 0 1.5-0.2c0.9 0.9 1.9 2 1.9 2l0.2-0.2c0 0-0.5-1.3-0.8-2.6 0.7-0.6 1.1-1.5 1.2-2.5q0-0.1 0-0.3z"/>
	<path id="path3507" class="s4" d="m23.2 125.3c-0.4-0.5-0.9-0.7-1.5-0.8-1.2-0.1-2.3 0.8-2.4 2-0.1 0.6 0.1 1.2 0.5 1.6 0.4 0.5 0.9 0.8 1.5 0.8 1.2 0.1 2.3-0.8 2.4-2 0.1-0.6-0.1-1.1-0.5-1.6z"/>
	<path id="path3509" class="s2" d="m23 73c-5.2-0.9-10.2 2.6-11.2 7.9-0.9 5.2 2.6 10.2 7.9 11.2 5.2 0.9 10.3-2.6 11.2-7.9 0.9-5.2-2.6-10.3-7.9-11.2z"/>
	<path id="path3511" class="s4" d="m25.2 80.3q-0.1-0.1-0.4-0.2c-0.8-0.6-2.3-1.6-2.4-1.6q-0.3-0.3-0.6-0.5-1-0.7-1.9-1.2-0.3-0.2-0.7-0.3c-0.9-0.5-1.8-0.8-2.8-0.9q-1.2 0.9-2.1 2.2c2.4 0.9 4.8 2.2 9.7 5.3 0.2-0.7 1.2-2.7 1.2-2.8z"/>
	<path id="path3513" class="s4" d="m23 85.5c0.1-0.2 0.5-1.3 0.7-1.7-5-3.2-7.4-4.5-9.8-5.4q-0.5 1-0.8 2.2c1.4 1.9 5.1 3.7 9.9 4.9z"/>
	<path id="path3515" class="s4" d="m22.4 77.6c1.9-1.1 4-0.8 5.7-0.2q-0.9-1.3-2.2-2.1c-1.6-0.3-3.7-0.3-5.4 1q0.9 0.6 1.9 1.3z"/>
	<path id="path3517" class="s4" d="m14.9 86.6q0.4 0.2 0.8 0.5 0.9 0.4 1.8 0.8 0.4 0.1 0.8 0.2c0.9 0.3 3.1 0.9 3.3 0.9 0 0 0.8-2 1.1-2.8-3.7-0.9-7.8-2.6-9.8-4.7q-0.1 1.5 0.2 2.9c0.4 0.9 1 1.6 1.8 2.2z"/>
	<path id="path3519" class="s4" d="m21.7 89.8l-0.8-0.2q-1.1-0.3-2.3-0.6c0.4 0.8 1 1.5 1.7 2q1.3 0.1 2.5-0.1c-0.6-0.5-1.1-1.1-1.1-1.1z"/>
	<path id="path3521" class="s4" d="m29.5 80.1q-0.3-0.9-0.7-1.7c-1.5-0.7-3.7-1.3-5.7-0.3l2.7 1.7q0.9 0 1.6 0 0.4 0 0.7 0 0.8 0.1 1.4 0.3z"/>
	<path id="path3523" class="s4" d="m28.1 80.6c-0.1 4.4-2.2 7.8-4 10 2.9-1 5.1-3.4 5.6-6.6 0.2-1.1 0.2-2.1 0-3.1q-0.7-0.2-1.6-0.3z"/>
	<path id="path3525" class="s4" d="m19.8 76c1.3-1.2 2.7-1.5 4.1-1.6q-0.5-0.1-1.1-0.2c-1.9-0.4-3.8 0-5.5 0.9 0.9 0.1 1.7 0.4 2.5 0.9z"/>
	<path id="path3527" class="s4" d="m25.9 80.6c-0.6 1.3-1 2.1-1.3 2.9q-0.2 0.3-0.3 0.6c-0.1 0.4-0.6 1.6-0.6 1.6l-0.3 0.7-1.2 2.9c0.4 0.5 0.8 0.8 1.1 1.1 1.8-2 4-5.4 4.1-9.9q-0.7 0-1.5 0.1z"/>
	<path id="path3529" class="s4" d="m17.7 88.7q-0.9-0.3-1.7-0.7c0.2 0.6 0.5 1.2 0.8 1.7q0.9 0.6 2.1 1c-0.5-0.6-1-1.2-1.2-2z"/>
	<path id="path3531" class="s4" d="m15.1 87.5q-0.6-0.4-1.2-0.8 0.6 1.1 1.5 1.9-0.2-0.5-0.3-1.1z"/>
	<path id="path3533" class="s2" d="m178.6 84.2c0.9 5.3 5.9 8.8 11.2 7.9 5.2-1 8.8-6 7.8-11.2-0.9-5.3-5.9-8.8-11.2-7.9-5.2 0.9-8.8 6-7.8 11.2z"/>
	<path id="path3535" class="s4" d="m184.2 80.3q0.2-0.1 0.5-0.2c0.7-0.6 2.3-1.6 2.3-1.6q0.4-0.3 0.7-0.5 1-0.7 1.9-1.2 0.3-0.2 0.6-0.3c0.9-0.5 1.8-0.8 2.9-0.9q1.2 0.9 2.1 2.2c-2.5 0.9-4.8 2.2-9.7 5.3-0.3-0.7-1.2-2.7-1.3-2.8z"/>
	<path id="path3537" class="s4" d="m186.5 85.5c-0.1-0.2-0.5-1.3-0.7-1.7 5-3.2 7.3-4.5 9.7-5.4q0.6 1 0.9 2.2c-1.4 1.9-5.1 3.7-9.9 4.9z"/>
	<path id="path3539" class="s4" d="m187 77.6c-1.8-1.1-4-0.8-5.6-0.2q0.9-1.3 2.2-2.1c1.6-0.3 3.7-0.3 5.4 1q-0.9 0.6-2 1.3z"/>
	<path id="path3541" class="s4" d="m194.5 86.6q-0.3 0.2-0.8 0.5-0.8 0.4-1.7 0.8-0.4 0.1-0.8 0.2c-1 0.3-3.1 0.9-3.3 0.9 0 0-0.8-2-1.1-2.8 3.7-0.9 7.8-2.6 9.7-4.7q0.2 1.5-0.1 2.9c-0.4 0.9-1.1 1.6-1.9 2.2z"/>
	<path id="path3543" class="s4" d="m187.8 89.8l0.8-0.2q1.1-0.3 2.3-0.6c-0.4 0.8-1 1.5-1.7 2q-1.3 0.1-2.5-0.1c0.6-0.5 1.1-1.1 1.1-1.1z"/>
	<path id="path3545" class="s4" d="m180 80.1q0.2-0.9 0.7-1.7c1.5-0.7 3.7-1.3 5.7-0.3l-2.7 1.7q-0.9 0-1.6 0-0.4 0-0.7 0-0.8 0.1-1.4 0.3z"/>
	<path id="path3547" class="s4" d="m181.4 80.6c0 4.4 2.1 7.8 3.9 10-2.8-1-5-3.4-5.6-6.6q-0.2-1.6 0.1-3.1 0.6-0.2 1.6-0.3z"/>
	<path id="path3549" class="s4" d="m189.7 76c-1.3-1.2-2.8-1.5-4.1-1.6q0.5-0.1 1-0.2c2-0.4 3.9 0 5.5 0.9-0.8 0.1-1.6 0.4-2.4 0.9z"/>
	<path id="path3551" class="s4" d="m183.5 80.6c0.7 1.3 1.1 2.1 1.4 2.9q0.1 0.3 0.3 0.6c0.1 0.4 0.6 1.6 0.6 1.6l0.3 0.7 1.2 2.9c-0.4 0.5-0.8 0.8-1.2 1.1-1.7-2-4-5.4-4-9.9q0.7 0 1.4 0.1z"/>
	<path id="path3553" class="s4" d="m191.8 88.7q0.9-0.3 1.7-0.7c-0.2 0.6-0.5 1.2-0.8 1.7q-1 0.6-2.1 1c0.5-0.6 0.9-1.2 1.2-2z"/>
	<path id="path3555" class="s4" d="m194.4 87.5q0.6-0.4 1.1-0.8-0.6 1.1-1.4 1.9 0.2-0.5 0.3-1.1z"/>
</svg>