<?xml version="1.0" encoding="UTF-8"?>
<!DOCTYPE svg PUBLIC "-//W3C//DTD SVG 1.1//EN" "http://www.w3.org/Graphics/SVG/1.1/DTD/svg11.dtd">
<!-- Creator: CorelDRAW -->
<svg xmlns="http://www.w3.org/2000/svg" xml:space="preserve" width="1944px" height="2973px" shape-rendering="geometricPrecision" text-rendering="geometricPrecision" image-rendering="optimizeQuality" fill-rule="evenodd" clip-rule="evenodd"
viewBox="0 0 2021.05 3090.51"
 xmlns:xlink="http://www.w3.org/1999/xlink">
 <g id="Ebene_x0020_1">
  <metadata id="CorelCorpID_0Corel-Layer"/>
  <polygon fill="#E8BF00" points="1010.71,2795.09 974.045,2907.94 855.394,2907.94 951.364,2977.67 914.717,3090.51 1010.71,3020.78 1106.68,3090.51 1070.03,2977.67 1166.03,2907.94 1047.36,2907.94 "/>
  <polygon fill="#E8BF00" points="173.792,2674.64 137.139,2787.47 18.4927,2787.47 114.469,2857.21 77.8158,2970.04 173.792,2900.3 269.782,2970.04 233.134,2857.21 329.11,2787.47 210.464,2787.47 "/>
  <polygon fill="#E8BF00" points="1847.26,2686.34 1810.6,2799.18 1691.96,2799.18 1787.93,2868.93 1751.26,2981.77 1847.26,2912.03 1943.23,2981.77 1906.58,2868.93 2002.57,2799.18 1883.91,2799.18 "/>
  <polygon fill="#E8BF00" points="1443.45,2771.6 1406.81,2884.43 1288.16,2884.43 1384.13,2954.18 1347.48,3067 1443.45,2997.27 1539.45,3067 1502.8,2954.18 1598.77,2884.43 1480.13,2884.43 "/>
  <polygon fill="#E8BF00" points="574.566,2767.42 537.918,2880.27 419.268,2880.27 515.243,2950.01 478.571,3062.85 574.566,2993.1 670.561,3062.85 633.884,2950.01 729.865,2880.27 611.219,2880.27 "/>
  <path fill="#114135" d="M2003.85 205.764l-0.369511 1958.46c0,116.557 0.982089,384.425 -370.762,439.815 -513.837,76.5501 -621.477,151.001 -621.477,151.001 0,0 -107.61,-74.4509 -621.462,-151.001 -371.749,-55.3898 -370.737,-323.253 -370.737,-439.81l-1.84387 -1962.58c228.827,-111.045 588.542,-182.66 994.043,-182.66 411.98,0 764.428,72.6917 992.608,186.777z"/>
  <path fill="white" d="M1553.68 1089.91l346.771 -1.88929 0.66782 1057.25c13.6081,116.094 -50.569,301.774 -217.876,332.464 -596.643,109.47 -672.001,152.053 -672.001,152.053 0,0 -18.4338,-27.9932 -453.638,-112.799 -63.0157,-8.1943 -54.0689,-83.4137 -40.9543,-103.965 109.559,-171.633 600.446,-900.481 802.915,-1202.77 83.5487,-142.044 234.116,-120.335 234.116,-120.34z"/>
  <path fill="#3B342C" d="M1021.35 2003.1c0,-210.998 168.328,-382.047 375.966,-382.047 207.648,-0.00491044 375.961,171.049 375.961,382.047 0,211.016 -168.313,382.077 -375.961,382.077 -207.638,-0.00491044 -375.966,-171.055 -375.966,-382.077z"/>
  <path fill="white" d="M1215.37 1888.28c0,0 16.1946,-69.4864 73.9623,-130.878l-39.6678 -87.5704c0,0 -56.8703,18.9911 -107.44,73.13 -50.5641,54.1438 -68.6038,100.202 -68.6038,100.202l18.0397 54.1389c0,0 11.7789,-9.93014 55.9827,-9.93014 44.2099,0 67.7224,0.912115 67.7224,0.912115l0.00491044 -0.00491044zm92.018 266.313l-110.123 26.1641c0,0 -84.8488,-56.9194 -125.445,-143.543l22.5463 -123.666c0,0 51.5167,-20.7564 115.58,-9.02785 0,-0.00491044 40.64,46.9316 106.509,96.5995 0,0 -12.6567,81.215 -11.7544,141.704l2.68724 11.7691zm-89.3209 119.149l-45.1466 15.3427c0,0 -37.9135,-23.4584 -84.8745,-98.3881 -32.0762,-51.1877 -42.4201,-104.719 -42.4201,-104.719l18.9519 -25.2618c0,0 66.7955,105.62 126.368,135.385l27.1216 77.6415zm9.00698 16.2548l178.732 40.6008 44.2492 34.324c0,0 -57.8426,14.476 -141.766,-7.21712 -83.9023,-21.6992 -117.344,-55.0817 -117.344,-55.0817l36.1286 -12.626zm384.554 -138.111l53.2574 15.3329c0,0 12.6309,50.5149 0.921936,78.5192 0,-0.00491044 -65.0155,89.4106 -191.383,115.575l-49.6225 -37.9283 41.4932 -71.2959c0,0 45.1564,-14.4809 83.0454,-44.259 37.9135,-29.7732 62.2828,-55.9434 62.2828,-55.9434l0.00491044 0zm144.442 -118.286l-8.10469 0.902294c0,0 -22.6114,72.2682 -61.4272,139.945l0 44.2136c0,0 31.638,-34.324 48.7902,-89.3651 17.1276,-55.0461 20.7368,-95.6959 20.7368,-95.6959l0.00491044 0zm-93.8717 -251.842l26.1542 6.31483c0,0 44.8323,69.074 54.199,108.328 13.5184,56.8801 13.5135,119.159 13.5135,119.159l-7.22326 2.71179c0,0 -26.1935,-47.8032 -43.3469,-71.291 0,-0.00491044 -9.02171,-64.0788 -17.1473,-95.7021 -8.09977,-31.622 -26.1542,-69.5159 -26.1542,-69.5159l0.00491044 -0.00491044zm-155.304 152.537c0,0 -94.7335,58.6994 -171.482,74.9444 0,0 -19.8591,70.4636 -10.8275,145.359l131.79 82.1235c0,0 90.2331,-21.7091 145.32,-98.404l2.71179 -125.469c0,0 -23.7678,-25.5269 -45.1171,-43.3126 -27.0762,-22.5598 -52.3944,-35.2361 -52.3944,-35.2361l0 -0.00491044zm-10.8116 -178.697l42.4201 -43.3518 99.3149 60.4893c0,0 36.0844,46.0244 48.7202,166.983l-74.0126 55.9778c0,0 -64.9897,-62.2988 -98.4126,-75.8271 0.00491044,-0.00491044 3.61409,-51.4725 -1.80459,-79.4559l-16.2253 -84.8156zm-228.393 -89.3799l36.1089 82.1529c0,0 60.4795,-15.3378 173.328,-0.897383l50.5702 -46.961 -31.6134 -48.73c0,0 -47.8375,-18.9568 -121.876,-13.5393 -74.0323,5.40885 -106.517,27.9748 -106.517,27.9748z"/>
  <path fill="white" d="M1074.85 1846.84c30.705,-78.6641 100.462,-137.782 185.44,-153.545l29.0465 64.1034c-57.7738,61.3916 -73.9734,130.883 -73.9734,130.883l0.00491044 -0.00491044c0,0 -23.5222,-0.907204 -67.7273,-0.907204 -44.1989,0 -55.9827,9.93014 -55.9827,9.93014l-16.8084 -50.4597zm203.57 -156.226c8.98734,-0.986999 18.1097,-1.50996 27.3512,-1.50996 59.9761,0 114.962,21.3089 157.82,56.7647 -104.146,-11.5985 -159.794,2.5031 -159.794,2.5031l-25.3772 -57.7579zm223.349 94.6844c32.4654,41.9008 51.8113,94.4745 51.8113,151.594 0,2.62709 -0.0552425,5.25908 -0.139948,7.87635 -14.2415,-10.9171 -28.4523,-20.4974 -39.329,-24.9033 0.00491044,-0.00491044 3.61409,-51.4725 -1.80459,-79.4559l-10.5378 -55.1111zm50.3504 178.471c-11.3554,105.253 -88.6126,190.765 -189.677,214.412l-37.8595 -23.5922c-9.03153,-74.8904 10.8275,-145.354 10.8275,-145.354 76.7539,-16.245 171.482,-74.9395 171.482,-74.9395l0 -0.00491044c0,0 21.0007,10.5476 45.2264,29.4786zm-321.951 209.169c-71.8594,-22.9944 -129.463,-77.8968 -156.112,-148.041l20.3084 -111.353c0,0 51.5167,-20.7564 115.58,-9.02785 0,-0.00491044 40.64,46.9316 106.509,96.5995 0,0 -12.6567,81.215 -11.7544,141.704l2.68724 11.7691 -77.2179 18.3491z"/>
  <path fill="#E8BF00" d="M2020.67 2162.43c0,255.805 -97.0524,413.855 -385.387,456.812 -507.671,75.6233 -624.029,154.791 -624.029,154.791 0,0 -116.353,-79.1674 -624.019,-154.791 -288.345,-42.9627 -385.392,-201.018 -385.392,-456.807l-1.84387 -1973.35c295.738,-143.509 692.518,-189.079 1011.24,-189.079 321.587,0 713.255,45.0914 1009.8,193.346l-0.373194 1969.08zm-34.3841 0l0.373194 -1947.78c-225.268,-109.813 -570.787,-180.272 -975.42,-180.272 -398.217,0 -750.685,69.3919 -976.837,176.293l1.82546 1951.76c0,238.771 84.9936,382.426 356.066,422.803 436.087,64.9602 582.895,129.173 618.96,148.214 36.0451,-19.0464 182.883,-83.2541 618.945,-148.214 271.087,-40.3761 356.082,-184.02 356.087,-422.803z"/>
  <path fill="#E8BF00" d="M154.431 277.902c566.78,-183.452 1133.44,-185.341 1709.49,-0.817589 40.0618,10.8619 36.1936,50.9139 36.1936,50.9139l-2.75108 615.237c0,0 6.61437,40.0471 -28.6929,38.6157 0.0257798,-1.28531 -1714.65,0 -1714.65,0 -40.0127,-1.28531 -35.3969,-35.9199 -35.3969,-35.9199l0 -623.41c0,0 -1.90402,-40.0127 35.8106,-44.6187z"/>
  <path fill="#114135" d="M1468.22 282.208c26.0548,5.75749 51.8911,11.5653 77.4671,17.6162 25.3575,5.99688 50.4401,12.1681 75.2538,18.3086 17.6567,58.3361 35.203,115.82 53.6503,172.152 18.2091,55.5555 37.366,109.978 56.6567,163.539l-0.438257 -147.717c0.573294,-21.2487 0.378104,-38.7004 -0.608895,-52.3539 -0.986999,-13.678 -2.77072,-23.5578 -5.28855,-29.6738 -2.5522,-6.24608 -6.3357,-11.4843 -11.5052,-15.722 -5.14369,-4.24139 -11.5886,-7.4872 -19.395,-9.71531l0.33391 -66.9637c0,0 103.781,26.8724 123.516,31.4182l0.00491044 63.341c-7.59645,-1.14168 -13.9874,-0.718152 -19.1912,1.18587 -5.19893,1.91384 -9.21199,5.37325 -11.968,10.3831 -2.70197,4.89448 -4.80487,13.8131 -6.31606,26.7582 -1.4805,12.9402 -2.41225,29.8972 -2.68601,50.8587l-0.0601529 202.084 -0.588025 165.119 -34.9685 -0.159589 -34.9967 -0.159589c-27.3966,-70.0548 -54.4777,-141.585 -79.7947,-215.23 -25.7663,-74.9898 -50.0018,-152.043 -74.4165,-230.607l-0.962447 134.323 0.423526 134.323c-1.34546,22.9686 2.47241,41.7965 3.1255,56.4112 0.648178,14.6 2.2232,25.058 4.93499,31.2488 2.68601,6.12209 6.98879,10.8619 12.6812,14.3164 5.68752,3.42503 12.8396,5.55248 21.4685,6.37007l0.464037 68.1717 -75.0451 -0.349869 -66.7747 -0.329 0.583115 -73.5891c8.90263,-0.293399 16.4598,-2.03783 22.631,-5.20875 6.15524,-3.1746 10.9159,-7.75604 14.3557,-13.7726 3.48396,-6.1356 6.49038,-16.6034 8.96279,-31.379 2.46136,-14.7596 0.259026,-33.8452 1.72357,-57.2742l-1.23007 -113.296 0.158362 -113.293c1.45104,-23.4228 1.88929,-42.684 1.32091,-57.8033 -0.583115,-15.1131 -2.20233,-26.0892 -4.80487,-32.9331 -2.55711,-6.8292 -6.57017,-12.4774 -12.1325,-16.9631 -5.55739,-4.48078 -12.6812,-7.76095 -21.2843,-9.85526l2.37174 -36.7866 2.36806 -36.7927z"/>
  <path fill="none" stroke="white" stroke-width="3.80191" d="M1468.22 282.208c26.0548,5.75749 51.8911,11.5653 77.4671,17.6162 25.3575,5.99688 50.4401,12.1681 75.2538,18.3086 17.6567,58.3361 35.203,115.82 53.6503,172.152 18.2091,55.5555 37.366,109.978 56.6567,163.539l-0.438257 -147.717c0.573294,-21.2487 0.378104,-38.7004 -0.608895,-52.3539 -0.986999,-13.678 -2.77072,-23.5578 -5.28855,-29.6738 -2.5522,-6.24608 -6.3357,-11.4843 -11.5052,-15.722 -5.14369,-4.24139 -11.5886,-7.4872 -19.395,-9.71531l0.33391 -66.9637c0,0 103.781,26.8724 123.516,31.4182l0.00491044 63.341c-7.59645,-1.14168 -13.9874,-0.718152 -19.1912,1.18587 -5.19893,1.91384 -9.21199,5.37325 -11.968,10.3831 -2.70197,4.89448 -4.80487,13.8131 -6.31606,26.7582 -1.4805,12.9402 -2.68601,29.8972 -2.68601,50.8587l-0.0601529 202.084 -0.588025 165.119 -34.9685 -0.159589 -34.9967 -0.159589c-27.3966,-70.0548 -54.4777,-141.585 -79.7947,-215.23 -25.7663,-74.9898 -50.0018,-152.043 -74.4165,-230.607l-0.962447 134.323 0.423526 134.323c-1.34546,22.9686 2.47241,41.7965 3.1255,56.4112 0.648178,14.6 2.2232,25.058 4.93499,31.2488 2.68601,6.12209 6.98879,10.8619 12.6812,14.3164 5.68752,3.42503 12.8396,5.55248 21.4685,6.37007l0.464037 68.1717 -75.0451 -0.349869 -66.7747 -0.329 0.583115 -73.5891c8.90263,-0.293399 16.4598,-2.03783 22.631,-5.20875 6.15524,-3.1746 10.9159,-7.75604 14.3557,-13.7726 3.48396,-6.1356 6.49038,-16.6034 8.96279,-31.379 2.46136,-14.7596 0.259026,-33.8452 1.72357,-57.2742l-1.23007 -113.296 0.158362 -113.293c1.45104,-23.4228 1.88929,-42.684 1.32091,-57.8033 -0.583115,-15.1131 -2.20233,-26.0892 -4.80487,-32.9331 -2.55711,-6.8292 -6.57017,-12.4774 -12.1325,-16.9631 -5.55739,-4.48078 -12.6812,-7.76095 -21.2843,-9.85526l2.37174 -36.7866 2.36806 -36.7927z"/>
  <path fill="#114135" stroke="white" stroke-width="3.80191" d="M1227.58 227.098c32.0419,3.64846 60.2695,15.4323 84.7248,34.3891 24.3509,18.8819 44.9428,44.9269 62.095,77.6415 17.0871,32.5648 29.0956,68.7339 36.0635,108.582 6.92863,39.6383 8.87808,83.0896 5.78818,130.489 -3.0813,47.2655 -10.6176,89.6352 -22.6064,127.344 -12.0932,37.9295 -28.6512,71.3414 -49.6618,100.383 -21.1161,29.1999 -44.6335,51.2073 -70.514,66.0712 -25.9406,14.929 -54.2383,22.5561 -84.974,22.5659 -30.8756,0.0147313 -58.3557,-7.7008 -82.5421,-23.2239 -24.26,-15.5821 -45.2755,-38.9545 -63.1409,-70.1039 -17.9649,-31.3188 -31.0696,-67.4339 -39.3142,-108.367 -8.2299,-40.9298 -11.5543,-86.6791 -9.72513,-137.329 1.83405,-50.6598 8.46438,-96.4841 20.1733,-137.458 11.6942,-40.969 28.4867,-77.0227 50.3198,-107.928 21.7938,-30.8462 46.4381,-53.5361 73.8936,-67.5628 27.2014,-13.888 57.1796,-19.1765 89.4204,-15.4924z"/>
  <path fill="#E8BF00" stroke="white" stroke-width="3.80191" d="M1222.88 307.411c-16.4598,-1.66464 -31.4735,2.62709 -44.9269,12.7659 -13.5184,10.1793 -25.4275,26.2598 -35.7701,48.1223 -10.3438,21.9128 -18.5983,48.5864 -24.7695,79.9592 -6.15524,31.3888 -10.2088,67.4486 -12.2172,108.139 -2.01328,40.5406 -1.53574,76.5992 1.36633,108.177 2.89593,31.5533 8.16484,58.616 15.9062,81.1561 7.66643,22.3818 17.4259,39.1743 29.1999,50.4352 11.7838,11.2253 25.6116,16.9337 41.5669,17.1571 15.8963,0.229563 30.3318,-5.0688 43.3678,-15.8067 13.02,-10.717 24.5596,-26.8613 34.7782,-48.3912 10.2088,-21.4991 18.5627,-47.2642 24.9377,-77.4168 6.3713,-30.1022 10.8177,-64.6165 13.3098,-103.597 2.51169,-39.1203 2.50678,-74.1133 0,-105.028 -2.51292,-30.9591 -7.5719,-57.8671 -15.1536,-80.7522 -7.61119,-23.0791 -17.3375,-40.9334 -29.2601,-53.4747 -11.9189,-12.5572 -26.0548,-19.7854 -42.3354,-21.4451z"/>
  <path fill="#114135" d="M558.36 283.096c55.6746,-10.458 112.037,-20.6214 169.086,-28.6573 57.3294,-8.05926 115.117,-13.7075 172.954,-18.5627 8.62396,31.7325 17.2516,63.5657 25.6706,95.5118 8.43982,32.0124 16.6894,64.1279 24.9193,96.3048l-19.206 16.5445 -19.1016 16.6182c-10.1843,-24.3644 -21.0351,-45.4903 -32.625,-63.276 -11.5641,-17.7648 -23.8868,-32.2051 -36.8173,-43.3715 -12.8506,-11.0951 -26.4329,-18.9862 -40.7444,-23.6327 -14.2759,-4.61091 -29.2208,-6.01161 -44.8373,-4.22666 -9.04749,1.02751 -16.6292,3.18074 -22.6961,6.34061 -6.08527,3.16478 -10.7269,7.34234 -13.8966,12.5671 -3.06534,5.04425 -5.32906,13.1293 -6.82429,24.2146 -1.50996,11.0718 -2.24284,25.1783 -2.19865,42.3059l0.0847051 44.6273 0.0957536 44.6286 9.58027 -0.882652 9.59009 -0.861783c10.388,-0.907204 19.0611,-3.22002 26.0757,-6.90408 7.02807,-3.69388 12.3817,-8.78355 16.0154,-15.3427 3.6681,-6.67943 6.58981,-16.7544 8.83757,-30.2176 2.24776,-13.4632 3.77859,-30.2815 4.61582,-50.4953l21.644 -1.94331 21.6428 -1.78495 -1.92858 144.198 -1.91384 144.157 -20.8264 0.757436 -20.781 0.82741c-1.17605,-18.8721 -3.13041,-35.0618 -5.87657,-48.5606 -2.70688,-13.4939 -6.21662,-24.3006 -10.4531,-32.4249 -4.22175,-8.11082 -9.3814,-14.0574 -15.5526,-17.8163 -6.17611,-3.75281 -13.3539,-5.33765 -21.5188,-4.76436l-9.51153 0.677641 -9.48575 0.707104 0.144858 73.0465 0.149768 73.0207c0.0392835,16.8281 0.83723,30.6203 2.34719,41.4024 1.5161,10.7919 3.7393,18.5578 6.73958,23.2792 3.06534,4.76558 7.55717,8.25936 13.4387,10.5624 5.87289,2.28336 13.1354,3.34401 21.8085,3.17951 14.6552,-0.283578 29.195,-4.40098 43.7054,-12.3866 14.5263,-8.01998 29.0109,-19.9634 43.5372,-35.7898 14.6098,-15.9258 28.3971,-34.8531 41.3128,-56.8163 12.9501,-22.0368 25.058,-47.0801 36.2882,-75.174l18.6032 16.3997 18.5381 16.5396c-11.1111,37.1905 -22.1326,74.3662 -32.9589,111.483l-31.9915 111.019 -162.501 0.408794 -162.431 0.643268 -0.653089 -36.7375 -0.653089 -36.7227c8.71358,-0.702193 15.9761,-2.75599 21.8183,-6.18593 5.85202,-3.45941 10.3033,-8.25936 13.2435,-14.4907 3.02115,-6.35534 5.12036,-17.2909 6.44127,-32.749 1.32091,-15.4826 1.72479,-324.399 -0.0797947,-339.573 -1.8095,-15.1733 -9.2169,-38.9349 -12.4922,-44.6924 -3.27527,-5.75749 -8.01507,-9.77546 -14.1912,-12.0183 -6.19084,-2.24776 -13.8131,-2.72161 -22.8606,-1.44981l-0.651861 -36.7326 -0.669048 -36.7277z"/>
  <path fill="none" stroke="white" stroke-width="3.80191" d="M558.36 283.096c55.6746,-10.458 112.037,-20.6214 169.086,-28.6573 57.3294,-8.05926 115.117,-13.7075 172.954,-18.5627 8.62396,31.7325 17.2516,63.5657 25.6706,95.5118 8.43982,32.0124 16.6894,64.1279 24.9193,96.3048l-19.206 16.5445 -19.1016 16.6182c-10.1843,-24.3644 -21.0351,-45.4903 -32.625,-63.276 -11.5641,-17.7648 -23.8868,-32.2051 -36.8173,-43.3715 -12.8506,-11.0951 -26.4329,-18.9862 -40.7444,-23.6327 -14.2759,-4.61091 -29.2208,-6.01161 -44.8373,-4.22666 -9.04749,1.02751 -16.6292,3.18074 -22.6961,6.34061 -6.08527,3.16478 -10.7269,7.34234 -13.8966,12.5671 -3.06534,5.04425 -5.32906,13.1293 -6.82429,24.2146 -1.50996,11.0718 -2.19865,25.1783 -2.19865,42.3059l0.0847051 44.6273 0.0957536 44.6286 9.58027 -0.882652 9.59009 -0.861783c10.388,-0.907204 19.0611,-3.22002 26.0757,-6.90408 7.02807,-3.69388 12.3817,-8.78355 16.0154,-15.3427 3.6681,-6.67943 6.58981,-16.7544 8.83757,-30.2176 2.24776,-13.4632 3.77859,-30.2815 4.61582,-50.4953l21.644 -1.94331 21.6428 -1.78495 -1.92858 144.198 -1.91384 144.157 -20.8264 0.757436 -20.781 0.82741c-1.17605,-18.8721 -3.13041,-35.0618 -5.87657,-48.5606 -2.70688,-13.4939 -6.21662,-24.3006 -10.4531,-32.4249 -4.22175,-8.11082 -9.3814,-14.0574 -15.5526,-17.8163 -6.17611,-3.75281 -13.3539,-5.33765 -21.5188,-4.76436l-9.51153 0.677641 -9.48575 0.707104 0.144858 73.0465 0.149768 73.0207c0,16.8281 0.83723,30.6203 2.34719,41.4024 1.5161,10.7919 3.7393,18.5578 6.73958,23.2792 3.06534,4.76558 7.55717,8.25936 13.4387,10.5624 5.87289,2.28336 13.1354,3.34401 21.8085,3.17951 14.6552,-0.283578 29.195,-4.40098 43.7054,-12.3866 14.5263,-8.01998 29.0109,-19.9634 43.5372,-35.7898 14.6098,-15.9258 28.3971,-34.8531 41.3128,-56.8163 12.9501,-22.0368 25.058,-47.0801 36.2882,-75.174l18.6032 16.3997 18.5381 16.5396c-11.1111,37.1905 -22.1326,74.3662 -32.9589,111.483l-31.9915 111.019 -162.501 0.408794 -162.431 0.643268 -0.653089 -36.7375 -0.653089 -36.7227c8.71358,-0.702193 15.9761,-2.75599 21.8183,-6.18593 5.85202,-3.45941 10.3033,-8.25936 13.2435,-14.4907 3.02115,-6.35534 5.12036,-17.2909 6.44127,-32.749 1.32091,-15.4826 1.72479,-324.399 -0.0797947,-339.573 -1.8095,-15.1733 -9.2169,-38.9349 -12.4922,-44.6924 -3.27527,-5.75749 -8.01507,-9.77546 -14.1912,-12.0183 -6.19084,-2.24776 -13.8131,-2.72161 -22.8606,-1.44981l-0.651861 -36.7326 -0.669048 -36.7277z"/>
  <path fill="#114135" stroke="white" stroke-width="3.80191" d="M207.737 367.437c26.5532,-7.31779 53.6748,-14.7301 81.4053,-22.0172 28.2129,-7.4074 56.9894,-14.6405 86.2298,-21.8687l0.797947 33.6869 0.796719 33.6967c-7.82602,2.09308 -14.336,5.25417 -19.5202,9.45015 -5.20384,4.21316 -9.11133,9.44646 -11.7335,15.7576 -2.56202,6.11596 -4.30155,16.3739 -5.35361,30.7406 -1.00173,14.3459 -1.27549,32.8189 -0.797947,55.4291l-0.14363 240.293c0,39.4296 11.3493,49.4383 13.9322,53.282 2.52642,3.76263 6.26081,6.49529 11.17,8.23972 4.89571,1.73461 10.9564,2.48223 18.1993,2.20847 11.8587,-0.439485 23.3884,-4.1125 34.6186,-11.1762 11.2461,-7.07349 22.2075,-17.561 32.8091,-31.4882 10.7674,-14.1323 20.7822,-31.2046 30.0826,-51.238 9.33721,-20.1635 17.9256,-43.2868 25.8608,-69.4017l20.3624 15.6864 20.4029 15.9614 -23.5922 104.325 -23.2595 102.485 -146.276 0.753753 -145.991 0.777078 0 -31.2943 0 -31.2881c7.84566,-0.519279 14.4404,-2.20847 19.7289,-5.10932 5.28855,-2.88611 9.26232,-6.97406 11.9238,-12.2528 2.74616,-5.42849 4.78523,-14.9486 6.06071,-28.6119 1.30618,-13.6731 1.99978,-284.178 0.573294,-297.497 -1.43017,-13.3048 -6.67452,-32.9687 -9.27583,-37.5894 -2.56202,-4.56671 -6.21662,-7.6873 -11.0866,-9.31143 -4.85029,-1.62045 -10.8067,-1.73461 -17.9243,-0.413705l0 -31.1052 0 -31.1089z"/>
  <path fill="#E8BF00" d="M557.818 1240.17c0,0 -93.7526,-25.5368 -150.519,4.10267 -56.7549,29.6431 -37.7981,28.8464 -64.1476,46.1029 -26.3445,17.2467 -109.468,34.8335 -148.12,44.1547 -38.6415,9.31143 -48.5311,3.52447 -51.8211,29.8678 -3.30473,26.3494 9.50539,52.689 9.50539,52.689 0,-0.00491044 6.1712,23.0386 13.5381,43.5912 7.36812,20.5465 -7.36689,46.891 60.0805,43.5961 67.429,-3.29491 106.364,-25.3624 121.856,9.12115 15.4875,34.4701 26.1751,64.9111 8.92227,87.9608 -17.2565,23.0337 -23.0533,29.6284 -50.17,16.4537 -27.1425,-13.1796 -43.6268,-32.9282 -60.0805,-9.87367 -16.4598,23.0435 -23.0693,49.2787 -11.5248,76.4593 11.5248,27.1916 20.6165,37.0861 37.8681,30.4914 17.2578,-6.59472 16.5445,-8.87194 16.5445,-8.87194 0,0 31.1494,6.37498 57.4988,-7.59645 26.3187,-13.9579 23.1085,-14.023 23.1085,-14.023 0.00491044,-0.00491044 0.713242,7.443 33.6316,20.6177 32.9343,13.1735 87.3028,14.7547 87.3028,14.7547 0,-0.00491044 15.5722,11.5788 -44.4837,48.595 -60.0609,37.0112 -76.4507,45.7653 -76.4507,45.7653 0.00491044,-0.00491044 18.0152,-5.80783 24.1864,5.90112 6.16997,11.6844 -7.79656,48.6956 -7.79656,48.6956l29.9635 -27.0872 3.75281 -16.5089c0,0 -7.38776,-19.7547 29.6443,0 37.0014,19.7645 61.3167,38.1284 61.3167,38.1284l2.80632 -78.4296 16.4844 -16.4696 19.0169 10.3684 0.737794 33.2376 13.1588 16.4598 26.4096 -2.51169 0 79.0373 -96.3539 9.86876c0,0 -22.8201,1.27672 -24.5804,29.0318 -1.74935,27.7391 -7.5363,41.7068 -11.6292,54.8816 -4.09654,13.1747 -6.59472,42.808 9.87981,29.6333 16.4647,-13.1637 16.4647,-36.2133 29.6443,-23.0533 13.1649,13.1735 20.5269,31.2292 43.606,27.1363 23.0238,-4.08303 29.6186,-20.5416 29.6186,-33.7163 0,-13.1796 16.914,-3.52938 31.9031,-11.6402 14.9879,-8.11451 38.8158,-31.9559 42.1107,-48.4206 3.31455,-16.4696 6.27555,-22.3462 6.27555,-22.3462l72.5469 0 54.4126 -53.0672c0,0 27.8152,-46.9905 4.0683,-49.1388 -23.7579,-2.15446 -39.7341,-11.0215 -58.4809,0 -18.7677,11.0104 -112.535,94.1258 -112.535,94.1258l0 -174.714c0,0 98.3684,-77.0989 112.535,-129.733 0,-0.00491044 -1.50996,46.9414 -28.6316,77.3726 -27.1228,30.4165 -53.4858,31.2194 -50.1909,74.0237 3.31455,42.7982 20.2519,34.1939 18.3724,47.1243 -1.88807,12.9255 70.5287,-82.5507 70.5287,-82.5507 0,-0.00491044 -9.19603,-67.3381 6.06194,-72.7224 15.2874,-5.38307 46.3325,-35.3957 46.3325,-35.3957l-12.0883 -45.2117 14.1077 -76.6446 18.1294 76.6446 36.298 0 -42.3403 92.401 -31.9719 9.15675 -0.268847 85.179 43.8748 -58.0463 32.9098 -64.1488 13.9223 19.9892 -54.4286 110.066c0,0 67.6475,-32.1855 80.8124,-62.6167 13.1845,-30.4226 41.0992,-54.2592 27.1412,-67.4339 -13.9567,-13.1796 -13.2287,-25.2323 -13.2287,-25.2323l0 -66.825c0,0 59.0088,17.7562 64.5122,-21.6133 5.48251,-39.3842 -1.88929,-69.8105 -1.88929,-69.8105 0,-0.00491044 44.4776,21.7631 52.2692,1.00664 7.79042,-20.7614 4.0327,-62.9015 4.0327,-62.9015l44.3388 31.4428 4.02288 -37.3451c0,0 26.115,5.24435 32.7097,-18.6032 6.58368,-23.8512 3.28877,-27.1314 3.28877,-27.1314l-31.9608 -30.9198 -12.0932 -23.5873 -14.1114 13.7578 -58.4404 -45.2019 -53.6957 22.6003 0 -23.0582 -32.9589 -5.42849 38.2879 -33.4229c0,0 -29.9488,-59.0186 -85.9413,-38.4672 -55.968,20.5527 -73.2405,34.5241 -73.2405,10.6778 0,-23.8574 -2.05379,-42.9578 -2.05379,-42.9578l-36.2538 -0.00491044 -38.3321 29.4835c0,0 -47.5638,-36.7019 -77.2081,-33.4168 -29.6186,3.29491 -132.373,7.87512 -132.373,7.87512l-26.2144 33.4082c0,0 72.2081,-10.8521 78.7782,5.61264 6.59472,16.4647 13.942,59.2482 13.942,59.2482z"/>
  <path fill="#E8BF00" d="M250.371 1565.64c0,-9.32125 14.9241,-16.8674 33.3284,-16.8674 18.4129,-0.00491044 33.337,7.55103 33.337,16.8674 0,9.30652 -14.9241,16.8588 -33.337,16.8588 -18.4043,-0.00491044 -33.3284,-7.54735 -33.3284,-16.8588z"/>
  <path fill="#114135" d="M379.386 1351.38c0,-9.30652 14.8983,-16.8477 33.3174,-16.8477 18.3786,0 33.3075,7.54121 33.3075,16.8526 0,9.30652 -14.929,16.8539 -33.3075,16.8539 -18.4191,0 -33.3174,-7.54244 -33.3174,-16.8588z"/>
  <path fill="#114135" d="M658.573 1206.77l-34.8875 -12.6812c0,0 -17.9243,11.9226 -3.39925,27.6691 14.5251,15.7269 13.3736,23.5628 36.2734,26.2795 22.9048,2.71179 39.8433,2.7167 43.4721,-3.31455 3.60795,-6.03125 -1.19201,-9.70058 3.60795,-22.9649 4.83065,-13.2791 16.9238,-26.5532 3.63987,-28.9704 -13.2754,-2.41717 -20.5772,-2.41717 -29.0121,3.62391 -8.4386,6.03125 -19.6946,10.3586 -19.6946,10.3586z"/>
  <path fill="#114135" d="M805.119 1215.7c-13.3343,-6.03125 -25.3821,-10.8472 -30.2078,-1.19078 -4.82942,9.64043 -19.3557,27.7992 2.41225,37.4446 21.7741,9.66007 35.0385,22.8949 49.523,35.0078 14.4858,12.1128 20.5269,10.9061 13.2852,20.5563 -7.25763,9.65516 -2.43312,20.522 -21.7238,7.24781 -19.3103,-13.2643 -7.30797,-9.7104 -26.6232,-26.5986 -19.2858,-16.8981 -36.1445,-31.3777 -44.6286,-18.1036 -8.49875,13.2791 -14.5005,50.7384 3.61409,64.0187 18.0901,13.2631 12.0036,7.27728 36.1887,16.9373 24.1864,9.65025 18.16,15.6913 18.16,15.6913l0.588025 11.0411c0,0 24.7437,-7.42213 28.3774,7.04894 3.61409,14.4858 -0.1645,32.2714 -0.1645,32.2714 0,-0.00613805 19.5202,6.36025 37.6398,28.1233 18.095,21.7729 14.2759,17.3167 22.8151,40.6597 8.54294,23.359 8.6031,33.0141 18.2386,26.978 9.66007,-6.03739 14.4858,-15.6925 14.4858,-15.6925 0,0 -13.225,-5.98092 -15.6815,-21.7287 -2.45277,-15.7355 -6.08649,-35.0421 -6.08649,-41.0783 0,-6.03616 -21.7287,-25.3367 -21.7287,-25.3367l8.46438 -35.0434c0,0 -13.2643,-18.149 -20.5072,-27.8091 -7.24781,-9.65025 -2.41225,-10.857 1.19078,-20.5171 3.63496,-9.66007 5.52302,-6.83902 5.52302,-6.83902 0,0 -18.807,-14.929 -10.3475,-27.0025 8.45946,-12.0674 10.3475,-12.3068 10.3475,-12.3068 0,0 -29.6382,-12.4173 -48.3863,-31.4489 -18.7419,-19.0464 -11.4401,-26.2795 -24.7683,-32.3304z"/>
  <path fill="#114135" d="M785.763 1400.5c0,0 -10.0946,18.6486 -0.229563,24.4307 9.88963,5.78696 16.3493,12.3117 16.1652,0 -0.189052,-12.3178 -8.08504,-23.5824 -8.08504,-23.5824l-7.85057 -0.848279z"/>
  <path fill="#114135" d="M675.85 1383.6c-8.45946,-4.82942 -20.5072,-8.4386 -18.0938,2.41348 2.41717,10.8607 3.54902,20.5711 14.46,27.8091 10.9221,7.2429 15.7466,7.24781 30.2275,16.8931 14.4858,9.65516 16.6034,9.94978 16.6034,9.94978 0,-0.00491044 -16.6034,-28.0988 -25.0433,-38.9607 -8.45333,-10.8521 -9.71408,-13.2791 -18.1539,-18.1048z"/>
  <path fill="#114135" d="M738.657 1421.07c-4.82451,9.65025 -12.1128,0.00491044 -3.62882,18.0999 8.49875,18.1036 7.28832,20.5711 19.3754,30.2164 12.0429,9.65516 4.82574,14.4809 18.095,9.65516 13.2643,-4.83433 15.6766,-7.2871 8.43369,-18.149 -7.23799,-10.8717 -8.43369,-10.8668 -15.6766,-24.141 -7.24781,-13.2791 -4.78523,-22.9244 -16.8981,-20.5171 -6.92863,1.38106 -7.5363,-0.403884 -7.66643,-0.363373 -0.125216,0.0245522 0.0196418,1.06679 -2.03415,5.19893z"/>
  <path fill="#114135" d="M600.132 1448.53c0,0 -12.4909,7.59154 8.08013,17.2369 20.5527,9.64534 19.3606,8.44473 38.6722,18.0999 19.3054,9.66007 20.506,15.6913 26.5532,8.45455 6.02634,-7.24781 12.0674,-6.0423 -3.60918,-16.9042 -15.7011,-10.8607 -12.033,-9.69444 -37.4298,-19.3496 -25.4017,-9.66621 -32.2665,-7.53753 -32.2665,-7.53753z"/>
  <path fill="#114135" d="M698.88 1509.45l22.167 25.5466c0,0 -42.7798,50.3357 -51.2184,58.7805 -8.46438,8.44842 -13.2692,10.0234 -13.2692,10.0234 0,-0.00491044 -5.66788,-35.0323 -22.167,-33.4021 -16.5138,1.61063 -25.8608,16.1504 -30.2324,-1.974 -4.40098,-18.1294 -3.22493,-26.5827 19.7547,-35.0274 22.9698,-8.45455 18.0999,-7.2871 44.6973,-15.7318 26.5937,-8.44842 30.268,-8.20903 30.268,-8.21517z"/>
  <path fill="#114135" d="M611.826 1494.73c0,0 -6.02634,-8.45455 -19.2907,-6.03125 -13.2692,2.40734 -18.0938,1.2006 -19.3152,-7.24781 -1.21656,-8.45455 -7.30797,-21.8183 -21.7631,-19.3557 -14.4907,2.45768 -38.6268,12.1128 -24.141,21.768 14.4797,9.66007 9.68953,15.6913 42.2949,20.522 32.5599,4.83065 41.0145,14.4858 47.0408,4.83065 6.04598,-9.66621 -4.82574,-14.4858 -4.82574,-14.4858z"/>
  <path fill="#114135" d="M440.887 1513.39c5.46287,3.06534 -28.2731,-19.8235 -36.7522,-39.1792 -8.5233,-19.3508 -30.058,-36.244 -33.7765,-29.6087 -3.69388,6.63401 -8.5233,1.8586 2.32755,22.3707 10.8766,20.5121 4.89571,14.5251 31.4489,53.1519 26.5336,38.612 18.0299,47.1108 45.8439,67.6229 27.8152,20.5171 24.141,27.7587 43.4918,18.1134 19.3606,-9.66989 26.5581,-8.49875 13.2938,-30.2262 -13.2938,-21.7336 -6.0067,-30.128 -36.2329,-44.6531 -30.2078,-14.5263 -35.0777,-20.6472 -29.6443,-17.5917z"/>
  <path fill="#114135" d="M568.351 1654.17c0,0 -12.0686,-8.48893 -18.095,14.4846 -6.04598,22.9747 -10.8717,20.5625 -13.2889,39.8728 -2.41225,19.3115 -9.65025,30.1673 3.63864,30.1673 13.2643,-0.00491044 9.41577,14.0819 19.206,-18.9261 9.80002,-33.0092 9.80002,-24.5645 13.4092,-43.8711 3.61409,-19.3201 -4.86993,-21.7275 -4.86993,-21.7275z"/>
  <path fill="#114135" d="M596.145 1681.93c0,0 -6.02143,-12.022 -12.0736,10.9122 -6.02143,22.9391 -9.62938,16.8931 -6.02143,33.7912 3.60918,16.8931 8.43491,30.2275 8.43491,30.2275 0,0 4.72998,-17.3866 9.61465,-37.0861 4.87607,-19.6946 3.65951,-25.7663 2.46259,-30.5921 -1.2006,-4.84415 -2.41717,-7.24781 -2.41717,-7.25272z"/>
 </g>
</svg>
