<?xml version="1.0" encoding="utf-8"?>
<!DOCTYPE svg PUBLIC "-//W3C//DTD SVG 1.1//EN" "http://www.w3.org/Graphics/SVG/1.1/DTD/svg11.dtd" [
<!ENTITY ns_flows "http://ns.adobe.com/Flows/1.0/">
<!ENTITY ns_svg "http://www.w3.org/2000/svg">
<!ENTITY ns_xlink "http://www.w3.org/1999/xlink">
]>
<svg  version="1.1" xmlns="&ns_svg;" xmlns:xlink="&ns_xlink;" xmlns:a="http://ns.adobe.com/AdobeSVGViewerExtensions/3.0/"
width="375" height="457" viewBox="-0.2724609 -0.4365234 375 457" enable-background="new -0.2724609 -0.4365234 375 457"
xml:space="preserve">
<defs>
</defs>
<path fill-rule="evenodd" clip-rule="evenodd" d="M374.2099609,169.2963867V0H0v169.2963867
c2.0698242,126.0874023,64.4233398,221.6459961,187.1484375,286.5864258
C309.7861328,390.9423828,372.2265625,295.3837891,374.2099609,169.2963867L374.2099609,169.2963867z"/>
<path fill-rule="evenodd" clip-rule="evenodd" fill="#FF0000" d="M366.6201172,169.2963867v-1.6391602H7.6767578v1.6391602
c0.3447266,18.8007813,1.9833984,36.9116211,5.0878906,54.3334961H361.53125
C364.5507813,206.2080078,366.2753906,188.097168,366.6201172,169.2963867L366.6201172,169.2963867z"/>
<polygon fill-rule="evenodd" clip-rule="evenodd" fill="#FF0000" points="366.6201172,111.7719727 366.6201172,55.8867188 
190.9433594,55.8867188 190.9433594,111.7719727 366.6201172,111.7719727 "/>
<polygon fill-rule="evenodd" clip-rule="evenodd" fill="#FF0000" points="7.6767578,7.5893555 7.6767578,160.0678711 
183.3540039,160.0678711 183.3540039,7.5893555 7.6767578,7.5893555 "/>
<path fill-rule="evenodd" clip-rule="evenodd" fill="#FF0000" d="M28.2875977,279.5136719
c7.6757813,19.7509766,17.421875,38.2939453,29.3227539,55.8867188h259.0761719
c11.9013672-17.5068359,21.6464844-36.1357422,29.3212891-55.8867188H28.2875977L28.2875977,279.5136719z"/>
<path fill-rule="evenodd" clip-rule="evenodd" fill="#FF0000" d="M106.5976563,391.2871094
c22.8544922,20.6982422,49.7626953,39.3271484,80.5507813,55.9697266
c30.7880859-16.6425781,57.6982422-35.2714844,80.5517578-55.9697266H106.5976563L106.5976563,391.2871094z"/>
<path fill-rule="evenodd" clip-rule="evenodd" fill="#FFFFFF" d="M77.4462891,19.2319336
c-13.7119141-6.9853516-22.6806641-7.934082-26.9072266-2.9321289c9.4868164,1.8974609,14.0576172,7.6767578,13.5395508,17.3354492
v83.9150391c3.7084961,1.8110352,7.8481445,2.9321289,12.5053711,3.362793
c1.0356445,0.0869141,1.984375,0.1733398,2.9331055,0.2592773v-20.9580078
c16.9887695,1.4667969,28.6323242,9.8325195,35.0146484,25.2695313
c6.4682617,15.4384766,13.5395508,23.2861328,21.215332,23.7182617c7.6767578,0.4301758,12.5908203-6.2963867,14.8339844-20.1821289
c-11.2978516,12.074707-20.6982422,8.7963867-28.1152344-9.918457
c-7.503418-18.7998047-21.8198242-28.9765625-42.9487305-30.7880859V26.6489258
c3.1044922-1.034668,6.3823242-1.6376953,9.9174805-1.8110352c8.7963867-0.3447266,16.6455078,2.5874023,23.4580078,8.7973633
c6.8129883,6.2949219,10.4355469,13.9716797,10.7802734,22.9404297c0.3457031,7.5893555-2.0698242,14.4897461-7.2436523,20.6982422
v9.3144531h3.5361328c2.8447266-1.6386719,5.605957-3.6220703,8.105957-5.9501953
c4.9169922-4.3129883,8.1074219-9.1420898,9.6601563-14.3173828c0.862793-3.2768555,2.4145508-5.7783203,4.5698242-7.5893555
c-2.1552734-2.1557617-3.5361328-5.0878906-4.2250977-8.7104492c-1.7250977-8.8823242-5.9501953-16.8173828-12.7646484-23.7163086
c-7.5029297-7.7617188-16.9038086-11.5566406-28.3740234-11.5566406
C89.8662109,14.7480469,83.3120117,16.2133789,77.4462891,19.2319336L77.4462891,19.2319336z"/>
<path fill-rule="evenodd" clip-rule="evenodd" fill="#FFFFFF" d="M93.4873047,28.4599609
c-3.4487305-0.9482422-7.1572266-0.8623047-11.1240234,0.2587891v29.7543945
c1.5512695,3.1054688,4.1391602,3.9667969,7.675293,2.8457031c4.4848633-1.465332,5.5185547-4.3125,3.2768555-8.6240234
C90.6425781,47.6069336,90.7290039,39.4995117,93.4873047,28.4599609L93.4873047,28.4599609z"/>
<path fill-rule="evenodd" clip-rule="evenodd" fill="#FFFFFF" d="M92.5390625,42.949707
c3.7094727,1.1210938,5.6054688,3.5351563,5.6054688,7.3310547v39.4121094
c7.2451172,2.9335938,13.3691406,7.4169922,18.284668,13.2827148h17.2480469
c2.6738281,0.2568359,3.7949219,1.8110352,3.4492188,4.7431641c-0.4306641,2.8447266-3.2753906,6.0366211-8.4506836,9.5727539
c12.0742188,1.2070313,17.4204102-4.6572266,16.1269531-17.6801758
c-1.2929688-12.9365234,2.0698242-22.1650391,10.0039063-27.5112305
c-7.3300781-2.1567383-14.2304688,3.6225586-20.6113281,17.3344727h-20.6123047v-36.309082h6.8989258
c-0.7763672-4.4838867-2.3291016-8.6240234-5.0014648-12.331543h-18.887207
C94.1777344,40.9648438,92.7983398,41.6552734,92.5390625,42.949707L92.5390625,42.949707z"/>
<path fill-rule="evenodd" clip-rule="evenodd" fill="#FFFFFF" d="M61.2329102,33.6352539c0,0,0,0,0-0.0859375
c0-0.8637695,0-1.7250977,0-2.5014648c-6.0366211,2.3291016-11.3842773,5.8642578-16.2998047,10.4350586
c-9.8325195,9.2285156-16.7314453,21.5610352-20.6982422,36.9135742c-0.6044922,2.2416992-1.6391602,4.0517578-2.9321289,5.2597656
c1.4667969,2.1557617,2.5,4.5712891,3.1044922,7.3300781c2.3291016,9.918457,8.0195313,19.4912109,17.0756836,28.8056641
c8.9702148,9.2280273,20.0957031,13.7993164,33.4633789,13.7119141c7.8476563,0,14.5742188-1.1196289,20.3525391-3.362793
v-9.4003906c-4.7436523,2.8457031-11.0395508,3.8818359-18.9736328,3.0195313
c-11.7285156-1.2084961-20.4384766-6.0380859-26.2177734-14.4038086
c-5.7783203-8.4516602-8.6245117-18.0244141-8.6245117-28.9780273c0-10.8657227,2.8461914-20.0942383,8.4521484-27.855957
c3.3637695-4.5708008,7.0722656-7.9350586,11.2978516-10.0043945V33.6352539L61.2329102,33.6352539z"/>
<path fill-rule="evenodd" clip-rule="evenodd" fill="#FFFFFF" d="M98.1445313,109.1845703v26.2177734
c-0.171875,8.5380859-1.8095703,13.7119141-5.0014648,15.5234375c5.9501953,0.5180664,11.0395508-0.7753906,15.2646484-3.8808594
c4.6572266,2.7597656,9.8325195,4.0532227,15.5244141,3.8808594c-5.5195313-4.9155273-8.8837891-11.5561523-10.0043945-19.8349609
c-0.6904297-1.3803711-1.293457-2.9331055-1.9833984-4.4858398
C108.753418,118.9291992,104.1826172,113.1513672,98.1445313,109.1845703L98.1445313,109.1845703z"/>
<path fill-rule="evenodd" clip-rule="evenodd" fill="#FFFFFF" d="M74.9462891,136.3510742
c-3.8808594,0.0864258-7.5893555-0.2597656-11.1259766-1.034668c-0.8623047,7.1572266-4.3115234,13.4536133-10.0043945,18.9731445
c8.1069336-0.3442383,14.4033203-2.6733398,18.9731445-6.9863281c4.9169922,4.2265625,10.9536133,6.3823242,17.9399414,6.4682617
c-5.4335938-4.3974609-8.8837891-10.2626953-10.4365234-17.59375
C78.5683594,136.3510742,76.8432617,136.3510742,74.9462891,136.3510742L74.9462891,136.3510742z"/>
<path fill-rule="evenodd" clip-rule="evenodd" fill="#FFFFFF" d="M140.8359375,49.5029297
c0.2583008,1.2944336,0.6030273,2.5014648,1.1210938,3.6225586H152.21875
c3.3642578,0.7763672,5.8657227,3.7944336,7.5043945,8.9697266c2.5004883,7.7617188,6.8129883,11.9882813,13.109375,12.6787109
c-6.7280273-8.8837891-8.7978516-18.2841797-6.1240234-28.1166992c2.5874023-9.9174805,0.6904297-18.2832031-5.6918945-24.9238281
c1.7250977,12.5908203-0.1723633,18.9731445-5.7783203,19.0605469h-16.9038086
C139.4555664,43.6386719,140.2319336,46.4848633,140.8359375,49.5029297L140.8359375,49.5029297z"/>
</svg>
