<?xml version="1.0" encoding="utf-8"?>
<!-- Generator: Adobe Illustrator 13.0.0, SVG Export Plug-In . SVG Version: 6.00 Build 14948)  -->
<!DOCTYPE svg PUBLIC "-//W3C//DTD SVG 1.0//EN" "http://www.w3.org/TR/2001/REC-SVG-20010904/DTD/svg10.dtd">
<svg version="1.0" id="Layer_1" xmlns="http://www.w3.org/2000/svg" xmlns:xlink="http://www.w3.org/1999/xlink" x="0px" y="0px"
	 width="381.822px" height="442.002px" viewBox="0 0 381.822 442.002" enable-background="new 0 0 381.822 442.002"
	 xml:space="preserve">
<path fill="#92062A" d="M190.958,0C142.793,62.548,79.204,85.922,0.285,70.308c-5.111,155.285,58.479,279.15,190.672,371.694
	c132.101-92.544,195.687-216.409,190.58-371.694C302.617,85.922,239.029,62.548,190.958,0z"/>
<path fill="#FFFFFF" d="M190.958,6.435C143.17,66.049,80.906,88.949,4.165,75.134c-3.596,150.74,58.573,271.484,186.793,362.042
	c128.126-90.558,190.296-211.302,186.7-362.042C300.912,88.949,238.649,66.049,190.958,6.435z"/>
<path fill="#92062A" d="M190.958,33.214C145.442,81.665,89.044,102.293,21.67,95.29c0.757,42.771,7.191,82.893,19.398,120.459
	h299.684c12.208-37.566,18.736-77.688,19.492-120.459C292.87,102.293,236.38,81.665,190.958,33.214z"/>
<path fill="#006039" d="M221.05,225.874c-26.309-5.203-55.075-5.203-86.111,0H44.476c26.211,73.524,75.037,136.739,146.482,189.633
	c71.35-52.895,120.174-116.109,146.388-189.633H221.05z"/>
<path fill="#FFFFFF" d="M234.391,130.49c-0.284-0.094-0.475-0.187-0.66-0.284c-2.084,3.409-3.787,7.191-5.112,11.355
	c1.23,0.189,2.461,0.473,3.691,0.851c0.475,2.178,0.188,4.732-0.944,7.476c-11.831,30.28-6.91,45.99,14.95,47.124
	c-15.995-24.034-9.467-43.244,19.489-57.532l-4.824-10.503C251.613,133.708,242.625,134.181,234.391,130.49z"/>
<path fill="#FFFFFF" d="M160.11,128.598c-17.603,6.151-29.335,6.719-35.297,1.705l-15.804,16.464
	c8.801-2.649,13.722,3.217,14.762,17.6c6.151-3.216,12.587-5.867,19.306-7.947c-0.097-2.839-0.284-5.584-0.473-8.33
	c19.02-9.65,41.918-12.869,68.888-9.462c-0.284-2.27-0.096-4.447,0.474-6.623c0.377-1.893,1.04-3.596,1.984-5.395
	C191.336,123.299,173.356,123.962,160.11,128.598z"/>
<path fill="#FFFFFF" d="M157.365,90.842l-15.045,15.047c11.166-1.516,17.41,5.298,19.02,20.439
	c5.771-1.799,12.489-2.935,20.06-3.408c-0.379-4.919-0.757-9.651-1.229-14.004c14.666-0.852,27.346-4.353,38.229-10.408
	c3.878,4.919,9.556,8.421,16.843,10.692c-25.076,15.425-28.86,30.847-11.164,46.46c2.365-24.886,14.664-40.689,36.998-47.219
	c-15.424-8.232-28.863-16.748-40.405-25.548C185.185,95.29,164.083,97.939,157.365,90.842z"/>
<path fill="#FFFFFF" d="M222.848,156.986c-1.516-1.326-2.84-2.649-4.07-3.975c-12.11-1.609-23.655-2.176-34.632-1.796
	c0,4.445,0,8.99,0,13.719c12.301-0.377,25.736,0.569,40.026,2.745c0.756-4.068,1.989-8.516,3.691-13.342
	c-0.663-0.189-1.23-0.284-1.893-0.284c0,0.567-0.096,1.23-0.188,1.796c0,0.474-0.284,0.853-0.567,1.136
	c-0.286,0.284-0.663,0.474-1.135,0.474C223.604,157.46,223.225,157.27,222.848,156.986z"/>
<path fill="#FFFFFF" d="M182.063,184.807l0.19-9.747c0.188-12.964,0.188-24.887-0.096-35.674c-7.097,0.567-13.909,1.607-20.25,3.312
	c0.474,21.859,0.663,44.001,0.379,66.333c6.812-0.853,13.343-1.326,19.304-1.608l0.189-8.517l13.816-1.893l2.46,2.178
	c-1.23,3.5-2.27,6.812-3.028,9.934c-14.478-0.567-31.702,0.947-51.951,4.638c0.566-13.058,0.85-26.211,0.566-39.838
	c-7.097,2.459-13.531,5.677-19.586,9.652c1.513,49.68-3.785,90.369-15.897,122.069l6.718,7.191
	c12.965-2.649,22.805,1.703,29.429,13.152c2.459-3.214,4.448-6.717,6.245-10.596c-4.825-7.571-11.448-12.492-19.87-14.478
	c5.582-23.09,9.463-47.22,11.449-72.485c19.494-3.219,35.39-4.73,47.786-4.54c1.326,0.09,2.46,0.09,3.69,0.186
	c0.853,12.776,8.233,21.86,21.955,27.063v-5.298c-6.814-6.907-10.41-13.815-10.787-20.818c2.742,0.379,5.299,0.851,7.664,1.418
	c5.488,1.326,9.365,4.067,11.449,8.138c0.663-8.323,0.663-16.748,0-25.264c-4.067,0.663-9.084,0.853-15.236,0.663
	c2.27-4.069,5.489-8.043,9.748-12.207l-6.908-13.437c-6.245,0.853-12.964,1.702-20.062,2.365
	C186.321,187.552,183.199,186.793,182.063,184.807z"/>
<path fill="#FFFFFF" d="M181.21,225.781c-5.771,0.188-12.206,0.756-19.207,1.514c-0.287,14.382-0.663,28.765-1.232,43.243
	c3.312,0.286,6.813,0.475,10.314,0.567c3.123,0,6.245,0,9.274,0L181.21,225.781z"/>
<path fill="#FFFFFF" d="M160.583,167.396c-0.095-4.448-0.189-8.99-0.189-13.438c-38.041,7.097-67.942,28.2-89.801,63.21
	c-2.555,4.354-5.301,7.95-7.95,10.79c3.596,1.323,6.434,3.877,8.61,7.664c10.884,19.587,25.267,33.973,43.245,43.057
	c1.326-5.489,2.462-11.168,3.408-17.129c-13.152-6.814-22.428-16.843-27.536-29.902c-2.177-5.391-1.609-10.787,1.513-16.181
	C106.929,189.35,129.829,173.357,160.583,167.396z"/>
<path fill="#FFFFFF" d="M138.912,269.026c-0.945,5.961-1.986,11.827-3.312,17.602c10.316,2.646,21.387,3.972,33.405,3.972
	c21.196,0.095,40.499-3.5,57.816-10.599c16.563-6.812,32.742-9.272,48.451-7.474c0.663-9.843,4.258-17.034,10.978-21.388
	c6.716-4.351,12.017-3.121,15.894,3.596l8.517-0.186c-4.826-5.303-2.27-11.073,7.478-17.413c-15.521,0-25.079-2.177-28.956-6.815
	c-33.025,29.43-72.485,43.625-118.095,42.49C159.068,272.527,148.469,271.296,138.912,269.026z"/>
<path fill="#FFFFFF" d="M180.36,292.019c-3.785,0.188-7.57,0.379-11.355,0.379c-3.406,0-6.719-0.095-9.937-0.284
	c-2.459,16.088-7.76,28.861-15.991,38.133l5.866,9.276c8.896-10.882,21.102-12.208,36.336-3.784
	c15.237,8.325,31.039,10.123,47.316,5.202C199.946,336.399,182.536,320.028,180.36,292.019z"/>
<path fill="#FFFFFF" d="M158.594,334.034c-2.554,1.135-4.921,2.933-7.001,5.3c6.625,8.138,12.775,11.827,18.546,10.88
	C165.125,345.2,161.34,339.809,158.594,334.034z"/>
<path fill="#FFFFFF" d="M283.977,171.369l-5.489-8.042c-11.733,0.756-23.183-0.663-34.253-4.542
	c-1.514,2.08-2.556,4.163-3.312,6.433c-0.758,2.082-1.135,4.258-1.233,6.53c10.126,4.258,16.278,10.882,18.453,20.061
	c2.651,11.545,13.534,16.749,32.551,15.52c5.112-1.042,6.151-4.069,3.314-9.084c-2.84-5.017-6.624-4.543-11.261,1.23
	c-8.989-1.136-13.532-5.584-13.627-13.249C268.931,178.563,273.85,173.547,283.977,171.369z"/>
</svg>
