<svg xmlns="http://www.w3.org/2000/svg" viewBox="0 0 250 250" width="250" height="250">
	<style>
		tspan { white-space:pre }
		.shp0 { fill: #f6b4cd } 
		.shp1 { fill: #000100 } 
		.shp2 { fill: #ffffff } 
	</style>
	<g >
		<path class="shp0" d="M121.59 0.11C120.85 0.13 118.96 0.23 117.39 0.32C115.82 0.41 113.5 0.59 112.24 0.72C110.97 0.85 108.66 1.13 107.09 1.36C105.52 1.58 102.63 2.08 100.67 2.47C98.7 2.86 95.6 3.56 93.77 4.03C91.94 4.5 89.05 5.33 87.35 5.87C85.65 6.4 83.15 7.25 81.8 7.76C80.45 8.26 78.31 9.1 77.05 9.63C75.78 10.15 73.57 11.13 72.13 11.8C70.69 12.47 68.62 13.48 67.53 14.05C66.44 14.63 64.48 15.7 63.17 16.45C61.87 17.19 59.87 18.39 58.73 19.1C57.6 19.81 55.85 20.95 54.85 21.63C53.85 22.3 51.67 23.88 50.02 25.12C48.36 26.36 46.22 28.03 45.26 28.83C44.3 29.63 42.98 30.76 42.33 31.34C41.68 31.92 40.14 33.33 38.92 34.48C37.7 35.62 35.77 37.54 34.63 38.75C33.49 39.96 32.24 41.31 31.85 41.75C31.47 42.18 31.11 42.57 31.07 42.62C31.02 42.66 30.23 43.59 29.31 44.68C28.39 45.77 26.93 47.58 26.05 48.72C25.18 49.85 23.97 51.45 23.38 52.28C22.78 53.11 21.42 55.11 20.36 56.72C19.3 58.33 17.71 60.9 16.82 62.42C15.93 63.95 14.43 66.73 13.48 68.6C12.53 70.47 11.28 73.08 10.7 74.38C10.12 75.69 9.2 77.9 8.64 79.29C8.09 80.69 7.2 83.11 6.67 84.68C6.13 86.25 5.34 88.74 4.91 90.22C4.49 91.71 3.89 93.92 3.58 95.14C3.28 96.36 2.74 98.78 2.39 100.52C2.04 102.27 1.54 105.19 1.28 107.02C1.02 108.85 0.69 111.45 0.56 112.8C0.43 114.15 0.25 116.47 0.16 117.95C0.07 119.43 0 122.6 0 125C0 127.4 0.07 130.57 0.16 132.05C0.25 133.53 0.43 135.85 0.56 137.2C0.69 138.55 1.02 141.15 1.28 142.98C1.54 144.81 2.04 147.73 2.39 149.48C2.74 151.22 3.28 153.64 3.58 154.86C3.89 156.08 4.49 158.29 4.91 159.78C5.34 161.26 6.13 163.75 6.67 165.32C7.2 166.89 8.09 169.31 8.64 170.71C9.2 172.1 10.12 174.31 10.7 175.62C11.28 176.92 12.53 179.53 13.48 181.4C14.43 183.27 15.93 186.05 16.82 187.58C17.71 189.1 19.3 191.67 20.36 193.28C21.42 194.89 22.78 196.89 23.38 197.72C23.97 198.55 25.18 200.15 26.05 201.28C26.93 202.42 28.4 204.23 29.31 205.32C30.23 206.41 31.27 207.62 31.62 208.01C31.97 208.4 32.76 209.25 33.36 209.91C33.97 210.57 34.9 211.56 35.43 212.11C35.95 212.67 37.45 214.13 38.76 215.36C40.07 216.59 41.68 218.08 42.33 218.66C42.98 219.24 44.3 220.37 45.26 221.17C46.22 221.97 48.36 223.64 50.02 224.88C51.67 226.13 53.85 227.7 54.85 228.38C55.85 229.05 57.6 230.19 58.73 230.9C59.87 231.61 61.87 232.81 63.17 233.55C64.48 234.3 66.51 235.41 67.69 236.03C68.87 236.64 71.22 237.78 72.92 238.56C74.62 239.34 77.19 240.44 78.63 241.02C80.07 241.59 82.07 242.35 83.07 242.71C84.07 243.07 86.14 243.76 87.67 244.24C89.19 244.72 91.94 245.5 93.77 245.97C95.6 246.44 98.53 247.11 100.27 247.46C102.01 247.81 104.58 248.27 105.98 248.48C107.37 248.69 109.51 248.98 110.73 249.11C111.95 249.25 113.77 249.43 114.77 249.52C115.78 249.61 118.45 249.75 120.72 249.84C123.58 249.96 126.15 249.96 129.12 249.85C131.48 249.76 134.58 249.57 136.02 249.44C137.46 249.31 139.53 249.09 140.62 248.96C141.7 248.82 144.02 248.47 145.77 248.18C147.51 247.89 150.4 247.33 152.19 246.93C153.98 246.53 156.83 245.82 158.53 245.35C160.23 244.87 162.94 244.04 164.55 243.51C166.17 242.97 168.81 242 170.42 241.37C172.03 240.73 174.31 239.78 175.49 239.26C176.67 238.74 179.02 237.62 180.72 236.77C182.42 235.92 184.46 234.87 185.24 234.43C186.03 233.99 187.63 233.06 188.81 232.37C189.98 231.67 192.27 230.23 193.88 229.16C195.49 228.1 197.85 226.46 199.11 225.52C200.38 224.58 202.3 223.09 203.39 222.21C204.48 221.33 206.23 219.87 207.28 218.95C208.32 218.03 209.89 216.61 210.75 215.78C211.62 214.95 212.73 213.88 213.21 213.4C213.7 212.92 214.74 211.85 215.52 211.02C216.31 210.2 217.56 208.84 218.31 208.02C219.05 207.19 220.34 205.69 221.16 204.69C221.99 203.69 223.17 202.23 223.79 201.44C224.4 200.66 225.48 199.23 226.17 198.27C226.87 197.31 228.15 195.46 229.02 194.15C229.9 192.85 231.36 190.53 232.28 189.01C233.19 187.48 234.54 185.13 235.26 183.78C235.99 182.43 237.07 180.29 237.68 179.02C238.28 177.76 239.22 175.69 239.77 174.43C240.31 173.17 241.16 171.1 241.64 169.84C242.13 168.57 242.86 166.58 243.26 165.4C243.66 164.22 244.3 162.23 244.69 160.96C245.07 159.7 245.71 157.42 246.1 155.89C246.49 154.37 247.09 151.73 247.44 150.03C247.79 148.33 248.29 145.52 248.55 143.77C248.82 142.03 249.18 139.14 249.36 137.36C249.53 135.57 249.75 132.72 249.84 131.02C249.93 129.32 250 126.61 250 125C250 123.39 249.93 120.68 249.84 118.98C249.75 117.28 249.53 114.43 249.35 112.64C249.18 110.86 248.85 108.18 248.64 106.7C248.42 105.22 247.99 102.72 247.68 101.16C247.38 99.59 246.81 97.02 246.43 95.45C246.05 93.88 245.48 91.71 245.16 90.62C244.84 89.53 244.26 87.64 243.87 86.42C243.47 85.2 242.68 82.96 242.12 81.43C241.55 79.91 240.57 77.45 239.93 75.97C239.3 74.49 238.28 72.24 237.68 70.98C237.08 69.71 235.99 67.57 235.26 66.22C234.54 64.87 233.19 62.52 232.28 60.99C231.36 59.47 229.9 57.15 229.02 55.85C228.15 54.54 226.87 52.69 226.17 51.73C225.48 50.77 224.4 49.34 223.79 48.56C223.17 47.77 221.99 46.31 221.16 45.31C220.34 44.31 219.05 42.81 218.31 41.98C217.56 41.16 216.31 39.8 215.52 38.97C214.74 38.15 213.67 37.05 213.14 36.54C212.62 36.03 211.51 34.96 210.68 34.16C209.85 33.37 208.32 31.97 207.28 31.05C206.23 30.13 204.48 28.67 203.39 27.79C202.3 26.91 200.38 25.42 199.11 24.48C197.85 23.54 195.49 21.9 193.88 20.84C192.27 19.77 189.98 18.33 188.81 17.63C187.63 16.94 186.03 16.01 185.24 15.57C184.46 15.13 182.49 14.12 180.88 13.31C179.27 12.5 176.95 11.4 175.73 10.85C174.51 10.3 172.15 9.32 170.5 8.67C168.84 8.01 166.17 7.03 164.55 6.49C162.94 5.96 160.23 5.13 158.53 4.65C156.83 4.18 154.01 3.48 152.27 3.09C150.52 2.7 147.85 2.17 146.32 1.91C144.8 1.65 142.44 1.29 141.09 1.11C139.74 0.94 137.46 0.69 136.02 0.56C134.58 0.43 131.58 0.25 129.36 0.16C127.14 0.08 124.78 0.02 124.13 0.03C123.47 0.05 122.33 0.08 121.59 0.11Z" />
		<path class="shp1" d="M119.53 4.76C118 4.83 115.51 5.01 113.98 5.15C112.46 5.29 109.73 5.61 107.92 5.87C106.11 6.13 103.18 6.62 101.42 6.98C99.65 7.33 96.92 7.94 95.36 8.34C93.79 8.74 91.15 9.48 89.49 9.99C87.83 10.5 85.23 11.37 83.7 11.93C82.18 12.49 79.61 13.51 78 14.19C76.38 14.87 73.71 16.1 72.05 16.92C70.39 17.74 68.25 18.84 67.3 19.36C66.34 19.89 64.59 20.89 63.41 21.6C62.23 22.3 59.88 23.8 58.18 24.93C56.48 26.07 53.98 27.83 52.63 28.85C51.28 29.87 49.21 31.51 48.03 32.49C46.86 33.47 44.9 35.18 43.67 36.29C42.45 37.4 40.42 39.37 39.15 40.66C37.89 41.95 36.24 43.69 35.49 44.52C34.74 45.35 33.33 46.99 32.35 48.16C31.36 49.34 29.76 51.37 28.78 52.68C27.8 53.98 26.17 56.27 25.17 57.75C24.16 59.23 22.63 61.62 21.77 63.05C20.9 64.49 19.69 66.6 19.07 67.73C18.46 68.86 17.6 70.5 17.16 71.37C16.72 72.24 15.85 74.1 15.22 75.49C14.58 76.89 13.58 79.24 13 80.72C12.41 82.2 11.52 84.59 11.03 86.03C10.53 87.46 9.82 89.71 9.43 91.02C9.05 92.32 8.45 94.53 8.1 95.93C7.76 97.32 7.29 99.32 7.07 100.36C6.86 101.41 6.49 103.37 6.26 104.72C6.03 106.07 5.71 108.21 5.55 109.47C5.38 110.74 5.12 113.05 4.97 114.62C4.74 116.91 4.69 118.98 4.69 125C4.69 131.02 4.74 133.09 4.97 135.38C5.12 136.95 5.38 139.26 5.55 140.53C5.71 141.79 6.03 143.93 6.26 145.28C6.49 146.63 6.86 148.59 7.07 149.64C7.29 150.68 7.76 152.68 8.1 154.07C8.45 155.47 9.05 157.68 9.43 158.98C9.82 160.29 10.53 162.54 11.03 163.97C11.52 165.41 12.39 167.76 12.96 169.2C13.53 170.64 14.53 172.99 15.18 174.43C15.83 175.87 16.72 177.76 17.16 178.63C17.6 179.5 18.46 181.14 19.07 182.27C19.69 183.4 20.9 185.51 21.77 186.95C22.63 188.38 24.16 190.77 25.17 192.25C26.17 193.73 27.8 196.02 28.78 197.32C29.76 198.63 31.36 200.66 32.35 201.84C33.33 203.01 34.74 204.65 35.49 205.48C36.24 206.31 37.89 208.05 39.15 209.34C40.42 210.63 42.45 212.6 43.67 213.71C44.9 214.82 46.86 216.53 48.03 217.52C49.21 218.5 51.28 220.13 52.63 221.15C53.98 222.17 56.48 223.93 58.18 225.06C59.88 226.2 62.23 227.7 63.41 228.4C64.59 229.11 66.34 230.11 67.3 230.64C68.25 231.16 70.39 232.26 72.05 233.08C73.71 233.9 76.38 235.13 78 235.81C79.61 236.49 82.18 237.51 83.7 238.07C85.23 238.63 87.83 239.5 89.49 240.01C91.15 240.52 93.93 241.3 95.67 241.73C97.42 242.17 100.13 242.78 101.7 243.09C103.27 243.4 106.05 243.86 107.88 244.13C109.71 244.39 112.39 244.71 113.82 244.84C115.26 244.97 118.19 245.16 120.32 245.26C122.46 245.36 125.67 245.39 127.46 245.33C129.24 245.28 131.78 245.16 133.08 245.08C134.39 244.99 136.46 244.81 137.68 244.68C138.9 244.55 140.94 244.3 142.2 244.12C143.46 243.94 145.64 243.58 147.04 243.32C148.43 243.06 150.64 242.6 151.95 242.3C153.26 242 155.4 241.47 156.71 241.11C158.01 240.76 160.51 240 162.25 239.43C164 238.86 166.64 237.93 168.12 237.36C169.6 236.8 172.13 235.74 173.75 235.03C175.36 234.31 177.5 233.31 178.5 232.81C179.51 232.31 181.18 231.43 182.23 230.87C183.28 230.3 185.24 229.17 186.59 228.37C187.94 227.57 190.29 226.07 191.82 225.05C193.35 224.03 195.81 222.28 197.29 221.17C198.77 220.05 200.91 218.36 202.04 217.42C203.17 216.47 204.92 214.96 205.93 214.05C206.93 213.14 208.96 211.18 210.45 209.69C211.93 208.19 213.96 206.05 214.95 204.92C215.94 203.79 217.4 202.08 218.19 201.12C218.97 200.17 220.52 198.17 221.62 196.69C222.73 195.21 224.2 193.14 224.9 192.09C225.6 191.05 226.82 189.16 227.6 187.9C228.38 186.63 229.56 184.64 230.22 183.46C230.87 182.28 232 180.14 232.72 178.71C233.44 177.27 234.48 175.1 235.02 173.88C235.57 172.66 236.49 170.45 237.08 168.96C237.67 167.48 238.67 164.7 239.31 162.79C239.95 160.87 240.83 157.95 241.28 156.29C241.72 154.63 242.33 152.1 242.64 150.67C242.95 149.23 243.45 146.63 243.74 144.88C244.03 143.14 244.42 140.47 244.59 138.94C244.76 137.42 245 135.1 245.11 133.79C245.23 132.36 245.31 128.88 245.31 125C245.31 121.12 245.23 117.64 245.11 116.21C245 114.9 244.76 112.58 244.59 111.06C244.41 109.53 244.06 107.04 243.81 105.51C243.56 103.99 243.14 101.67 242.87 100.36C242.6 99.06 242.02 96.62 241.59 94.94C241.16 93.26 240.41 90.62 239.92 89.08C239.43 87.53 238.6 85.09 238.08 83.65C237.55 82.21 236.54 79.68 235.84 78.03C235.13 76.37 233.87 73.63 233.03 71.93C232.19 70.23 230.94 67.84 230.26 66.62C229.58 65.4 228.38 63.37 227.6 62.1C226.82 60.84 225.6 58.95 224.9 57.91C224.2 56.86 222.73 54.79 221.62 53.31C220.52 51.83 218.97 49.83 218.19 48.88C217.4 47.92 215.94 46.21 214.95 45.08C213.96 43.95 211.93 41.81 210.45 40.31C208.96 38.82 206.93 36.86 205.93 35.95C204.92 35.04 203.17 33.53 202.04 32.58C200.91 31.64 198.88 30.03 197.53 29.01C196.18 27.99 194.18 26.55 193.09 25.8C192 25.05 190.32 23.94 189.36 23.33C188.4 22.72 186.55 21.6 185.24 20.84C183.93 20.07 181.65 18.82 180.17 18.05C178.69 17.28 176.22 16.09 174.7 15.4C173.17 14.7 170.75 13.67 169.31 13.1C167.87 12.53 165.41 11.62 163.84 11.09C162.27 10.56 159.88 9.8 158.53 9.41C157.18 9.02 155.11 8.45 153.93 8.16C152.75 7.86 150.36 7.34 148.62 6.99C146.88 6.64 144.49 6.21 143.31 6.04C142.13 5.86 140.21 5.6 139.03 5.46C137.85 5.32 135.57 5.11 133.96 4.99C132.34 4.87 129.06 4.73 126.66 4.69C124.27 4.65 121.06 4.68 119.53 4.76Z" />
		<path class="shp2" d="M123.58 13.57C123.5 13.63 123.45 16.66 123.47 20.31L123.49 26.93C125.93 27 126.57 26.95 126.61 26.85C126.64 26.77 126.65 23.74 126.63 20.12L126.59 13.55C124.36 13.48 123.65 13.51 123.58 13.57ZM107.84 14.67C107.38 14.79 106.7 15.05 106.33 15.23C105.96 15.42 105.27 15.95 104.79 16.4C104.26 16.9 103.71 17.63 103.41 18.24C103.13 18.79 102.82 19.71 102.72 20.28C102.58 21.07 102.58 21.57 102.72 22.42C102.82 23.03 103.13 23.98 103.41 24.54C103.71 25.13 104.27 25.89 104.79 26.38C105.27 26.84 106.09 27.41 106.61 27.65C107.13 27.9 107.99 28.17 108.51 28.26C109.17 28.37 109.81 28.37 110.57 28.26C111.18 28.17 112.11 27.9 112.63 27.66C113.16 27.42 113.9 26.97 114.29 26.64C114.67 26.32 115.2 25.74 115.46 25.35C115.73 24.96 116.04 24.4 116.15 24.12L116.36 23.61C113.75 22.73 113.41 22.67 113.36 22.84C113.32 22.96 113.07 23.37 112.8 23.76C112.49 24.22 112.04 24.6 111.53 24.86C111.06 25.1 110.37 25.28 109.86 25.32C109.27 25.36 108.76 25.29 108.28 25.09C107.88 24.93 107.36 24.62 107.1 24.4C106.85 24.18 106.48 23.72 106.27 23.37C106.05 22.99 105.85 22.35 105.79 21.78C105.71 21.05 105.75 20.65 105.98 20.04C106.14 19.61 106.53 18.97 106.84 18.63C107.15 18.29 107.69 17.88 108.04 17.72C108.43 17.55 109.04 17.43 109.62 17.43C110.21 17.43 110.82 17.55 111.21 17.72C111.56 17.88 112.09 18.24 112.4 18.52L112.95 19.03C113.69 18.48 114.2 18.1 114.57 17.83C114.94 17.57 115.24 17.28 115.25 17.19C115.26 17.1 114.92 16.7 114.5 16.3C114.09 15.91 113.44 15.42 113.07 15.24C112.7 15.05 111.99 14.78 111.49 14.65C110.98 14.52 110.15 14.42 109.62 14.43C109.1 14.43 108.3 14.54 107.84 14.67ZM139.27 14.64C138.74 14.75 137.93 15.05 137.45 15.3C136.98 15.56 136.27 16.09 135.87 16.48C135.47 16.88 134.96 17.52 134.73 17.91C134.5 18.3 134.18 19.04 134.03 19.57C133.84 20.24 133.78 20.9 133.82 21.86C133.87 23.02 133.96 23.38 134.46 24.4C134.86 25.22 135.32 25.85 135.93 26.42C136.41 26.88 137.29 27.48 137.88 27.76C138.76 28.17 139.2 28.28 140.3 28.33C141.27 28.38 141.91 28.32 142.6 28.12C143.12 27.97 143.87 27.66 144.26 27.43C144.65 27.2 145.29 26.69 145.69 26.3C146.08 25.91 146.64 25.12 146.91 24.56C147.19 23.99 147.5 23.06 147.59 22.5C147.72 21.76 147.72 21.17 147.6 20.44C147.51 19.87 147.22 18.96 146.96 18.42C146.69 17.87 146.11 17.05 145.65 16.58C145.19 16.12 144.42 15.54 143.94 15.29C143.46 15.05 142.61 14.76 142.04 14.64C141.48 14.52 140.83 14.43 140.62 14.43C140.4 14.44 139.79 14.53 139.27 14.64Z" />
		<path class="shp1" d="M139.79 17.57C139.56 17.64 139.16 17.81 138.92 17.94C138.68 18.07 138.21 18.48 137.88 18.83C137.49 19.26 137.2 19.8 137.03 20.4C136.86 21.01 136.81 21.54 136.89 22.02C136.95 22.41 137.13 22.98 137.29 23.29C137.45 23.59 137.81 24.07 138.1 24.35C138.4 24.63 138.9 24.97 139.23 25.1C139.55 25.24 140.21 25.35 140.69 25.35C141.17 25.35 141.8 25.25 142.08 25.14C142.36 25.02 142.87 24.68 143.21 24.39C143.55 24.09 143.97 23.56 144.14 23.21C144.32 22.86 144.5 22.22 144.54 21.78C144.6 21.26 144.53 20.72 144.36 20.2C144.21 19.76 143.91 19.18 143.7 18.89C143.49 18.61 143.01 18.2 142.64 17.99C142.24 17.76 141.6 17.57 141.09 17.52C140.61 17.47 140.03 17.5 139.79 17.57Z" />
		<path class="shp2" d="M154.37 24.26C153.12 27.73 152.14 30.6 152.19 30.63C152.23 30.66 152.89 30.9 153.65 31.18L155.04 31.69C155.5 30.4 156.09 28.72 156.65 27.13C157.2 25.54 157.72 24.26 157.79 24.28C157.87 24.3 158.66 26.46 159.54 29.07L161.14 33.82C163.05 34.5 163.63 34.64 163.67 34.58C163.7 34.51 164.71 31.71 165.9 28.36C167.09 25 168.08 22.2 168.09 22.12C168.11 22.05 167.49 21.77 166.72 21.49C165.75 21.14 165.29 21.05 165.22 21.17C165.16 21.27 164.54 22.96 163.84 24.93C163.14 26.9 162.54 28.52 162.49 28.52C162.45 28.52 161.71 26.4 160.85 23.8C159.99 21.21 159.2 19 159.1 18.89C159.01 18.77 158.41 18.51 157.77 18.31L156.62 17.93M87.15 20.06C86.27 20.37 86.08 20.5 86.07 20.79C86.07 20.99 85.87 24.27 85.64 28.08C85.4 31.89 85.26 35.01 85.33 35.01C85.39 35.01 86.09 34.78 86.88 34.5L88.31 33.98C88.31 31.9 88.36 31.21 88.42 31.1C88.49 31 89.68 30.51 91.07 30.01L93.61 29.1L95.67 31.37C97.94 30.57 98.59 30.29 98.56 30.23C98.54 30.18 96.33 27.77 93.65 24.89C90.6 21.61 88.67 19.65 88.5 19.66C88.35 19.67 87.74 19.85 87.15 20.06Z" />
		<path class="shp1" d="M88.72 24.87C88.66 25.44 88.62 26.38 88.62 26.97L88.62 28.04C90.77 27.27 91.43 27.02 91.47 26.99C91.51 26.96 91.36 26.71 91.12 26.42C90.88 26.14 90.26 25.44 89.75 24.87L88.82 23.84" />
		<path class="shp2" d="M71.37 27.1L70.07 27.88C73.27 33.22 74.18 34.79 74.16 34.8C74.13 34.81 71.95 34.01 69.32 33.02L64.52 31.21C62.8 32.25 62.32 32.6 62.34 32.66C62.36 32.72 63.91 35.3 65.79 38.4C67.66 41.5 69.25 44.04 69.32 44.04C69.38 44.04 69.97 43.72 70.62 43.33C71.28 42.94 71.81 42.58 71.81 42.54C71.81 42.49 70.92 40.96 69.83 39.13C68.74 37.3 67.87 35.77 67.89 35.72C67.91 35.67 70.03 36.42 72.61 37.38C75.18 38.35 77.34 39.13 77.4 39.13C77.47 39.13 78.02 38.85 78.63 38.5L79.74 37.86C74.44 29.09 72.85 26.49 72.78 26.43C72.72 26.37 72.09 26.67 71.37 27.1ZM174.78 32.73C171.64 35.03 169.05 36.96 169.03 37.03C169.01 37.1 169.54 37.47 170.21 37.86C170.88 38.26 171.49 38.6 171.56 38.62C171.63 38.64 172.22 38.26 172.88 37.79C174.01 36.95 174.08 36.92 174.5 37.13C174.74 37.25 175.79 37.87 176.84 38.5C177.89 39.13 178.76 39.65 178.79 39.66C178.81 39.68 178.74 40.38 178.63 41.22L178.42 42.75C180.51 43.98 181.13 44.32 181.15 44.31C181.17 44.29 181.61 41.05 182.14 37.11C182.67 33.17 183.1 29.91 183.1 29.86C183.1 29.82 182.6 29.5 181.99 29.15C181.38 28.8 180.79 28.52 180.68 28.53C180.57 28.54 177.92 30.43 174.78 32.73Z" />
		<path class="shp1" d="M178.11 33.91C177.32 34.51 176.66 35.06 176.64 35.12C176.62 35.19 177.15 35.57 177.82 35.96C178.49 36.36 179.08 36.7 179.13 36.72C179.18 36.74 179.31 36.14 179.42 35.37C179.54 34.61 179.66 33.72 179.7 33.39C179.73 33.06 179.71 32.8 179.65 32.8C179.59 32.81 178.89 33.31 178.11 33.91Z" />
		<path class="shp0" d="M119.45 35.82C118.32 35.89 116.39 36.06 115.17 36.2C113.95 36.34 111.85 36.63 110.49 36.84C109.14 37.06 106.93 37.49 105.58 37.79C104.23 38.09 102.12 38.61 100.9 38.96C99.68 39.31 97.65 39.94 96.39 40.36C95.12 40.79 92.95 41.6 91.55 42.15C90.16 42.71 87.55 43.89 85.76 44.77C83.98 45.65 81.55 46.93 80.37 47.6C79.2 48.28 77.31 49.45 76.17 50.2L74.11 51.57L78.08 51.66C81.64 49.51 84.03 48.21 85.68 47.37C87.34 46.53 89.73 45.4 91 44.87C92.26 44.33 94.11 43.6 95.12 43.24C96.12 42.88 97.83 42.3 98.92 41.96C100.01 41.61 101.97 41.05 103.28 40.71C104.59 40.37 106.73 39.88 108.04 39.62C109.35 39.36 111.45 39.01 112.71 38.83C113.98 38.66 115.9 38.42 116.99 38.31C118.26 38.18 121.15 38.1 125 38.1C128.82 38.1 131.72 38.18 132.93 38.31C133.97 38.42 135.86 38.65 137.13 38.83C138.39 39 140.5 39.36 141.8 39.61C143.11 39.87 145.29 40.36 146.64 40.7C147.99 41.05 150.24 41.7 151.63 42.15C153.03 42.6 155.35 43.43 156.79 44C158.22 44.57 160.44 45.51 161.7 46.1C162.96 46.68 164.89 47.65 165.98 48.24C167.07 48.83 168.84 49.84 169.9 50.48L171.85 51.65L175.88 51.57C172.45 49.33 170.56 48.16 169.47 47.53C168.38 46.9 165.99 45.65 164.16 44.76C162.33 43.86 159.76 42.7 158.45 42.17C157.14 41.65 155 40.85 153.69 40.41C152.39 39.96 150.17 39.28 148.78 38.89C147.38 38.51 145.24 37.98 144.02 37.72C142.8 37.46 140.98 37.1 139.98 36.92C138.98 36.75 136.95 36.46 135.46 36.29C133.98 36.11 131.56 35.9 130.07 35.81C128.59 35.72 126.06 35.66 124.45 35.67C122.83 35.68 120.58 35.75 119.45 35.82Z" />
		<path class="shp2" d="M190.11 42.93C187.74 45.72 185.81 48.03 185.84 48.05C185.86 48.08 187.16 49.2 188.73 50.54C190.3 51.87 191.75 53.12 191.95 53.3L192.32 53.63C193.29 52.52 193.71 52.01 193.88 51.77L194.2 51.33C191 48.63 190.08 47.81 190.08 47.77C190.08 47.72 191.57 45.94 193.41 43.81C195.24 41.67 196.74 39.87 196.74 39.81C196.75 39.74 196.28 39.28 195.71 38.78C195.14 38.27 194.62 37.86 194.55 37.86C194.49 37.86 192.49 40.15 190.11 42.93ZM52.03 40.92C51.65 41.11 50.35 42.14 49.13 43.21L46.92 45.15C51.15 49.88 53.16 52.13 54.13 53.2C55.09 54.27 55.92 55.14 55.96 55.14C56 55.15 56.53 54.7 57.12 54.15L58.2 53.15C55.36 49.96 54.59 48.98 54.65 48.9C54.72 48.83 56.36 49.03 58.3 49.34L61.83 49.9C62.75 49.13 63.35 48.59 63.77 48.22C64.18 47.84 64.47 47.5 64.4 47.46C64.34 47.43 62.71 47.13 60.8 46.81C58.88 46.49 57.29 46.22 57.28 46.2C57.26 46.19 57.35 45.83 57.48 45.39C57.6 44.95 57.71 44.35 57.7 44.04C57.7 43.74 57.57 43.2 57.41 42.85C57.25 42.51 56.81 41.94 56.42 41.6C56.04 41.26 55.49 40.88 55.21 40.77C54.92 40.65 54.25 40.56 53.7 40.56C53 40.57 52.51 40.67 52.03 40.92Z" />
		<path class="shp1" d="M52.54 44.02C52.2 44.27 51.74 44.66 51.52 44.89L51.13 45.3C52.21 46.48 52.58 46.89 52.65 46.97C52.72 47.07 53.12 46.82 53.66 46.34C54.15 45.9 54.62 45.35 54.7 45.11C54.8 44.83 54.8 44.54 54.69 44.28C54.61 44.06 54.39 43.81 54.22 43.73C54.04 43.64 53.73 43.57 53.53 43.57C53.33 43.57 52.88 43.77 52.54 44.02Z" />
		<path class="shp2" d="M37.33 56.02C35.94 57.81 34.78 59.32 34.76 59.38C34.75 59.44 37.06 61.31 39.9 63.53C42.75 65.75 45.15 67.58 45.25 67.6C45.34 67.62 46.29 66.52 47.34 65.15C48.4 63.78 49.56 62.28 49.92 61.83L50.57 60.99C48.91 59.65 48.38 59.26 48.31 59.26C48.25 59.25 47.46 60.18 46.57 61.32C45.67 62.45 44.89 63.38 44.82 63.38C44.76 63.37 44.35 63.1 43.92 62.78C43.49 62.45 43.13 62.15 43.12 62.1C43.11 62.06 43.68 61.28 44.39 60.36C45.09 59.45 45.66 58.66 45.65 58.62C45.65 58.57 45.18 58.18 44.62 57.75C44.05 57.31 43.53 56.96 43.45 56.96C43.37 56.96 42.83 57.56 42.24 58.3C41.66 59.04 41.09 59.79 40.97 59.97C40.76 60.27 40.73 60.26 39.87 59.57C39.38 59.18 38.99 58.82 38.99 58.78C38.99 58.73 39.71 57.79 40.58 56.68C41.45 55.57 42.17 54.6 42.18 54.54C42.18 54.47 41.7 54.04 41.11 53.58C40.51 53.12 39.99 52.75 39.95 52.76C39.91 52.76 38.73 54.23 37.33 56.02Z" />
		<path class="shp0" d="M65.71 55.56C65.64 55.61 65.59 71.62 65.6 91.12C65.62 113.49 65.69 127.59 65.8 129.32C65.89 130.82 66.1 133.33 66.28 134.9C66.45 136.47 66.81 139 67.07 140.53C67.33 142.05 67.79 144.39 68.09 145.71C68.4 147.04 68.86 148.93 69.13 149.91C69.39 150.89 69.97 152.84 70.41 154.23C70.85 155.62 71.68 157.98 72.25 159.46C72.82 160.94 73.73 163.15 74.27 164.37C74.82 165.59 75.71 167.48 76.25 168.57C76.8 169.66 77.78 171.51 78.44 172.69C79.1 173.86 80.17 175.68 80.82 176.73C81.47 177.77 82.54 179.41 83.2 180.37C83.85 181.33 85.12 183.08 86.01 184.25C86.91 185.43 88.38 187.28 89.3 188.37C90.21 189.46 91.91 191.36 93.08 192.59C94.24 193.82 96.02 195.6 97.02 196.55C98.03 197.5 99.6 198.92 100.51 199.71C101.42 200.49 102.71 201.57 103.36 202.1C104.01 202.62 105.37 203.66 106.37 204.4C107.38 205.15 109.16 206.4 110.34 207.18C111.51 207.97 113.37 209.14 114.46 209.79C115.55 210.45 117.58 211.59 118.98 212.33C120.37 213.07 122.31 214.06 123.3 214.53L125.08 215.38C127.84 214.06 129.72 213.1 131.02 212.41C132.33 211.71 134.45 210.51 135.74 209.74C137.03 208.96 138.99 207.72 140.1 206.97C141.21 206.22 143.05 204.91 144.18 204.05C145.32 203.2 147.13 201.76 148.22 200.85C149.31 199.94 151.31 198.17 152.65 196.91C154 195.66 156.03 193.63 157.16 192.41C158.29 191.19 159.96 189.3 160.87 188.21C161.78 187.12 163.33 185.16 164.31 183.86C165.29 182.55 166.59 180.73 167.2 179.82C167.81 178.9 168.78 177.4 169.34 176.49C169.91 175.57 170.89 173.9 171.53 172.77C172.17 171.63 173.28 169.49 174.01 168.01C174.74 166.53 175.76 164.32 176.28 163.1C176.8 161.88 177.68 159.64 178.23 158.11C178.79 156.59 179.55 154.34 179.92 153.12C180.29 151.9 180.87 149.83 181.2 148.53C181.54 147.22 182.02 145.08 182.29 143.77C182.55 142.47 182.95 140.22 183.17 138.78C183.39 137.35 183.68 135.06 183.81 133.71C183.94 132.36 184.13 129.55 184.22 127.46C184.33 125.02 184.37 111.45 184.34 89.59L184.29 55.53C92.49 55.47 65.78 55.5 65.71 55.56Z" />
		<path class="shp2" d="M207.44 60.06C204.47 62.16 202.02 63.92 202 63.98C201.97 64.04 202.64 65.05 203.47 66.22C204.31 67.4 205.22 68.56 205.5 68.81C205.78 69.06 206.28 69.43 206.6 69.64C206.93 69.85 207.63 70.17 208.15 70.34C208.69 70.52 209.53 70.66 210.09 70.66C210.64 70.66 211.54 70.52 212.11 70.35C212.68 70.18 213.49 69.8 213.92 69.52C214.35 69.23 214.94 68.71 215.24 68.36C215.53 68.01 215.95 67.37 216.17 66.94C216.38 66.5 216.64 65.64 216.74 65.03C216.88 64.23 216.89 63.66 216.77 62.98C216.68 62.45 216.42 61.63 216.2 61.15C215.98 60.67 215.2 59.37 214.46 58.26C213.71 57.15 213.04 56.24 212.97 56.24C212.89 56.24 210.4 57.96 207.44 60.06Z" />
		<path class="shp1" d="M68.01 92.92C68.01 115.7 68.07 128.83 68.17 130.35C68.27 131.63 68.48 133.86 68.65 135.3C68.83 136.74 69.15 138.98 69.37 140.29C69.6 141.6 70.02 143.73 70.31 145.04C70.6 146.35 71.1 148.38 71.42 149.56C71.74 150.73 72.41 152.94 72.92 154.47C73.42 155.99 74.3 158.42 74.87 159.85C75.44 161.29 76.42 163.57 77.05 164.92C77.68 166.27 78.76 168.45 79.47 169.76C80.17 171.06 81.28 173.02 81.93 174.11C82.58 175.2 83.69 176.95 84.39 177.99C85.09 179.04 86.13 180.54 86.69 181.32C87.26 182.11 88.52 183.75 89.5 184.97C90.47 186.19 91.93 187.93 92.74 188.85C93.55 189.76 94.93 191.25 95.81 192.15C96.69 193.05 98.31 194.62 99.4 195.63C100.49 196.64 102.24 198.18 103.28 199.05C104.33 199.92 106.18 201.38 107.4 202.29C108.62 203.2 110.66 204.63 111.92 205.46C113.19 206.3 115.29 207.61 116.6 208.38C117.91 209.14 120.35 210.46 122.03 211.31L125.08 212.85C129.56 210.59 131.86 209.35 133.08 208.64C134.31 207.93 136.52 206.54 138 205.56C139.48 204.58 141.55 203.14 142.6 202.36C143.64 201.59 145.6 200.03 146.96 198.9C148.31 197.77 150.69 195.6 152.25 194.08C153.81 192.55 155.92 190.38 156.93 189.24C157.94 188.11 159.35 186.47 160.05 185.6C160.75 184.73 161.94 183.19 162.68 182.19C163.42 181.19 164.74 179.3 165.61 177.99C166.48 176.69 167.66 174.83 168.23 173.88C168.79 172.92 169.83 171.06 170.53 169.76C171.23 168.45 172.23 166.45 172.76 165.32C173.29 164.19 174.15 162.23 174.67 160.96C175.19 159.7 175.9 157.85 176.26 156.84C176.61 155.84 177.19 154.1 177.55 152.96C177.9 151.83 178.48 149.83 178.82 148.53C179.17 147.22 179.73 144.72 180.08 142.98C180.42 141.24 180.82 139.06 180.95 138.15C181.08 137.23 181.29 135.49 181.43 134.27C181.56 133.05 181.74 130.91 181.83 129.52C181.93 127.94 181.99 113.94 181.99 92.4L181.99 57.83L68.01 57.83M209.19 62.58C207.46 63.81 206.06 64.84 206.07 64.88C206.08 64.92 206.29 65.26 206.55 65.63C206.8 66 207.21 66.49 207.46 66.73C207.71 66.96 208.18 67.27 208.51 67.4C208.83 67.54 209.47 67.65 209.93 67.65C210.49 67.65 211.02 67.53 211.56 67.27C211.99 67.05 212.62 66.59 212.94 66.24C213.3 65.84 213.64 65.26 213.78 64.76C213.94 64.23 213.99 63.7 213.92 63.29C213.86 62.94 213.64 62.34 213.43 61.95C213.22 61.55 212.89 61.04 212.69 60.8L212.34 60.36" />
		<path class="shp0" d="M60.1 63.62C59.19 64.57 57.72 66.21 56.83 67.25C55.94 68.3 54.43 70.19 53.48 71.45C52.52 72.71 51.13 74.68 50.38 75.81C49.64 76.94 48.44 78.87 47.72 80.09C47 81.31 45.65 83.87 44.71 85.79C43.76 87.71 42.64 90.17 42.2 91.25C41.76 92.34 41.08 94.14 40.68 95.26C40.28 96.37 39.56 98.61 39.09 100.25C38.62 101.88 38.01 104.21 37.75 105.43C37.48 106.65 37.08 108.69 36.86 109.95C36.64 111.21 36.32 113.49 36.15 115.02C35.97 116.54 35.76 119.4 35.67 121.36C35.56 123.84 35.56 126.05 35.67 128.64C35.77 130.69 35.98 133.54 36.14 134.98C36.31 136.42 36.59 138.52 36.78 139.65C36.97 140.79 37.37 142.85 37.68 144.25C37.98 145.64 38.62 148.12 39.09 149.75C39.56 151.39 40.28 153.63 40.68 154.74C41.08 155.86 41.76 157.66 42.2 158.75C42.64 159.83 43.76 162.29 44.71 164.21C45.65 166.13 47 168.69 47.72 169.91C48.44 171.13 49.64 173.06 50.38 174.19C51.13 175.32 52.52 177.29 53.48 178.55C54.43 179.81 55.97 181.74 56.9 182.83C57.82 183.92 59.68 185.94 61.03 187.32C62.39 188.7 64.28 190.53 65.23 191.39C66.19 192.24 67.55 193.41 68.25 194C68.94 194.58 70.37 195.7 71.42 196.48C72.46 197.27 74.43 198.65 75.78 199.54C77.13 200.44 79.27 201.76 80.53 202.48C81.8 203.21 84.33 204.53 86.16 205.42C87.99 206.31 90.67 207.5 92.11 208.07C93.54 208.63 95.61 209.39 96.7 209.75C97.79 210.12 99.68 210.7 100.9 211.04C102.12 211.39 104.23 211.91 105.58 212.21C106.93 212.51 108.93 212.9 110.02 213.08C111.11 213.26 112.2 213.44 112.44 213.48C112.68 213.53 112.86 213.49 112.83 213.4C112.81 213.32 111.83 212.63 110.65 211.88L108.51 210.52C104.83 209.68 102.87 209.19 101.78 208.89C100.69 208.59 98.8 208.01 97.57 207.61C96.35 207.2 94.57 206.57 93.61 206.2C92.65 205.83 90.87 205.08 89.65 204.54C88.43 204 86.36 203 85.05 202.33C83.74 201.65 81.85 200.6 80.85 200.01C79.85 199.42 78.06 198.29 76.89 197.51C75.71 196.72 73.93 195.47 72.92 194.72C71.92 193.97 70.42 192.8 69.59 192.12C68.77 191.44 67.13 190.01 65.96 188.95C64.79 187.89 62.9 186.02 61.76 184.8C60.62 183.58 59 181.76 58.17 180.76C57.33 179.76 55.98 178.05 55.17 176.96C54.36 175.88 53.19 174.24 52.58 173.32C51.97 172.41 50.99 170.87 50.41 169.91C49.83 168.96 48.82 167.17 48.15 165.95C47.49 164.73 46.38 162.49 45.69 160.96C44.99 159.44 43.96 156.94 43.39 155.42C42.82 153.89 42.09 151.79 41.77 150.74C41.46 149.7 40.92 147.77 40.58 146.47C40.24 145.16 39.75 142.99 39.49 141.63C39.23 140.28 38.91 138.4 38.78 137.44C38.64 136.48 38.46 135.02 38.37 134.19C38.28 133.36 38.14 131.61 38.05 130.31C37.96 129 37.89 126.65 37.89 125.08C37.89 123.51 37.96 121.09 38.05 119.69C38.14 118.3 38.32 116.23 38.45 115.1C38.58 113.97 38.83 112.18 38.99 111.14C39.16 110.09 39.52 108.2 39.78 106.94C40.04 105.68 40.55 103.57 40.9 102.27C41.26 100.96 41.95 98.71 42.43 97.28C42.91 95.84 43.68 93.73 44.15 92.6C44.61 91.47 45.43 89.58 45.97 88.4C46.51 87.23 47.49 85.27 48.16 84.05C48.82 82.83 49.83 81.04 50.41 80.09C50.99 79.13 51.97 77.59 52.58 76.68C53.19 75.76 54.36 74.12 55.17 73.04C55.98 71.95 57.33 70.24 58.17 69.24C59 68.24 60.17 66.92 60.75 66.3L61.82 65.19L61.75 61.9M188.18 63.57L188.19 65.19C190.1 67.28 191.24 68.58 191.95 69.43C192.66 70.28 193.9 71.85 194.7 72.92C195.49 73.98 196.69 75.68 197.36 76.68C198.03 77.68 199.01 79.21 199.54 80.09C200.07 80.96 201.08 82.74 201.78 84.05C202.49 85.35 203.54 87.46 204.12 88.72C204.7 89.98 205.53 91.91 205.96 93C206.39 94.09 207.13 96.12 207.6 97.51C208.07 98.91 208.68 100.87 208.95 101.87C209.22 102.87 209.64 104.58 209.89 105.67C210.14 106.76 210.53 108.69 210.75 109.95C210.98 111.21 211.3 113.49 211.48 115.02C211.65 116.54 211.87 119.4 211.97 121.36C212.11 124.02 212.11 125.84 211.97 128.56C211.87 130.57 211.65 133.46 211.48 134.98C211.3 136.51 210.98 138.79 210.75 140.05C210.53 141.31 210.14 143.24 209.89 144.33C209.64 145.42 209.22 147.13 208.95 148.13C208.68 149.13 208.07 151.09 207.6 152.49C207.13 153.88 206.39 155.91 205.96 157C205.53 158.09 204.7 160.02 204.12 161.28C203.54 162.54 202.45 164.72 201.7 166.11C200.95 167.51 199.87 169.4 199.3 170.31C198.73 171.23 197.79 172.69 197.21 173.56C196.62 174.43 195.51 176 194.73 177.04C193.95 178.09 192.57 179.84 191.66 180.93C190.76 182.01 188.41 184.51 186.44 186.48C184.47 188.44 182.04 190.73 181.04 191.56C180.04 192.4 178.33 193.75 177.24 194.57C176.15 195.39 174.22 196.74 172.95 197.58C171.69 198.42 169.51 199.76 168.12 200.56C166.72 201.36 164.51 202.54 163.21 203.18C161.9 203.82 159.69 204.82 158.29 205.4C156.9 205.99 154.29 206.95 152.5 207.55C150.72 208.15 147.97 208.95 146.4 209.34C144.83 209.73 143.16 210.13 142.68 210.23C142.04 210.35 141.27 210.73 139.82 211.65C138.73 212.34 137.7 213.01 137.52 213.14C137.35 213.27 137.24 213.4 137.29 213.45C137.33 213.49 138.51 213.32 139.9 213.08C141.3 212.84 143.29 212.45 144.34 212.22C145.39 212 147.38 211.49 148.78 211.11C150.17 210.72 152.39 210.04 153.69 209.59C155 209.15 157.14 208.35 158.45 207.83C159.76 207.3 162.33 206.14 164.16 205.24C165.99 204.35 168.38 203.1 169.47 202.47C170.56 201.84 172.59 200.58 173.99 199.66C175.38 198.74 177.38 197.35 178.42 196.56C179.47 195.78 181.14 194.45 182.14 193.61C183.14 192.78 184.92 191.2 186.1 190.11C187.27 189.02 189.13 187.17 190.22 185.99C191.31 184.82 192.91 183 193.78 181.96C194.66 180.91 196 179.2 196.78 178.15C197.56 177.11 198.78 175.36 199.5 174.27C200.23 173.18 201.33 171.44 201.95 170.39C202.57 169.34 203.83 167.03 204.73 165.24C205.64 163.45 206.85 160.85 207.43 159.46C208.01 158.06 208.84 155.94 209.27 154.74C209.7 153.55 210.37 151.48 210.75 150.15C211.13 148.82 211.66 146.84 211.93 145.75C212.19 144.66 212.59 142.81 212.81 141.63C213.03 140.46 213.35 138.46 213.52 137.2C213.7 135.94 213.93 133.97 214.04 132.84C214.17 131.57 214.25 128.57 214.25 125C214.25 121.43 214.17 118.43 214.04 117.16C213.93 116.03 213.7 114.06 213.52 112.8C213.34 111.54 213.02 109.54 212.81 108.37C212.59 107.19 212.1 104.98 211.72 103.45C211.34 101.93 210.73 99.72 210.36 98.54C210 97.37 209.35 95.44 208.91 94.26C208.47 93.09 207.68 91.13 207.16 89.91C206.64 88.69 205.51 86.3 204.65 84.6C203.79 82.9 202.57 80.66 201.95 79.61C201.33 78.56 200.23 76.82 199.5 75.73C198.78 74.64 197.56 72.89 196.78 71.85C196 70.8 194.66 69.09 193.78 68.04C192.91 67 191.33 65.2 190.26 64.04C189.2 62.89 188.3 61.95 188.25 61.95C188.21 61.95 188.18 62.68 188.18 63.57Z" />
		<path class="shp2" d="M27.72 70.37L25.29 74.67C25.88 75.06 26.45 75.4 26.94 75.68L27.82 76.18L29.49 73.19C30.53 73.78 32.56 74.92 34.68 76.1C36.79 77.29 38.58 78.26 38.64 78.26C38.71 78.26 39.06 77.73 39.43 77.07C39.8 76.42 40.11 75.82 40.11 75.73C40.11 75.64 38.16 74.49 35.79 73.17C33.41 71.85 31.38 70.69 31.28 70.59C31.13 70.46 31.27 70.09 31.88 69C32.31 68.21 32.66 67.53 32.66 67.49C32.66 67.45 32.09 67.11 31.41 66.74L30.16 66.06" />
		<path class="shp0" d="M80.69 78.18L80.69 86.03L85.29 86.03C85.29 78.78 85.34 76.68 85.41 76.68C85.47 76.68 86.88 78.03 88.54 79.69L91.55 82.7L97.81 76.44L97.81 86.03L102.41 86.03L102.41 70.34L97.74 70.34L91.55 76.52L85.37 70.34L80.69 70.34M106.41 78.14L106.45 85.95L110.97 86.03L110.97 70.34L106.37 70.34M117.91 78.03C115.84 82.25 114.14 85.78 114.14 85.87C114.14 85.97 115.04 86.03 116.52 86.03L118.9 86.03C120.39 82.9 120.85 81.95 120.89 81.91C120.93 81.86 121.86 82.72 122.94 83.81L124.92 85.79C127.97 82.78 128.9 81.91 128.95 81.91C129 81.91 129.51 82.83 130.07 83.97L131.1 86.03C134.79 86.03 135.86 85.97 135.86 85.91C135.86 85.84 134.15 82.31 132.06 78.07L128.25 70.34L121.67 70.35M138.91 78.14L138.95 85.95L143.47 86.03C143.47 78.91 143.52 76.81 143.59 76.77C143.65 76.73 145.06 78.05 146.72 79.7L149.73 82.7L155.99 76.44L155.99 86.03L160.59 86.03L160.59 70.34L155.92 70.34L149.73 76.52L143.55 70.34L138.87 70.34M164.59 78.14L164.63 85.95L169.23 85.95L169.31 70.34L164.55 70.34" />
		<path class="shp2" d="M217.32 75.54L211.35 78.5L215.2 86.17C217.11 85.2 217.66 84.85 217.66 84.76C217.66 84.67 217.14 83.56 216.51 82.3C215.77 80.81 215.42 79.94 215.52 79.85C215.61 79.77 216.07 79.53 216.55 79.32L217.42 78.92C218.9 81.85 219.38 82.7 219.44 82.7C219.51 82.7 220.1 82.45 220.75 82.15C221.41 81.84 221.94 81.52 221.94 81.43C221.94 81.35 221.55 80.49 221.07 79.53C220.59 78.57 220.2 77.73 220.19 77.67C220.19 77.6 220.59 77.35 221.07 77.12C221.55 76.88 222.01 76.68 222.1 76.68C222.19 76.68 222.76 77.73 223.38 79.02C224 80.3 224.54 81.39 224.57 81.43C224.61 81.48 225.22 81.23 225.91 80.88C226.61 80.53 227.18 80.21 227.18 80.16C227.18 80.12 226.36 78.39 225.35 76.32C224.35 74.25 223.47 72.57 223.41 72.57C223.34 72.58 220.6 73.91 217.32 75.54Z" />
		<path class="shp1" d="M123.77 76.09L122.69 78.34L124.92 80.56L127.28 78.18C125.57 74.81 125.03 73.83 124.96 73.83C124.89 73.83 124.36 74.85 123.77 76.09Z" />
		<path class="shp2" d="M21.13 84.01C20.84 84.81 20.63 85.48 20.65 85.49C20.67 85.5 22.32 86.07 24.31 86.76C26.3 87.44 27.91 88.08 27.9 88.17C27.88 88.25 27.14 88.58 26.26 88.89C25.38 89.2 23.26 89.94 21.56 90.52L18.47 91.58L17.68 94.08C27.26 97.42 30.13 98.39 30.24 98.39C30.35 98.39 30.63 97.78 30.87 97.05C31.11 96.31 31.27 95.67 31.23 95.62C31.19 95.58 29.55 94.98 27.58 94.29C25.62 93.6 24 92.97 23.98 92.9C23.96 92.82 26.02 92.05 28.56 91.18C31.11 90.3 33.27 89.52 33.38 89.43C33.48 89.35 33.75 88.76 33.98 88.13L34.4 86.98C33.6 86.72 30.84 85.76 27.74 84.68C24.65 83.6 22.01 82.68 21.88 82.63C21.7 82.56 21.52 82.89 21.13 84.01Z" />
		<path class="shp0" d="M124.89 94.66C124.84 94.75 124.4 96.28 123.9 98.07C123.4 99.85 122.94 101.36 122.88 101.43C122.83 101.49 121.57 100.41 120.09 99.03C118.6 97.65 117.37 96.6 117.34 96.7C117.32 96.8 117.69 98.38 118.17 100.21C118.66 102.04 119.01 103.57 118.97 103.61C118.92 103.66 117.35 103.28 115.48 102.78C113.61 102.28 112.05 101.92 112.01 101.99C111.97 102.05 113.08 103.11 114.46 104.33C115.85 105.54 116.99 106.58 116.99 106.62C117 106.67 115.47 107.34 113.59 108.13C111.71 108.91 110.14 109.64 110.1 109.75C110.04 109.91 110.81 109.95 113.67 109.95L117.31 109.95C117.31 109.03 117.42 108.37 117.56 107.89C117.7 107.41 118.04 106.6 118.32 106.08C118.61 105.55 119.22 104.78 119.77 104.28C120.29 103.8 121.06 103.24 121.47 103.04C121.89 102.83 122.64 102.55 123.14 102.42C123.64 102.29 124.41 102.18 124.84 102.18C125.28 102.18 126.03 102.26 126.51 102.34C126.99 102.43 127.84 102.73 128.41 103.01C129.03 103.32 129.82 103.9 130.4 104.48C131 105.08 131.54 105.82 131.85 106.46C132.12 107.03 132.43 107.96 132.53 108.52C132.63 109.09 132.68 109.7 132.63 109.87C132.59 110.04 132.12 110.6 131.59 111.1C131.05 111.61 130.2 112.21 129.64 112.47C129.09 112.73 128.18 113.06 127.62 113.2C127.02 113.36 125.95 113.48 125.08 113.48C124.25 113.49 123.15 113.4 122.62 113.29C122.1 113.18 121.1 112.82 120.4 112.49C119.56 112.09 118.83 111.59 118.22 111C117.72 110.51 117.28 110.16 117.24 110.23C117.2 110.29 117.27 110.81 117.38 111.38C117.5 111.94 117.82 112.87 118.11 113.43C118.4 114 119.03 114.87 119.52 115.36C120.1 115.95 120.8 116.44 121.59 116.82C122.33 117.17 123.21 117.45 123.89 117.54C124.56 117.64 125.38 117.64 125.95 117.56C126.47 117.49 127.29 117.28 127.77 117.1C128.25 116.93 129.07 116.46 129.6 116.08C130.12 115.69 130.86 114.95 131.23 114.44C131.61 113.93 132.06 113.12 132.24 112.64C132.42 112.16 132.61 111.36 132.66 110.86L132.77 109.95C139.2 109.95 139.96 109.91 139.9 109.75C139.85 109.64 138.28 108.93 136.41 108.17C134.54 107.4 133 106.73 133 106.66C133 106.6 134.14 105.53 135.54 104.29C136.94 103.04 138.03 102 137.96 101.96C137.89 101.92 136.33 102.3 134.48 102.79C132.63 103.29 131.07 103.66 131.02 103.61C130.96 103.57 131.32 102 131.81 100.13C132.3 98.25 132.68 96.67 132.66 96.6C132.63 96.53 131.38 97.62 129.87 99.02C128.37 100.41 127.11 101.53 127.08 101.51C127.04 101.49 126.61 100.01 126.11 98.23C125.61 96.44 125.15 94.87 125.08 94.74C125.02 94.61 124.93 94.57 124.89 94.66Z" />
		<path class="shp2" d="M97.25 96.63C96.9 96.8 96.47 97.13 96.31 97.38C96.14 97.63 96 97.85 96 97.86C95.99 97.88 92.81 98.47 88.93 99.17C85.05 99.87 81.72 100.48 81.52 100.52C81.33 100.57 81.17 100.67 81.17 100.76C81.17 100.86 84.56 100.92 91.04 100.92C100.11 100.92 100.95 100.94 101.45 101.2C101.76 101.35 102.14 101.72 102.31 102.03C102.49 102.33 102.63 102.83 102.63 103.14C102.63 103.44 102.49 103.93 102.32 104.23C102.15 104.52 101.76 104.9 101.46 105.06C100.99 105.31 100.54 105.36 98.45 105.35C96.76 105.35 95.7 105.43 95.08 105.59C94.58 105.72 93.79 106.02 93.33 106.25C92.88 106.48 92.07 107.08 91.55 107.58C91.03 108.08 90.37 108.9 90.09 109.42C89.81 109.93 89.47 110.84 89.32 111.45C89.15 112.19 89.09 112.93 89.14 113.67C89.19 114.28 89.37 115.21 89.56 115.73C89.74 116.25 90.12 117.04 90.4 117.47C90.69 117.93 97.9 125.27 107.24 134.62C116.22 143.61 123.63 150.94 123.69 150.9C123.76 150.86 123.81 149.52 123.81 147.93L123.81 145.04L99.79 121.04L103.28 121.04C119.01 136.76 123.63 141.32 123.69 141.32C123.76 141.32 123.81 140.16 123.81 138.74L123.81 136.17L108.67 121.04L112.16 121.04C121.01 129.88 123.63 132.45 123.69 132.45C123.76 132.45 123.77 131.93 123.72 131.3C123.67 130.67 123.5 129.58 123.33 128.88C123.17 128.18 122.81 127.08 122.54 126.43C122.27 125.77 121.65 124.63 121.16 123.89C120.67 123.15 119.73 122 119.07 121.34C118.41 120.68 117.3 119.77 116.6 119.31C115.9 118.86 114.94 118.3 114.46 118.08C113.98 117.85 113.19 117.53 112.71 117.36C112.23 117.2 111.38 116.95 110.81 116.81C109.99 116.61 108.37 116.54 102.78 116.46L95.78 116.37C94.73 115.63 94.26 115.1 94.06 114.7C93.82 114.24 93.68 113.72 93.69 113.24C93.69 112.82 93.8 112.22 93.94 111.89C94.07 111.56 94.34 111.13 94.53 110.92C94.72 110.72 95.15 110.42 95.47 110.25C95.97 110 96.42 109.95 98.25 109.95C99.45 109.95 100.86 109.88 101.38 109.79C101.9 109.71 102.83 109.39 103.44 109.09C104.14 108.75 104.83 108.26 105.3 107.75C105.72 107.3 106.29 106.46 106.57 105.87C107.05 104.87 107.09 104.69 107.09 103.14C107.09 101.58 107.05 101.4 106.56 100.36C106.27 99.75 105.84 99.06 105.61 98.82C105.38 98.58 105.22 98.36 105.26 98.32C105.31 98.28 106.59 97.89 108.12 97.46C109.64 97.03 110.91 96.59 110.93 96.5C110.96 96.37 109.09 96.33 104.43 96.33C98.35 96.33 97.85 96.35 97.25 96.63ZM139.03 96.54C139.16 96.66 140.5 97.11 142 97.53L144.73 98.3C144.11 99.04 143.72 99.68 143.47 100.21C143.21 100.73 142.94 101.58 142.85 102.11C142.75 102.74 142.75 103.41 142.85 104.09C142.94 104.65 143.18 105.49 143.4 105.95C143.61 106.41 144.12 107.15 144.54 107.59C144.95 108.04 145.58 108.59 145.93 108.81C146.27 109.03 146.95 109.35 147.43 109.52C148.13 109.77 148.9 109.85 151.25 109.93C154.06 110.02 154.22 110.05 154.82 110.43C155.22 110.7 155.59 111.14 155.88 111.7C156.12 112.19 156.31 112.82 156.31 113.16C156.31 113.48 156.2 114.02 156.06 114.35C155.93 114.67 155.62 115.14 155.39 115.39C155.15 115.64 154.75 115.96 154.49 116.1C154.07 116.33 153.13 116.38 147.04 116.46C140.42 116.54 139.99 116.57 138.71 116.91C137.97 117.11 136.76 117.54 136.02 117.86C135.28 118.18 134.17 118.76 133.56 119.15C132.95 119.55 131.99 120.3 131.43 120.81C130.87 121.33 129.99 122.29 129.47 122.94C128.95 123.59 128.18 124.84 127.76 125.71C127.34 126.58 126.85 127.9 126.66 128.64C126.48 129.38 126.29 130.6 126.24 131.34L126.15 132.68L137.85 121.04L141.32 121.04L126.19 136.17L126.19 141.56L146.72 121.04L150.2 121.04L126.18 145.04L126.27 150.99C158.98 118.26 159.46 117.76 160.01 116.6C160.35 115.9 160.65 114.97 160.75 114.31C160.87 113.52 160.87 112.87 160.75 112.09C160.65 111.39 160.36 110.51 159.96 109.71C159.58 108.92 159.05 108.16 158.58 107.7C158.16 107.29 157.39 106.7 156.86 106.39C156.34 106.08 155.43 105.72 154.84 105.59C154.16 105.44 152.93 105.35 151.43 105.35C149.52 105.35 149 105.3 148.54 105.08C148.24 104.93 147.83 104.55 147.63 104.25C147.43 103.94 147.27 103.48 147.27 103.22C147.27 102.95 147.4 102.49 147.55 102.19C147.7 101.89 148.08 101.47 148.38 101.27L148.94 100.91C166.99 100.92 168.87 100.89 168.7 100.72C168.59 100.61 165.24 99.93 161.25 99.21C157.27 98.49 154.01 97.89 154 97.87C153.99 97.85 153.84 97.62 153.67 97.35C153.49 97.09 153.05 96.75 152.69 96.6C152.1 96.35 151.35 96.32 145.41 96.32C139.78 96.32 138.83 96.35 139.03 96.54ZM226.38 98.58C222.85 99.37 219.95 100.02 219.93 100.03C219.91 100.04 220.04 100.69 220.22 101.47C220.39 102.26 220.55 102.92 220.56 102.95C220.58 102.98 221.66 102.77 222.97 102.49C224.28 102.21 225.42 101.96 225.51 101.92C225.59 101.89 225.86 102.74 226.11 103.81C226.35 104.88 226.58 105.79 226.63 105.83C226.67 105.87 227.31 105.77 228.05 105.59C228.79 105.42 229.4 105.2 229.4 105.12C229.4 105.03 229.21 104.14 228.99 103.14C228.77 102.13 228.61 101.3 228.64 101.28C228.66 101.27 229.14 101.15 229.71 101.01C230.28 100.88 230.78 100.82 230.83 100.89C230.88 100.95 231.17 102.09 231.47 103.42C231.76 104.75 232.04 105.84 232.09 105.83C232.13 105.83 232.75 105.71 233.47 105.55C234.42 105.35 234.78 105.21 234.78 105.04C234.77 104.91 234.4 103.1 233.94 101.01C233.49 98.93 233.05 97.21 232.96 97.18C232.87 97.16 229.91 97.79 226.38 98.58Z" />
		<path class="shp1" d="M98.29 98.62L98.29 99.33L100.98 99.33L100.98 97.91L98.29 97.91M149.02 98.62L149.02 99.33L151.71 99.33L151.71 97.91L149.02 97.91" />
		<path class="shp2" d="M15.18 105.16C15.05 105.92 14.98 106.59 15.04 106.65C15.09 106.7 18.04 107.27 21.59 107.91C25.14 108.55 28.08 109.04 28.12 109C28.17 108.96 28.32 108.28 28.46 107.49C28.6 106.71 28.69 106.06 28.67 106.05C28.64 106.03 25.78 105.52 22.31 104.9C18.85 104.28 15.88 103.77 15.72 103.77C15.47 103.77 15.38 104 15.18 105.16ZM230.98 112.8C227.87 113.01 226.59 113.16 226.06 113.36C225.67 113.52 225.09 113.83 224.78 114.05C224.46 114.28 224.03 114.68 223.81 114.94C223.59 115.2 223.3 115.63 223.17 115.89C223.03 116.15 222.83 116.83 222.72 117.4C222.56 118.22 222.56 118.65 222.72 119.53C222.83 120.14 223.11 120.99 223.34 121.42C223.57 121.85 224.08 122.47 224.48 122.81C224.87 123.15 225.56 123.57 226.02 123.74C226.6 123.95 227.26 124.05 228.16 124.05C228.88 124.05 231.08 123.94 233.04 123.81C235 123.68 236.61 123.55 236.63 123.53C236.64 123.51 236.61 122.84 236.55 122.03L236.45 120.56C235.59 120.56 233.7 120.67 231.69 120.81C229.68 120.94 227.79 121.01 227.49 120.95C227.18 120.9 226.74 120.71 226.5 120.55C226.26 120.38 225.95 119.94 225.81 119.57C225.64 119.13 225.58 118.66 225.64 118.19C225.69 117.8 225.86 117.3 226.03 117.08C226.19 116.86 226.57 116.56 226.87 116.41C227.29 116.19 228.33 116.08 231.69 115.87C234.04 115.73 236.01 115.56 236.06 115.51C236.12 115.46 236.12 114.77 236.06 113.99C235.97 112.61 235.96 112.56 235.57 112.54C235.36 112.53 233.29 112.64 230.98 112.8ZM237.35 117.74C237.35 118.12 237.4 118.62 237.46 118.85C237.53 119.16 237.94 119.55 238.94 120.24C239.71 120.77 240.42 121.2 240.53 121.2C240.67 121.2 240.69 121.04 240.61 120.61C240.54 120.28 240.49 119.6 240.49 119.1L240.49 118.19C238.58 117.48 237.88 117.23 237.69 117.17C237.37 117.07 237.35 117.11 237.35 117.74ZM22.11 125.65C21.77 125.73 21.21 126 20.88 126.23C20.55 126.47 20.28 126.7 20.28 126.74C20.28 126.79 20.14 126.98 19.97 127.18L19.66 127.53C18.61 126.91 18.24 126.82 17.48 126.83C16.81 126.84 16.31 126.95 15.9 127.17C15.57 127.35 15.05 127.73 14.76 128.03C14.46 128.32 14.07 128.89 13.9 129.28C13.61 129.94 13.6 130.21 13.7 132.92C13.76 134.53 13.86 135.91 13.92 135.97C13.98 136.04 16.97 135.93 20.55 135.74C24.14 135.54 27.14 135.32 27.21 135.25C27.29 135.17 27.26 133.68 27.16 131.92C27.05 129.98 26.89 128.51 26.76 128.17C26.63 127.86 26.35 127.36 26.12 127.06C25.9 126.75 25.37 126.32 24.94 126.08C24.52 125.85 23.85 125.62 23.46 125.58C23.07 125.53 22.46 125.56 22.11 125.65Z" />
		<path class="shp1" d="M22.4 128.69C22.21 128.8 21.94 129.07 21.81 129.28C21.61 129.6 21.59 129.96 21.68 131.16L21.8 132.64C22.9 132.49 23.47 132.44 23.78 132.45L24.33 132.45C24.2 130.17 24.09 129.38 24.01 129.22C23.93 129.05 23.66 128.82 23.42 128.7C23.18 128.58 22.93 128.49 22.87 128.49C22.8 128.49 22.59 128.58 22.4 128.69ZM17.2 129.94C17.03 130.03 16.79 130.23 16.68 130.37C16.56 130.52 16.48 131.1 16.48 131.81L16.48 133C17.28 132.81 17.87 132.76 18.31 132.76L19.1 132.76C19.02 131.35 18.94 130.76 18.86 130.54C18.78 130.33 18.53 130.06 18.31 129.95C18.09 129.84 17.82 129.76 17.72 129.76C17.61 129.76 17.37 129.84 17.2 129.94Z" />
		<path class="shp2" d="M233.45 131.57C233.39 132.18 233.31 132.95 233.27 133.28C233.2 133.86 233.19 133.87 232.6 133.8C232.27 133.76 229.96 133.52 227.46 133.28C224.96 133.04 222.87 132.88 222.82 132.92C222.77 132.96 222.67 133.64 222.58 134.43C222.5 135.21 222.45 135.87 222.46 135.89C222.48 135.91 224.81 136.15 227.65 136.43C230.48 136.7 232.84 136.95 232.88 136.99C232.92 137.03 232.88 137.79 232.78 138.67C232.68 139.56 232.61 140.3 232.62 140.32C232.63 140.34 233.28 140.42 234.07 140.51C234.85 140.6 235.51 140.66 235.52 140.64C235.53 140.62 235.75 138.43 236.01 135.77C236.26 133.12 236.43 130.89 236.38 130.83C236.33 130.77 235.67 130.66 234.92 130.59L233.56 130.47" />
		<path class="shp0" d="M146.25 134.27L145.14 135.39L145.21 142.35C141.83 145.73 140.8 146.66 140.73 146.59C140.66 146.52 140.61 145.01 140.61 143.22L140.62 139.97L138.39 142.19L138.4 149.16L125 162.55L111.6 149.16L111.61 142.35L109.38 140.13C109.39 145.04 109.34 146.52 109.27 146.59C109.2 146.66 108.17 145.73 106.97 144.53L104.79 142.35L104.79 135.54L102.57 133.32L102.57 143.3L109.38 150.11L109.38 185.52L102.49 185.6L102.49 187.82L111.6 187.9L111.6 152.33L123.41 164.13L117.47 170.07C123.18 175.78 124.91 177.44 125 177.44C125.09 177.44 126.82 175.78 128.84 173.76L132.53 170.07L126.59 164.13C135.42 155.29 138.08 152.72 138.19 152.72C138.36 152.72 138.4 156.14 138.4 170.31L138.4 187.9L147.43 187.9L147.43 185.52L140.62 185.52L140.62 150.11L147.43 143.3L147.35 133.16" />
		<path class="shp2" d="M23.62 143.48C23.4 143.53 21.44 143.99 19.26 144.51C17.08 145.03 15.28 145.47 15.25 145.49C15.22 145.5 15.35 146.16 15.53 146.94C15.71 147.73 15.87 148.39 15.89 148.41C15.92 148.44 17.75 148.02 19.97 147.5C22.2 146.97 24.3 146.54 24.65 146.54C25.05 146.54 25.49 146.67 25.84 146.9C26.15 147.1 26.52 147.51 26.67 147.82C26.82 148.12 26.95 148.69 26.95 149.08C26.95 149.52 26.83 150 26.63 150.31C26.45 150.61 26.03 150.95 25.64 151.12C25.27 151.29 23.22 151.83 21.08 152.33C18.95 152.83 17.16 153.27 17.12 153.31C17.08 153.34 17.18 153.99 17.36 154.74C17.53 155.49 17.75 156.13 17.83 156.16C17.92 156.2 19.85 155.79 22.11 155.25C24.38 154.71 26.59 154.11 27.03 153.91C27.47 153.71 28.15 153.2 28.55 152.78C28.98 152.32 29.41 151.65 29.62 151.1C29.83 150.55 29.96 149.83 29.96 149.28C29.96 148.78 29.85 147.98 29.72 147.5C29.59 147.02 29.31 146.34 29.11 145.99C28.9 145.64 28.44 145.09 28.08 144.76C27.72 144.44 27.09 144.02 26.67 143.84C26.26 143.66 25.49 143.49 24.97 143.46C24.45 143.43 23.84 143.44 23.62 143.48ZM221.09 145.08C221.06 145.15 220.7 146.48 220.3 148.05C219.9 149.62 219.57 151.26 219.57 151.7C219.57 152.13 219.66 152.76 219.76 153.1C219.87 153.44 220.21 154.01 220.51 154.35C220.82 154.7 221.35 155.13 221.7 155.3C222.05 155.47 222.66 155.65 223.05 155.69C223.44 155.74 224.05 155.69 224.4 155.58C224.75 155.47 225.25 155.21 225.51 155.01L225.98 154.64C226.9 155.56 227.4 155.84 227.96 156C228.51 156.16 229.09 156.21 229.51 156.15C229.88 156.1 230.45 155.92 230.78 155.75C231.11 155.59 231.64 155.16 231.97 154.8C232.29 154.44 232.64 153.95 232.73 153.72C232.82 153.48 233.18 152.14 233.53 150.74C233.87 149.35 234.13 148.2 234.11 148.2C234.09 148.19 231.2 147.46 227.69 146.57C224.18 145.69 221.27 144.96 221.23 144.96C221.2 144.96 221.13 145.02 221.09 145.08Z" />
		<path class="shp1" d="M222.75 149.95C222.57 150.69 222.41 151.42 222.41 151.58C222.41 151.73 222.55 152.05 222.73 152.29C222.98 152.63 223.18 152.73 223.64 152.73C224.06 152.73 224.34 152.63 224.57 152.37C224.76 152.17 225.06 151.42 225.26 150.67C225.45 149.92 225.55 149.28 225.48 149.22C225.41 149.17 224.87 149.01 224.28 148.87C223.69 148.72 223.18 148.61 223.15 148.61C223.11 148.61 222.93 149.21 222.75 149.95ZM227.9 150.9C227.72 151.65 227.69 152.04 227.81 152.33C227.89 152.55 228.13 152.84 228.32 152.97C228.54 153.13 228.86 153.19 229.15 153.13C229.42 153.09 229.75 152.92 229.91 152.77C230.06 152.61 230.29 152.06 230.43 151.54C230.56 151.01 230.65 150.57 230.63 150.55C230.6 150.53 230.05 150.37 229.39 150.19C228.74 150.02 228.19 149.88 228.18 149.88C228.17 149.87 228.04 150.34 227.9 150.9Z" />
		<path class="shp2" d="M30.75 157.83C30.1 158.1 29.55 158.33 29.53 158.34C29.51 158.34 29.95 159.49 30.52 160.88C31.09 162.28 31.5 163.47 31.43 163.52C31.36 163.58 29.24 164.46 26.71 165.48C24.18 166.5 22.06 167.38 21.99 167.44C21.92 167.49 22.11 168.14 22.4 168.88C22.76 169.77 23.02 170.22 23.16 170.18C23.28 170.16 26.07 169.05 29.36 167.73C32.65 166.4 35.35 165.25 35.35 165.16C35.35 165.07 34.66 163.27 33.81 161.16C32.96 159.05 32.19 157.33 32.1 157.33C32.01 157.34 31.41 157.57 30.75 157.83ZM218.21 162.14C217.87 162.25 217.26 162.5 216.87 162.71C216.48 162.91 215.81 163.4 215.38 163.8C214.96 164.2 214.43 164.85 214.2 165.24C213.97 165.63 213.66 166.36 213.51 166.86C213.35 167.37 213.22 168.22 213.22 168.77C213.22 169.31 213.33 170.15 213.48 170.63C213.62 171.11 213.87 171.77 214.03 172.09C214.2 172.42 214.63 173.02 215 173.42C215.38 173.82 215.96 174.35 216.31 174.58C216.66 174.82 217.27 175.14 217.66 175.29C218.05 175.44 218.8 175.63 219.32 175.7C219.87 175.78 220.68 175.77 221.23 175.68C221.75 175.6 222.68 175.29 223.29 175C224.07 174.62 224.65 174.19 225.24 173.54C225.71 173.03 226.27 172.22 226.49 171.74C226.72 171.26 226.97 170.4 227.07 169.84C227.19 169.07 227.19 168.53 227.05 167.74C226.94 167.15 226.66 166.26 226.42 165.76C226.18 165.25 225.59 164.45 225.11 163.96C224.63 163.47 223.92 162.91 223.53 162.71C223.13 162.51 222.49 162.25 222.1 162.13C221.71 162.01 220.81 161.92 220.12 161.93C219.42 161.93 218.56 162.03 218.21 162.14Z" />
		<path class="shp1" d="M218.83 165.12C218.56 165.23 218.1 165.49 217.8 165.69C217.51 165.89 217.1 166.28 216.91 166.56C216.72 166.84 216.48 167.31 216.39 167.62C216.31 167.92 216.23 168.42 216.23 168.73C216.23 169.03 216.33 169.6 216.46 169.99C216.59 170.39 216.97 170.99 217.3 171.34C217.63 171.69 218.18 172.11 218.53 172.28C218.88 172.44 219.45 172.61 219.8 172.65C220.15 172.69 220.83 172.64 221.31 172.52C222.01 172.36 222.33 172.16 222.98 171.51C223.57 170.92 223.84 170.5 223.99 169.91C224.12 169.44 224.17 168.85 224.1 168.45C224.05 168.08 223.87 167.51 223.7 167.18C223.54 166.85 223.2 166.38 222.95 166.13C222.7 165.89 222.21 165.54 221.86 165.36C221.5 165.18 220.82 165.01 220.28 164.98C219.75 164.95 219.1 165.02 218.83 165.12ZM122.78 167.93L120.72 170L125 174.27L129.28 169.99C126.09 166.8 125.09 165.87 125 165.87C124.91 165.87 123.91 166.8 122.78 167.93Z" />
		<path class="shp2" d="M35.15 172.81C35.11 172.87 35.13 173.57 35.18 174.35L35.27 175.78C36.9 175.96 37.36 176.13 37.81 176.44C38.16 176.69 38.68 177.25 38.96 177.68C39.25 178.12 39.52 178.75 39.58 179.1C39.63 179.45 39.58 180.13 39.46 180.61C39.35 181.09 39.04 181.76 38.77 182.1C38.5 182.45 37.89 182.93 37.41 183.18C36.72 183.53 36.33 183.63 35.55 183.62C35.01 183.62 34.33 183.52 34.04 183.4C33.76 183.29 33.28 182.98 32.99 182.73C32.69 182.48 32.28 181.92 32.08 181.48C31.83 180.94 31.71 180.39 31.71 179.78C31.71 179.28 31.81 178.6 31.95 178.27C32.08 177.94 32.19 177.66 32.19 177.64C32.18 177.62 31.63 177.3 30.96 176.92C30.28 176.55 29.68 176.23 29.61 176.21C29.54 176.19 29.34 176.51 29.16 176.92C28.98 177.34 28.77 178.11 28.68 178.63C28.57 179.28 28.57 179.9 28.68 180.61C28.78 181.17 29.09 182.14 29.38 182.75C29.71 183.44 30.23 184.18 30.77 184.72C31.26 185.21 32.04 185.77 32.58 186.03C33.1 186.27 34.03 186.56 34.64 186.66C35.49 186.8 35.99 186.8 36.78 186.66C37.35 186.55 38.2 186.28 38.68 186.06C39.16 185.83 39.97 185.24 40.48 184.75C41.02 184.23 41.59 183.46 41.87 182.91C42.13 182.38 42.42 181.46 42.52 180.85C42.67 179.99 42.66 179.5 42.52 178.71C42.42 178.14 42.11 177.21 41.84 176.65C41.53 176 41.01 175.29 40.45 174.74C39.96 174.26 39.16 173.68 38.68 173.45C38.2 173.22 37.49 172.95 37.1 172.86C36.7 172.77 36.12 172.69 35.8 172.69C35.47 172.69 35.18 172.74 35.15 172.81ZM207 178.75C206.44 179.55 205.35 181.11 204.58 182.22C203.81 183.32 203.19 184.26 203.21 184.32C203.22 184.37 203.77 184.77 204.42 185.2L205.61 185.99C207.95 182.56 208.7 181.56 208.78 181.56C208.87 181.56 210.78 182.82 213.02 184.36C215.27 185.9 217.21 187.16 217.34 187.17C217.46 187.18 217.91 186.68 218.33 186.07C218.75 185.46 219.09 184.93 219.1 184.89C219.1 184.84 216.64 183.11 213.62 181.04C210.61 178.97 208.12 177.28 208.08 177.28C208.04 177.28 207.55 177.94 207 178.75Z" />
		<path class="shp0" d="M60.49 203.38C60.16 204.93 59.85 206.28 59.79 206.38C59.73 206.49 58.51 206.83 57.07 207.14C55.63 207.45 54.33 207.74 54.18 207.78C54.02 207.82 53.9 207.91 53.9 207.98C53.89 208.04 55.16 208.38 56.71 208.72C58.26 209.06 59.61 209.42 59.7 209.51C59.8 209.6 60.16 210.95 60.5 212.49C60.84 214.06 61.18 215.28 61.27 215.25C61.36 215.22 61.7 213.92 62.04 212.36C62.38 210.8 62.71 209.49 62.77 209.44C62.84 209.4 64.19 209.08 65.77 208.73C67.35 208.38 68.65 208.04 68.65 207.98C68.64 207.91 68.52 207.83 68.37 207.79C68.21 207.75 66.87 207.45 65.37 207.12L62.66 206.51C61.75 202.34 61.46 201 61.42 200.85C61.38 200.7 61.29 200.57 61.21 200.57C61.14 200.57 60.81 201.84 60.49 203.38ZM187.95 203.46C187.61 205.05 187.29 206.4 187.24 206.46C187.19 206.53 185.97 206.83 184.53 207.14C183.09 207.45 181.79 207.74 181.63 207.78C181.48 207.82 181.36 207.91 181.35 207.98C181.35 208.04 182.62 208.37 184.17 208.71C185.72 209.05 187.06 209.39 187.14 209.45C187.23 209.52 187.59 210.86 187.94 212.44C188.29 214.02 188.64 215.28 188.73 215.25C188.82 215.22 189.16 213.92 189.5 212.36C189.84 210.8 190.17 209.49 190.24 209.44C190.31 209.4 191.66 209.08 193.23 208.73C194.81 208.38 196.1 208.04 196.1 207.98C196.1 207.91 195.94 207.82 195.74 207.78C195.55 207.73 194.25 207.44 192.85 207.13C191.46 206.82 190.27 206.52 190.21 206.46C190.15 206.4 189.88 205.32 189.6 204.06C189.33 202.79 189.03 201.49 188.95 201.16C188.87 200.84 188.75 200.57 188.68 200.57C188.61 200.57 188.28 201.87 187.95 203.46Z" />
		<path class="shp2" d="M156.52 217.57C155.72 217.85 155 218.15 154.92 218.24C154.83 218.32 154.43 219.41 154.03 220.65C153.63 221.89 153.24 222.91 153.18 222.91C153.11 222.91 152.2 222.23 151.16 221.41C150.11 220.58 149.15 219.9 149.02 219.9C148.89 219.9 148.1 220.08 147.27 220.3C146.44 220.51 145.75 220.71 145.73 220.73C145.7 220.75 147.11 221.89 148.86 223.27C150.6 224.64 152.03 225.85 152.03 225.96C152.02 226.07 151.39 227.87 150.61 229.96C149.84 232.05 149.25 233.78 149.31 233.81C149.37 233.83 150.13 233.67 151 233.45C151.87 233.23 152.59 233.03 152.6 233.01C152.61 232.99 153.03 231.83 153.54 230.43C154.05 229.04 154.5 227.85 154.55 227.79C154.6 227.73 155.68 228.45 156.94 229.39L159.24 231.11C161.82 230.26 162.5 229.96 162.41 229.89C162.33 229.82 160.77 228.66 158.96 227.29C156.39 225.35 155.7 224.75 155.77 224.53C155.82 224.38 156.43 222.63 157.12 220.65C157.91 218.37 158.3 217.05 158.17 217.06C158.06 217.06 157.32 217.29 156.52 217.57ZM91.09 217.55C91.04 217.66 90.21 220.56 89.25 223.98C88.29 227.4 87.54 230.27 87.59 230.35C87.63 230.44 88.25 230.7 88.97 230.92C89.69 231.15 90.33 231.27 90.38 231.2C90.44 231.13 90.93 229.46 91.47 227.5C92.01 225.54 92.51 223.83 92.58 223.7C92.65 223.55 93.07 224.49 93.79 226.44C94.39 228.07 94.93 229.41 95 229.41C95.06 229.4 96.15 228.58 97.42 227.58C98.68 226.58 99.78 225.78 99.86 225.8C99.93 225.82 99.55 227.44 98.99 229.4C98.44 231.36 97.98 233.09 97.98 233.25C97.97 233.42 98.13 233.56 98.41 233.62C98.65 233.67 99.27 233.82 99.79 233.94C100.32 234.07 100.79 234.11 100.85 234.05C100.91 233.98 101.74 231.1 102.71 227.66C103.68 224.22 104.47 221.33 104.47 221.25C104.47 221.16 103.92 220.96 103.24 220.81C102.57 220.66 101.94 220.53 101.85 220.53C101.77 220.52 100.48 221.48 99 222.66C96.41 224.72 96.3 224.79 96.13 224.45C96.04 224.26 95.48 222.78 94.9 221.17L93.84 218.24C92.07 217.65 91.47 217.45 91.37 217.41C91.27 217.36 91.15 217.43 91.09 217.55ZM139.92 221.78L138.51 222.04C136.71 225.35 136.11 226.31 136.03 226.31C135.94 226.31 135.14 225.5 134.25 224.49L132.63 222.67C131.14 222.75 130.33 222.82 129.86 222.88L129.02 222.99C133.22 227.65 134.43 229.06 134.43 229.13C134.43 229.19 133.51 230.85 132.37 232.81C131.24 234.77 130.33 236.41 130.35 236.44C130.37 236.48 131.14 236.46 132.05 236.4L133.7 236.3C135.93 232.44 136.61 231.33 136.66 231.35C136.71 231.37 137.62 232.31 138.68 233.44L140.62 235.5C143.14 235.07 143.88 234.93 143.9 234.91C143.92 234.89 142.65 233.48 141.08 231.78C139.51 230.08 138.23 228.66 138.24 228.61C138.24 228.57 139.1 227 140.14 225.13C141.18 223.25 142.03 221.67 142.04 221.6C142.04 221.54 141.88 221.49 141.69 221.5C141.49 221.51 140.69 221.63 139.92 221.78ZM109.94 228.74C109.68 232.42 109.52 235.46 109.6 235.53C109.67 235.6 110.35 235.75 111.11 235.85C111.86 235.96 112.49 236.03 112.5 236.01C112.51 235.99 112.63 234.38 112.77 232.41C112.92 230.45 113.03 228.65 113.03 228.41C113.03 228.17 113.08 227.98 113.15 227.97C113.22 227.97 114 229.15 114.89 230.59C115.79 232.03 116.55 233.21 116.6 233.21C116.64 233.21 117.6 232.1 118.74 230.75C120.66 228.46 120.8 228.33 120.79 228.81C120.79 229.09 120.69 230.64 120.56 232.26C120.44 233.87 120.33 235.49 120.33 235.86L120.32 236.53L123.34 236.53C123.46 235.49 123.67 232.48 123.89 229.17C124.12 225.86 124.28 223.14 124.25 223.13C124.23 223.12 123.6 223.07 122.86 223.03L121.51 222.94C118.07 227.08 117.04 228.29 116.99 228.3C116.95 228.3 116.09 226.99 115.09 225.38C113.28 222.48 113.26 222.46 112.63 222.37C112.29 222.32 111.64 222.24 111.21 222.18L110.42 222.09" />
	</g>
</svg>