<svg xmlns:xlink="http://www.w3.org/1999/xlink" xmlns="http://www.w3.org/2000/svg" xmlns:svg="http://www.w3.org/2000/svg" width="344.73975814938495" height="290.0738822142682" viewBox="0 0 185.20836 155.91809" version="1.1" id="svg1" xml:space="preserve"><defs id="defs1"><linearGradient x1="402.20111" y1="131.5731" x2="380.19461" y2="119.4252" gradientUnits="userSpaceOnUse"><stop offset=".15" stop-color="#fff" stop-opacity=".15" id="stop1"/><stop offset=".4863" stop-color="#fff" stop-opacity="0" id="stop2"/></linearGradient><linearGradient x1="378.0213" y1="142.9166" x2="389.42111" y2="129.8231" gradientUnits="userSpaceOnUse"><stop offset=".15" stop-color="#fff" stop-opacity=".15" id="stop3"/><stop offset=".8331" stop-color="#fff" stop-opacity="0" id="stop4"/></linearGradient><linearGradient x1="377.82599" y1="155.464" x2="377.28729" y2="141.21249" xlink:href="#_%E6%9C%AA%E5%91%BD%E5%90%8D%E7%9A%84%E6%B8%90%E5%8F%98_35"/><linearGradient x1="382.92291" y1="165.86549" x2="394.03879" y2="173.5562" gradientUnits="userSpaceOnUse"><stop offset=".1631" stop-color="#fff" stop-opacity=".15" id="stop5"/><stop offset=".8331" stop-color="#fff" stop-opacity="0" id="stop6"/></linearGradient><linearGradient x1="410.96381" y1="166.65131" x2="390.9314" y2="181.4832" xlink:href="#_%E6%9C%AA%E5%91%BD%E5%90%8D%E7%9A%84%E6%B8%90%E5%8F%98_35"/><linearGradient x1="416.9758" y1="161.90781" x2="406.2515" y2="170.29781" gradientUnits="userSpaceOnUse"><stop offset=".1631" stop-color="#fff" stop-opacity=".15" id="stop7"/><stop offset=".4963" stop-color="#fff" stop-opacity="0" id="stop8"/></linearGradient><linearGradient x1="418.233" y1="140.3587" x2="415.5213" y2="157.4386" gradientUnits="userSpaceOnUse"><stop offset=".1631" stop-color="#fff" stop-opacity=".15" id="stop9"/><stop offset=".6884" stop-color="#fff" stop-opacity="0" id="stop10"/></linearGradient><linearGradient x1="417.7215" y1="143.7067" x2="415.2988" y2="132.59441" gradientUnits="userSpaceOnUse"><stop offset=".1631" stop-color="#fff" stop-opacity=".15" id="stop11"/><stop offset=".5845" stop-color="#fff" stop-opacity="0" id="stop12"/></linearGradient><linearGradient x1="404.85281" y1="126.0097" x2="396.0538" y2="129.6134" gradientUnits="userSpaceOnUse"><stop offset=".2159" stop-color="#fff" stop-opacity=".15" id="stop13"/><stop offset="1" stop-color="#fff" stop-opacity="0" id="stop14"/></linearGradient><linearGradient x1="388.60309" y1="168.6087" x2="377.63321" y2="164.7162" gradientUnits="userSpaceOnUse"><stop offset=".1556" stop-color="#fff" stop-opacity=".15" id="stop15"/><stop offset=".6647" stop-color="#fff" stop-opacity="0" id="stop16"/></linearGradient><linearGradient xlink:href="#_%E6%9C%AA%E5%91%BD%E5%90%8D%E7%9A%84%E6%B8%90%E5%8F%98_35" id="linearGradient1" gradientUnits="userSpaceOnUse" x1="378.0213" y1="142.9166" x2="389.42111" y2="129.8231"/><linearGradient xlink:href="#_%E6%9C%AA%E5%91%BD%E5%90%8D%E7%9A%84%E6%B8%90%E5%8F%98_35" id="linearGradient2" gradientUnits="userSpaceOnUse" x1="382.92291" y1="165.86549" x2="394.03879" y2="173.5562"/></defs><g id="layer1" transform="translate(-10.218215,-54.846087)"><g id="g1" transform="matrix(0.26458333,0,0,0.26458333,-0.7174622,30.411964)"><g id="g76" transform="translate(-8.6681058,-13.002159)"><g id="g28"><polygon points="397.5076,105.3516 407.5567,136.3372 440.131,136.3193 413.7672,155.4517 423.8503,186.4262 397.5076,167.2648 371.1649,186.4262 381.248,155.4517 354.8841,136.3193 387.4586,136.3372 " style="fill:#00a04a" id="polygon16"/><polygon points="437.8379,137.0644 412.8924,155.1674 422.4332,184.4757 397.5076,166.3451 372.582,184.4757 382.1227,155.1674 357.1772,137.0644 387.9992,137.0813 397.5076,107.7626 407.016,137.0813 " style="fill:#ceac38" id="polygon17"/><g id="g27"><polygon points="387.9992,137.0813 397.5076,107.7626 397.582,150.2429 " style="fill:url(#_%E6%9C%AA%E5%91%BD%E5%90%8D%E7%9A%84%E6%B8%90%E5%8F%98_35)" id="polygon18"/><polygon points="387.9992,137.0813 397.582,150.2429 357.1772,137.0644 " style="fill:url(#linearGradient1)" id="polygon19"/><polygon points="357.1772,137.0644 397.582,150.2429 382.1227,155.1674 " style="fill:url(#_%E6%9C%AA%E5%91%BD%E5%90%8D%E7%9A%84%E6%B8%90%E5%8F%98_35)" id="polygon20"/><polygon points="372.582,184.4757 397.5076,166.3451 397.582,150.2429 " style="fill:url(#linearGradient2)" id="polygon21"/><polygon points="397.5076,166.3451 422.4332,184.4757 397.582,150.2429 " style="fill:url(#_%E6%9C%AA%E5%91%BD%E5%90%8D%E7%9A%84%E6%B8%90%E5%8F%98_35)" id="polygon22"/><polygon points="422.4332,184.4757 412.8924,155.1674 397.582,150.2429 " style="fill:url(#_%E6%9C%AA%E5%91%BD%E5%90%8D%E7%9A%84%E6%B8%90%E5%8F%98_35)" id="polygon23"/><polygon points="412.8924,155.1674 437.8379,137.0644 397.582,150.2429 " style="fill:url(#_%E6%9C%AA%E5%91%BD%E5%90%8D%E7%9A%84%E6%B8%90%E5%8F%98_35)" id="polygon24"/><polygon points="437.8379,137.0644 407.016,137.0813 397.582,150.2429 " style="fill:url(#_%E6%9C%AA%E5%91%BD%E5%90%8D%E7%9A%84%E6%B8%90%E5%8F%98_35)" id="polygon25"/><polygon points="407.016,137.0813 397.5076,107.7626 397.582,150.2429 " style="fill:url(#_%E6%9C%AA%E5%91%BD%E5%90%8D%E7%9A%84%E6%B8%90%E5%8F%98_35)" id="polygon26"/><polygon points="372.582,184.4757 397.582,150.2429 382.1227,155.1674 " style="fill:url(#_%E6%9C%AA%E5%91%BD%E5%90%8D%E7%9A%84%E6%B8%90%E5%8F%98_35)" id="polygon27"/></g></g><path d="m 400.4237,193.4581 c -103.9035,0 -188.136,84.2324 -188.136,188.136 0,103.9036 84.2324,188.136 188.136,188.136 103.9036,0 188.136,-84.2324 188.136,-188.136 0,-103.9036 -84.2324,-188.136 -188.136,-188.136 z" style="fill:#00a04a" id="path28"/><path d="m 73.9687,567.2002 124.9393,-0.3775 c 0,0 -15.8533,-16.9857 35.4813,-23.4025 51.3346,-6.4168 152.4939,-4.1521 169.1022,-3.7746 16.6083,0.3775 223.4565,-9.814 198.1666,26.7997 l 125.3168,0.7549 -85.6835,54.7317 108.7085,67.1879 c 0,0 -135.3195,7.3605 -180.2373,5.0957 -44.9178,-2.2648 -89.8355,0.7549 -95.8749,-23.4025 -4.907,-16.6083 42.2755,-32.839 42.2755,-32.839 0,0 -142.3025,-7.1717 -231.7606,-0.3775 0,0 42.8291,16.9869 42.653,30.1968 -0.1887,14.1548 -16.797,23.78 -62.6584,24.9124 -52.6806,1.3008 -125.6943,3.7746 -214.3974,-3.7746 l 108.7085,-66.433 -84.7398,-55.2979 z" style="fill:#00a04a" id="path29"/><g id="g56"><path d="m 400.4237,553.7189 c -94.9099,0 -172.1245,-77.215 -172.1245,-172.125 0,-94.91 77.2145,-172.1245 172.1245,-172.1245 94.91,0 172.1245,77.2145 172.1245,172.1245 0,94.91 -77.215,172.125 -172.1245,172.125 z" style="fill:#f6e600" id="path30"/><path d="m 400.4237,225.4811 c -86.0808,0 -156.1129,70.0321 -156.1129,156.1129 0,86.0808 70.0321,156.1134 156.1129,156.1134 86.0808,0 156.1129,-70.0321 156.1129,-156.1134 0,-86.0813 -70.0321,-156.1129 -156.1129,-156.1129 z m 0,308.2234 c -83.8736,0 -152.11,-68.2368 -152.11,-152.1105 0,-83.8737 68.2364,-152.11 152.11,-152.11 83.8736,0 152.11,68.2364 152.11,152.11 0,83.8736 -68.2359,152.1105 -152.11,152.1105 z" style="fill:#00a04a" id="path31"/><g id="g41"><g id="g35"><polygon points="315.891,266.1 333.1598,284.5012 329.0549,288.3938 317.2357,276.5745 320.9867,287.4029 317.9434,290.3046 307.0443,285.7751 318.3681,298.3021 314.334,302.0531 296.9944,283.6519 302.3024,278.8393 315.1833,284.2181 310.7953,270.9126 " style="fill:#00a04a" id="polygon31"/><polygon points="378.4296,239.0764 384.8438,263.4828 379.3801,264.9491 374.6208,248.9261 372.7589,260.2335 368.7006,261.3345 361.2766,252.1588 365.2632,268.568 359.9292,269.9436 353.4527,245.5034 360.4126,243.8015 369.1742,254.6681 371.6564,240.8794 " style="fill:#00a04a" id="polygon32"/><path d="m 351.1363,274.239 5.8742,-2.9725 -20.0997,-18.1181 -5.8742,3.4679 4.8834,26.2571 5.308,-3.1141 -1.0878,-5.2018 7.1554,-3.9623 3.8407,3.6437 z m -11.9548,-4.2659 -1.846,-8.8272 6.604,6.2653 -4.758,2.562 z" style="fill:#00a04a" id="path32"/><polygon points="396.7501,242.4616 407.6964,242.3672 407.602,237.6489 390.522,237.8377 390.9938,263.3162 407.9795,263.0331 407.9795,258.6924 397.0332,258.598 396.9159,251.9126 407.0358,251.615 407.0358,247.1798 396.8328,247.1798 " style="fill:#00a04a" id="polygon33"/><polygon points="423.2195,239.5834 417.1329,238.451 412.8865,263.3634 429.4475,266.619 430.1553,262.231 419.5392,259.9663 " style="fill:#00a04a" id="polygon34"/><path d="m 451.9536,246.8496 c -7.9267,-3.3972 -13.3055,2.2648 -15.8533,6.983 -2.5479,4.7182 -2.4535,13.6829 5.0957,17.3631 7.5492,3.6802 13.5886,0.8493 17.2688,-6.983 3.6803,-7.8323 -0.0846,-14.6089 -6.5112,-17.3631 z m 0.9437,14.4378 c -1.793,3.869 -4.6239,8.2098 -9.3421,5.8507 -4.7182,-2.3591 -2.3591,-9.059 -1.2268,-11.1351 1.1324,-2.0761 3.5859,-6.8886 8.3042,-4.7183 3.6473,1.6777 4.0577,6.1337 2.2648,10.0027 z" style="fill:#00a04a" id="path34"/><path d="m 482.3392,264.7789 c -3.1141,-2.4535 -10.0027,-7.2661 -10.0027,-7.2661 l -14.5322,20.6659 c 0,0 6.1338,4.0577 9.5309,6.4168 3.3972,2.3591 10.852,3.4915 16.1364,-3.5858 5.2845,-7.0774 1.9817,-13.7773 -1.1323,-16.2308 z m -4.0577,12.5505 c -3.3028,5.0957 -8.3042,3.9634 -9.7196,2.9253 -1.4155,-1.038 -3.1141,-2.2648 -3.1141,-2.2648 l 9.2478,-13.3055 c 0,0 0.8493,0.5662 3.1141,2.1704 2.2648,1.6042 3.7746,5.3788 0.4718,10.4745 z" style="fill:#00a04a" id="path35"/><polygon points="483.8218,293.6377 481.2068,290.918 478.2815,294.0321 487.4349,303.5629 490.6433,300.732 487.9148,297.8943 500.3191,286.1167 502.9108,288.842 505.9305,285.9167 496.4939,276.2914 493.7573,279.2168 496.2184,281.8046 " style="fill:#00a04a" id="polygon35"/></g><g id="g40"><path d="m 303.1517,481.6062 c -7.2661,0.7785 -12.409,-6.0865 -15.641,-12.7865 l 4.8362,-4.5767 c 0.6134,7.8559 6.5663,14.1262 9.6016,11.1351 3.232,-3.1848 -8.1626,-11.0407 -2.5066,-17.8586 5.8839,-7.0926 15.4464,-0.7785 19.4097,8.9352 l -4.3703,4.1049 c -0.2426,-2.0409 -2.4004,-9.6901 -6.9063,-10.2091 -0.4972,-0.0573 -1.3447,-0.2831 -2.3827,0.6606 -1.9398,1.7635 1.9109,5.3552 4.0341,11.1233 1.4323,3.8912 -1.3143,8.1542 -6.0748,9.4719 z" style="fill:#00a04a" id="path36"/><path d="m 513.1381,466.8651 c 0.979,7.2418 -5.7414,12.5724 -12.3494,15.9883 l -4.7086,-4.7079 c 7.8359,-0.8302 13.9393,-6.954 10.8655,-9.9056 -3.2729,-3.1428 -10.811,8.4645 -17.7825,2.999 -7.2524,-5.6857 -1.205,-15.419 8.3955,-19.6492 l 4.2241,4.2552 c -2.0334,0.2989 -9.6201,2.6672 -10.0144,7.1858 -0.0435,0.4986 -0.2458,1.352 0.7261,2.3636 1.8164,1.8904 5.3004,-2.0581 11.0076,-4.3399 3.8501,-1.5393 8.1874,1.0885 9.6361,5.8107 z" style="fill:#00a04a" id="path37"/><path d="m 334.8466,480.3913 -8.6344,12.3854 c -0.9334,1.3441 -2.3568,2.273 -3.2556,2.4535 -0.8917,0.1902 -2.0723,-0.1142 -3.2084,-0.8965 -1.2189,-0.8362 -1.9517,-1.9414 -2.1704,-2.8545 -0.3067,-1.0852 0.535,-3.2179 1.5098,-4.6239 l 9.4247,-13.966 -5.0395,-3.6233 -10.2354,14.7341 c -1.8573,2.6712 -2.4407,5.2955 -1.7396,7.7921 0.6857,2.4436 2.5537,4.7299 5.551,6.7903 1.2536,0.865 2.5461,1.5042 3.833,1.9024 1.0589,0.3295 2.1109,0.4717 3.1428,0.4338 0.2622,-0.01 0.524,-0.0293 0.7785,-0.0655 1.2864,-0.1646 2.544,-0.6564 3.7396,-1.4608 1.1693,-0.7867 2.2755,-1.9161 3.2824,-3.3668 l 9.7097,-13.9712 -5.1311,-3.7156 -1.557,2.0524 z" style="fill:#00a04a" id="path38"/><polygon points="348.2228,494.027 351.0538,515.6366 356.7506,518.0234 366.8435,492.8149 361.2452,490.6299 355.4889,505.1149 353.177,487.2799 345.8088,484.2002 335.7192,509.4053 341.1454,511.5317 " style="fill:#00a04a" id="polygon38"/><polygon points="469.989,484.6761 489.3812,493.9208 494.6538,490.276 479.2072,468.4521 474.3056,471.929 483.2456,484.6973 467.0736,476.8296 460.6116,481.6416 475.9679,503.5729 480.726,500.2074 " style="fill:#00a04a" id="polygon39"/><path d="m 370.673,494.7593 -2.7553,26.656 c 5.3826,0.355 11.4382,1.6203 15.2394,0.8596 9.7153,-1.944 12.7555,-15.0722 7.0464,-22.1496 -4.143,-5.136 -14.3081,-5.0603 -19.5305,-5.366 z m 4.2669,22.4933 1.75,-17.1029 c 4.9263,0.2823 9.8375,1.4664 9.6682,7.9023 -0.1887,7.1717 -3.0669,10.7576 -11.4182,9.2006 z" style="fill:#00a04a" id="path39"/><path d="m 422.9172,504.2406 c -0.6756,-1.691 -1.6106,-3.1347 -2.7843,-4.301 -1.1806,-1.1763 -2.624,-2.0619 -4.296,-2.6367 -1.6583,-0.5681 -3.576,-0.7753 -5.6882,-0.6182 -1.9893,0.1504 -3.7739,0.6049 -5.3094,1.3568 -1.5525,0.7619 -2.856,1.8079 -3.8694,3.1079 -1.01,1.2933 -1.747,2.8606 -2.1906,4.6619 -0.4368,1.7712 -0.5732,3.7663 -0.4027,5.9385 0.1604,2.0452 0.5698,3.92 1.2182,5.5775 0.662,1.691 1.5935,3.1447 2.7673,4.311 1.184,1.1797 2.6308,2.0653 4.296,2.6367 1.2966,0.4445 2.7502,0.6684 4.3369,0.6684 0.4402,0 0.8906,-0.0201 1.3512,-0.0535 1.9586,-0.1437 3.733,-0.6015 5.2718,-1.3535 1.5525,-0.7586 2.8594,-1.8046 3.8865,-3.1079 1.0237,-1.3 1.7709,-2.8673 2.2247,-4.6585 0.4504,-1.7712 0.5937,-3.7729 0.4231,-5.9452 -0.157,-2.0452 -0.5732,-3.9233 -1.2352,-5.5842 v 0 z m -6.7476,13.4631 c -0.969,1.4022 -2.388,2.1557 -4.3304,2.2917 -1.0521,0.0713 -1.9679,-0.069 -2.7397,-0.4286 -0.7794,-0.3597 -1.4152,-0.8916 -1.9455,-1.6155 -0.5532,-0.7556 -1.0011,-1.6994 -1.3362,-2.8038 -0.3388,-1.1319 -0.5608,-2.4284 -0.6587,-3.8459 -0.2236,-3.2643 0.1748,-5.6859 1.1754,-7.1942 0.9655,-1.4534 2.3615,-2.2228 4.2693,-2.359 0.2081,-0.0143 0.4046,-0.0208 0.6011,-0.0194 0.8474,0.006 1.5898,0.1608 2.2156,0.4603 0.7755,0.3715 1.4418,0.9311 1.9837,1.663 0.5685,0.7715 1.0088,1.7113 1.3054,2.8075 0.3194,1.1436 0.5262,2.4163 0.6206,3.7827 0.2307,3.3746 -0.1602,5.8159 -1.1603,7.2612 h -10e-5 z" style="fill:#00a04a" id="path40"/><polygon points="455.4333,505.4806 453.6876,486.7963 459.9157,484.7674 461.7086,512.3692 454.8671,514.6812 445.525,500.1961 446.5158,517.4649 439.5328,519.7297 424.9534,496.3272 431.2287,494.2039 440.618,510.3876 439.4856,491.6089 445.4778,489.4857 " style="fill:#00a04a" id="polygon40"/></g></g><g id="g44"><path d="m 260.3365,379.9249 0.519,-2.3355 c 3.5859,-0.4246 4.388,-1.4155 5.1665,-3.0433 l 2.5714,0.0236 -3.2556,15.4287 -3.3555,-0.0253 2.1523,-10.0246 c -1.2975,0.0236 -2.7366,-0.0236 -3.7982,-0.0236 z" style="fill:#00a04a" id="path41"/><path d="m 270.407,386.1736 3.0433,-0.0531 c 0.0437,0.6283 0.3544,1.0296 0.6211,1.2941 0.2667,0.2645 0.6968,0.5294 1.1659,0.546 0.6008,0.0212 1.2761,-0.1499 1.7517,-0.5485 0.8493,-0.5662 1.5216,-1.4686 2.424,-3.9633 -0.8493,0.7962 -1.3447,1.4332 -3.3579,1.5216 -1.3986,0.0614 -2.6316,-0.6312 -3.5072,-1.5039 -0.8756,-0.8727 -1.1924,-1.9162 -1.1409,-3.372 0.0576,-1.6304 0.689,-3.0584 1.8942,-4.2839 1.2052,-1.2255 2.6903,-1.7186 4.6078,-1.6508 1.6953,0.0599 3.0341,0.7343 3.8926,1.8578 0.8585,1.1235 1.1806,2.6308 1.1147,4.4941 -0.1016,2.8751 -0.7761,5.3534 -2.2825,7.2897 -1.5064,1.9363 -3.4732,2.6084 -5.8187,2.5255 -1.3744,-0.0486 -2.4608,-0.435 -3.2592,-1.1592 -0.7984,-0.7242 -1.0945,-1.7387 -1.149,-2.9941 z m 9.3599,-6.6173 c 0.0298,-0.8443 -0.1839,-1.5893 -0.5485,-1.9994 -0.3646,-0.4101 -0.9974,-0.7056 -1.557,-0.7254 -0.6913,-0.0244 -1.4941,0.2026 -2.0524,0.7077 -0.5573,0.5043 -1.0253,1.3836 -0.9731,2.6717 0.0619,1.5305 1.4348,2.1313 1.964,2.2117 1.3978,0.2123 2.513,-0.6067 2.7956,-1.2562 0.2826,-0.6495 0.3476,-0.9332 0.3716,-1.6101 z" style="fill:#00a04a" id="path42"/><path d="m 512.3656,377.3489 0.634,-2.8384 h 11.0047 l -0.5131,2.6955 c -0.707,0.5284 -1.3778,1.1973 -2.2648,2.2294 -0.9731,1.1324 -4.2464,5.6442 -5.4319,10.5099 l -3.3264,0.0708 c 1.3447,-6.1396 6.1295,-11.1836 7.4666,-12.6331 z" style="fill:#00a04a" id="path43"/><path d="m 523.1786,384.8987 c 0,-1.5906 0.2143,-3.3518 0.8257,-4.9855 0.75,-1.9936 1.5392,-3.3692 2.713,-4.3408 1.1738,-0.9716 2.7421,-1.4155 4.1768,-1.4155 1.451,0 2.4862,0.6522 3.4196,1.5806 0.9334,0.9284 1.4391,2.24 1.4391,4.0105 0,1.6194 -0.2224,3.1805 -0.903,4.9834 -0.6806,1.8029 -1.5998,3.1848 -2.7573,4.1456 -1.1575,0.9608 -2.4618,1.4412 -3.9128,1.4412 -1.451,0 -2.6472,-0.4642 -3.5888,-1.3927 -0.9416,-0.9285 -1.4123,-2.2707 -1.4123,-4.0268 z m 4.8192,2.9903 c 2.4301,0.3556 3.5397,-2.7702 4.0983,-4.8147 0.4454,-1.623 1.1306,-5.6996 -1.3447,-6.1809 -2.5479,-0.4954 -3.5763,2.9389 -4.0577,4.8362 -0.4011,1.5806 -0.9672,5.827 1.3041,6.1594 z" style="fill:#00a04a" id="path44"/></g><g id="g55"><path d="m 364.952,461.704 54.2363,0.4718 V 451.89 c 0,-3.0905 0.7785,-4.5059 3.869,-5.827 3.0905,-1.3211 4.2228,-1.7222 5.6147,-3.5387 1.3919,-1.8165 9.3303,-11.3356 10.1089,-12.2557 0.7786,-0.9201 2.6894,-2.831 3.3618,-3.8926 0.6724,-1.0616 3.2556,-4.9188 4.1403,-6.8297 0.8847,-1.9109 2.7248,-3.751 3.6802,-5.2019 0.9554,-1.4509 4.5649,-6.6173 5.4496,-8.2805 0.8847,-1.6632 1.3801,-1.0616 2.0524,-7.2189 0.6723,-6.1573 3.2202,-16.5021 4.73,-20.3711 1.5098,-3.869 3.9161,-9.8611 7.6908,-15.0512 3.7747,-5.1901 5.7563,-7.7851 2.0288,-10.3802 -3.7275,-2.5951 -10.7576,-3.2556 -15.2871,-0.3303 -4.5295,2.9253 -9.3893,10.1442 -11.7484,14.2963 -2.3591,4.1521 -4.4352,8.7288 -5.3788,9.814 -0.9436,1.0852 -2.7838,2.5479 -4.2936,3.3971 -1.5098,0.8492 -3.5859,2.2176 -3.5859,2.2176 0,0 -2.076,-18.0709 -1.7929,-25.9268 0.2831,-7.8559 0.5662,-10.6868 0.637,-12.9516 0.0708,-2.2648 -0.4954,-20.3829 -0.8493,-24.5585 -0.3539,-4.1756 -1.2032,-13.3055 -1.557,-16.1364 -0.3538,-2.8309 -3.1848,-7.7851 -8.2805,-7.0066 -5.0957,0.7785 -6.9358,3.9633 -7.0774,6.7943 -0.1416,2.831 -0.9908,19.4628 -1.2032,23.3554 -0.1869,3.4257 -1.4152,24.2829 -1.7072,29.2364 -0.0111,0.1885 -0.2763,0.2122 -0.3263,0.0302 -0.8984,-3.2655 -4.1232,-13.3382 -10.2104,-15.4657 -7.2897,-2.5479 -13.5178,-0.9201 -14.2963,8.2805 0,0 -4.8126,-6.3696 -12.7393,-2.4771 -7.9267,3.8925 -5.7327,12.6685 -5.7327,12.6685 0,0 -2.831,-3.114 -7.6436,-1.2032 -4.8126,1.9109 -6.0865,10.8284 -6.0865,13.5178 0,2.6894 -1.7222,14.6974 -0.7785,30.2676 0.9437,15.5702 1.3211,18.2125 2.6422,22.9307 1.3211,4.7182 8.776,23.4025 10.2858,26.0448 l 0.0472,11.8664 z" id="path45"/><path d="m 365.9486,460.7122 -0.044,-11.1428 -0.131,-0.2287 c -1.4185,-2.4823 -8.8907,-21.1745 -10.191,-25.8175 -1.2924,-4.6147 -1.6589,-7.0803 -2.6069,-22.7215 -0.7124,-11.7526 0.1016,-21.4408 0.539,-26.6452 0.1402,-1.6677 0.2414,-2.8727 0.2414,-3.5617 0,-2.6714 1.3428,-10.9552 5.4551,-12.5882 0.9186,-0.3645 1.8207,-0.5497 2.6816,-0.5497 2.4251,0 3.7996,1.44 3.8568,1.5011 l 2.6386,2.8209 -0.9318,-3.742 c -0.0796,-0.3249 -1.8837,-8.0473 5.203,-11.5274 1.5641,-0.7676 3.1087,-1.1571 4.5907,-1.1571 4.3019,0 6.8854,3.3085 6.9108,3.3418 l 1.5734,2.0547 0.2204,-2.5761 c 0.474,-5.6056 3.0403,-8.448 7.6276,-8.448 1.5925,0 3.3897,0.3455 5.3413,1.0276 5.6515,1.9755 8.7583,11.8176 9.5763,14.7871 0.1397,0.5136 0.5932,0.8595 1.1258,0.8595 0.6147,0 1.1258,-0.4803 1.1639,-1.0936 l 0.1046,-1.7811 c 0.4075,-6.9215 1.4327,-24.357 1.6017,-27.4632 0.214,-3.893 1.0633,-20.5275 1.205,-23.3597 0.0733,-1.4854 0.8287,-5.03 6.2291,-5.8543 0.3059,-0.0469 0.6108,-0.0709 0.9059,-0.0709 3.8543,0 5.9594,4.0459 6.2301,6.212 0.3577,2.8639 1.2206,12.1802 1.5529,16.0966 0.3557,4.2042 0.9098,22.3712 0.8453,24.443 -0.0254,0.8321 -0.0801,1.741 -0.1534,2.9523 -0.128,2.127 -0.3039,5.0403 -0.4828,9.994 -0.2824,7.8416 1.7141,25.3362 1.7992,26.0775 l 0.1857,1.6169 1.3594,-0.8957 c 0.0195,-0.0137 2.064,-1.3589 3.525,-2.1808 1.6066,-0.9035 3.5231,-2.4231 4.559,-3.613 0.5893,-0.6777 1.3711,-2.17 2.7031,-4.7495 0.8385,-1.6242 1.7894,-3.4654 2.7901,-5.2264 2.7227,-4.7911 7.3471,-11.3192 11.4213,-13.9505 1.7581,-1.1356 4.1231,-1.761 6.6581,-1.761 2.8419,0 5.6506,0.7745 7.5142,2.0723 1.2323,0.858 1.4669,1.5035 1.5363,1.9145 0.2502,1.485 -1.3721,3.7151 -3.6179,6.8018 l -0.1847,0.2536 c -3.998,5.4986 -6.4803,11.8592 -7.8142,15.2762 -1.5548,3.9843 -4.1231,14.4944 -4.7925,20.6267 -0.5072,4.643 -0.8756,5.1913 -1.3858,5.9506 -0.171,0.2541 -0.3538,0.5277 -0.5551,0.9069 -0.6206,1.1678 -2.7451,4.2863 -4.1505,6.3493 -0.5404,0.7935 -0.9929,1.4581 -1.2509,1.8509 -0.3196,0.4837 -0.7662,1.0418 -1.2392,1.632 -0.8893,1.1102 -1.8979,2.3679 -2.5135,3.6999 -0.6958,1.5021 -2.5497,4.3567 -3.5455,5.89 -0.2257,0.3469 -0.4105,0.6313 -0.5326,0.8238 -0.4065,0.643 -1.4141,1.7337 -2.2233,2.6113 -0.4192,0.4535 -0.7984,0.8649 -1.0564,1.1698 -0.6274,0.7417 -8.7084,10.4275 -10.1401,12.294 -1.1444,1.4942 -2.0288,1.8715 -4.6547,2.9895 l -0.559,0.2375 c -3.3462,1.4317 -4.4759,3.1341 -4.4759,6.748 v 9.2762 l -52.2389,-0.4544 z" style="fill:#00a04a" id="path46"/><g id="g54"><path d="m 371.6421,389.331 c 1.0349,0 1.9687,-0.4217 2.7021,-1.2201 1.1493,-1.2524 1.5284,-3.1116 1.4683,-3.784 l -0.0371,-0.4144 -0.4144,-0.0386 c -0.0191,-0.002 -1.9335,-0.1793 -4.4407,-0.1793 -1.9795,0 -3.8338,0.2697 -4.0014,2.2267 -0.0586,0.6816 0.2033,1.3794 0.7383,1.9648 0.8448,0.9245 2.2546,1.4376 3.9692,1.4449 h 0.0156 z m -3.7263,-3.3242 c 0.0591,-0.6909 0.3337,-1.3115 3.0046,-1.3115 1.7259,0 3.1629,0.0855 3.8715,0.1368 -0.0938,0.6592 -0.4393,1.7894 -1.1849,2.602 -0.5492,0.5976 -1.1972,0.8781 -1.9765,0.8962 -1.9316,-0.008 -2.8556,-0.7046 -3.2343,-1.119 -0.3391,-0.3714 -0.514,-0.8102 -0.4803,-1.2045 z" id="path47"/><path d="m 387.3053,393.6119 c 2.917,-0.6763 5.6016,-1.8575 6.1693,-5.4802 1.3172,2.0273 3.9821,3.2442 6.4062,3.2442 0.3298,0 0.6553,-0.023 0.9729,-0.0689 2.5614,-0.3719 6.877,-1.7386 6.9865,-6.7119 0.0919,-4.2076 -0.5267,-20.8109 -0.8287,-23.7481 l -0.0215,-0.2165 c -0.3225,-3.1409 -1.3007,-12.6986 -2.9797,-17.2449 l -0.9382,0.3469 c 1.634,4.427 2.6034,13.8899 2.922,16.9996 l 0.0225,0.2174 c 0.1149,1.1221 0.2765,4.2541 0.4268,7.9204 -1.1744,-2.0992 -2.8344,-3.7086 -2.9335,-3.8037 l -0.6919,0.7227 c 0.0322,0.0313 3.2357,3.1331 3.7214,6.1358 l 0.0219,-0.003 c 0.1866,5.1296 0.3252,10.5074 0.2782,12.6518 -0.0938,4.237 -3.8807,5.417 -6.1304,5.7439 -2.8101,0.4041 -6.3982,-1.2734 -6.987,-4.1353 -0.2424,-1.1771 -0.8532,-4.0821 -1.5597,-7.4424 -1.2133,-5.7693 -2.7227,-12.9493 -3.1102,-14.918 -0.6079,-3.0848 -3.2323,-14.8042 -3.2587,-14.9224 l -0.9763,0.2189 c 0.0264,0.1178 2.6474,11.825 3.2528,14.897 0.389,1.9746 1.8993,9.158 3.1131,14.9302 0.5847,2.7812 1.1002,5.2339 1.399,6.6691 l -0.0372,0.003 c 0.3987,4.6982 -1.7957,6.169 -5.4654,7.0192 -3.5895,0.8341 -7.4082,-3.6442 -8.2452,-5.7375 -0.2747,-0.6865 -0.7053,-1.8479 -1.2151,-3.248 -0.0378,-0.1922 -0.0732,-0.3834 -0.1306,-0.5843 l -0.074,0.0211 c -0.4007,-1.1047 -0.8407,-2.3272 -1.2927,-3.5838 -0.925,-2.5717 -1.9071,-5.3022 -2.7095,-7.4561 -1.783,-4.7852 -5.7874,-12.5745 -5.8279,-12.6527 l -0.8893,0.4583 c 0.0396,0.0777 4.0176,7.8142 5.7791,12.5437 0.8018,2.151 1.7825,4.8776 2.7061,7.4453 0.5234,1.4555 1.0308,2.8653 1.4798,4.0989 0.596,3.3919 -2.3363,5.139 -2.6926,5.3367 -0.4642,0.2589 -4.5775,2.2533 -9.9991,-4.7043 -0.0566,-0.4444 -0.234,-2.2005 0.2757,-3.645 l -0.944,-0.3332 c -0.2984,0.8463 -0.3899,1.7516 -0.4035,2.5143 -5.6041,-8.0452 -8.4168,-17.7428 -8.4452,-17.8427 l -0.9626,0.2746 c 0.0303,0.1051 3.0672,10.5853 9.136,18.9121 3.7703,5.1737 7.1277,6.275 9.3036,6.275 1.3975,0 2.3073,-0.4549 2.5258,-0.5766 0.3226,-0.1791 2.4245,-1.4356 3.0891,-3.8195 0.1363,0.3606 0.2615,0.6873 0.3616,0.9375 0.9636,2.4085 4.5927,6.4656 8.3014,6.4656 0.3665,0 0.7334,-0.0396 1.0989,-0.1241 z" id="path48"/><path d="m 382.632,390.9929 c 1.3091,1.1972 2.43,1.6364 3.5548,1.6364 1.0457,0 2.0938,-0.3797 3.2983,-0.8835 3.0339,-1.269 2.062,-4.0063 1.0335,-6.9039 -1.1121,-3.1351 -3.5558,-3.3252 -5.5191,-3.4776 l -0.1969,-0.0156 c -3.5631,-0.2746 -4.8404,1.5929 -5.4962,3.0276 -0.9523,2.0826 1.2827,4.7476 3.3256,6.6166 z m -2.4158,-6.2003 c 0.5654,-1.2367 1.4737,-2.472 3.8822,-2.472 0.1979,0 0.4061,0.008 0.625,0.0259 l 0.1984,0.0156 c 1.933,0.15 3.7591,0.2922 4.6538,2.8145 1.1063,3.116 1.5876,4.7828 -0.4764,5.6457 -2.4666,1.032 -3.7596,1.2905 -5.7918,-0.5683 -2.5038,-2.2907 -3.6306,-4.2814 -3.0911,-5.4615 z" id="path49"/><path d="m 396.6949,388.9489 c 0.8673,0.5917 1.8812,0.8883 3.0286,0.8883 0.5253,0 1.0784,-0.0625 1.6589,-0.1871 4.3361,-0.9323 4.2814,-4.5629 4.2277,-8.0742 -0.006,-0.3958 -0.0117,-0.7935 -0.0117,-1.1908 0,-2.2946 -1.0359,-5.03 -5.9731,-5.03 -2.1954,0 -3.1629,0.3381 -4.6298,1.1473 -1.7376,0.9592 -1.288,5.437 -0.8654,8.0209 0.3137,1.915 1.2485,3.5279 2.5648,4.4256 z m -1.2157,-11.5699 c 1.2602,-0.6958 2.0801,-1.0232 4.1461,-1.0232 3.3462,0 4.9723,1.3178 4.9723,4.0293 0,0.4021 0.006,0.8053 0.0117,1.206 0.0518,3.3916 0.0958,6.321 -3.438,7.0808 -1.5646,0.3372 -2.8829,0.1525 -3.9125,-0.5497 -1.0911,-0.7437 -1.8715,-2.1143 -2.1407,-3.76 -0.5996,-3.6638 -0.451,-6.535 0.3611,-6.9831 z" id="path50"/><path d="m 414.1993,357.9226 -0.7457,0.6665 c 0.1329,0.149 2.9709,3.2558 8.3078,3.2558 0.688,0 1.419,-0.0518 2.1901,-0.1681 l -0.1485,-0.99 c -6.2057,0.9343 -9.5694,-2.7276 -9.6036,-2.7642 z" id="path51"/><path d="m 414.7192,360.9892 -0.3733,0.3337 -0.3743,0.3318 c 0.0635,0.0718 1.5284,1.6873 4.3645,1.6873 0.1222,0 0.2482,-0.003 0.3753,-0.009 l -0.0489,-0.9997 c -2.5868,0.1241 -3.8886,-1.2836 -3.9433,-1.3437 z" id="path52"/><path d="m 466.2994,360.6223 c -1.591,4.0777 -1.288,7.352 -0.858,8.6439 l 0.9499,-0.3157 c -0.3616,-1.0848 -0.6499,-4.1446 0.8405,-7.9647 1.2851,-3.2929 3.7615,-3.6227 6.02,-3.5035 l 0.0508,-0.9997 c -1.4454,-0.0743 -5.2821,-0.2702 -7.0031,4.1397 z" id="path53"/><path d="m 403.5451,402.2285 c -3.2666,2.8093 -6.236,5.5728 -8.5307,9.3418 -1.2012,0.2019 -2.4266,0.1487 -4.0096,-0.2034 -1.353,-0.3 -1.7591,-2.3914 -2.0708,-3.9951 -0.3455,-1.7777 -2.8483,-5.4991 -2.9543,-5.6564 l -0.8297,0.559 c 0.6929,1.0271 2.5468,3.9785 2.8165,5.3652 0.3494,1.7982 0.8277,4.2619 2.8214,4.7046 1.0726,0.2385 1.999,0.3557 2.8683,0.3557 0.2485,0 0.4888,-0.02 0.7299,-0.0392 -0.8606,1.5784 -1.6118,3.3268 -2.2222,5.3233 -2.2243,7.2758 -0.559,12.5354 0.2414,15.0626 l 0.0899,0.2854 0.9548,-0.299 -0.0909,-0.2883 c -0.7696,-2.4314 -2.3718,-7.4898 -0.2385,-14.4675 2.2111,-7.2318 6.3249,-11.2034 11.0773,-15.2904 4.6117,-3.9658 12.2677,-7.6286 12.3449,-7.6647 l -0.43,-0.904 c -0.3186,0.1515 -7.8524,3.7556 -12.5677,7.8103 z" id="path54"/></g></g></g><g id="g58"><path d="m 287.7999,660.0555 c -17.9293,-7.5492 -34.113,-9.8612 -36.3777,-16.278 -0.099,-0.2805 -0.1829,-0.5539 -0.2589,-0.8238 l -0.3918,0.2157 -34.2458,-62.1061 -104.2448,-1.0294 80.399,42.4643 -101.3481,57.3739 c 11.89,2.6422 87.1933,4.1521 162.3079,1.1323 75.1146,-3.0196 52.0895,-13.3998 34.1601,-20.949 z" style="fill:#f6e600" id="path56"/><path d="m 550.3859,640.3787 35.0375,-63.8986 c 3.4818,-8.31 3.5916,-12.8485 -12.8297,-16.2629 -19.0618,-3.9633 -91.1732,-8.0906 -162.4967,-9.6252 -83.3244,-1.7929 -167.6867,6.2281 -186.0879,10.0027 -11.4762,2.3541 -11.2065,9.7359 -9.3786,14.9592 l 36.2262,65.6977 c -0.318,-5.6604 7.6827,-8.8313 43.7374,-11.7704 33.7613,-2.7521 119.8436,-4.907 149.663,-3.2084 29.8194,1.6986 94.5538,2.1232 103.9903,10.9463 1.1907,1.1133 1.8689,2.161 2.1384,3.1596 z" style="fill:#f6e600" id="path57"/><path d="m 608.4524,622.1207 80.2103,-42.0868 -104.458,0.7502 -33.9439,61.9043 c -0.1396,0.3585 -0.3359,0.7108 -0.5802,1.0581 l -0.6407,1.1684 -0.2394,-0.1311 c -4.2756,4.2285 -15.7368,7.7499 -25.8429,12.0634 -15.4759,6.6055 -60.7239,18.2597 15.0984,23.4025 75.9658,5.1526 171.3669,-0.1887 171.3669,-0.1887 L 608.4523,622.1208 Z" style="fill:#f6e600" id="path58"/></g><g id="g75"><polygon points="383.4667,575.9324 383.4667,579.1199 378.7116,579.1199 378.7117,576.0808 378.9345,575.7101 383.2438,575.7101 " style="fill:#00a04a" id="polygon58"/><path d="m 497.0545,587.0523 c 0.9201,-0.7431 2.3026,-1.8766 3.7508,-2.0081 2.4573,-0.2232 4.0565,0.8937 5.1313,3.0697 1.3801,-0.9908 2.7984,-2.2629 4.5489,-2.4542 2.4357,-0.2661 4.8503,1.2593 4.9611,3.7654 0.1861,4.2091 -0.3094,7.9602 -0.5922,12.3787 l -4.476,-0.3829 c -0.0183,-0.957 0.0355,-1.8525 0.0524,-2.4432 0.0789,-2.7527 0.2477,-5.4496 0.2526,-8.3584 0.002,-1.3095 -1.6482,-1.3695 -2.7241,-1.2532 -1.3487,0.1458 -1.8473,0.8582 -1.9165,2.1804 -0.1512,2.89 -0.3539,6.3343 -0.6016,9.6252 -0.9554,0.1769 -4.6683,-0.0824 -4.6711,-0.2831 0.1585,-2.5574 0.4735,-5.7955 0.5597,-8.353 0.0359,-1.063 0.2344,-2.6416 -0.5857,-3.4155 -1.0369,-0.9786 -2.8903,-0.4463 -3.8378,0.3364 l -0.8407,10.8735 c -0.212,0.3043 -3.9221,-0.0505 -4.5209,-0.1788 l 0.8912,-15.0065 0.1189,-0.1779 4.4997,0.1747 c 0,0.3539 -0.0774,1.513 0,1.9109 z" style="fill:#00a04a" id="path59"/><path d="m 332.9442,583.1228 c -2.7063,-1.3347 -5.3562,-2.7685 -8.4657,-1.7007 -2.3209,0.797 -2.5243,3.0097 -0.005,3.8515 3.786,1.2652 9.3906,1.0143 9.6663,6.3668 0.3491,6.7777 -7.5227,7.8525 -12.6714,7.0093 -0.7012,-0.1148 -3.1762,-0.6774 -3.4552,-1.2969 0.0121,-1.0196 0.0644,-2.8288 0.0121,-3.7112 l -0.0155,-0.7304 c 1.4137,0.8733 2.8608,1.7906 4.5031,2.1761 1.842,0.4323 6.6364,0.7186 6.58,-2.1052 -0.0142,-0.7092 -0.4515,-1.4295 -1.0941,-1.7374 -3.1159,-1.4925 -8.3562,-0.4767 -9.9845,-4.8639 -2.9859,-8.045 8.7188,-10.3549 14.1881,-7.9289 0.1716,0.0761 0.7423,0.4813 0.7423,0.5937 v 4.077 z" style="fill:#00a04a" id="path60"/><path d="m 422.7702,597.5037 c -0.212,-0.1301 -0.2376,-0.2941 -0.2305,-0.5113 0.1314,-3.9714 0.1244,-6.7152 0.1623,-9.6381 0.0488,-3.7576 0.0927,-7.5414 0.2876,-11.2837 0.9554,-0.0708 1.3143,-0.0797 2.0033,-0.0579 0.457,0.0144 2.3579,-0.1305 2.5418,0.1328 l -0.051,7.8518 c 3.0787,-3.6802 9.199,-2.9911 9.6312,2.0113 0.2293,2.6544 0.2316,7.7359 -10e-5,10.3885 -0.0364,0.4169 -0.0767,0.5518 -0.0413,1.1888 h -4.6711 c 0.0708,-1.9463 0.0956,-2.5279 0.1062,-3.0079 0.0448,-2.0275 0.2782,-5.3557 0,-7.2543 -0.4038,-2.7559 -4.8233,-2.124 -4.9896,-0.2123 -0.2123,2.4417 -0.1085,5.6154 -0.2107,7.9523 -0.034,0.7777 0.0337,1.3545 0.0337,2.3453 l -4.572,0.0948 z" style="fill:#00a04a" id="path61"/><path d="m 279.5991,586.9779 c -0.0803,0.9162 2.4664,-1.2821 2.9898,-1.5021 2.8199,-1.1849 5.6447,-0.1316 6.5818,2.8809 0.6503,2.0904 0.477,4.5905 0.5467,6.8131 0.0463,1.4746 0.0841,3.9743 0.1262,5.3832 -0.8138,0.1957 -3.7814,0.2664 -4.6893,0.2944 -0.0421,-0.757 -0.026,0.6209 -0.0575,-0.8979 -0.0476,-2.2983 0.0151,-4.539 -0.1429,-6.6772 -0.075,-1.0155 -0.1257,-2.8159 -0.6857,-3.6153 -0.9047,-1.2916 -4.3764,-0.8317 -4.4899,0.5394 -0.1124,1.3567 -0.003,3.0843 0.0348,4.4478 0.0598,2.1514 0.1605,4.269 0.2318,6.4185 -1.2762,0.0232 -3.5472,0.1283 -4.5776,0.002 l -0.6659,-21.3155 0.3925,0.028 4.0423,-0.0736 0.3628,7.2743 z" style="fill:#00a04a" id="path62"/><path d="m 341.0427,576.3031 0.1952,0.2501 c 0.4686,3.9369 -0.0988,7.9651 0.3264,11.9062 l 4.3049,-5.8172 0.523,-0.4088 h 4.978 l -4.8724,6.7233 5.764,8.6953 h -5.2751 l -4.1618,-6.2245 -0.4439,-0.1664 c -0.5984,-0.0412 -0.8053,0.8262 -0.8016,1.2925 0.0113,1.4318 0.0954,2.6304 0.1398,4.7354 0.005,0.2172 -0.0444,0.145 -0.0444,0.5165 l -4.6542,-0.028 c -0.028,-1.2617 -0.0127,-2.0501 -0.0579,-3.0225 -0.1746,-3.7588 -0.1037,-7.4942 -0.1486,-11.2674 -0.0256,-2.1476 -0.158,-4.4532 -0.1623,-6.6729 -4e-4,-0.2173 0.0184,-0.3812 0.2305,-0.5113 h 4.1607 z" style="fill:#00a04a" id="path63"/><path d="m 455.2272,591.0746 -10.5484,-0.0294 c -0.659,3.6277 3.5037,4.4167 6.2863,3.8999 1.4317,-0.2659 2.7256,-0.9487 4.0144,-1.5349 0.1229,0.6798 0.0708,1.6986 -0.1769,3.7864 -1.0262,0.46 -2.4601,0.7892 -2.9184,0.8894 -6.7967,1.4853 -13.0124,-1.6129 -11.8733,-9.3468 0.8475,-5.7542 6.8843,-8.4058 11.9101,-5.9385 2.9422,1.4444 3.8681,5.3315 3.3063,8.2741 z m -8.2004,-6.1363 c -0.6719,0.1063 -1.5568,0.6001 -1.9573,1.1596 -0.2781,0.3885 -0.8533,1.8247 -0.3906,2.1493 0.2428,0.1703 3.607,0.0443 4.2503,0.0585 0.7177,0.0159 1.7266,0.5976 1.7095,-0.652 -0.0258,-1.8839 -1.8579,-2.9929 -3.6119,-2.7154 z" style="fill:#00a04a" id="path64"/><path d="m 307.4442,592.3941 -10.469,0.7266 c -0.542,0.3803 0.3403,2.0337 0.689,2.4442 1.5919,1.8738 5.1041,1.4807 7.1479,0.6312 0.9051,-0.3762 1.4264,-0.6267 2.4238,-1.3611 0.012,0.8746 0.0296,3.3945 -0.0633,3.8645 -0.0819,0.4149 -3.4718,1.1757 -4.0656,1.2809 -6.6501,1.1783 -11.683,-2.0983 -11.0242,-9.2199 0.7256,-7.8436 12.9961,-9.7456 14.9615,-2.1821 0.1565,0.6022 0.4734,3.3742 0.3998,3.8158 z m -4.6802,-2.623 c -0.0682,-3.4957 -4.8337,-4.0937 -5.9358,-0.9479 -0.6935,1.9794 0.1088,1.4503 1.4205,1.4173 0.7042,-0.0177 3.5039,-0.0545 4.5153,-0.4694 z" style="fill:#00a04a" id="path65"/><path d="m 368.1614,581.7885 -7.4298,21.2006 h -4.9037 l 2.0537,-6.1133 -5.7686,-14.939 h 4.3836 c 0.1125,0 0.4983,0.3251 0.5541,0.485 1.0572,2.7776 1.8318,5.7065 2.9747,8.4483 0.0535,0.1284 0.297,0.9664 0.5562,0.7036 l 2.7153,-9.2272 c 0.0358,-0.1374 0.4298,-0.558 0.4809,-0.558 z" style="fill:#00a04a" id="path66"/><path d="m 272.5938,585.3256 c -1.2479,0.1362 -4.7877,0.2986 -5.5166,0.4096 -0.2282,0.0348 -0.5467,0.007 -0.4826,0.2029 l 0.7139,16.5776 -0.4142,0.0294 -3.867,0.2969 -0.6183,0.0732 -1.071,-16.7409 c -0.5131,-0.0256 -2.2584,0.0346 -2.6019,0.0445 -0.526,0.0152 -3.1823,0.0841 -3.4066,0.0841 -0.1156,0 -0.0726,-0.2651 -0.0967,-0.4419 l -0.0575,-3.3222 0.429,-0.005 16.7225,-0.8289 0.2671,3.6206 z" style="fill:#00a04a" id="path67"/><path d="m 398.9206,586.088 c -0.9437,-0.3877 -1.7537,-1.0379 -2.744,-1.3393 -1.1941,-0.3634 -3.9734,-0.7427 -4.7533,0.4556 -1.3115,2.015 3.3059,2.3352 4.527,2.7353 1.5497,0.5077 2.9591,1.2578 3.463,2.9201 0.9082,2.9964 -1.2566,5.4835 -4.0269,6.3053 -2.7525,0.8166 -6.5094,0.5717 -8.9478,-0.9215 v -3.6323 c 0.9653,0.1986 1.8224,0.9555 2.7826,1.3008 1.366,0.4913 3.3888,0.7328 4.7692,0.2294 0.9248,-0.3372 1.1228,-1.7051 0.3122,-2.1859 -2.7474,-0.9217 -7.2879,-0.9914 -7.8254,-4.6461 -0.9331,-6.3454 8.4265,-7.3275 12.4433,-4.8537 v 3.6323 z" style="fill:#00a04a" id="path68"/><path d="m 480.0255,599.2536 -13.47,-0.4549 0.7027,-20.362 4.3932,0.0833 0.3964,0.0158 -0.3983,16.5907 c 0.705,0.2299 7.6339,0.3115 8.4193,0.5365 0.118,0.5898 -0.0236,2.5714 -0.0432,3.5905 z" style="fill:#00a04a" id="path69"/><path d="m 420.1698,585.0502 h -4.235 c -0.0491,0 -0.3919,0.0436 -0.3715,0.1483 v 7.7834 c 0,0.1464 6e-4,0.7721 0.6656,1.115 1.1395,0.5877 2.8442,0.3682 3.9409,-0.003 v 3.0392 c -1.3537,0.6225 -3.6088,0.6696 -5.1109,0.5033 -4.6065,-0.5101 -4.0482,-3.8105 -4.0959,-7.3291 -0.006,-0.4284 0.1328,-4.1483 -0.1619,-5.1187 l -1.7759,-0.1383 v -2.891 l 0.01,-0.167 1.8084,-0.1577 c 0.1051,-0.1051 0.1138,-0.7222 0.1138,-0.8613 v -3.2616 c 0.0936,-0.1469 0.2051,-0.1919 0.3716,-0.2223 0.4136,-0.0755 3.6785,-0.0436 3.9355,0.0763 0.0702,0.0328 0.2994,0.2686 0.2994,0.2943 v 3.8546 l 6e-4,0.1831 4.383,0.0393 0.2229,0.2224 v 2.891 z" style="fill:#00a04a" id="path70"/><path d="m 537.8172,591.0668 -4.2319,-0.1606 c -0.0491,-0.002 -0.3933,0.0287 -0.3768,0.1341 l -0.2952,7.7778 c -0.006,0.1463 -0.0287,0.7715 0.6228,1.1395 1.1164,0.6305 2.8282,0.4758 3.9382,0.1464 l -0.1153,3.0371 c -1.3764,0.5707 -3.6316,0.5322 -5.1263,0.309 -4.5839,-0.6844 -3.9008,-3.9613 -3.815,-7.4792 0.0104,-0.4283 0.2901,-4.1402 0.0323,-5.1211 l -1.7694,-0.2055 0.1096,-2.8889 0.0159,-0.1665 1.8131,-0.089 c 0.1091,-0.1011 0.1411,-0.7174 0.1463,-0.8564 l 0.1237,-3.2593 c 0.0991,-0.1433 0.2123,-0.184 0.3797,-0.208 0.4162,-0.0598 3.6775,0.096 3.9297,0.2255 0.0689,0.0354 0.289,0.2798 0.2881,0.3054 l -0.1462,3.8519 -0.006,0.183 4.3783,0.2055 0.2143,0.2307 -0.1096,2.8889 z" style="fill:#00a04a" id="path71"/><path d="m 378.7116,582.0109 c 0.0138,-0.0493 0.231,-0.2623 0.2994,-0.2943 0.2601,-0.1215 3.5238,-0.1504 3.9317,-0.0725 0.163,0.0311 0.5239,0.2559 0.5239,0.3668 v 14.8256 l -0.2229,0.2224 h -4.3093 l -0.2229,-0.2224 v -14.8256 z" style="fill:#00a04a" id="path72"/><path d="m 483.0177,599.6028 c 0.1415,-2.8663 0.7431,-13.7301 0.9201,-15.3933 0.7273,-0.0901 2.9434,0.0274 3.7631,0.0994 0.1671,0.0147 0.6318,0.0692 0.6734,0.2469 l -0.7917,15.1532 z" style="fill:#00a04a" id="path73"/><path d="m 483.4069,581.5076 c -0.229,-0.1374 0.0354,-2.3584 0.0786,-3.4018 0.3108,-0.1964 1.0816,-0.1541 1.4691,-0.1428 0.7282,0.0211 2.0035,0.0608 2.6739,0.1479 0.2558,0.0332 0.4489,0.0566 0.5907,0.3033 l -0.0817,2.7385 c -0.0236,0.1845 -0.0479,0.6153 -0.2364,0.6153 -1.3093,0 -3.5329,-0.2557 -4.4941,-0.2603 z" style="fill:#00a04a" id="path74"/><path d="m 519.2517,587.2182 c 0.016,-0.0487 0.2423,-0.2518 0.3121,-0.2808 0.2652,-0.1099 3.527,0.005 3.931,0.1013 0.1615,0.0383 0.5121,0.2788 0.5072,0.3896 l -0.6552,14.8111 -0.2325,0.2123 -4.3051,-0.1904 -0.2128,-0.232 0.6552,-14.8111 z" style="fill:#00a04a" id="path75"/><polygon points="524.6674,581.0251 524.5265,584.2095 519.7761,583.9994 519.9105,580.9632 520.1494,580.6027 524.4545,580.7931 " style="fill:#00a04a" id="polygon75"/></g></g></g></g></svg>