<svg xmlns="http://www.w3.org/2000/svg" viewBox="0 0 181.5 181.5"><title>Manchester City FC logo</title><path d="M512,421.25A90.75,90.75,0,1,0,602.75,512,90.85,90.85,0,0,0,512,421.25" transform="translate(-421.25 -421.25)" style="fill:#00285d"/><path d="M593.31,512A81.31,81.31,0,1,0,512,593.31,81.32,81.32,0,0,0,593.31,512" transform="translate(-421.25 -421.25)" style="fill:#fff"/><path d="M563.76,512A51.76,51.76,0,1,0,512,563.76,51.79,51.79,0,0,0,563.76,512" transform="translate(-421.25 -421.25)" style="fill:#6cadde"/><path d="M512,567.87A55.87,55.87,0,1,1,567.87,512,55.93,55.93,0,0,1,512,567.87Zm0-108.61A52.74,52.74,0,1,0,564.74,512,52.81,52.81,0,0,0,512,459.26Z" transform="translate(-421.25 -421.25)" style="fill:#00285d"/><path d="M512,599a87,87,0,1,1,87-87,87.16,87.16,0,0,1-87,87m0-172.21A85.16,85.16,0,1,0,597.16,512,85.25,85.25,0,0,0,512,426.84" transform="translate(-421.25 -421.25)" style="fill:#6cadde"/><path d="M439.36,510l-1.49.36-.4-1.52,2.43-.73h1.27v8.49h-1.81V510Zm4,4.32a2.08,2.08,0,0,1,1.38-2.07,2,2,0,0,1-1.09-1.85v0c0-1.31,1.2-2.32,3-2.32s3,1,3,2.32v0a2.14,2.14,0,0,0,.25,3.85v0c0,1.56-1.38,2.47-3.27,2.47S443.32,515.78,443.32,514.32Zm4.72-.15c0-.69-.62-1.05-1.45-1.05s-1.45.4-1.45,1.05v0c0,.58.54,1.05,1.45,1.05S448,514.76,448,514.18Zm-.25-3.56a1.22,1.22,0,0,0-2.4,0v0a1.09,1.09,0,0,0,1.2,1.05A1.12,1.12,0,0,0,447.79,510.62Zm129.34,2.54a2.55,2.55,0,0,1-1.71.58c-1.82,0-3-1-3-2.72v0a3,3,0,0,1,3.23-2.94,3.15,3.15,0,0,1,2.43.91,4.18,4.18,0,0,1,1,3.19v0c0,2.72-1.27,4.61-3.67,4.61a3.88,3.88,0,0,1-2.76-1l1-1.42a2.66,2.66,0,0,0,1.85.73c1.23,0,1.6-1.2,1.67-1.92Zm0-2.21a1.31,1.31,0,0,0-1.49-1.31,1.29,1.29,0,0,0-1.45,1.27v0c0,.76.54,1.27,1.49,1.27A1.29,1.29,0,0,0,577.16,510.95Zm7.8,3.85h-4.14l-.29-1.31,4.61-5.37h1.56v5.15h1.13v1.49h-1.13v1.81H585Zm0-1.49v-2.61l-2.25,2.61Z" transform="translate(-421.25 -421.25)" style="fill:#6cadde"/><path d="M512,564.74A52.74,52.74,0,1,1,564.74,512,52.81,52.81,0,0,1,512,564.74m0-103.53A50.78,50.78,0,1,0,562.82,512,50.86,50.86,0,0,0,512,461.22" transform="translate(-421.25 -421.25)" style="fill:#fff"/><path d="M511,466.59C485,466.59,470,470,470,470a155.19,155.19,0,0,0-2.58,52.05c1.42,12.27,11.4,38.66,44.47,47.66,33.07-9,43-35.39,44.47-47.66A155.33,155.33,0,0,0,553.75,470s-15-3.41-41.06-3.41H511Z" transform="translate(-421.25 -421.25)" style="fill:#00285d"/><path d="M551.78,515.23c-.29,8.86-1.67,35.39-39.93,49.95-38-14.16-39.93-41.6-39.93-49.95Z" transform="translate(-421.25 -421.25)" style="fill:#96c1e7"/><path d="M550.62,513.78A177.34,177.34,0,0,0,547.94,474s-14.27-2.72-36-2.72-36.3,3-36.3,3a165.32,165.32,0,0,0-2.87,39.49h77.9Z" transform="translate(-421.25 -421.25)" style="fill:#fff"/><path d="M513.05,564.42l-40.37-48.79C471.2,525.69,479.37,555.31,513.05,564.42Z" transform="translate(-421.25 -421.25)" style="fill:#6caddf"/><path d="M484.7,515.3l37.35,45a46.08,46.08,0,0,0,9.22-5.7L498.64,515.3H484.7Zm26,0,27.59,33.29a51.77,51.77,0,0,0,6.64-8.78l-20.29-24.5H510.66Zm40.44,0-13.79,0,11.58,14C550.88,525,551.1,517.74,551.1,515.34Z" transform="translate(-421.25 -421.25)" style="fill:#6cadde"/><path d="M528.15,533.6a1.09,1.09,0,0,0-.69-.69l-2.29-.8a.9.9,0,0,0-.62,0,3.42,3.42,0,0,0-1.31-2c-.07-.07-.18-.11-.25-.18a2.22,2.22,0,0,0-.51-.25l-.87-.33a6.58,6.58,0,0,1-2.18-1.05,5.34,5.34,0,0,1-1.49-1.6l-.25-.36a3,3,0,0,0-.87-.91,3.29,3.29,0,0,0-2-.65,2.12,2.12,0,0,0-.47.07v0a1.19,1.19,0,0,0-.18-.8l-1.42-1.92a1,1,0,0,0-.87-.44,1.16,1.16,0,0,0-.87.4L509.53,524a1.17,1.17,0,0,0-.22.83c-.11,0-.25,0-.36,0a3.51,3.51,0,0,0-2,.62c-.07.07-.15.11-.22.18a2.08,2.08,0,0,0-.4.4c-.22.25-.4.51-.58.73a7.36,7.36,0,0,1-1.67,1.74,5.72,5.72,0,0,1-2,.94l-.4.11a3.38,3.38,0,0,0-2.43,2.61,1.24,1.24,0,0,0-.73,0l-2.29.76a1.07,1.07,0,0,0-.54,1.63l1.38,2a1.17,1.17,0,0,0,.65.44,3.42,3.42,0,0,0-.18,2.47c0,.11.07.18.11.29a3.32,3.32,0,0,0,.25.51c.18.29.36.51.54.76a6.68,6.68,0,0,1,1.16,2.11,5.39,5.39,0,0,1,.25,2.14v.44a3.5,3.5,0,0,0,.15,1.23,3.36,3.36,0,0,0,1.52,1.85,1.18,1.18,0,0,0-.15.51v2.4a1.2,1.2,0,0,0,.44.87,1.08,1.08,0,0,0,.94.15l2.32-.69a1.3,1.3,0,0,0,.51-.36,3.46,3.46,0,0,0,2.61.91,3.62,3.62,0,0,0,.58-.07c.33-.07.62-.18.91-.25a7.06,7.06,0,0,1,2.4-.44,6.24,6.24,0,0,1,2.14.4c.15,0,.25.11.4.15a3.75,3.75,0,0,0,1.23.25,3.33,3.33,0,0,0,2.32-.94,1.5,1.5,0,0,0,.47.36l2.29.73a1.08,1.08,0,0,0,.94-.15,1,1,0,0,0,.44-.83l.07-2.4a1.52,1.52,0,0,0-.15-.54,3.36,3.36,0,0,0,1.52-1.85.85.85,0,0,0,.07-.29L524,546a8.2,8.2,0,0,0,0-.94,6.83,6.83,0,0,1,.33-2.4,5.62,5.62,0,0,1,1.05-1.89,2,2,0,0,0,.25-.33,3.23,3.23,0,0,0,.4-3.63.88.88,0,0,0,.51-.36l1.38-2a.91.91,0,0,0,.22-.94Z" transform="translate(-421.25 -421.25)" style="fill:#00285d"/><path d="M510.58,538.75a1.36,1.36,0,0,1,1.34-1.34,1.34,1.34,0,0,1,1.34,1.34,1.36,1.36,0,0,1-1.34,1.34A1.34,1.34,0,0,1,510.58,538.75Z" transform="translate(-421.25 -421.25)" style="fill:#ffc758"/><path d="M511.93,527.32a3.1,3.1,0,0,0-1.42-1.92l1.42-1.81,1.34,1.81a3.47,3.47,0,0,0-1.34,1.92m-10.85,7.95a3.45,3.45,0,0,1-1.45-1.85l-2.14.73,1.31,1.89a3.13,3.13,0,0,1,2.29-.76m4.21,12.52a3.7,3.7,0,0,1-2.25.8l0,2.25,2.21-.65a3.21,3.21,0,0,1,0-2.4m13.29,0a3.52,3.52,0,0,1,.07,2.36l2.14.69.07-2.29a3.69,3.69,0,0,1-2.29-.76m4.1-12.56a3.54,3.54,0,0,1,2.29.65l1.31-1.82-2.18-.76a3.09,3.09,0,0,1-1.42,1.92m-13.5,12.6a1.82,1.82,0,0,1-1.81-1.82.13.13,0,0,0-.22-.11,4.1,4.1,0,0,0-1.2,2.36,2.25,2.25,0,0,0,2.29,2.29h.25a1.63,1.63,0,0,0,.4,0,10.4,10.4,0,0,1,3.19-.65,6.9,6.9,0,0,1,2.61.54,2.19,2.19,0,0,0,.87.18,2.25,2.25,0,0,0,2.29-2.29,3.89,3.89,0,0,0-1.2-2.36c-.07-.07-.18,0-.18.11a1.84,1.84,0,0,1-1.82,1.82c-.76,0-1.74-.65-2.69-.65s-2,.62-2.8.62Zm-1.2-2.5a1.53,1.53,0,0,0,1.52,1.52.9.9,0,0,0,.29,0s.07,0,.11,0H510a5.7,5.7,0,0,1,1.92-.4,5.26,5.26,0,0,1,1.89.4,1.46,1.46,0,0,0,.54.11,1.53,1.53,0,0,0,1.52-1.52,1.19,1.19,0,0,0-.15-.62l-.11-.22s-2.58-3.48-2.65-3.59a.34.34,0,0,0-.4-.07,2.7,2.7,0,0,1-.65.11,1.9,1.9,0,0,1-.65-.11c-.18-.07-.29-.11-.4.07s-2,2.65-2.54,3.45a1.64,1.64,0,0,0-.33.94Zm11.87-1.16a1.8,1.8,0,0,1-2.29,1.16c-.15,0-.22,0-.15.15a4.19,4.19,0,0,0,1.89,1.85,2.3,2.3,0,0,0,2.9-1.45c0-.07,0-.15.07-.22a1.07,1.07,0,0,0,.07-.36,10.26,10.26,0,0,1,.36-3.23,7.66,7.66,0,0,1,1.34-2.32,2.61,2.61,0,0,0,.44-.76,2.24,2.24,0,0,0-1.49-2.87,4.16,4.16,0,0,0-2.65.4c-.11,0-.07.15,0,.18a1.84,1.84,0,0,1,1.2,2.29c-.25.73-1.16,1.45-1.45,2.36s-.07,2.14-.29,2.83Zm-2.8.4a1.53,1.53,0,0,0,1.92-1,.68.68,0,0,0,.07-.29v-.18a5.74,5.74,0,0,1,.18-2,5.15,5.15,0,0,1,1-1.67,2,2,0,0,0,.25-.47,1.55,1.55,0,0,0-1-1.92,1.9,1.9,0,0,0-.62-.07c-.07,0-.18,0-.25,0s-4.14,1.34-4.28,1.38a.34.34,0,0,0-.18.36,5.9,5.9,0,0,1-.07.65,1.37,1.37,0,0,1-.33.54c-.11.15-.22.25-.07.4s1.92,2.65,2.54,3.45A1.62,1.62,0,0,0,517,544.6Zm2.5-11.62a1.77,1.77,0,0,1,.4,2.54c-.07.11,0,.22.11.18a3.9,3.9,0,0,0,2.36-1.23,2.28,2.28,0,0,0-.51-3.19.76.76,0,0,1-.22-.15,2.63,2.63,0,0,0-.33-.18,10.14,10.14,0,0,1-3-1.34,7.74,7.74,0,0,1-1.82-2A2.11,2.11,0,0,0,516,527a2.31,2.31,0,0,0-3.19.51,3.88,3.88,0,0,0-.44,2.61c0,.11.11.11.18,0a1.84,1.84,0,0,1,2.54-.4c.62.44,1,1.52,1.81,2.11s2.07.69,2.69,1.13ZM519,535.7a1.47,1.47,0,0,0-.33-2.11.59.59,0,0,0-.25-.15s-.07,0-.11,0,0,0-.07,0a5.32,5.32,0,0,1-1.82-.8,5.49,5.49,0,0,1-1.31-1.42,1.9,1.9,0,0,0-.36-.4,1.55,1.55,0,0,0-2.14.33,1.19,1.19,0,0,0-.25.58.62.62,0,0,0,0,.25s0,4.32,0,4.46.18.25.29.29a1.73,1.73,0,0,1,.58.29,1.33,1.33,0,0,1,.44.47c.07.15.18.25.36.18s3.12-1,4.1-1.31a1.68,1.68,0,0,0,.87-.62Zm-10.31-5.92a1.84,1.84,0,0,1,2.54.4c.07.11.22.07.22,0a4.35,4.35,0,0,0-.44-2.61,2.31,2.31,0,0,0-3.19-.51.79.79,0,0,0-.18.15c-.07.07-.18.15-.29.25a9.84,9.84,0,0,1-2.21,2.4,7.21,7.21,0,0,1-2.47,1.09,2.27,2.27,0,0,0-1.31,3.56,4.34,4.34,0,0,0,2.36,1.23c.11,0,.15-.07.07-.18a1.84,1.84,0,0,1,.4-2.54c.62-.44,1.78-.47,2.58-1.05s1.31-1.71,1.92-2.14Zm2.47,1.31a1.52,1.52,0,0,0-2.14-.33,1,1,0,0,0-.22.18s0,.07-.07.11a0,0,0,0,1,0,0,5.09,5.09,0,0,1-1.31,1.45,6.44,6.44,0,0,1-1.78.8,1.54,1.54,0,0,0-.51.22,1.48,1.48,0,0,0-.33,2.11,1.78,1.78,0,0,0,.47.44l.22.11,4.28,1.38c.22.07.29-.11.36-.18a4.75,4.75,0,0,1,.44-.47,4.33,4.33,0,0,1,.58-.29c.18,0,.33-.07.29-.29v-4.25a1.53,1.53,0,0,0-.25-1ZM502.34,539a1.82,1.82,0,0,1,1.16-2.29c.15,0,.15-.18,0-.22a4.16,4.16,0,0,0-2.65-.4A2.24,2.24,0,0,0,499.4,539c0,.07,0,.15.07.22a1.29,1.29,0,0,0,.15.33,10.79,10.79,0,0,1,1.63,2.83,6.84,6.84,0,0,1,.29,2.65,1.81,1.81,0,0,0,.11.87,2.27,2.27,0,0,0,2.9,1.45,3.87,3.87,0,0,0,1.89-1.85c.07-.07,0-.15-.15-.11a1.8,1.8,0,0,1-2.29-1.16c-.25-.73.07-1.85-.22-2.76s-1.2-1.71-1.45-2.43Zm2-1.92a1.53,1.53,0,0,0-1,1.92,1.49,1.49,0,0,0,.11.29s0,.07.07.11a0,0,0,0,0,0,0,5.13,5.13,0,0,1,1,1.71,5.73,5.73,0,0,1,.22,1.92,1.41,1.41,0,0,0,.07.54,1.53,1.53,0,0,0,1.92,1,1.37,1.37,0,0,0,.54-.33.44.44,0,0,0,.18-.18s2.54-3.48,2.61-3.63,0-.29-.07-.4a2.75,2.75,0,0,1-.33-.58,1.35,1.35,0,0,1-.07-.65c0-.18,0-.33-.18-.36s-3.12-1-4.1-1.31a1.5,1.5,0,0,0-1.05-.07Z" transform="translate(-421.25 -421.25)" style="fill:#ed3024"/><path d="M524.71,491.89l9.33-3.23a30.54,30.54,0,0,0-.58,6.9,14.4,14.4,0,0,0,2.54,6.86l-11.51,4Z" transform="translate(-421.25 -421.25)" style="fill:#ffc758"/><path d="M536,502.45a15.59,15.59,0,0,1-2.4-6.35,27.35,27.35,0,0,1,.44-7.44,26.69,26.69,0,0,1-6.13,11.43,11.94,11.94,0,0,0-2.76,4.65l-.18-22s-2.21.8-2.43.83a.54.54,0,0,0-.4.33c0,.15-.11.22-.25.25s-1.45.51-2.36.8c-.15.07-.11.22,0,.22,1.05,0,2.58-.15,2.72-.18a.35.35,0,0,0,.33-.29v0a.35.35,0,0,1,.36-.29c.11,0,.94-.11,1.45-.15l-.22,23.7h1.05v-1.71L536,502.45Z" transform="translate(-421.25 -421.25)" style="fill:#d4a11e"/><path d="M494.54,507a6.53,6.53,0,0,1-2.21-3.7,4.85,4.85,0,0,1,.76-3.92l11.33-3.88a9.76,9.76,0,0,0,0,4.79,15.38,15.38,0,0,0,2.58,5.41,31.46,31.46,0,0,0-8.17-.29c-3.85.54-4.25,1.6-4.25,1.6Zm-13-2.83a25.42,25.42,0,0,1,5.55-8.06,20.12,20.12,0,0,1,5.19-4.14,18.85,18.85,0,0,0-2.58,6.9,22.23,22.23,0,0,0,0,6s-2.11-.44-4.57-.69a18.37,18.37,0,0,0-3.63,0Z" transform="translate(-421.25 -421.25)" style="fill:#ffc758"/><path d="M492.25,492a19.24,19.24,0,0,0-2.54,6.9,22.23,22.23,0,0,0,0,6s-.54-.11-1.74-.4C482.92,503.4,492.25,492,492.25,492Zm6.64,3.12-.11-10.2h0c-.25.07-2.21.76-2.43.83a.54.54,0,0,0-.4.33c0,.15-.11.22-.29.25s-1.45.51-2.36.8c-.15.07-.11.22,0,.22,1.05-.07,2.54-.18,2.72-.18s.33-.15.33-.29v0a.35.35,0,0,1,.36-.29c.11,0,.91-.11,1.42-.15l-.07,8.71h.83Zm13.21-9.18h.8v-9.8l-2.43.83c-.29.07-.4.25-.4.33s-.11.22-.25.25-1.45.51-2.36.8c-.18.07-.11.22,0,.22,1.05,0,2.58-.18,2.72-.18a.35.35,0,0,0,.33-.29v0a.35.35,0,0,1,.36-.29c.11,0,.87-.11,1.38-.15l-.15,8.31Z" transform="translate(-421.25 -421.25)" style="fill:#d4a11e"/><path d="M510.11,478.42h0a.35.35,0,0,0,.33-.29v0a.38.38,0,0,1,.22-.25l-.29-.87a.47.47,0,0,0-.36.33q0,.16-.22.22ZM496,487.21h0a.35.35,0,0,0,.33-.29v0a.38.38,0,0,1,.22-.25l-.29-.87a.47.47,0,0,0-.36.33q0,.16-.22.22ZM522.16,485h0a.35.35,0,0,0,.33-.29v0a.38.38,0,0,1,.22-.25l-.29-.87a.47.47,0,0,0-.36.33c0,.11-.07.18-.22.25l.29.87Z" transform="translate(-421.25 -421.25)" style="fill:#ffc758"/><path d="M507,505.76a20.08,20.08,0,0,1-2.54-5.48,10.57,10.57,0,0,1,0-4.76s-1.23,4.17-4.1,6.43c-2,1.6-6.9,3-5.77,5.08.15-.29.65-.8,2.69-1.27a5.64,5.64,0,0,1,.76-.15V509H499v-3.52A36.93,36.93,0,0,1,507,505.76Z" transform="translate(-421.25 -421.25)" style="fill:#d4a11e"/><path d="M493.38,498.75s-1.31-.8-1.16-3.38a5.81,5.81,0,0,1,1.52-3.88l8.82-3a5.19,5.19,0,0,0-.18,3.3,7.46,7.46,0,0,0,2.11,3.78,32,32,0,0,0-8.42,1.42,5,5,0,0,0-2.69,1.78Z" transform="translate(-421.25 -421.25)" style="fill:#ffc758"/><path d="M498.61,493.16a17.37,17.37,0,0,0,3.92-4.76,9.31,9.31,0,0,0-.07,3.19,7.24,7.24,0,0,0,2,3.92,35.11,35.11,0,0,0-7.48,1.13c-2.54.73-3.38,1.74-3.59,2.07C492.54,496.83,496,495.3,498.61,493.16Z" transform="translate(-421.25 -421.25)" style="fill:#d4a11e"/><path d="M508.66,507.72a8.92,8.92,0,0,1-3-5.23,5.86,5.86,0,0,1,1.34-4.65l13.79-4.76a14.3,14.3,0,0,0-.07,6c.8,3.3,3.81,7.37,3.81,7.37a31.56,31.56,0,0,0-10.67-1c-4.76.62-5.19,2.32-5.19,2.32Zm-2.83-21.85a5.75,5.75,0,0,1,1.45-3.85l9.91-3.45a6.27,6.27,0,0,0,1.27,6.79,24.28,24.28,0,0,0-8.46,1.38c-2.54.87-2.8,2.11-2.8,2.11s-1.23-.4-1.38-3Z" transform="translate(-421.25 -421.25)" style="fill:#ffc758"/><path d="M513.67,483.18a21.3,21.3,0,0,0,3.48-4.61,6.27,6.27,0,0,0,1.27,6.79,27.62,27.62,0,0,0-8.24,1.38c-1.74.62-2.83,1.56-3,2.11-.62-2,4-3.48,6.46-5.66Z" transform="translate(-421.25 -421.25)" style="fill:#d4a11e"/><path d="M507.24,497.26a8.33,8.33,0,0,1-1.71-4.17c-.29-2.65,1.31-3.74,1.42-3.78l11.43-4a7.41,7.41,0,0,0,0,3.16,13.55,13.55,0,0,0,2.14,4.57s-6.1.15-9.87,1.63a7.16,7.16,0,0,0-3.38,2.54Z" transform="translate(-421.25 -421.25)" style="fill:#ffc758"/><path d="M514.83,490.66a14.23,14.23,0,0,0,3.59-5.3,9.58,9.58,0,0,0,0,3.23,12.49,12.49,0,0,0,2.32,4.57,36.08,36.08,0,0,0-9.18,1.38,9.25,9.25,0,0,0-4.32,2.76C506.74,495.16,512.36,492.76,514.83,490.66Z" transform="translate(-421.25 -421.25)" style="fill:#d4a11e"/><path d="M524.74,506.63s-3.12-4-4-7.59a15,15,0,0,1,0-6,17.79,17.79,0,0,1-4.65,8.09c-2.9,2.69-8.68,4-7.44,6.53.22-.44.87-1.38,3.23-2l0,3.27h1.09v-3.48c5.12-.76,11.8,1.09,11.8,1.09Z" transform="translate(-421.25 -421.25)" style="fill:#d4a11e"/><path d="M530,514.21c.73-.15,1.45-.29,2.5-.58a.64.64,0,0,1-.18-.15c-1.16-1.31-.94-2.65-.25-3.34,2.58-2.43,2.54-4.17,2.54-4.17a103.68,103.68,0,0,1-14.48,1.71c-.54,0-2.47.87-3,.87-1.13,0-2.29.07-3.48.07-15.54.11-19.89-.94-25-1.92a35.75,35.75,0,0,1-7.44-2l-.18.54s4.07,1.56,7,3c.62.29,3,4,3.85,5.19H473.41a154.17,154.17,0,0,1,3.09-38.51s14.16-3,35.39-3v-2.25c-22.58,0-37.61,3.19-37.61,3.19a141,141,0,0,0-3.09,50.67c1.45,11.47,11,33,40.58,42.91l1.31-1.81-1.31-1.82c-27.91-9.37-36-28.24-37.46-39.06-.33-2.4-.54-4.76-.73-7.11h38.3v-3.23H492.22c.44-1.42,1.81-1.78,3.52-1.34a19.05,19.05,0,0,0,5.23.8c4.21-.22,3.59-1.34,4-1.31,4.32.25,6,1.31,9.76,1.27a12.13,12.13,0,0,0,5-1c4.21,0,5.81,1.89,10,2.25A.43.43,0,0,0,530,514.21Z" transform="translate(-421.25 -421.25)" style="fill:#ffc758"/><path d="M549.39,473s-15-3.19-37.53-3.19V472c21.27,0,35.36,3,35.36,3a154.17,154.17,0,0,1,3.09,38.51H531.75a2.71,2.71,0,0,1-.15-3.74c2.18-2,2.18-3.27,2.18-3.27a74.78,74.78,0,0,1-13.25,1.6c-.54,0-2.83,1.05-3.41,1.09-1.13,0-2.76.07-4,.07-10.74,0-16-.22-25.3-2.21l.44.54c0,.07,4.07,1.13,4.14,1.2a6.62,6.62,0,0,0,2.4,1.92,14.72,14.72,0,0,0,5.55,1.6c4.21.25,3.41-1.31,3.81-1.31,4.32-.07,7.08,1.49,10.85,1.42,3.45-.07,3.56-1.13,3.88-1.16,3.41-.18,6.86,1.31,9.84,2.25h-17v3.23H550c-.18,2.32-.4,4.72-.73,7.11-1.42,10.82-9.58,29.69-37.5,39.06v3.63c29.66-9.95,39.17-31.44,40.62-42.91a141.62,141.62,0,0,0-3-50.71Z" transform="translate(-421.25 -421.25)" style="fill:#d4a11e"/><path d="M442.59,482.92l1.56-2.94,7-.51-3.56-6.06,1.56-2.94L461.62,477l-1.42,2.72-8.13-4.28,3.48,6.28,0,.07-7.11.73,8.09,4.25-1.42,2.69Zm14.27-22.11,2-2.07,14.45,5.34-2.21,2.36-3.19-1.23-4.07,4.32,1.42,3.09L463,474.9Zm8.28,3.3-4.61-1.78,2,4.5ZM468,450.54l2.47-1.45,10.13,4-4.5-7.41,2.61-1.56,7.3,12-2.25,1.38-10.45-4.14,4.61,7.66-2.58,1.6Zm18.91-2.43v0a7.14,7.14,0,0,1,5-9,7.27,7.27,0,0,1,5.92.54l-1.27,2.72a5.26,5.26,0,0,0-3.88-.54A4.17,4.17,0,0,0,490,447.1v0a4.19,4.19,0,0,0,5.15,3.12,4.94,4.94,0,0,0,3.09-2.61l2.43,1.38a7.22,7.22,0,0,1-4.86,4A7.06,7.06,0,0,1,486.92,448.11Zm16.88-11.29,3.09-.07.15,5.55,5.7-.15-.11-5.55,3.09-.11.36,14.08-3.12.07L512.8,445l-5.7.15.15,5.63-3.09.07Zm30.13,15.68,2.58-1.23a6.25,6.25,0,0,0,3.09,3.3c1.16.54,2.07.4,2.4-.36v0c.33-.73.07-1.27-1.82-2.83-2.25-1.85-3.59-3.34-2.43-5.88v0c1.09-2.32,3.63-3,6.24-1.78a8.18,8.18,0,0,1,4,3.81l-2.43,1.45a6.6,6.6,0,0,0-2.76-2.8c-1.05-.51-1.85-.25-2.14.36v0c-.4.83,0,1.38,2,2.94,2.29,1.89,3.3,3.48,2.29,5.7v0c-1.16,2.54-3.78,3.09-6.53,1.78a8.52,8.52,0,0,1-4.46-4.46Zm20.55.8-3.41-2.58,1.71-2.29,9.29,7.08-1.74,2.29-3.41-2.61-6.79,8.93-2.47-1.89Zm22.25,20,2.9,5.74a5.73,5.73,0,0,1,.58,4.32,4.63,4.63,0,0,1-2.32,2.54h0a4.39,4.39,0,0,1-5.26-.73l-2.94,5.34L568,487.28l2.69-4.72-1.09-2.18-4,2-1.38-2.76Zm-3.3,8.64c.69,1.34,1.78,1.74,2.83,1.23h0c1.2-.58,1.38-1.74.69-3.09l-1.38-2.76L572,479.15l1.42,2.8Zm-48.9-35.68,5.19,1.13,1.45-2.5-6.06-1.31.62-2.8,7.37,1.6.58-2.72-10.38-2.25-3,13.79,10.45,2.25.62-2.69-7.48-1.63Zm41.78,13.43-10.82,9,6.9,8.24,2.11-1.78-4.9-5.84,2.29-1.92,3.45,4.14,2.8-.94L564,465.68l2.18-1.85L571,469.6l2.11-1.78Zm-78.19,120v0a7.29,7.29,0,0,1,7.48-7.41,7.48,7.48,0,0,1,5.66,2.21l-2,2.32a5.19,5.19,0,0,0-3.67-1.63,4.25,4.25,0,0,0-4.17,4.46v0a4.25,4.25,0,0,0,4.17,4.5,5.22,5.22,0,0,0,3.78-1.67l2,2a7.42,7.42,0,0,1-5.88,2.58A7.27,7.27,0,0,1,488.11,579.7Zm16.3-7.19h3.16v14.34h-3.16Zm10.49,2.9h-4.36v-2.9h11.87v2.9h-4.36v11.43H514.9Zm14.34,5.77-5.52-8.68h3.67l3.41,5.74,3.48-5.74h3.59l-5.52,8.6v5.7h-3.16v-5.63Z" transform="translate(-421.25 -421.25)" style="fill:#00285d"/></svg>