<?xml version="1.0" encoding="utf-8"?>
<!-- Generator: Adobe Illustrator 15.1.0, SVG Export Plug-In . SVG Version: 6.00 Build 0)  -->
<!DOCTYPE svg PUBLIC "-//W3C//DTD SVG 1.1//EN" "http://www.w3.org/Graphics/SVG/1.1/DTD/svg11.dtd">
<svg version="1.1" id="Camada_1" xmlns="http://www.w3.org/2000/svg" xmlns:xlink="http://www.w3.org/1999/xlink" x="0px" y="0px"
	 width="300px" height="300px" viewBox="0 0 300 300" enable-background="new 0 0 300 300" xml:space="preserve">
<g>
	<path fill-rule="evenodd" clip-rule="evenodd" fill="#FFFFFF" d="M150,0.5c82.566,0,149.5,66.935,149.5,149.502
		c0,82.564-66.934,149.498-149.5,149.498S0.5,232.566,0.5,150.002C0.5,67.435,67.434,0.5,150,0.5"/>
	<path fill-rule="evenodd" clip-rule="evenodd" fill="#006437" d="M150,8.499c78.149,0,141.499,63.354,141.499,141.5
		c0,78.152-63.35,141.505-141.499,141.505C71.851,291.505,8.5,228.151,8.5,150C8.5,71.853,71.851,8.499,150,8.499 M150,4.757
		c80.213,0,145.241,65.028,145.241,145.242c0,80.216-65.028,145.246-145.241,145.246C69.783,295.245,4.759,230.216,4.759,150
		C4.759,69.785,69.783,4.757,150,4.757"/>
	<path fill-rule="evenodd" clip-rule="evenodd" fill="#006437" d="M221.258,47.161l1.68,3.898l-2.866,3.12l4.203-0.402l2.067,3.705
		l0.917-4.146l4.144-0.833l-3.639-2.16l0.492-4.22l-3.165,2.814L221.258,47.161z M233.611,61.005l1.165,5.107l-4.174,3.132
		l5.189,0.467l1.67,4.958l2.045-4.819l5.21-0.068l-3.928-3.443l1.544-5.002l-4.467,2.691L233.611,61.005z M244.186,78.735
		l0.074,6.752l-6.111,2.801l6.407,2.013l0.759,6.713l3.886-5.508l6.578,1.348l-4.006-5.419l3.308-5.876l-6.362,2.158L244.186,78.735
		z M251.756,101.426l-2.043,8.382l-8.451,1.51l7.298,4.547l-1.186,8.544l6.551-5.571l7.718,3.773l-3.242-7.99l5.953-6.216
		l-8.56,0.637L251.756,101.426z M48.219,101.426l2.044,8.382l8.45,1.51l-7.293,4.547l1.183,8.544l-6.55-5.571l-7.718,3.773
		l3.244-7.99l-5.954-6.216l8.558,0.637L48.219,101.426z M55.792,78.735l-0.074,6.752l6.11,2.801l-6.408,2.013l-0.757,6.713
		l-3.885-5.508L44.2,92.854l4.006-5.419l-3.309-5.876l6.362,2.158L55.792,78.735z M66.365,61.005l-1.164,5.107l4.173,3.132
		l-5.188,0.467l-1.672,4.958l-2.044-4.819l-5.208-0.068l3.925-3.443l-1.544-5.002l4.468,2.691L66.365,61.005z M78.722,47.161
		l-1.68,3.898l2.865,3.12l-4.204-0.402l-2.067,3.705l-0.917-4.146l-4.142-0.833l3.638-2.16l-0.495-4.22l3.166,2.814L78.722,47.161z
		 M238.165,143.037c1.118-2.421,2.108-4.944,3.067-7.562c-2.622-0.464-4.737-0.834-6.782-1.197c-4.95-0.793-8.216,0.834-9.824,3.009
		c-1.612,2.177-2.616,4.229-3.786,7.194c-1.17,2.964-1.099,8.391,7.26,12.116c7.278,3.361,12.734,6.717,24.285-3.142
		c6.77-5.45,9.347-3.607,11.822-3.097c3.542,1.191,3.913,2.625,3.221,6.344c-0.928,4.597-6.122,2.157-8.618,1.176
		c-0.956,3.657-1.96,6.462-3.572,10.404c1.51,0.633,3.394,1.489,5.087,2.203c7.697,3.086,16.379,1.411,18.396-7.908
		c1.208-6.259,0.84-9.305,0.84-10.393c-0.11-5.791-4.368-10.936-11.74-12.262c-7.191-1.444-11.99-1.839-22.05,5.728
		c-5.162,3.827-6.018,5.271-10.698,3.413c-2.492-0.945-4.881-1.785-3.485-4.704C232.651,142.12,233.755,141.738,238.165,143.037
		 M223.918,171.249l22.6,9.27c-1.755,3.515-2.62,5.305-5.034,8.923L223.918,171.249z M211.797,156.774
		c-1.915,2.01-3.89,4.107-6.168,6.084l49.086,61.618c2.946-4.035,5.969-8.873,8.501-13.381l-13.427-13.4
		c2.89-4.688,4.146-7.369,6.508-12.85l15.273,6.661c1.717-4.432,3.043-8.485,3.969-12.756L211.797,156.774z M206.941,207.779
		c5.397-3.504,8.666-6.261,2.004-14.069l-7.432-9.375c-4.536-6.194-7.181-2.845-10.579-1.284L206.941,207.779z M218.352,258.99
		l-39.213-80.163c5.036-1.845,9.298-3.947,13.559-6.469c5.397-3.476,9.9,0.05,14.431,4.233l11.461,10.659
		c10.86,10.104,8.895,17.639,6.484,20.066l28.505,18.725c-3.088,4.268-6.128,8.007-9.56,11.564l-27.821-22.47l-3.243,2.195
		l20.764,30.368C229.211,251.647,223.515,255.794,218.352,258.99 M168.788,181.958c2.854-0.676,4.725-1.186,7.413-2.077
		l36.616,82.448c-4.959,2.713-11.049,5.711-17.188,8.006L168.788,181.958z M166.02,182.523c-5.734,1.016-9.026,1.443-16.517,1.504
		l-1.943,94.506c14.736,0.392,29.721-2.016,42.42-6.249l-4.23-15.969c-6.799,2.18-13.43,3.8-20.038,4.394l-3.748-32.278
		c6.837-0.73,10.565-1.554,15.438-3.142l-3.242-12.019c-4.542,1.307-8.896,2.009-13.654,2.553l-2.636-22.811
		c3.561-0.105,7.289-0.726,10.573-1.561L166.02,182.523z M76.996,255.613l42.187-77.538c2.477,1.021,5.293,1.927,7.801,2.674
		l-4.625,39.938c1.26-2.887,15.661-37.412,15.661-37.56c2.197,0.356,6.382,0.735,8.217,0.813l-5.671,94.258
		c-4.83-0.131-12.281-1.251-17.549-2.498l8.049-47.571l-20.244,32.486l-0.513-39.505c-1.676,5.01-18.411,43.321-18.411,43.464
		C85.908,261.511,81.011,258.446,76.996,255.613 M50.137,230.522l54.459-60.102c-0.205-0.05,4.923,3.106,7.386,4.359l-42.055,55.781
		c4.4,4.365,6.065,5.744,11.426,9.774l-7.622,12.949C65.734,247.529,55.24,237.305,50.137,230.522 M79.025,172.342l-24.333,10.153
		c1.827,3.581,3.584,6.375,6.028,9.612L79.025,172.342z M89.619,157.923c1.969,2.053,4.405,4.37,6.808,6.407L48.4,228.388
		c-3.074-4.015-6.245-8.76-8.854-13.162l13.456-14.52c-2.965-4.471-5.591-8.267-8.018-13.961l-15.567,6.855
		c-1.732-4.521-3.194-9.529-3.914-12.994L89.619,157.923z M67.806,142.254l-17.253,4.687c0.209,1.513,0.478,2.645,0.934,4.158
		c1.252,4.134,3.187,4.067,8.042,2.298l6.311-2.355c2.527-1.129,5.051-2.266,3.72-5.146
		C68.693,144.322,67.806,142.175,67.806,142.254 M73.253,132.587c1.097,2.866,4.347,9.116,5.68,11.188
		c3.278,5.022,1.107,10.736-5.008,13.868l-12.524,6.386c-5.975,2.977-17.298,1.653-19.439-6.364
		c-0.957-2.734-1.397-4.897-2.047-7.824l-17.907,4.991c-0.424-6.481-0.48-7.613-0.096-13.131L73.253,132.587z M150,25.36
		c41.522,0,75.181,33.659,75.181,75.182c0,41.521-33.658,75.177-75.181,75.177c-41.521,0-75.18-33.656-75.18-75.177
		C74.82,59.02,108.479,25.36,150,25.36 M150,12.566c75.903,0,137.433,61.53,137.433,137.434
		c0,75.906-61.529,137.436-137.433,137.436S12.567,225.905,12.567,150C12.567,74.096,74.097,12.566,150,12.566"/>
	<path fill-rule="evenodd" clip-rule="evenodd" fill="#006437" d="M205.645,60.634c-32.617-7.645-52.525-25.313-55.638-28.451
		c-3.04,3.11-23.606,21.032-55.55,28.451c-0.633,69.825,50.997,105.711,55.55,108.776
		C154.538,166.384,206.103,131.76,205.645,60.634 M150.827,31.042c17.851,16.029,38.254,24.301,55.242,28.309
		C193.531,42.385,173.48,31.31,150.827,31.042 M93.9,59.376c16.472-3.856,36.686-12.344,55.243-28.334
		C126.486,31.315,106.431,42.398,93.9,59.376 M148.804,170.365c-35.331-24.602-56.774-68.148-55.801-109.748
		C85.017,71.957,80.32,85.782,80.32,100.707C80.32,138.79,110.874,169.728,148.804,170.365 M207.029,60.689
		c1.014,41.841-19.658,84.717-55.808,109.676c37.912-0.659,68.443-31.59,68.443-69.659
		C219.665,85.812,214.988,72.012,207.029,60.689 M149.993,29.21c39.393,0,71.335,31.935,71.335,71.335
		c0,39.395-31.942,71.331-71.335,71.331c-39.396,0-71.334-31.937-71.334-71.331C78.659,61.145,110.597,29.21,149.993,29.21"/>
	<path fill="#006437" d="M129.771,87.432V68.391c0-3.718-4.293-4.72-7.774-4.508c3.431-5.464,8.52-7.29,13.395-3.155
		c3.27-4.588,11.283-10.925,18.802-10.694c33.722,0.523,35.18,48.922,11.332,57.587c-23.089,8.391-26.66-21.25-12.229-20.232
		c9.401,0.816,6.446,16.515-2.013,11.582c3.297,9.629,24.422-0.226,13.654-19.171c7.145-7.281,0.938-21.806-9.571-21.951
		c-8.91-0.124-12.642,8.231-12.674,13.896l-0.005,53.609c-0.107,9.49,1.24,16.892,9.066,21.024
		c-7.913,3.708-16.143-1.672-17.595-9.794c-3.404,1.431-6.986,0.439-9.851-4.162c2.932-0.381,5.494-2.309,5.462-6.842V94.988
		l-3.936-3.707L129.771,87.432z M124.632,62.632c2.679-0.095,6.521,1.832,6.521,5.745v19.574l-3.388,3.331l3.388,3.13v31.618
		c0,2.213-0.501,5.687-4.431,7.191c2.86,3.457,5.55,2.828,8.642,1.12c0.659,9.525,8.252,12.668,13.277,11.595
		c-6.576-4.827-7.276-12.474-7.33-19.118V71.616c-0.003-5.439,3.753-15.078,14.084-15.054c11.546,0.025,17.941,15.167,11.164,23.236
		c11.795,21.823-16.369,32.781-17.219,16.318c9.172,7.844,11.318-6.813,3.737-7.433c-12.354-1.013-8.574,25.908,12.495,17.465
		c21.836-8.935,20.823-54.007-11.378-54.848c-7.414-0.194-14.2,5.683-18.631,11.425C132.127,59.322,128.548,58.459,124.632,62.632
		 M155.37,158.493h-10.711c2.699,2.213,4.633,3.559,5.373,4.024C150.715,162.052,152.646,160.712,155.37,158.493 M160.666,153.887
		H139.41c1.658,1.547,3.196,2.894,4.559,4.036h12.093C157.438,156.78,158.989,155.434,160.666,153.887 M165.308,149.363h-30.492
		c1.381,1.433,2.716,2.751,3.986,3.953h22.48C162.561,152.114,163.91,150.796,165.308,149.363 M165.268,98.145h1.633
		c-0.111,0.192-0.227,0.384-0.342,0.568h-1.757C164.961,98.529,165.117,98.34,165.268,98.145 M157.809,98.145h7.459
		c-0.15,0.195-0.307,0.384-0.466,0.568h-7.491C157.49,98.538,157.657,98.351,157.809,98.145 M157.218,98.145h0.591
		c-0.151,0.206-0.318,0.393-0.498,0.568h-1.07C156.609,98.593,156.938,98.395,157.218,98.145 M167.546,93.456h1.006
		c-0.032,0.192-0.071,0.381-0.109,0.571h-1.055C167.445,93.837,167.498,93.645,167.546,93.456 M159.102,93.456h8.444
		c-0.048,0.189-0.101,0.381-0.158,0.571h-8.272C159.118,93.834,159.112,93.645,159.102,93.456 M158.344,93.456h0.758
		c0.011,0.189,0.017,0.379,0.014,0.571h-0.684C158.409,93.834,158.382,93.645,158.344,93.456 M145.055,93.456h0.615
		c-0.052,0.187-0.1,0.376-0.14,0.571h-0.602C144.967,93.832,145.01,93.642,145.055,93.456 M142.691,93.456h2.364
		c-0.045,0.187-0.088,0.376-0.126,0.571h-2.238V93.456z M141.76,93.456h0.931v0.571h-0.934L141.76,93.456z M167.929,88.914h0.8
		c0.017,0.192,0.027,0.379,0.038,0.568h-0.808C167.954,89.293,167.943,89.106,167.929,88.914 M157.049,88.914h10.88
		c0.015,0.192,0.025,0.379,0.03,0.568H157.6C157.428,89.282,157.245,89.09,157.049,88.914 M154.89,88.914h2.159
		c0.196,0.176,0.379,0.368,0.551,0.568h-1.749C155.555,89.269,155.236,89.076,154.89,88.914 M147.833,88.914h2.06
		c-0.433,0.157-0.829,0.352-1.197,0.568h-1.492C147.4,89.282,147.611,89.087,147.833,88.914 M142.691,88.914h5.142
		c-0.221,0.173-0.433,0.368-0.629,0.568h-4.512V88.914z M141.765,88.914h0.926v0.568h-0.926V88.914z M166.974,84.285h0.843
		c0.058,0.192,0.112,0.381,0.165,0.571h-0.824C167.102,84.669,167.036,84.477,166.974,84.285 M142.691,84.285h24.283
		c0.063,0.192,0.128,0.384,0.184,0.571h-24.466V84.285z M141.774,84.285h0.917v0.571h-0.917V84.285z M165.049,79.68h1.158
		c-0.052,0.061-0.104,0.122-0.155,0.179c0.065,0.132,0.123,0.261,0.186,0.393h-1.052c-0.082-0.151-0.158-0.302-0.246-0.453
		C164.978,79.76,165.011,79.722,165.049,79.68 M142.694,79.68h22.355c-0.038,0.042-0.071,0.081-0.109,0.119
		c0.088,0.151,0.164,0.302,0.246,0.453h-22.492V79.68z M141.782,79.68h0.912v0.572h-0.912V79.68z M167.613,75.057h0.911
		c-0.041,0.189-0.087,0.379-0.142,0.568h-0.935C167.509,75.436,167.564,75.246,167.613,75.057 M142.694,75.057h24.919
		c-0.049,0.189-0.104,0.379-0.165,0.568h-24.754V75.057z M141.791,75.057h0.903v0.568h-0.903V75.057z M167.923,70.45h0.812
		c0.019,0.189,0.037,0.382,0.054,0.568h-0.813C167.965,70.832,167.943,70.639,167.923,70.45 M142.761,70.45h25.162
		c0.021,0.189,0.042,0.382,0.053,0.568h-25.26C142.727,70.834,142.743,70.642,142.761,70.45 M141.825,70.45h0.937
		c-0.018,0.192-0.035,0.384-0.046,0.568h-0.917C141.801,70.834,141.81,70.642,141.825,70.45 M166.628,65.823h0.87
		c0.08,0.187,0.156,0.379,0.23,0.571h-0.854C166.794,66.202,166.715,66.01,166.628,65.823 M143.918,65.823h22.71
		c0.087,0.187,0.166,0.379,0.247,0.571h-23.178C143.767,66.202,143.84,66.015,143.918,65.823 M142.949,65.823h0.969
		c-0.078,0.192-0.151,0.379-0.221,0.571h-0.976C142.794,66.202,142.871,66.015,142.949,65.823 M163.359,61.219h1.311
		c0.161,0.187,0.315,0.376,0.466,0.568h-1.21C163.741,61.595,163.556,61.403,163.359,61.219 M146.899,61.219h16.46
		c0.196,0.184,0.382,0.376,0.566,0.568h-17.555C146.542,61.595,146.716,61.403,146.899,61.219 M145.966,61.219h0.933
		c-0.183,0.184-0.357,0.376-0.528,0.568h-0.922C145.615,61.595,145.786,61.406,145.966,61.219 M150.938,107.376h3.567
		c0.988,0.294,2.048,0.492,3.179,0.568h-5.634C151.666,107.771,151.296,107.579,150.938,107.376 M142.691,107.376h8.248
		c0.357,0.203,0.728,0.396,1.112,0.568h-9.36V107.376z M141.734,107.376h0.957v0.568h-0.96L141.734,107.376z M146.418,102.75h1.397
		c0.147,0.192,0.301,0.382,0.462,0.569h-1.521C146.638,103.131,146.525,102.942,146.418,102.75 M142.691,102.75h3.728
		c0.107,0.192,0.219,0.382,0.337,0.569h-4.065V102.75z M141.742,102.75h0.949v0.569h-0.951L141.742,102.75z M144.854,98.145h0.78
		c0.045,0.187,0.092,0.379,0.148,0.568h-0.829C144.918,98.524,144.883,98.332,144.854,98.145 M142.691,98.145h2.164
		c0.029,0.187,0.063,0.379,0.099,0.568h-2.263V98.145z M141.752,98.145h0.939v0.568h-0.942L141.752,98.145z M165.895,52.558h-0.928
		c-0.533-0.204-1.077-0.399-1.637-0.569h1.229C165.017,52.168,165.458,52.356,165.895,52.558 M172.679,57.163h-0.272
		c-0.208-0.193-0.42-0.385-0.636-0.571h0.284C172.262,56.78,172.477,56.966,172.679,57.163 M176.509,61.787h-0.178
		c-0.127-0.189-0.248-0.381-0.383-0.568h0.174C176.252,61.408,176.383,61.598,176.509,61.787 M178.97,66.394h-0.183
		c-0.082-0.192-0.169-0.379-0.251-0.571h0.18C178.802,66.015,178.888,66.202,178.97,66.394 M180.548,71.018h-0.224
		c-0.048-0.187-0.101-0.379-0.153-0.568h0.221C180.443,70.639,180.496,70.832,180.548,71.018 M181.43,75.625h-0.27
		c-0.022-0.189-0.048-0.381-0.071-0.568h0.263C181.377,75.244,181.404,75.436,181.43,75.625 M181.712,80.251h-0.316
		c0.003-0.192,0.003-0.378,0.003-0.572h0.313C181.714,79.873,181.712,80.06,181.712,80.251 M181.43,84.856h-0.363
		c0.022-0.189,0.052-0.379,0.074-0.571h0.354C181.476,84.477,181.451,84.667,181.43,84.856 M180.548,89.482h-0.414
		c0.055-0.189,0.108-0.378,0.153-0.568h0.4C180.639,89.104,180.595,89.293,180.548,89.482 M179.01,94.026h-0.466
		c0.079-0.192,0.167-0.381,0.246-0.571h0.451C179.164,93.645,179.089,93.837,179.01,94.026 M176.503,98.713h-0.56
		c0.126-0.187,0.258-0.379,0.382-0.568h0.552C176.757,98.337,176.625,98.524,176.503,98.713 M172.591,103.318h-0.845
		c0.222-0.184,0.441-0.374,0.66-0.569h0.788C173,102.945,172.796,103.131,172.591,103.318 M164.577,107.944h-4.62
		c1.11-0.074,2.28-0.261,3.502-0.568h2.688c-0.209,0.08-0.411,0.167-0.62,0.244C165.205,107.738,164.889,107.846,164.577,107.944
		 M142.691,112.552h-0.968l0.002-0.571h0.965V112.552z M142.688,117.175h-0.971v-0.571h0.973L142.688,117.175z M142.688,121.783
		h-0.979v-0.572h0.979V121.783z M142.681,126.296h-0.98v-0.571h0.983C142.681,125.917,142.681,126.106,142.681,126.296
		 M142.848,130.901h-1.146l-0.01-0.083v-0.486h1.115C142.817,130.522,142.831,130.715,142.848,130.901 M143.545,135.527h-0.998
		c-0.052-0.189-0.102-0.379-0.148-0.568h1.02C143.458,135.151,143.5,135.338,143.545,135.527 M145.264,140.132h-0.979
		c-0.096-0.187-0.188-0.379-0.278-0.571h0.96C145.061,139.756,145.159,139.946,145.264,140.132 M149.222,144.761h-1.524
		c-0.202-0.187-0.397-0.374-0.587-0.571h1.411C148.747,144.382,148.98,144.574,149.222,144.761 M138.238,144.19h1.239
		c0.202,0.197,0.413,0.384,0.629,0.571h-1.222C138.665,144.577,138.447,144.387,138.238,144.19 M135.041,139.561h1.245
		c0.083,0.189,0.172,0.381,0.268,0.571h-1.26C135.207,139.946,135.121,139.756,135.041,139.561 M126.308,134.959h1.255
		c0.29,0.197,0.588,0.387,0.901,0.568h-1.521C126.729,135.352,126.516,135.165,126.308,134.959 M128.344,130.333h1.664
		c-0.024,0.154-0.053,0.296-0.086,0.431c-0.032,0.046-0.063,0.094-0.097,0.138h-2.022
		C127.995,130.728,128.175,130.536,128.344,130.333 M129.771,125.725h0.351l-0.002,0.571h-0.368
		C129.764,126.112,129.769,125.922,129.771,125.725 M129.771,121.211h0.357v0.572h-0.357V121.211z M129.771,116.604h0.365v0.571
		h-0.365V116.604z M129.771,111.98h0.374l-0.003,0.571h-0.371V111.98z M129.771,107.376h0.38v0.568h-0.38V107.376z M129.771,102.75
		h0.388v0.569h-0.388V102.75z M129.771,98.145h0.397l-0.003,0.568h-0.394V98.145z M128.143,93.456h0.839l0.502,0.571h-0.736
		L128.143,93.456z M129.771,84.285h0.383v0.571h-0.383V84.285z M129.771,79.68h0.394v0.572h-0.394V79.68z M129.771,75.057h0.405
		l-0.002,0.568h-0.402V75.057z M129.771,70.45h0.413v0.568h-0.413V70.45z M128.83,65.823h1.22c0.054,0.179,0.092,0.371,0.116,0.571
		h-0.917C129.127,66.188,128.987,65.999,128.83,65.823 M124.081,61.219h0.942c-0.171,0.181-0.341,0.371-0.509,0.568h-0.964
		C123.724,61.592,123.901,61.4,124.081,61.219 M139.199,56.592h1.639c-0.206,0.188-0.41,0.377-0.609,0.571h-1.654
		C138.777,56.972,138.984,56.78,139.199,56.592 M146.045,51.988h1.556c-0.407,0.172-0.808,0.365-1.205,0.569h-1.467
		C145.296,52.359,145.67,52.168,146.045,51.988 M161.59,47.93h-23.454c-2.033,1.308-4.3,2.677-6.776,4.059h14.686
		c-0.375,0.18-0.749,0.371-1.116,0.569h-14.604c-2.493,1.357-5.189,2.72-8.073,4.035h16.947c-0.214,0.188-0.421,0.38-0.625,0.571
		h-17.591c-3.241,1.437-6.708,2.809-10.377,4.056h13.476c-0.18,0.181-0.357,0.373-0.531,0.568h-14.666
		c-2.788,0.9-5.69,1.724-8.693,2.441c-0.002,0.535,0,1.065,0.005,1.595h28.633c0.158,0.176,0.298,0.365,0.418,0.571h-29.043
		c0.023,1.365,0.064,2.719,0.129,4.056h29.438v0.568h-29.409c0.07,1.361,0.164,2.707,0.279,4.039h29.129v0.568h-29.083
		c0.125,1.367,0.27,2.721,0.434,4.055h28.649v0.572h-28.577c0.174,1.362,0.371,2.707,0.588,4.034h27.989v0.571h-27.893
		c0.23,1.371,0.48,2.724,0.753,4.058h25.72h1.605h0.217l-0.58,0.568h-0.362h-1.488H102.75c0.28,1.343,0.582,2.669,0.899,3.973
		h24.494l0.605,0.571h-24.955c0.348,1.396,0.72,2.765,1.109,4.119h24.869v0.568h-24.703c0.402,1.368,0.827,2.713,1.269,4.036h23.434
		v0.569h-23.243c0.469,1.378,0.956,2.729,1.462,4.058h21.781v0.568H108.21c0.529,1.37,1.079,2.718,1.645,4.036h19.917v0.571h-19.669
		c0.601,1.381,1.22,2.732,1.858,4.052h17.811v0.571h-17.535c0.668,1.378,1.355,2.721,2.058,4.036h15.477v0.572H114.6
		c0.73,1.345,1.473,2.661,2.229,3.942h12.942c-0.002,0.197-0.008,0.387-0.02,0.571h-12.584c0.826,1.383,1.664,2.729,2.513,4.036
		h8.663c-0.169,0.204-0.349,0.396-0.541,0.569h-7.751c0.92,1.397,1.851,2.75,2.785,4.058h3.472c0.208,0.206,0.421,0.393,0.635,0.568
		h-3.7c1.012,1.4,2.026,2.743,3.038,4.034h8.759c0.081,0.195,0.166,0.385,0.252,0.571h-8.561c1.126,1.419,2.252,2.772,3.359,4.058
		h8.146c0.209,0.197,0.427,0.387,0.646,0.571h-8.294c1.248,1.428,2.479,2.773,3.681,4.034h31.585
		c1.211-1.26,2.449-2.605,3.713-4.034h-20.347c-0.242-0.187-0.475-0.379-0.701-0.571h21.546c1.117-1.285,2.246-2.638,3.383-4.058
		h-28.187c-0.105-0.187-0.203-0.376-0.297-0.571h28.933c1.022-1.291,2.044-2.633,3.06-4.034h-33.414
		c-0.045-0.189-0.086-0.376-0.126-0.568h33.951c0.936-1.307,1.869-2.661,2.786-4.058h-37.308c-0.017-0.187-0.03-0.379-0.042-0.569
		h37.725c0.849-1.307,1.688-2.653,2.519-4.036h-40.369c0-0.19,0-0.379,0.003-0.571h40.699c0.759-1.279,1.5-2.594,2.228-3.942
		h-42.922v-0.572h43.229c0.701-1.315,1.387-2.658,2.052-4.036h-45.281l0.002-0.571h45.552c0.635-1.32,1.253-2.671,1.851-4.052
		h-47.403v-0.571h47.646c0.564-1.318,1.111-2.667,1.636-4.036h-27.396c0.312-0.099,0.628-0.206,0.949-0.324
		c0.209-0.077,0.411-0.165,0.62-0.244h26.046c0.499-1.329,0.981-2.68,1.444-4.058h-21.046c0.205-0.187,0.409-0.374,0.604-0.569
		h20.634c0.437-1.323,0.856-2.668,1.252-4.036h-18.577c0.122-0.189,0.254-0.376,0.374-0.568h18.368
		c0.385-1.354,0.752-2.723,1.096-4.119H179.01c0.079-0.189,0.154-0.381,0.231-0.571h17.237c0.315-1.304,0.612-2.63,0.886-3.973
		h-16.816c0.047-0.189,0.091-0.378,0.14-0.568h16.792c0.267-1.334,0.514-2.688,0.74-4.058h-16.79
		c0.021-0.189,0.046-0.379,0.064-0.571h16.815c0.215-1.327,0.403-2.672,0.576-4.034h-17.174c0-0.192,0.002-0.378,0-0.572h17.24
		c0.159-1.334,0.302-2.688,0.417-4.055H181.43c-0.025-0.189-0.053-0.381-0.078-0.568h18.067c0.108-1.332,0.197-2.677,0.264-4.039
		h-19.135c-0.052-0.187-0.104-0.379-0.156-0.568h19.318c0.061-1.337,0.098-2.691,0.115-4.056H178.97
		c-0.082-0.192-0.168-0.379-0.254-0.571h21.115c0.005-0.53,0.005-1.06,0.005-1.595c-3.087-0.722-6.046-1.546-8.875-2.441h-14.452
		c-0.126-0.189-0.257-0.379-0.387-0.568h13.083c-3.756-1.25-7.268-2.625-10.529-4.056h-5.997c-0.202-0.197-0.417-0.383-0.624-0.571
		h5.341c-2.907-1.318-5.603-2.68-8.08-4.035h-3.421c-0.437-0.202-0.878-0.39-1.335-0.569h3.729
		C165.82,50.607,163.585,49.238,161.59,47.93 M155.112,43.325h-10.344c-1.599,1.208-3.525,2.579-5.752,4.038h21.713
		C158.545,45.904,156.666,44.53,155.112,43.325 M145.516,42.757h8.869c-2.257-1.798-3.738-3.167-4.379-3.829
		C149.382,39.585,147.853,40.957,145.516,42.757 M201.179,63.22c1.249,38.5-18.522,78.606-51.173,101.215
		c-31.874-22.246-52.365-62.962-51.158-101.208c14.803-3.446,34.387-11.047,51.155-26.17
		C166.117,52.232,185.894,59.624,201.179,63.22"/>
</g>
</svg>
