<?xml version="1.0" encoding="utf-8"?>
<!-- Generator: Adobe Illustrator 13.0.0, SVG Export Plug-In . SVG Version: 6.00 Build 14948)  -->
<!DOCTYPE svg PUBLIC "-//W3C//DTD SVG 1.1//EN" "http://www.w3.org/Graphics/SVG/1.1/DTD/svg11.dtd">
<svg version="1.1" id="Ebene_1" xmlns="http://www.w3.org/2000/svg" xmlns:xlink="http://www.w3.org/1999/xlink" x="0px" y="0px"
	 width="387.836px" height="566px" viewBox="0 0 387.836 566" enable-background="new 0 0 387.836 566" xml:space="preserve">
<path fill="#FFFFFF" d="M387.836,143.867c-17.267,1.909-36.25,2.055-54.725,2.803c4.172-51.514,3.22-95.759,3.22-95.759L193.917,0
	L51.503,50.911c0,0-0.952,44.246,3.22,95.759c-18.474-0.748-37.457-0.894-54.723-2.803c8.913,18.439,15.219,33.824,21.915,51.193
	c-6.188,2.436-14.077,5.002-20.373,7.689v133.636c6.763-2.888,17.093-7.735,23.547-10.377c-2.707,6.977-5.261,16.329-5.261,16.329
	l19.029,13.461C123.334,415.11,154.622,463.931,193.917,566c39.296-102.069,70.584-150.89,155.062-210.201l19.028-13.461
	c0,0-2.555-9.353-5.262-16.329c6.454,2.642,16.783,7.489,23.548,10.377V202.75c-6.297-2.687-14.186-5.253-20.373-7.689
	C372.616,177.691,378.922,162.306,387.836,143.867z"/>
<path fill="#192229" d="M378.686,209.31c-7.637-3.255-15.224-6.289-22.806-9.137c5.324-15.711,12.181-31.538,20.116-47.947
	c0,0-26.364,2.908-51.145,2.873c5.513-54.959,4.521-99.115,4.521-99.115L193.917,8.254L58.463,55.984c0,0-0.992,44.155,4.521,99.115
	c-24.78,0.035-51.145-2.873-51.145-2.873c7.937,16.409,14.792,32.236,20.117,47.947c-7.582,2.848-15.169,5.882-22.806,9.137v116.308
	c9.845-4.204,19.451-8.071,28.932-11.638c-0.349,1.392-0.696,2.788-1.07,4.189c-2.052,7.609-8.183,22.728-8.183,22.728
	c23.725,14.611,45.286,31.287,65.51,50.51c50.301,47.802,75.051,94.483,99.58,158.167c24.53-63.684,49.279-110.365,99.58-158.167
	c20.225-19.223,41.784-35.898,65.51-50.51c0,0-6.13-15.118-8.182-22.728c-0.374-1.401-0.721-2.798-1.07-4.189
	c9.48,3.566,19.087,7.434,28.931,11.638V209.31z"/>
<path fill="#005291" d="M64.816,171.614c-8.8,0.291-17.502,0.196-26.01-0.382c3.493,7.549,6.517,15.314,9.156,23.21
	c6.361-2.16,12.718-4.199,19.087-6.068C66.235,182.739,65.485,177.133,64.816,171.614z"/>
<path fill="#005291" d="M331.999,307.596c-12.215-4.139-24.297-7.716-36.461-10.749c-19.472,56.731-49.998,107.426-101.621,147.105
	c-51.623-39.68-82.148-90.374-101.621-147.105c-12.163,3.033-24.245,6.61-36.461,10.749c-0.952,4.952-2.031,9.88-3.342,14.747
	c-1.55,5.73-2.954,9.839-3.75,12.014c20.244,13.045,39.233,28.876,56.645,45.421c30.739,29.218,66.62,71.636,88.527,125.334
	c0.001-0.002,0.001-0.004,0.002-0.006c0.001,0.002,0.001,0.004,0.002,0.006c21.908-53.698,57.787-96.116,88.527-125.334
	c17.412-16.545,36.4-32.376,56.644-45.421c-0.796-2.175-2.199-6.283-3.749-12.014C334.03,317.476,332.951,312.548,331.999,307.596z"
	/>
<path fill="#005291" d="M323.019,171.614c-0.668,5.52-1.419,11.125-2.232,16.76c6.368,1.869,12.725,3.908,19.087,6.068
	c2.64-7.896,5.663-15.661,9.156-23.21C340.521,171.81,331.818,171.905,323.019,171.614z"/>
<path fill="#FFFFFF" d="M47.965,194.442c-2.64-7.896-5.663-15.661-9.162-23.21c8.508,0.578,17.215,0.673,26.01,0.382
	c-0.191-1.583-0.376-3.155-0.555-4.732c-19.474,0.543-33.073-0.995-33.073-0.995c4.774,9.865,8.843,19.91,12.241,30.087
	C44.939,195.447,46.451,194.955,47.965,194.442z"/>
<path fill="#FFFFFF" d="M174.13,142.551c-3.4-0.643-2.757,2.175-2.757,2.175l2.14,26.003c3.162-0.136,6.331-0.256,9.526-0.332
	v-23.733c0,0,0.487-2.612-2.331-3.059C180.785,143.606,174.13,142.551,174.13,142.551z"/>
<path fill="#FFFFFF" d="M236.383,124.254c1.758-4.667-0.508-9.78-4.571-13.667c-0.633-2.476,1.432-3.234,1.432-3.234
	c2.12,1.672,4.134,3.546,6.053,5.63c3.601-9.608-11.131-17.75-16.887-19.227c-6.449-1.658-14.838-0.839-20.207,2.14l-1.632,0.909
	c4.901-0.176,9.623,0.382,14.365,1.607c4.626,1.201,8.875,2.913,12.793,5.193c0.607,1.999-1.441,3.054-1.441,3.054
	c-5.676-2.938-12.478-3.602-17.485,0.226l0.819,0.261C218.868,110.12,230.943,116.649,236.383,124.254z"/>
<path fill="#FFFFFF" d="M336.974,309.334c-1.688-0.588-3.375-1.19-5.053-1.764c1.702,9.146,4.023,18.192,7.177,26.786
	c-2.571,1.657-8.106,5.324-15.64,10.904C268.896,385.634,219.667,442,193.917,505.111C172.01,451.413,136.13,409,105.388,379.777
	c-17.414-16.539-36.403-32.376-56.642-45.421c0.791-2.175,2.2-6.278,3.75-12.014c1.311-4.867,2.386-9.8,3.343-14.747
	c-1.653,0.563-3.318,1.16-4.973,1.738c-0.824,3.947-1.725,7.885-2.783,11.823c-2.295,8.498-4.995,15.058-4.995,15.058
	c21.231,13.03,41.172,29.791,59.144,46.873c40.873,38.846,71.208,81.394,91.686,134.571
	c26.462-68.723,73.697-125.404,132.262-168.73c10.407-7.706,18.564-12.714,18.564-12.714s-2.702-6.56-4.983-15.058
	C338.696,317.219,337.792,313.281,336.974,309.334z"/>
<path fill="#FFFFFF" d="M349.034,171.232c-3.637,7.835-6.67,15.58-9.232,23.19c1.537,0.518,3.069,1.015,4.602,1.552
	c3.405-10.171,7.474-20.222,12.245-30.082c-10.708,1.21-21.819,1.568-33.091,1.231c-0.176,1.497-0.356,2.994-0.532,4.496
	C331.815,171.905,340.525,171.814,349.034,171.232z"/>
<path fill="#FFFFFF" d="M89.308,182.482c-7.898-54.426-8.197-98.562-8.132-109.703l105.835-37.294l-1.954,25.692l-1.158,1.606
	c-3.662,1.362-7.391,3.501-10.862,6.455c-2.449,2.286-4.636,5.761-5.201,9.408c-12.643,2.516-23.792,7.037-29.471,13.687
	c-8.863,3.642-19.019,9.553-19.019,18.675c0,7.916,7.966,13.457,15.393,17.098c0,10.181,14.586,15.159,22.409,17.329l3.606,26.043
	c1.944-0.136,3.878-0.292,5.832-0.407l-4.242-30.313c-11.823-2.803-21.781-7.418-21.781-12.652c0-1.14,0.409-2.265,1.204-3.34
	c-9.654-3.737-15.456-8.528-15.456-13.757c0-5.269,5.894-10.096,15.676-13.848c4.387-6.299,16.572-11.401,32.407-13.743
	c-2.966-4.596,2.532-9.85,2.532-9.85c3.476-2.958,7.072-4.802,10.596-5.866l3.24-4.476l2.037-28.324c1.085-3.988,2.238,0,2.238,0
	l2.039,28.324l2.491,3.436c9.161,2.662,12.777,7.158,12.777,7.158l-1.873-0.131c-8.393,1.035-10.668,5.475-10.337,8.484
	c22.126,0.964,40.157,7.017,45.718,14.988c9.784,3.752,15.671,8.579,15.671,13.848c0,5.229-5.802,10.021-15.445,13.757
	c0.783,1.075,1.205,2.2,1.205,3.34c0,5.234-8.669,9.87-21.983,12.732l-4.154,30.223c1.954,0.115,3.883,0.276,5.821,0.407
	l3.562-25.872c8.167-2.105,22.571-6.942,22.571-17.545c7.425-3.642,15.391-9.126,15.391-17.042c0-9.122-10.155-15.033-19.021-18.675
	c-5.671-6.685-16.761-12.195-29.151-13.803c-0.639-3.978-3.185-10.512-16.34-15.726l-1.206-1.638l-2.124-25.747L306.656,72.78
	c0.206,32.512-2.099,70.585-7.865,109.763c2.477,0.598,4.952,1.185,7.424,1.823c9.397-64.769,8.242-117.207,8.242-117.207
	L193.92,24.677L73.375,67.16c0,0-1.143,52.438,8.25,117.207C84.18,183.708,86.741,183.095,89.308,182.482z"/>
<path fill="#FFFFFF" d="M213.98,142.511c-1.979,0.316-6.796,1.075-6.796,1.075c-2.265,0.367-2.365,1.834-2.365,2.758
	c0,0,0.015,10.156,0.02,24.059c3.189,0.07,6.354,0.196,9.515,0.327l2.089-25.888C216.533,144.093,216.674,142.044,213.98,142.511z"
	/>
<path fill="#FFFFFF" d="M167.025,285.535c-2.335,28.083-6.959,57.882-12.346,86.487c-16.648-23.883-29.506-51.503-39.504-80.164
	c-2.659,0.498-5.304,1.025-7.941,1.582c17.538,50.58,44.447,98.714,86.686,131.176c42.241-32.462,69.144-80.596,86.693-131.181
	c-2.672-0.558-5.354-1.09-8.041-1.602c-10.312,29.253-23.281,56.662-39.495,80.048c-5.374-28.56-9.854-57.696-12.255-86.342
	c-2.14-0.131-4.289-0.251-6.459-0.347c2.541,31.232,8.573,67.477,13.521,93.901c-2.973,3.968-6.057,7.81-9.241,11.508
	c-3.41-17.118-7.073-35.793-9.766-50.369c-0.603-3.285-1.477-5.204-2.918-4.998c-1.14,0.166-1.707,1.678-1.833,5.42l-4.521,69.194
	c-1.868,1.632-3.757,3.234-5.686,4.771c-1.946-1.547-3.848-3.145-5.726-4.776l-4.51-69.189c-0.128-3.742-0.688-5.254-1.831-5.42
	c-1.452-0.206-2.321,1.713-2.926,4.998c-2.697,14.597-6.364,33.312-9.774,50.449c-3.197-3.697-6.288-7.51-9.262-11.452
	c4.958-26.43,11.013-62.75,13.552-94.037C171.287,285.289,169.152,285.409,167.025,285.535z"/>
<polygon fill="#FFFFFF" points="168.886,207.431 174.617,207.024 171.711,201.127 "/>
<path fill="#FFFFFF" d="M193.918,181.393c-61.838,0-120.73,12.633-174.215,35.461v93.395
	c53.485-22.84,112.377-35.466,174.215-35.466c61.838,0,120.716,12.626,174.218,35.466v-93.395
	C314.635,194.02,255.757,181.393,193.918,181.393z"/>
<path fill="#192229" d="M117.431,248.939c0,5.606-2.017,9.368-6.419,10.162c-4.438,0.813-6.454-2.19-6.454-7.745v-22.171
	l-7.788,1.622v22.648c0,10.839,5.036,15.585,14.062,13.998c9.029-1.587,14.383-8.272,14.383-19.328v-19.483l3.019-3.556
	l-10.802,1.663V248.939z"/>
<polygon fill="#192229" points="147.89,211.399 136.116,212.851 136.116,210.244 145.474,209.094 147.021,205.532 136.116,206.873 
	136.116,204.271 147.634,202.86 147.634,199.083 131.626,201.047 131.626,217.301 147.89,215.307 "/>
<path fill="#192229" d="M176.507,213.187l5-0.347l-8.049-15.691l-5.833,0.407l-7.926,16.812l5.01-0.352l1.316-2.969l9.094-0.638
	L176.507,213.187z M167.707,207.431l2.825-6.303l2.906,5.896L167.707,207.431z"/>
<polygon fill="#192229" points="161.905,221.233 153.151,221.952 153.033,240.536 132.259,223.278 132.292,261.757 141.282,260.683 
	141.431,245.729 137.753,240.315 162.117,259.538 "/>
<path fill="#192229" d="M75.25,235.519c-10.97,2.858-18.315,13.571-18.315,25.214c0,11.602,7.007,18.579,17.976,15.726
	c10.93-2.848,18.316-13.562,18.316-25.164C93.227,239.647,86.175,232.681,75.25,235.519z M75.057,268.277
	c-5.601,1.457-9.382-2.742-9.382-9.814c0-7.118,3.782-13.22,9.382-14.687c5.611-1.457,9.38,2.687,9.38,9.81
	C84.437,260.657,80.667,266.81,75.057,268.277z"/>
<path fill="#192229" d="M184.566,220.209c-8.315,0.1-17.738,0.698-17.738,0.698l3.308,3.722l-0.058,33.527
	c0,0,5.854-0.055,13.368-0.312c4.083,0.101,11.866-3.365,11.866-13.411v-12.306C195.313,222.399,189.777,220.455,184.566,220.209z
	 M187.783,244.293c0,2.808-1.16,5.786-6.033,5.605l-3.616,0.181v-22.251c4.667,0.322,9.649-1.466,9.649,6.214V244.293z"/>
<polygon fill="#192229" points="285.622,219.149 273.85,216.854 273.85,214.252 282.88,215.97 284.748,213.001 273.85,210.882 
	273.85,208.279 285.361,210.525 285.361,206.752 269.359,203.644 269.359,219.887 285.622,223.047 "/>
<path fill="#192229" d="M105.56,222.173l5.437-1.06c5.955-1.155,7.293-2.134,7.293-6.514c0-4.731-1.62-4.893-8.583-3.516
	c-4.81,0.959-5.359,1.02-5.359-0.396c0-0.875,0.683-1.386,1.698-1.583l4.967-0.965c2.067-0.401,2.18,0.065,2.18,1.256l4.491-0.869
	v-0.517c0-2.848-0.487-4.711-5.658-3.707l-6.263,1.215c-5.658,1.1-5.899,3.416-5.899,6.359c0,3.998,0.771,4.736,7.519,3.435
	c5.771-1.125,6.301-1.14,6.301,0.276c0,1.256-0.967,1.557-1.918,1.738l-5.492,1.07c-1.296,0.251-1.924,0.241-1.939-1.481
	l-4.49,0.874v1.12C99.842,222.429,101.477,222.966,105.56,222.173z"/>
<polygon fill="#192229" points="259.248,214.006 249.167,212.584 249.167,200.515 244.682,199.882 244.682,216.135 259.248,218.18 
	"/>
<path fill="#192229" d="M45.616,262.536c-4.764-0.401-6.673-0.583-6.673-3.244c0-1.658,1.298-3.742,4.5-4.928
	c2.687-0.984,6.203-0.557,8.375,0.236l2.225-9.237c-2.225-0.778-6.469-0.763-10.6,0.758c-8.84,3.265-13.341,10.679-13.341,16.596
	c0,4.877,2.326,8.167,9.001,8.583c5.786,0.362,6.768,1.437,6.768,3.542c0,1.994-1.188,3.983-4.294,5.133
	c-3.563,1.311-7.544,1.221-10.596-0.025l-2.426,9.417c3.305,1.11,8.476,1.02,12.771-0.552c9.094-3.355,13.491-11.125,13.491-17.6
	C54.817,266.012,52.692,263.134,45.616,262.536z"/>
<path fill="#192229" d="M260.318,237.608c0.005-6.414-3.889-12.552-11.423-13.672l-19.377-2.125l4.048,4.43v33.402l8.207,0.919
	v-14.149l3.923,0.593l6.614,14.848l9.595,1.662l-7.816-16.811C257.46,245.664,260.349,242.636,260.318,237.608z M248.905,240.129
	c-0.341,0.02-0.698-0.005-1.09-0.055l-6.047-0.915v-8.398l5.806,0.869c2.783,0.427,4.541,2.481,4.541,4.998
	C252.064,238.803,250.965,239.983,248.905,240.129z"/>
<path fill="#192229" d="M348.8,281.547c-6.705-2.436-10.86-8.418-10.86-15.646c0-7.232,4.155-10.176,10.86-7.735
	c2.938,1.075,5.916,3.169,8.563,5.721l2.541-6.726c-3.225-3.25-7.047-5.967-11.205-7.484c-11.688-4.259-19.62,1.402-19.62,12.989
	c0,11.538,7.932,22.989,19.62,27.258c4.108,1.487,8.418,1.673,11.542,0.588l-2.486-8.563
	C355.067,282.773,351.737,282.622,348.8,281.547z"/>
<polygon fill="#192229" points="232.924,198.646 215.836,197.451 215.836,201.494 222.14,201.936 222.14,214.146 226.62,214.458 
	226.62,202.247 232.924,202.689 "/>
<polygon fill="#192229" points="314.755,245.579 329.391,249.492 329.391,241.144 306.297,234.966 306.297,251.536 302.027,250.36 
	306.297,255.123 306.297,274.214 314.755,276.479 314.755,260.597 323.213,262.857 327.422,257.157 314.755,253.776 "/>
<path fill="#192229" d="M211.426,250.275l-0.03-7.916l8.218,0.728l4.169-6.313l-12.412-1.11l0.075-7.238l14.567,0.869l-0.03-7.78
	l-23.15-1.206l-0.075,14.647l-4.31-0.412l4.319,3.973l0.15,19.182l23.236,1.351l-0.051-7.57
	C226.103,251.48,211.41,250.145,211.426,250.275z"/>
<polygon fill="#192229" points="200.777,213.242 200.777,201.032 207.086,201.147 207.086,197.104 189.993,196.808 189.993,200.851 
	196.297,200.952 196.297,213.167 "/>
<path fill="#192229" d="M280.192,244.805c-4.615-2.918-6.464-4.104-6.514-6.58c-0.03-1.547,1.186-2.797,4.279-2.185
	c2.581,0.507,5.997,2.772,8.106,4.676l2.009-7.408c-2.17-1.919-6.278-4.159-10.256-4.953c-8.519-1.672-12.758,2.833-12.657,8.354
	c0.08,4.53,2.396,8.835,8.859,12.783c5.626,3.416,6.59,4.942,6.625,6.901c0.03,1.854-1.085,3.074-4.068,2.486
	c-3.436-0.683-7.303-2.873-10.281-5.661l-2.194,7.469c3.225,2.792,8.231,5.47,12.37,6.283c8.77,1.728,12.889-3.164,12.778-9.186
	C289.174,252.938,287.069,249.135,280.192,244.805z"/>
<polygon fill="#192229" points="236.498,484.87 240.189,484.87 240.189,496.035 241.536,496.035 241.536,484.87 245.423,484.87 
	245.423,483.529 236.498,483.529 "/>
<polygon fill="#192229" points="252.57,493.705 249.366,483.529 247.211,483.529 247.211,496.035 248.558,496.035 248.558,485.412 
	251.902,496.035 253.243,496.035 256.594,485.412 256.594,496.035 257.931,496.035 257.931,483.529 255.78,483.529 "/>
<path fill="#699519" d="M89.3,182.427c-7.896-54.406-8.192-98.517-8.122-109.652l105.83-37.294l-1.949,25.691l-1.158,1.607
	c-3.667,1.367-7.396,3.506-10.87,6.459c-2.446,2.286-4.628,5.756-5.193,9.408c-12.643,2.511-23.793,7.032-29.472,13.682
	c-8.868,3.642-19.021,9.558-19.021,18.675c0,7.916,7.969,13.456,15.395,17.103c0,10.186,14.586,15.153,22.409,17.324l3.601,26.013
	C136.233,173.175,112.604,176.837,89.3,182.427 M203.976,62.81c13.15,5.209,15.701,11.743,16.345,15.721
	c12.386,1.603,23.476,7.118,29.142,13.798c8.871,3.642,19.026,9.558,19.026,18.675c0,7.916-7.966,13.406-15.391,17.047
	c0,10.598-14.404,15.435-22.571,17.54l-3.557,25.842c24.651,1.738,48.41,5.419,71.837,11.055c5.766-39.163,8.056-77.21,7.85-109.713
	l-106.016-37.36l2.129,25.747L203.976,62.81z M220.772,285.495c2.41,28.655,6.926,57.812,12.305,86.387
	c16.214-23.396,29.224-50.795,39.54-80.059C255.9,288.664,238.793,286.545,220.772,285.495 M115.115,291.844
	c10.008,28.67,22.909,56.286,39.567,80.174c5.384-28.601,10.046-58.435,12.387-86.522
	C149.003,286.545,131.866,288.675,115.115,291.844"/>
</svg>
