<svg height="387.84039" viewBox="0 0 476 716" width="257.838025" xmlns="http://www.w3.org/2000/svg"><path d="m237.739 94.615c-15.777 10.757-30.605 22.644-48.299 31.7-22.651 11.593-24.669 14.925-56.44 15.265l-133 1.999v293.273c13.369 165.892 168.392 261.215 237.74 279.148 69.346-17.933 224.891-113.256 238.26-279.148v-293.273l-133-.999c-31.771-.34-34.311-4.671-56.962-16.264-17.694-9.057-32.522-20.945-48.299-31.701z" fill="#013f8a"/><path d="m235.785 105.961c-14.132 9.865-28.05 20.209-43.5 27.989-8.367 4.158-16.576 8.871-25.651 11.356-9.271 2.474-19.102 5.016-28.635 5.267-10.026.13-19.973.059-30 0h-101l.08 284.666c.258 3.113.578 6.227.927 9.262.448 3.796.97 7.603 1.571 11.33a267.77 267.77 0 0 0 3.938 19.717c.305 1.263.595 2.483.908 3.685a270.761 270.761 0 0 0 9.351 29.518 328.866 328.866 0 0 0 1.801 4.596c.357.878.774 1.917 1.145 2.796a280.22 280.22 0 0 0 4.744 10.791c7.74 16.632 17.19 32.642 27.925 47.609 3.498 4.884 7.13 9.67 10.893 14.355 10.314 12.831 21.674 25.011 33.74 36.308 18.404 17.234 38.645 32.713 60.112 46.072 15.593 9.654 31.85 18.299 48.818 25.312 8.093 3.312 16.337 6.3 24.79 8.575 2.16-.582 4.308-1.207 6.442-1.874 9.485-2.983 18.954-6.77 28.103-10.946 20.193-9.253 39.402-20.568 57.559-33.319 14.791-10.415 28.869-21.842 42.042-34.227 18.208-17.116 34.803-36.191 48.843-56.918a298.77 298.77 0 0 0 5.539-8.47 281.843 281.843 0 0 0 5.244-8.636 285.543 285.543 0 0 0 14.737-28.779 272.938 272.938 0 0 0 7.433-18.61 287.27 287.27 0 0 0 3.271-9.725 267.099 267.099 0 0 0 9.162-39.199 284.002 284.002 0 0 0 1.89-14.882c.298-2.723.454-5.459.39-8.199l-.398-280.807c-42.352.441-84.647-.396-127 0-10.223-.191-19.752-1.22-30-3.997-10-2.998-14.764-5.988-21.614-9.484-7.26-3.617-14.468-7.369-21.307-11.735-10.402-6.493-20.256-13.795-30.345-20.75z" fill="#fff"/><path d="m235.81 124.136c-12.468 8.748-25.214 17.214-38.944 23.896-9.106 4.66-18.343 9.351-28.361 11.744-11.867 2.767-24.378 4.687-36.505 4.788-18.438-.045-36.563.14-55 0h-55v270.455c.265 2.977.574 5.949.92 8.916.111.846.241 1.915.359 2.847a254.637 254.637 0 0 0 2.854 17.115 254.257 254.257 0 0 0 5.22 21.065c4.721 16.092 11.099 31.868 18.88 46.807 11.293 21.732 25.495 41.916 41.722 60.278 7.838 8.869 16.25 17.417 25.007 25.467a368.784 368.784 0 0 0 31.444 25.885c14.052 10.339 28.826 19.711 44.209 27.966.975.519 2.13 1.128 3.175 1.681 8.36 4.364 16.912 8.369 25.662 11.901.742.29 1.699.673 2.524.999a218.83 218.83 0 0 0 8.885 3.25c.773.257 1.761.59 2.618.865.864.278 1.663.531 2.497.786 5.746-1.755 11.4-3.801 16.965-6.057 1.355-.559 2.875-1.182 4.283-1.788 8-3.402 15.818-7.216 23.491-11.291 1.211-.651 2.585-1.385 3.849-2.086 15.626-8.575 30.583-18.342 44.806-29.061a360.843 360.843 0 0 0 4.13-3.163c22.244-17.287 42.596-37.054 60.049-59.144a305.015 305.015 0 0 0 17.642-24.765c.657-1.052 1.431-2.254 2.116-3.374 14.005-22.58 24.805-47.173 31.462-72.882.321-1.215.629-2.503.955-3.788.193-.801.432-1.825.643-2.712 2.588-11.22 4.43-22.615 5.446-34.082.351-5.453.071-10.919.158-16.378.008-86.191.026-169.521.024-255.711-37.871.384-76.128-.253-114 0-11.657-.189-23.087-2.291-34.424-5.267-10.689-2.882-20.445-8.235-30.258-13.196-11.557-5.95-22.476-13.039-33.069-20.535a976.288 976.288 0 0 1 -4.248-2.971z" fill="#013f8a"/><path d="m60.999 37.657 8.495 27.742 29.506-.643-24.257 16.502 9.742 27.347-23.486-17.545-23.485 17.544 9.742-27.346-24.256-16.501 29.504.643z" fill="#ffc000"/><path d="m134.547 244.109v32.972c0 2.023-.396 3.913-1.189 5.671a14.461 14.461 0 0 1 -3.102 4.616c-1.32 1.319-2.882 2.352-4.687 3.099-1.76.748-3.631 1.121-5.612 1.121h-34.06c-1.98 0-3.851-.374-5.612-1.122-1.76-.747-3.3-1.78-4.621-3.099a15.395 15.395 0 0 1 -3.168-4.616c-.748-1.758-1.122-3.649-1.122-5.671v-32.972h11.949v33.763c0 1.143.396 2.155 1.188 3.034.836.835 1.848 1.253 3.036 1.253h30.762c1.188 0 2.201-.418 3.037-1.253.836-.879 1.254-1.89 1.254-3.034v-33.763h11.947zm18.86 0v38.049h43.503v9.43h-55.451v-47.479zm108.308 0v9.43h-45.483c-.968 0-1.782.352-2.443 1.055-.66.66-1.012 1.473-1.056 2.44v2.572c0 .967.33 1.802.99 2.506.704.659 1.54.989 2.509.989h35.646c4.269 0 7.372 1.121 9.308 3.363s2.904 5.166 2.904 8.771v4.154a13.87 13.87 0 0 1 -.726 4.418 11.814 11.814 0 0 1 -2.245 3.957c-.967 1.143-2.222 2.066-3.763 2.769-1.496.704-3.322 1.056-5.479 1.056h-49.906v-9.43h46.737c.969 0 1.783-.33 2.443-.989.703-.703 1.055-1.539 1.055-2.506v-2.637c0-.967-.352-1.78-1.056-2.44-.66-.703-1.474-1.055-2.443-1.055h-35.646c-1.673 0-3.257-.242-4.753-.726-1.497-.527-2.795-1.253-3.895-2.175a10.663 10.663 0 0 1 -2.64-3.298c-.617-1.275-.925-2.704-.925-4.286v-6.331c0-1.67.308-3.209.924-4.615.66-1.451 1.54-2.682 2.64-3.693 1.1-1.055 2.399-1.868 3.895-2.44a13.223 13.223 0 0 1 4.754-.857h48.654zm32.101 0-27.423 47.479h13.114l22.657-39.566 22.72 39.566h13.116l-27.424-47.479zm110.184 0v47.479h-15.977l-35.268-37.258v37.258h-11.755v-47.479h15.977l35.332 37.257v-37.257zm-169.381-60.559v40.124h-9.842v-16.106h-21.694l-7.829-7.969h29.524v-16.049zm-42.084 0v40.124h-9.841v-40.124zm88.823 0c1.667 0 3.226.334 4.676 1.003a11.91 11.91 0 0 1 3.806 2.619 12.215 12.215 0 0 1 2.555 3.9c.653 1.486.979 3.084.979 4.793v15.604a11.51 11.51 0 0 1 -.979 4.681 12.422 12.422 0 0 1 -2.555 3.846 12.678 12.678 0 0 1 -3.806 2.675c-1.45.669-3.009 1.003-4.676 1.003h-21.151l-7.83-7.969h27.621c1.015 0 1.849-.353 2.501-1.059.689-.743 1.033-1.597 1.033-2.563v-16.942c0-.966-.344-1.802-1.033-2.508-.652-.743-1.486-1.114-2.501-1.114h-28.926v32.155h-9.841v-40.124z" fill="#fff"/><path d="m172.518 0 8.495 27.742 29.506-.643-24.257 16.501 9.742 27.347-23.486-17.544-23.485 17.544 9.742-27.346-24.257-16.502 29.504.643zm129.999 0 8.495 27.742 29.506-.643-24.257 16.501 9.742 27.347-23.485-17.544-23.485 17.544 9.742-27.346-24.257-16.502 29.504.643zm112 37.972 8.495 27.742 29.506-.643-24.257 16.501 9.742 27.347-23.485-17.544-23.485 17.544 9.742-27.346-24.257-16.502 29.504.643z" fill="#ffc000"/><path d="m108.5 341.932-6 55.959 17.5 17.487-23 38.971-5 49.963 15 4.997 6 23.982 2 20.984 7 1 11 .999 1-3.997 15 10.992 14 20.984 10-3.997 10.444 3.997 8.556 27.979 45.706 15.322 46.294-15.322 8-26.98 11-4.996 10 3.997 14-20.984 15-10.992 2 4.996 10-1.998h7l2-21.984 5-23.982 15-4.997-3-48.964-24-39.97 17-16.987-6-55.959h-36l-24 8.993-68-16.987-69.815 16.987-24.185-8.993z" fill="#fff"/><g fill="#013f8a"><path d="m115 349.427-5 43.967 24 23.982-11-26.98zm.666 0 50.334 23.982 56-28.979-53.778 14.49-26.667-9.493zm122.334-3.59-44 25.573 43.706-13.582 44.849 13.582z"/><path d="m238 364.934-54 25.462 47-8.993 7 28.979 7-28.979 47 8.993zm122.389-15.507-50.334 23.982-56-28.979 53.778 14.49 26.667-9.493zm.833-.111 5 43.967-24 23.982 11-26.98zm-226.222 29.089 11.222 31.977-16.222 42.968 28 36.973-17-38.972 17-42.746zm51 31.977-28 20.984 22 29.978 19 2.998-4 40.969 14-42.968-12-16.987-28-12.991z"/><path d="m200 423.372 19.5-19.985-7.5 18.486 10 42.469zm76.37-.204-19.5-19.985 7.5 18.487-10 42.468zm13.5-12.99 28 20.985-22 29.977-19 2.998 4 40.97-14-42.968 12-16.988 28-12.99zm51.5-31.477-11.222 31.977 16.222 42.968-28 36.973 17-38.972-17-42.746zm-213.37 92.636 25 51.961 28-29.978-24 10.992z"/><path d="m127.5 416.377-13.5 42.968 16 64.952 36 41.969 3 13.99-14-21.984-27-18.986-6 14.989-2-21.983-10-43.968-10 15.988 3-46.965zm220.592 54.812-25 51.961-28-29.978 24 10.992z"/><path d="m348.592 416.229 13.5 42.968-16 64.952-36 41.969-3 13.99 14-21.984 27-18.986 6 14.989 2-21.983 10-43.968 10 15.988-3-46.965zm-158.185 163.879 7.593 27.128 39.706 13.213 40.294-13.213 8.111-27.128-15.111 18.135-33 7.994-33-7.994z"/><path d="m218 478.331-15 48.964 30 18.986v15.988l-21 8.994-27-4.997-6-9.992 31 5.995-40-19.985 5-10.992 35 19.986-30-32.976 5-13.99-28 32.976 20 36.973 35.481 5.995 25.519-10.289 25.963 10.289 35.037-5.995 20-36.973-28-32.976 5 13.99-29 31.976 34-18.986 5 10.992-40 19.985 31-5.995-6 9.992-26 4.997-22-8.994v-15.988l30-18.986-15.26-48.964 2.26 43.968-22 5.847-22-5.847z"/></g></svg>