<?xml version="1.0" encoding="UTF-8" standalone="no"?>
<svg
   xmlns:dc="http://purl.org/dc/elements/1.1/"
   xmlns:cc="http://creativecommons.org/ns#"
   xmlns:rdf="http://www.w3.org/1999/02/22-rdf-syntax-ns#"
   xmlns:svg="http://www.w3.org/2000/svg"
   xmlns="http://www.w3.org/2000/svg"
   xmlns:sodipodi="http://sodipodi.sourceforge.net/DTD/sodipodi-0.dtd"
   xmlns:inkscape="http://www.inkscape.org/namespaces/inkscape"
   width="420.86499"
   version="1.1"
   height="412.2774"
   viewBox="0 0 336.69199 329.82192"
   id="svg2887"
   inkscape:version="0.47 r22583"
   sodipodi:docname="Wydad_AC_Casablanca-Seite001.svg">
  <metadata
     id="metadata2954">
    <rdf:RDF>
      <cc:Work
         rdf:about="">
        <dc:format>image/svg+xml</dc:format>
        <dc:type
           rdf:resource="http://purl.org/dc/dcmitype/StillImage" />
        <dc:title></dc:title>
      </cc:Work>
    </rdf:RDF>
  </metadata>
  <sodipodi:namedview
     pagecolor="#ffffff"
     bordercolor="#666666"
     borderopacity="1"
     objecttolerance="10"
     gridtolerance="10"
     guidetolerance="10"
     inkscape:pageopacity="0"
     inkscape:pageshadow="2"
     inkscape:window-width="1152"
     inkscape:window-height="804"
     id="namedview2952"
     showgrid="false"
     inkscape:zoom="2.2125"
     inkscape:cx="218.26885"
     inkscape:cy="399.8756"
     inkscape:window-x="-4"
     inkscape:window-y="-4"
     inkscape:window-maximized="1"
     inkscape:current-layer="svg2887" />
  <defs
     id="defs2889">
    <inkscape:perspective
       sodipodi:type="inkscape:persp3d"
       inkscape:vp_x="0 : 120.625 : 1"
       inkscape:vp_y="0 : 1000 : 0"
       inkscape:vp_z="241.25 : 120.625 : 1"
       inkscape:persp3d-origin="120.625 : 80.416667 : 1"
       id="perspective2956" />
    <clipPath
       id="Clip0">
      <path
         d="m 0,0 192.756,0 0,192.756 L 0,192.756 0,0 z"
         transform="translate(0,0.244141)"
         id="path2892" />
    </clipPath>
  </defs>
  <g
     id="Hintergrund"
     transform="matrix(2.1011731,0,0,2.0582995,-34.160452,-33.966058)">
    <g
       id="Gruppe1"
       clip-path="url(#Clip0)">
      <path
         style="fill:#da0010;fill-rule:evenodd;stroke:none"
         d="M 80.1045,0 C 124.227,0 160.24,36.0126 160.24,80.1357 160.24,124.259 124.227,160.24 80.1045,160.24 35.9815,160.24 0,124.259 0,80.1357 0,36.0126 35.9815,0 80.1045,0 z"
         transform="translate(16.2578,16.502)"
         id="path2898" />
      <path
         style="fill:#ffffff;fill-rule:evenodd;stroke:none"
         d="m 3.0059,13.4023 c -0.2188,3.1319 2.1611,4.4786 3.7265,4.7295 1.7539,0.2813 5.0733,-0.0947 8.1426,-1.0019 1.8477,-0.502 3.7578,-0.9092 3.7578,-3.2569 0,-0.9082 -0.3135,-1.9736 -1.1279,-3.0068 C 15.501,8.2676 10.9912,5.5117 10.1455,3.6328 9.6445,2.5361 11.8369,0.125 12.7451,0.0625 13.7471,0 14.7803,0.501 15.5635,1.0645 c 1.0332,0.6894 2.5049,1.7851 3.2881,2.5996 0.9082,0.8769 -0.626,1.6279 0.7197,3.0058 2.1611,2.1299 4.04,3.5078 4.3535,5.919 0.3447,2.9121 -1.3779,6.6074 -5.7939,8.2978 -2.7549,1.0342 -6.7325,1.7852 -10.1143,1.9112 -3.1631,0.125 -6.9209,0 -7.6104,-3.7276 C 0,16.7852 1.0644,14.248 3.0059,13.4023 z"
         transform="translate(40.6211,53.5166)"
         id="path2900" />
      <path
         style="fill:#ffffff;fill-rule:evenodd;stroke:none"
         d="m 119.468,0 c 20.262,13.7783 33.633,37.0459 33.633,63.3193 0,42.1507 -34.415,76.5357 -76.5658,76.5357 C 34.3848,139.855 0,105.47 0,63.3193 0,37.0459 13.3409,13.8095 33.6329,0 21.0127,11.6171 13.1221,28.2148 13.1221,46.6279 c 0,34.9487 28.4961,63.4461 63.4131,63.4461 34.9488,0 63.4448,-28.4974 63.4448,-63.4461 C 139.98,28.2148 132.057,11.6171 119.468,0 z"
         transform="translate(19.8271,33.3184)"
         id="path2902" />
      <path
         style="fill:#ffffff;fill-rule:evenodd;stroke:none"
         d="M 56.0547,13.5284 C 55.3653,11.8057 54.207,10.084 53.2676,9.1758 51.5762,7.5157 49.2276,7.5469 47.2549,8.3614 c -4.29,1.7539 -8.6426,5.2295 -12.0557,8.2991 -1.1904,-1.159 -3.0068,-3.3519 -4.2285,-4.5726 -2.0351,-2.1299 -3.3193,-1.8476 -4.8222,-0.7197 -1.8477,1.4394 -3.3819,2.6299 -5.1983,4.2263 -1.3779,1.222 -2.9433,3.007 -3.3193,4.666 -0.251,1.191 0.125,2.537 2.7871,3.476 5.9814,2.098 5.542,4.448 3.4756,6.045 -1.3467,1.064 -6.8897,0.657 -10.4278,-0.972 -2.9746,-1.377 -5.1982,-3.851 -4.6035,-7.671 0.7832,-5.105 1.4405,-7.6414 1.6914,-10.2088 C 7.9229,10.7412 6.3887,10.9912 5.167,10.1778 3.4766,9.0498 2.9756,6.3887 3.3194,0 3.0694,1.7539 2.0674,3.5391 1.1279,5.292 0.4385,6.6075 0,8.5811 0.626,10.4912 c 1.4092,4.1963 4.3848,4.6663 6.6084,5.4173 -0.2197,3.319 -1.3154,7.233 -0.8457,10.803 0.376,2.756 2.3486,5.888 5.543,7.14 4.9785,2.005 11.2421,3.477 14.373,-0.062 2.0361,-2.317 2.7871,-4.259 2.7246,-5.887 -0.125,-3.602 -3.6328,-5.512 -5.793,-7.673 -1.3466,-1.378 -0.7207,-3.225 1.2842,-4.571 1.8155,-1.2532 3.0684,-1.1594 4.7285,0.125 1.0645,0.844 2.3487,2.442 3.7266,4.384 -0.376,0.971 -0.5644,2.254 -0.6582,3.038 1.0967,-0.815 1.6602,-1.191 2.4434,-1.536 1.4082,0.596 3.288,0.69 5.3857,0.659 3.1006,-0.032 6.6074,-0.471 8.8623,-0.94 4.1963,-0.909 9.0186,-2.724 7.0459,-7.8601 z m -3.5068,1.9731 c -0.4707,0.876 -2.1924,1.597 -3.7901,2.036 -3.7578,1.032 -8.7363,0.907 -10.8349,0.406 2.0361,-2.16 10.5224,-9.1124 13.0586,-6.3566 1.8164,1.9102 2.0664,2.9434 1.5664,3.9146 z"
         transform="translate(40.3076,85.0195)"
         id="path2904" />
      <path
         style="fill:#ffffff;fill-rule:evenodd;stroke:none"
         d="M 0,1.9726 C 0.2822,2.9433 1.3154,4.165 2.6933,4.415 L 4.667,2.2861 C 3.6025,1.8789 2.3486,0.7509 1.9111,0 L 0,1.9726 z"
         transform="translate(63.418,52.0762)"
         id="path2906" />
      <path
         style="fill:#ffffff;fill-rule:evenodd;stroke:none"
         d="M 0,2.8809 C 2.0674,1.503 4.1963,0 4.1963,2.2862 L 4.9482,30.0313 C 2.4433,32.0664 0.8144,33.8516 0.8144,30.8457 L 0,2.8809 z"
         transform="translate(66.9883,59.0283)"
         id="path2908" />
      <path
         style="fill:#ffffff;fill-rule:evenodd;stroke:none"
         d="M 2.3184,0 C 2.3799,0 3.79,0.1875 4.4785,0.8457 5.9502,5.417 2.4121,9.0498 0,10.1767 2.2861,7.0771 3.0693,2.8183 2.3184,0 z"
         transform="translate(57.8125,80.1348)"
         id="path2910" />
      <path
         style="fill:#ffffff;fill-rule:evenodd;stroke:none"
         d="M 0,4.008 C 0.0313,4.101 0.4698,5.449 1.2208,6.012 5.543,5.135 8.7686,1.847 9.6446,0 5.6055,2.849 2.2227,4.321 0,4.008 z"
         transform="translate(71.4355,114.519)"
         id="path2912" />
      <path
         style="fill:#ffffff;fill-rule:evenodd;stroke:none"
         d="m 3.2881,12.7773 c -0.2822,2.3477 0.251,3.8203 1.1592,4.6035 1.5654,1.4083 4.29,1.5342 6.7949,1.2208 2.5371,-0.2813 9.958,-1.4717 9.958,-4.6036 0,-0.9394 -0.4697,-2.3173 -1.2519,-3.3506 C 17.8809,8.0488 14.0606,5.6367 12.9961,4.0713 12.4639,3.2891 14.5616,0.7519 15.4073,0.4697 16.8789,0 19.791,2.9443 20.8252,4.0088 c 0.9082,0.8769 -0.4697,2.0351 0.8448,3.4443 1.5029,1.5664 2.4433,3.2568 2.7246,5.669 0.4697,3.914 -2.5362,6.6064 -6.3252,8.2353 C 14.3116,22.9541 1.6602,25.5849 0.4385,19.1025 0,16.8164 1.3467,13.6543 3.2881,12.7773 z"
         transform="translate(74.0029,56.9922)"
         id="path2914" />
      <path
         style="fill:#ffffff;fill-rule:evenodd;stroke:none"
         d="m 3.8515,13.3086 c 0.0938,4.917 7.2969,3.0381 10.6787,1.5039 C 17.38,13.5283 21.2,10.4277 17.818,7.9228 15.9394,6.5137 13.998,5.3867 12.0566,4.04 11.2109,3.4131 13.5283,0.125 14.4043,0.0937 15.6894,0 17.85,1.3467 18.758,2.2549 c 0.908,0.9082 -0.69,1.2841 0.938,2.7558 2.475,2.1914 4.009,3.0684 4.291,5.4805 0.564,4.5713 -6.92,8.2978 -10.4275,9.6133 C 9.3632,21.6699 3.9765,22.8916 2.0664,20.9189 0,18.789 1.2529,14.4678 3.8515,13.3086 z"
         transform="translate(83.21,32.0342)"
         id="path2916" />
      <path
         style="fill:#ffffff;fill-rule:evenodd;stroke:none"
         d="M 7.5783,6.2314 C 7.6093,6.1689 8.9873,4.8222 8.8623,3.8828 6.2313,0 1.9413,0.6885 0,1.9414 c 3.3193,0 5.8863,2.0039 7.5783,4.29 z"
         transform="translate(98.6797,24.0176)"
         id="path2918" />
      <path
         style="fill:#ffffff;fill-rule:evenodd;stroke:none"
         d="M 0,1.9727 C 0.25,2.9434 1.3154,4.1963 2.7246,4.4463 L 4.6973,2.3174 C 3.6006,1.8779 2.3486,0.751 1.9102,0 L 0,1.9727 z"
         transform="translate(69.1494,51.4502)"
         id="path2920" />
      <path
         style="fill:#ffffff;fill-rule:evenodd;stroke:none"
         d="M 0,1.8476 C 0.22,2.7558 1.222,3.914 2.506,4.1337 L 4.353,2.1611 C 3.351,1.7539 2.161,0.6884 1.754,0 L 0,1.8476 z"
         transform="translate(120.13,46.4395)"
         id="path2922" />
      <path
         style="fill:#ffffff;fill-rule:evenodd;stroke:none"
         d="m 8.5801,7.2031 c -2.0039,3.0684 -3.0058,4.4776 -3.0683,7.5147 -0.0313,2.3808 2.4423,3.1631 5.292,3.1318 3.0068,0 6.4199,-0.9394 7.6103,-1.8789 0.7822,-0.6572 1.2832,-1.4404 1.2832,-2.0976 0,-1.5352 -2.6924,-1.6602 -3.7265,-2.1612 -3.6006,-1.7539 -0.877,-5.9814 1.1591,-8.0166 1.9102,-1.9101 4.2588,-3.4131 8.0166,-3.5703 2.6309,-0.125 9.0186,1.7227 6.545,5.418 -0.7207,1.0332 -1.253,1.2217 -1.6602,1.2529 -1.127,0.0625 -2.6299,-2.1924 -5.668,-2.3174 -1.4092,-0.0312 -5.2607,1.127 -4.4463,3.2559 0.4063,1.0654 2.9121,1.2217 4.5723,2.0361 0.9072,0.4385 1.5967,1.4092 1.5967,2.4112 0,1.6289 -0.9395,3.3193 -2.2861,4.8222 -3.3819,3.8203 -7.7666,5.919 -12.7764,6.2012 C 6.6075,23.4873 2.6622,21.2627 1.5977,18.0693 0,13.2149 5.167,8.7373 8.5801,7.2031 z"
         transform="translate(56.6855,26.4287)"
         id="path2924" />
      <path
         style="fill:#ffffff;fill-rule:evenodd;stroke:none"
         d="M 1.535,2.4434 C 3.726,1.2217 6.106,0 5.919,2.2862 L 5.011,19.917 c -0.158,2.5987 -0.533,4.8223 -0.094,6.4815 0.783,3.0381 4.697,3.3203 7.14,3.3515 2.629,0.0625 5.824,-0.1884 7.264,-2.0039 1.284,-1.5976 0.69,-3.79 0.815,-5.3554 0.062,-0.7198 4.541,-4.2588 4.29,-0.2813 -0.094,1.4092 -0.094,4.1338 -1.065,6.2002 -2.442,5.167 -9.363,7.2022 -14.28,6.419 C 1.378,33.5391 0,27.9024 0.438,23.7373 L 1.535,2.4434 z"
         transform="translate(109.546,27.9316)"
         id="path2926" />
      <path
         style="fill:#ffffff;fill-rule:evenodd;stroke:none"
         d="m 10.8037,2.879 c 0,0.095 0.501,1.786 -0.2187,2.569 C 5.6368,5.197 1.3467,1.878 0,0 4.9483,2.128 8.3614,3.413 10.8037,2.879 z"
         transform="translate(68.7734,128.643)"
         id="path2928" />
      <path
         style="fill:#ffffff;fill-rule:evenodd;stroke:none"
         d="m 0,1.9726 c 0.2812,1.003 1.3457,2.2237 2.7236,2.4746 L 4.7275,2.3174 C 3.6318,1.9101 2.3476,0.7519 1.9092,0 L 0,1.9726 z"
         transform="translate(77.3545,88.3389)"
         id="path2930" />
      <path
         style="fill:#ffffff;fill-rule:evenodd;stroke:none"
         d="M 0,1.8476 C 0.251,2.7558 1.253,3.915 2.537,4.1338 L 4.385,2.1611 C 3.351,1.7539 2.193,0.7207 1.785,0 L 0,1.8476 z"
         transform="translate(140.986,79.4766)"
         id="path2932" />
      <path
         style="fill:#ffffff;fill-rule:evenodd;stroke:none"
         d="M 0,1.816 C 0.25,2.723 1.252,3.882 2.536,4.101 L 4.384,2.129 C 3.349,1.753 2.191,0.688 1.784,0 L 0,1.816 z"
         transform="translate(110.173,112.766)"
         id="path2934" />
      <path
         style="fill:#ffffff;fill-rule:evenodd;stroke:none"
         d="M 0,1.815 C 0.25,2.724 1.221,3.883 2.536,4.101 L 4.384,2.129 C 3.351,1.753 2.192,0.688 1.785,0 L 0,1.815 z"
         transform="translate(115.496,111.92)"
         id="path2936" />
      <path
         style="fill:#ffffff;fill-rule:evenodd;stroke:none"
         d="M 1.754,4.917 C 1.691,4.8545 0,3.9776 0.032,3.0059 3.507,0.2823 8.799,0 10.772,0.5332 6.732,1.7539 3.664,3.0059 1.754,4.917 z"
         transform="translate(118.972,39.1738)"
         id="path2938" />
      <path
         style="fill:#da0010;fill-rule:evenodd;stroke:none"
         d="M 2.5049,18.35 15.2187,3.225 14.0605,1.847 14.0918,0 l 11.0547,0.031 0.031,1.379 -0.971,1.063 13.905,16.348 1.597,0 0.563,2.129 -10.334,2.662 -0.502,-1.692 0.878,-1.095 -4.697,-5.543 -6.7024,3.507 L 12.6514,15 8.5488,20.01 9.3008,20.825 8.8623,22.704 0,20.543 0.5947,18.383 2.5049,18.35 z m 20.4176,-6.169 -4.0397,-4.728 -3.6016,4.416 3.7276,2.442 3.9137,-2.13 z"
         transform="translate(77.6045,146.429)"
         id="path2940" />
      <path
         style="fill:#da0010;fill-rule:evenodd;stroke:none"
         d="M 2.317,0 C 3.633,0 4.666,1.066 4.666,2.35 4.666,3.633 3.633,4.698 2.317,4.698 1.033,4.698 0,3.633 0,2.35 0,1.066 1.033,0 2.317,0 z"
         transform="translate(123.137,159.205)"
         id="path2942" />
      <path
         style="fill:#da0010;fill-rule:evenodd;stroke:none"
         d="m 2.3487,0 c 1.2841,0 2.3486,1.065 2.3486,2.349 0,1.283 -1.0645,2.348 -2.3486,2.348 C 1.0655,4.697 0,3.632 0,2.349 0,1.065 1.0655,0 2.3487,0 z"
         transform="translate(66.1113,158.83)"
         id="path2944" />
      <path
         style="fill:#da0010;fill-rule:evenodd;stroke:none"
         d="m 0,17.506 6.5459,7.828 1.503,-1.19 -0.0323,-1.535 9.2383,-2.849 -1.0019,9.551 -1.8164,0.345 -1.1895,1.534 7.8916,5.982 1.3145,-1.786 -0.626,-1.659 16.2217,-7.986 2.0039,0.062 0.9707,-2.128 -8.1104,-3.821 -0.8457,1.472 0.251,1.315 -9.1758,4.353 1.2832,-11.868 -3.5693,-2.38 L 9.2071,16.41 12.0254,8.706 13.9668,8.675 15.0313,7.328 8.3614,0 7.1407,1.472 7.4219,4.102 2.9444,16.597 1.3155,16.034 0,17.506 z"
         transform="translate(36.2363,120.719)"
         id="path2946" />
      <path
         style="fill:#da0010;fill-rule:evenodd;stroke:none"
         d="m 19.134,0 -1.002,1.316 0.47,1.628 C 13.246,5.323 9.802,7.703 5.763,12.057 3.101,14.938 1.44,18.1 1.002,22.767 0.752,25.49 0.971,29.374 0,31.566 c 2.943,-0.595 5.105,-0.219 8.33,0.219 5.95,0.814 12.244,-2.537 16.128,-6.701 3.006,-3.257 5.699,-8.08 7.641,-11.743 l 1.44,-0.126 1.002,-1.534 -6.106,-4.321 -1.096,1.596 c 0.25,1.817 -0.345,3.789 -1.442,5.731 -2.253,3.915 -6.951,8.016 -10.365,9.207 -2.316,0.814 -4.54,1.002 -6.105,-0.783 C 6.576,19.948 9.363,14.687 12.715,11.586 15,9.488 20.481,6.419 23.519,5.606 L 24.739,4.258 19.134,0 z"
         transform="translate(126.957,122.41)"
         id="path2948" />
      <path
         style="fill:#ffffff;fill-rule:evenodd;stroke:none"
         d="M 63.7894,7.5156 C 62.1614,2.9434 60.9704,0 59.4994,0.4063 c -0.909,0.2509 -2.224,1.8476 -4.354,4.7285 -0.751,1.0019 -0.562,2.2861 -0.061,3.414 1.596,3.3506 4.227,14.2168 1.033,17.7246 -2.694,2.9747 -8.393,3.3506 -12.746,3.4131 0.062,-0.8144 0.032,-1.5976 -0.157,-2.3799 -0.908,-4.3222 -4.227,-7.6416 -5.886,-7.2968 -2.976,0.6269 -6.107,4.6972 -7.391,7.5468 -1.002,2.1924 2.191,5.0108 3.476,5.6368 1.44,0.7207 3.225,1.2841 5.167,1.6601 -2.877,4.7481 -8.639,6.877 -14.317,7.2637 l 0.475,-32.4414 c 0.408,-3.8203 -2.975,-0.5635 -5.104,1.2529 l 0.306,31.1494 C 16.0517,41.7598 12.2959,40.7656 9.3945,39.833 c 2.1924,3.0479 6.2353,5.6152 10.5869,6.3594 l 0.092,9.3292 c 0.031,2.943 0.657,7.703 6.983,7.609 5.386,-0.062 9.927,-1.721 11.618,-5.01 1.065,-2.098 0.971,-4.854 -0.845,-8.2358 -0.846,-1.6289 -2.913,0.5634 -2.569,1.3467 0.501,1.2841 0.595,2.1291 0.44,3.3191 -0.315,1.973 -1.378,3.476 -6.295,3.476 -5.292,0 -5.262,-1.848 -5.292,-5.6057 l 0.089,-6.1016 c 6.863,-0.706 14.008,-5.5166 17.322,-11.0586 6.263,0.5635 13.34,-0.7519 16.784,-4.7919 1.692,-1.9727 3.132,-6.8575 2.85,-12.0245 2.381,3.4756 4.541,7.7344 5.418,11.8057 1.128,5.1357 0.344,10.6475 -3.727,14.3106 -0.954,0.8476 -2.056,1.8554 -3.437,3.0234 -0.725,-2.375 -1.566,-4.7315 -2.482,-7.0938 -1.753,-4.541 -2.41,-4.2587 -4.853,-2.8496 -1.253,0.752 -2.568,1.8789 -4.228,3.2881 -1.378,1.1895 -1.472,3.2569 -1.315,5.3858 0.208,3.372 0.442,6.6481 0.623,10.0011 -2.833,1.857 -3.968,2.754 -2.816,2.901 1.186,0.146 2.084,0.249 2.963,0.163 0.029,0.692 0.054,1.388 0.075,2.091 0.094,3.727 0.94,8.425 -3.726,9.427 -3.444,0.72 -7.045,0.971 -11.336,1.503 -3.351,0.438 -6.326,2.473 -8.581,4.384 -5.7921,4.823 -9.5196,11.931 -14.0294,12.087 -2.9746,0.126 -6.0742,-2.693 -6.0742,-9.112 -3.6328,5.355 -1.0967,11.023 2.6933,12.902 6.3565,3.069 11.3672,-5.324 15.3433,-10.147 4.072,-4.947 10.209,-4.665 18.352,-5.698 5.793,-0.753 7.483,-2.444 9.081,-4.855 1.503,-2.223 1.942,-5.793 2.035,-9.488 0.036,-1.533 -10e-4,-3.072 -0.067,-4.614 2.416,-1.456 4.633,-2.856 6.637,-4.212 0.492,1.671 0.924,3.394 1.259,5.037 0.94,4.76 0.815,8.33 -2.255,12.244 -3.789,4.792 -10.49,7.923 -17.379,10.898 7.139,1.346 16.503,-3.351 20.543,-9.927 1.69,-2.725 2.16,-6.107 2.097,-9.552 -0.09,-3.685 -0.62,-7.22 -1.447,-10.6835 6.011,-4.416 9.64,-8.4532 10.623,-12.709 2.224,-9.7383 -4.134,-22.3584 -7.359,-31.4395 z M 34.7604,25.96 c 0.625,-0.9395 1.753,-1.8789 2.568,-1.7852 1.346,0.0938 2.912,2.6934 2.881,5.4492 -3.226,-0.2509 -6.796,-1.5351 -5.449,-3.664 z m 16.105,27.9546 c -0.137,-2.4976 -0.254,-4.9878 -0.166,-7.4429 0.062,-1.2529 0.376,-2.0986 1.471,-2.7246 1.163,-0.6739 2.839,2.2158 4.314,6.1953 -1.562,1.1992 -3.405,2.5234 -5.619,3.9722 z"
         transform="translate(81.3936,47.1914)"
         id="path2950" />
    </g>
  </g>
</svg>
